<svg xmlns="http://www.w3.org/2000/svg" width="21.152" height="22.45" viewBox="0 0 21.152 22.45">
  <g id="medicine" transform="translate(-15.201 0.5)">
    <g id="Group_2550" data-name="Group 2550" transform="translate(20.686 11.34)">
      <g id="Group_2549" data-name="Group 2549">
        <path id="Path_6089" data-name="Path 6089" d="M128.494,274.23h-.933V273.3a.311.311,0,1,0-.622,0v.933h-.933a.311.311,0,1,0,0,.622h.933v.933a.311.311,0,1,0,.622,0v-.933h.933a.311.311,0,1,0,0-.622Z" transform="translate(-125.696 -272.986)" fill="#20cad1" stroke="#20cad1" stroke-width="1"/>
      </g>
    </g>
    <g id="Group_2552" data-name="Group 2552" transform="translate(15.701)">
      <g id="Group_2551" data-name="Group 2551">
        <path id="Path_6090" data-name="Path 6090" d="M35.221,13.376a3.321,3.321,0,0,0-4.539-1.216l-1.687.974V9.526a2.092,2.092,0,0,0-.415-1.246L26.5,5.511V4.332a1.248,1.248,0,0,0,.831-1.175V1.246A1.248,1.248,0,0,0,26.086,0H18.609a1.248,1.248,0,0,0-1.246,1.246V3.157a1.248,1.248,0,0,0,.831,1.175V5.511L16.116,8.28A2.092,2.092,0,0,0,15.7,9.526v8.045a2.079,2.079,0,0,0,2.077,2.077h6.676a3.32,3.32,0,0,0,4.514,1.175L34,17.915A3.326,3.326,0,0,0,35.221,13.376ZM18.193,1.246a.416.416,0,0,1,.415-.415h7.477a.416.416,0,0,1,.415.415V3.157a.416.416,0,0,1-.415.415H18.609a.416.416,0,0,1-.415-.415V1.246ZM16.781,8.779l2.16-2.88c.054-.072.083-.159.083-1.5h6.646v.831l.208.831,2.035,2.714a1.257,1.257,0,0,1,.241.61H16.541A1.256,1.256,0,0,1,16.781,8.779Zm1,10.039a1.248,1.248,0,0,1-1.246-1.246v-.42h7.547a3.329,3.329,0,0,0,.02,1.666H17.778ZM24.4,16.325H16.532V10.219H28.163v3.395l-2.518,1.454A3.3,3.3,0,0,0,24.4,16.325ZM28.553,20.1a2.492,2.492,0,1,1-2.492-4.317l2.255-1.3L30.807,18.8ZM33.589,17.2l-2.062,1.191L29.035,14.07l2.062-1.19A2.492,2.492,0,1,1,33.589,17.2Z" transform="translate(-15.701)" stroke="#20cad1" stroke-width="1"/>
      </g>
    </g>
  </g>
</svg>
