<svg xmlns="http://www.w3.org/2000/svg" width="23.932" height="35.73" viewBox="0 0 23.932 35.73">
  <path id="oversized-wine-glass-2" d="M107.96,36.864V26.628a11.986,11.986,0,0,0,10.68-11.9,22.093,22.093,0,0,0-1.71-7.772A1.521,1.521,0,0,0,115.517,6h-17.7a1.52,1.52,0,0,0-1.412.957,21.637,21.637,0,0,0-1.7,8.012h0s0,.005,0,.007a11.955,11.955,0,0,0,10.666,11.651V36.864c-4.067.333-7.185,2.141-7.185,3.049,0,1,3.795,1.817,8.477,1.817s8.477-.812,8.477-1.817C115.146,39,112.027,37.2,107.96,36.864ZM98.55,8.584h16.236a18.881,18.881,0,0,1,1.27,6.145,9.418,9.418,0,0,1-.091,1.236,4.265,4.265,0,0,0-2.543.092c-2.346.835-3.866,1.37-6.252.434s-3.872-5.161-6.717-4.839a7.39,7.39,0,0,0-2.976,1.016A21.976,21.976,0,0,1,98.55,8.584Z" transform="translate(-94.707 -6)" fill="#20cad1"/>
</svg>
