<svg xmlns="http://www.w3.org/2000/svg" width="35.141" height="36.448" viewBox="0 0 35.141 36.448">
  <path id="Path_6390" data-name="Path 6390" d="M-1922.173,523.89V500.166c.034-.252.057-.506.1-.756a4.722,4.722,0,0,1,4.734-3.922c.59,0,1.18,0,1.8,0,0-.418-.016-.8.006-1.179a2.151,2.151,0,0,1,.137-.71,1.3,1.3,0,0,1,1.438-.737,1.312,1.312,0,0,1,1.062,1.257c.012.449,0,.9,0,1.342h15.894v-.371c0-.291,0-.581,0-.872a1.32,1.32,0,0,1,1.278-1.377,1.325,1.325,0,0,1,1.362,1.3c.022.437,0,.876,0,1.349.679,0,1.315,0,1.953,0a4.375,4.375,0,0,1,2.229.6,4.686,4.686,0,0,1,2.432,4.3q0,7.239,0,14.478c0,2.942.005,5.884,0,8.826a4.743,4.743,0,0,1-3.485,4.7c-.221.061-.445.113-.667.169h-26.1a1.509,1.509,0,0,0-.19-.065,4.675,4.675,0,0,1-3.824-3.551A9.02,9.02,0,0,1-1922.173,523.89Zm27.829-25.735c0,.432,0,.827,0,1.222a1.33,1.33,0,0,1-.448,1.058,1.247,1.247,0,0,1-1.4.231,1.242,1.242,0,0,1-.8-1.167c-.014-.448,0-.9,0-1.331h-15.9c0,.471.013.913,0,1.353a1.305,1.305,0,0,1-1.635,1.211,1.328,1.328,0,0,1-1-1.342c-.008-.412,0-.825,0-1.246-.732,0-1.407-.025-2.079.012a1.972,1.972,0,0,0-.819.26,2.107,2.107,0,0,0-1.073,2.01q.007,7.187,0,14.373,0,4.43,0,8.861a2.1,2.1,0,0,0,2.271,2.256q12.281,0,24.563,0a2.948,2.948,0,0,0,.59-.041,2.1,2.1,0,0,0,1.7-2.235q0-11.617,0-23.235a3.588,3.588,0,0,0-.029-.452,2.011,2.011,0,0,0-1.742-1.783C-1892.86,498.1-1893.583,498.155-1894.344,498.155Z" transform="translate(1922.523 -492.467)" fill="#20cad1" stroke="#20cad1" stroke-width="0.7"/>
</svg>
