<svg xmlns="http://www.w3.org/2000/svg" width="10.915" height="14.456" viewBox="0 0 10.915 14.456">
  <g id="Group_3021" data-name="Group 3021" transform="translate(-133.85 -182.694)">
    <g id="Group_2319" data-name="Group 2319" transform="translate(134 182.844)">
      <path id="Path_5847" data-name="Path 5847" d="M75.369,6.55a9.638,9.638,0,0,0,.452,1.884A13.069,13.069,0,0,0,77.1,11.1a17.439,17.439,0,0,0,2.527,3.128,1.395,1.395,0,0,0,1.965,0A17.439,17.439,0,0,0,84.122,11.1a13.071,13.071,0,0,0,1.283-2.665,9.638,9.638,0,0,0,.451-1.884A5.305,5.305,0,0,0,82.674.917a5.293,5.293,0,0,0-7.356,4.862A5.266,5.266,0,0,0,75.369,6.55Zm5.513,6.958a.381.381,0,0,1-.537,0c-4.157-4.125-4.013-7.71-4.013-7.713h0a4.281,4.281,0,1,1,8.562,0h0S85.038,9.383,80.881,13.508Z" transform="translate(-75.305 -0.488)" fill="#20cad1" stroke="#20cad1" stroke-width="0.3"/>
      <path id="Path_5848" data-name="Path 5848" d="M80.124,14.156a1.4,1.4,0,0,1-.991-.408A17.452,17.452,0,0,1,76.6,10.617,13.082,13.082,0,0,1,75.32,7.949a9.653,9.653,0,0,1-.452-1.886A5.317,5.317,0,0,1,78.058.417,5.305,5.305,0,0,1,85.43,5.291a5.276,5.276,0,0,1-.051.773,9.65,9.65,0,0,1-.452,1.886,13.08,13.08,0,0,1-1.284,2.668,17.451,17.451,0,0,1-2.529,3.131A1.4,1.4,0,0,1,80.124,14.156Zm0-14.132a5.279,5.279,0,0,0-5.283,5.267,5.253,5.253,0,0,0,.05.769,9.626,9.626,0,0,0,.451,1.881A13.057,13.057,0,0,0,76.624,10.6a17.427,17.427,0,0,0,2.525,3.126,1.383,1.383,0,0,0,1.948,0A17.428,17.428,0,0,0,83.623,10.6a13.058,13.058,0,0,0,1.282-2.663,9.627,9.627,0,0,0,.451-1.881A5.294,5.294,0,0,0,82.18.439,5.252,5.252,0,0,0,80.124.024Zm0,13.118a.39.39,0,0,1-.277-.114c-4.139-4.107-4.018-7.686-4.016-7.722a4.293,4.293,0,0,1,8.586,0,6.979,6.979,0,0,1-.448,2.316,12.071,12.071,0,0,1-1.186,2.459A16.439,16.439,0,0,1,80.4,13.028.391.391,0,0,1,80.124,13.142Zm0-12.1a4.274,4.274,0,0,0-4.269,4.269A7.058,7.058,0,0,0,76.3,7.617a12.05,12.05,0,0,0,1.184,2.454,16.418,16.418,0,0,0,2.378,2.94.369.369,0,0,0,.52,0,16.416,16.416,0,0,0,2.379-2.943,12.047,12.047,0,0,0,1.183-2.455,7.313,7.313,0,0,0,.447-2.307A4.274,4.274,0,0,0,80.124,1.037Z" transform="translate(-74.816 0)" fill="#20cad1" stroke="#20cad1" stroke-width="0.3"/>
    </g>
    <g id="Group_2320" data-name="Group 2320" transform="translate(135.976 184.682)">
      <path id="Path_5849" data-name="Path 5849" d="M164.483,79.168a3.312,3.312,0,1,0,.711,1.055A3.307,3.307,0,0,0,164.483,79.168Zm-2.347,4.653a2.306,2.306,0,1,1,2.306-2.306A2.306,2.306,0,0,1,162.135,83.821Z" transform="translate(-158.804 -78.184)" fill="#20cad1" stroke="#20cad1" stroke-width="0.3"/>
      <path id="Path_5850" data-name="Path 5850" d="M161.648,84.36a3.324,3.324,0,1,1,1.3-.262A3.312,3.312,0,0,1,161.648,84.36Zm0-6.639a3.3,3.3,0,1,0,1.288.26A3.288,3.288,0,0,0,161.648,77.722Zm0,5.625a2.317,2.317,0,1,1,2.317-2.317A2.32,2.32,0,0,1,161.648,83.347Zm0-4.611a2.294,2.294,0,1,0,2.294,2.294A2.3,2.3,0,0,0,161.648,78.735Z" transform="translate(-158.317 -77.698)" fill="#20cad1" stroke="#20cad1" stroke-width="0.3"/>
    </g>
  </g>
</svg>
