<svg xmlns="http://www.w3.org/2000/svg" width="40.093" height="30.32" viewBox="0 0 40.093 30.32">
  <path id="envelope" d="M35.428,59.882H3.665A3.669,3.669,0,0,0,0,63.547v21.99A3.669,3.669,0,0,0,3.665,89.2H35.428a3.669,3.669,0,0,0,3.665-3.665V63.547A3.669,3.669,0,0,0,35.428,59.882Zm0,2.443a1.214,1.214,0,0,1,.468.095L19.547,76.59,3.2,62.42a1.216,1.216,0,0,1,.468-.095Zm0,24.433H3.665a1.223,1.223,0,0,1-1.222-1.222V65l16.3,14.129a1.223,1.223,0,0,0,1.6,0L36.65,65V85.537A1.223,1.223,0,0,1,35.428,86.758Z" transform="translate(0.5 -59.382)" fill="#20cad1" stroke="#20cad1" stroke-width="1"/>
</svg>
