<svg xmlns="http://www.w3.org/2000/svg" width="31.286" height="24.084" viewBox="0 0 31.286 24.084">
  <g id="Group_8086" data-name="Group 8086" transform="translate(-584 -465.197)">
    <path id="Path_6480" data-name="Path 6480" d="M-58.372,508.327a1.363,1.363,0,0,1-1.521.984c-.679-.031-1.361,0-2.042-.007a1.21,1.21,0,0,1-1.277-1.222,1.209,1.209,0,0,1,1.278-1.221c.681,0,1.363.023,2.042-.007a1.36,1.36,0,0,1,1.52.984Z" transform="translate(673.658 -27.243)" fill="#20cad1"/>
    <path id="Path_6481" data-name="Path 6481" d="M-496,404.282a1.39,1.39,0,0,1,1.524-.986c2.586.023,5.173.009,7.76.009h.386a8.408,8.408,0,0,1-2.306-7.608,8.162,8.162,0,0,1,3.217-5.13,8.437,8.437,0,0,1,11.132.885,8.482,8.482,0,0,1-.1,11.853h.359c2.6,0,5.194.014,7.79-.009a1.39,1.39,0,0,1,1.525.986v.489a1.4,1.4,0,0,1-1.524.986q-14.119-.019-28.239,0a1.4,1.4,0,0,1-1.523-.986Zm9.649-6.954a6.025,6.025,0,0,0,6.106,5.986,6.028,6.028,0,0,0,5.881-6,5.987,5.987,0,0,0-6-5.995A5.988,5.988,0,0,0-486.351,397.328Z" transform="translate(1080 83.524)" fill="#20cad1"/>
    <path id="Path_6482" data-name="Path 6482" d="M-258.672,271a1.36,1.36,0,0,1,.984,1.52c-.031.679,0,1.361-.007,2.042a1.211,1.211,0,0,1-1.222,1.278,1.211,1.211,0,0,1-1.221-1.278c0-.681.023-1.363-.007-2.042a1.359,1.359,0,0,1,.984-1.52Z" transform="translate(858.559 194.197)" fill="#20cad1"/>
    <path id="Path_6483" data-name="Path 6483" d="M-496,507.838a1.359,1.359,0,0,1,1.52-.984c.679.03,1.361,0,2.042.007a1.21,1.21,0,0,1,1.278,1.221,1.211,1.211,0,0,1-1.277,1.222c-.681,0-1.363-.023-2.042.007a1.361,1.361,0,0,1-1.521-.984Z" transform="translate(1080 -27.243)" fill="#20cad1"/>
    <path id="Path_6484" data-name="Path 6484" d="M-422.914,342.743a1.289,1.289,0,0,1-.678,1.218,1.083,1.083,0,0,1-1.287-.12c-.667-.61-1.311-1.251-1.922-1.918a1.163,1.163,0,0,1,.09-1.607,1.171,1.171,0,0,1,1.631-.076c.65.6,1.273,1.232,1.873,1.881A1.971,1.971,0,0,1-422.914,342.743Z" transform="translate(1015.293 129.465)" fill="#20cad1"/>
    <path id="Path_6485" data-name="Path 6485" d="M-118.27,339.851a1.3,1.3,0,0,1,1.22.705,1.092,1.092,0,0,1-.146,1.285c-.607.657-1.238,1.295-1.9,1.9a1.167,1.167,0,0,1-1.629-.105,1.179,1.179,0,0,1-.042-1.634c.59-.631,1.2-1.245,1.839-1.829A2.187,2.187,0,0,1-118.27,339.851Z" transform="translate(727.986 129.553)" fill="#20cad1"/>
  </g>
</svg>
