<svg xmlns="http://www.w3.org/2000/svg" width="37.919" height="36.5" viewBox="0 0 37.919 36.5">
  <g id="Group_3198" data-name="Group 3198" transform="translate(-1563.004 -772.76)">
    <g id="Group_3197" data-name="Group 3197">
      <g id="Group_3196" data-name="Group 3196">
        <g id="Group_2522" data-name="Group 2522" transform="translate(1563.504 775.564)">
          <g id="Group_2521" data-name="Group 2521" transform="translate(0 0)">
            <path id="Path_5903" data-name="Path 5903" d="M58.967,19.932H53.961v2.542H57.4v4.787c0,4.2-4.211,7.626-9.386,7.626s-9.386-3.421-9.386-7.626V22.474h3.337V19.932h-4.9A1.441,1.441,0,0,0,35.5,21.2v6.059c0,5.607,5.614,10.168,12.515,10.168s12.515-4.561,12.515-10.168V21.2A1.441,1.441,0,0,0,58.967,19.932Z" transform="translate(-35.501 -19.932)" fill="#20cad1" stroke="#20cad1" stroke-width="1"/>
          </g>
        </g>
        <g id="Group_2524" data-name="Group 2524" transform="translate(1574.297 791.549)">
          <g id="Group_2523" data-name="Group 2523">
            <path id="Path_5904" data-name="Path 5904" d="M183.207,261.4v6.02c0,3.506-3.509,6.359-7.822,6.359s-7.822-2.853-7.822-6.359v-8.309h-3.129v8.309c0,4.909,4.912,8.9,10.951,8.9s10.951-3.994,10.951-8.9V261.4Z" transform="translate(-164.434 -259.114)" fill="#20cad1" stroke="#20cad1" stroke-width="1"/>
          </g>
        </g>
        <g id="Group_2526" data-name="Group 2526" transform="translate(1588.846 784.249)">
          <g id="Group_2525" data-name="Group 2525">
            <path id="Path_5905" data-name="Path 5905" d="M344,171.912a5.788,5.788,0,1,0,5.788,5.788A5.795,5.795,0,0,0,344,171.912Zm0,8.448a2.659,2.659,0,1,1,2.659-2.659A2.663,2.663,0,0,1,344,180.36Z" transform="translate(-338.216 -171.912)" fill="#20cad1" stroke="#20cad1" stroke-width="1"/>
          </g>
        </g>
        <g id="Group_2528" data-name="Group 2528" transform="translate(1568.354 773.26)">
          <g id="Group_2527" data-name="Group 2527">
            <path id="Path_5906" data-name="Path 5906" d="M94.992,0a1.564,1.564,0,0,0-1.564,1.564V4.9a1.564,1.564,0,1,0,3.129,0V1.564A1.564,1.564,0,0,0,94.992,0Z" transform="translate(-93.428)" fill="#20cad1" stroke="#20cad1" stroke-width="1"/>
          </g>
        </g>
        <g id="Group_2530" data-name="Group 2530" transform="translate(1580.451 773.26)">
          <g id="Group_2529" data-name="Group 2529">
            <path id="Path_5907" data-name="Path 5907" d="M239.5,0a1.564,1.564,0,0,0-1.564,1.564V4.9a1.564,1.564,0,1,0,3.129,0V1.564A1.564,1.564,0,0,0,239.5,0Z" transform="translate(-237.934)" fill="#20cad1" stroke="#20cad1" stroke-width="1"/>
          </g>
        </g>
      </g>
    </g>
  </g>
</svg>
