<svg xmlns="http://www.w3.org/2000/svg" width="33.309" height="35.73" viewBox="0 0 33.309 35.73">
  <g id="Group_3215" data-name="Group 3215" transform="translate(21268.496 169.601)">
    <g id="Group_3214" data-name="Group 3214">
      <g id="Group_3213" data-name="Group 3213">
        <path id="Path_5914" data-name="Path 5914" d="M186.069,361.112h1.173V349.258h20.209v14.235H193.529a5.45,5.45,0,0,1-1.076,7.141h14.219a1.818,1.818,0,0,0,1.992-1.976c0-6.984-.033-13.967.016-20.95a5.58,5.58,0,0,0-4.55-5.564c-.061-.01-.119-.031-.211-.056v-1.154H190.838v1.129c-.412.117-.8.2-1.167.337a5.444,5.444,0,0,0-3.6,5.2q.007,6.5,0,13Z" transform="translate(-21443.867 -504.506)" fill="#20cad1"/>
        <path id="Path_5915" data-name="Path 5915" d="M214.5,305.56h6.351a1.8,1.8,0,0,0,1.95-1.937c0-.347.006-.693,0-1.04a1.773,1.773,0,0,0-1.771-1.777q-6.555-.011-13.11,0a1.775,1.775,0,0,0-1.765,1.783c-.006.359,0,.718,0,1.077a1.793,1.793,0,0,0,1.884,1.892Q211.265,305.564,214.5,305.56Z" transform="translate(-21460.973 -470.402)" fill="#20cad1"/>
        <path id="Path_5916" data-name="Path 5916" d="M362.455,484.8c-1.636,0-3.253-.119-4.845.03a4.025,4.025,0,0,0-3.455,4.067,4.159,4.159,0,0,0,3.457,4.092,2.448,2.448,0,0,0,.366.054c1.484,0,2.967,0,4.477,0Z" transform="translate(-21622.65 -626.931)" fill="#20cad1"/>
        <path id="Path_5917" data-name="Path 5917" d="M290.067,492.91c1.636,0,3.252.117,4.845-.03a4.03,4.03,0,0,0,3.455-4.031,4.168,4.168,0,0,0-3.42-4.127,2.6,2.6,0,0,0-.4-.058c-1.484,0-2.967,0-4.477,0Z" transform="translate(-21549.027 -626.849)" fill="#20cad1"/>
        <path id="Path_5918" data-name="Path 5918" d="M236.658,419.222c.77,0,1.487,0,2.2,0,.562,0,.765-.2.768-.755q0-1.04,0-2.08c0-.53-.209-.73-.749-.732-.728,0-1.455,0-2.224,0,0-.744,0-1.458,0-2.172,0-.611-.188-.8-.8-.8q-.984,0-1.968,0c-.613,0-.8.188-.8.791,0,.715,0,1.429,0,2.179-.75,0-1.464,0-2.178,0-.6,0-.791.194-.792.8,0,.681,0,1.362,0,2.043,0,.506.217.718.727.723.718.007,1.436.007,2.154.01a.693.693,0,0,1,.089.026v1.748c0,1.139.049,1.187,1.191,1.187.557,0,1.114,0,1.671,0,.483,0,.7-.223.708-.7C236.662,420.747,236.658,420.007,236.658,419.222Z" transform="translate(-21481.371 -565.599)" fill="#20cad1"/>
      </g>
    </g>
  </g>
</svg>
