<svg xmlns="http://www.w3.org/2000/svg" width="30.092" height="27.868" viewBox="0 0 30.092 27.868">
  <g id="Group_3238" data-name="Group 3238" transform="translate(-1.543 -1.636)">
    <path id="Path_6471" data-name="Path 6471" d="M-832.155,243.211a1.308,1.308,0,0,1,.947,1.462c-.029.654,0,1.309-.007,1.964a1.165,1.165,0,0,1-1.175,1.229,1.164,1.164,0,0,1-1.174-1.229c0-.655.022-1.311-.007-1.964a1.308,1.308,0,0,1,.947-1.462Z" transform="translate(848.979 -241.575)" fill="#20cad1"/>
    <path id="Path_6472" data-name="Path 6472" d="M-1051,461.586a1.307,1.307,0,0,1,1.462-.946c.653.029,1.309,0,1.964.007a1.163,1.163,0,0,1,1.229,1.174,1.164,1.164,0,0,1-1.228,1.175c-.655,0-1.311-.022-1.964.007a1.309,1.309,0,0,1-1.463-.947Z" transform="translate(1052.543 -445.138)" fill="#20cad1"/>
    <path id="Path_6473" data-name="Path 6473" d="M-647.367,462.056a1.311,1.311,0,0,1-1.463.947c-.654-.03-1.309,0-1.964-.007a1.164,1.164,0,0,1-1.228-1.175,1.163,1.163,0,0,1,1.229-1.174c.655,0,1.311.022,1.964-.007a1.308,1.308,0,0,1,1.462.947Z" transform="translate(679.002 -445.138)" fill="#20cad1"/>
    <path id="Path_6474" data-name="Path 6474" d="M-983.457,309.461a1.239,1.239,0,0,1-.652,1.171,1.042,1.042,0,0,1-1.238-.115c-.642-.587-1.261-1.2-1.849-1.845a1.119,1.119,0,0,1,.086-1.546,1.126,1.126,0,0,1,1.569-.073c.625.577,1.224,1.185,1.8,1.809A1.894,1.894,0,0,1-983.457,309.461Z" transform="translate(993.059 -301.081)" fill="#20cad1"/>
    <path id="Path_6475" data-name="Path 6475" d="M-702.668,306.683a1.255,1.255,0,0,1,1.173.679,1.05,1.05,0,0,1-.141,1.236c-.584.632-1.191,1.246-1.826,1.826a1.122,1.122,0,0,1-1.567-.1,1.134,1.134,0,0,1-.041-1.572c.568-.607,1.156-1.2,1.769-1.76A2.1,2.1,0,0,1-702.668,306.683Z" transform="translate(728.945 -301)" fill="#20cad1"/>
    <path id="Path_6476" data-name="Path 6476" d="M-932.108,383.784A8.9,8.9,0,0,1-941,374.892,8.9,8.9,0,0,1-932.108,366a8.9,8.9,0,0,1,8.892,8.892A8.9,8.9,0,0,1-932.108,383.784Zm0-15.467a6.582,6.582,0,0,0-6.575,6.575,6.582,6.582,0,0,0,6.575,6.575,6.582,6.582,0,0,0,6.575-6.575A6.582,6.582,0,0,0-932.108,368.317Z" transform="translate(948.732 -357.369)" fill="#20cad1"/>
    <path id="Path_6478" data-name="Path 6478" d="M-983.457,618.623a1.239,1.239,0,0,0-.652-1.171,1.042,1.042,0,0,0-1.238.115c-.642.587-1.261,1.2-1.849,1.845a1.119,1.119,0,0,0,.086,1.546,1.126,1.126,0,0,0,1.569.073c.625-.577,1.224-1.185,1.8-1.809A1.894,1.894,0,0,0-983.457,618.623Z" transform="translate(993.059 -591.816)" fill="#20cad1"/>
    <path id="Path_6479" data-name="Path 6479" d="M-702.668,621.387a1.255,1.255,0,0,0,1.173-.679,1.05,1.05,0,0,0-.141-1.236c-.584-.632-1.191-1.246-1.826-1.826a1.122,1.122,0,0,0-1.567.1,1.134,1.134,0,0,0-.041,1.572c.568.607,1.156,1.2,1.769,1.76A2.1,2.1,0,0,0-702.668,621.387Z" transform="translate(728.945 -591.883)" fill="#20cad1"/>
  </g>
</svg>
