<svg xmlns="http://www.w3.org/2000/svg" width="39.826" height="35.124" viewBox="0 0 39.826 35.124">
  <g id="Group_2970" data-name="Group 2970" transform="translate(1.679 0.5)">
    <g id="Group_2969" data-name="Group 2969" transform="translate(0 0)">
      <path id="Path_5908" data-name="Path 5908" d="M35.186,0H1.062a1.062,1.062,0,0,0,0,2.124H5.381V8.637A2.124,2.124,0,0,0,7.5,10.761a2.074,2.074,0,0,0,1.239-.445L13.125,14.7a1.062,1.062,0,0,0,1.5-1.5l-4.87-4.87a1,1,0,0,0-.129-.085V2.124H16V8.637a2.093,2.093,0,0,0,1.062,1.8v3.511a1.062,1.062,0,0,0,2.124,0V10.436a2.093,2.093,0,0,0,1.062-1.8V2.124h6.372V8.241a1,1,0,0,0-.129.085l-4.87,4.87a1.062,1.062,0,0,0,1.5,1.5L27.5,10.316a2.075,2.075,0,0,0,1.239.445,2.124,2.124,0,0,0,2.124-2.124V2.124h4.319a1.062,1.062,0,0,0,0-2.124Z" fill="#20cad1" stroke="#20cad1" stroke-width="1"/>
      <path id="Path_5909" data-name="Path 5909" d="M187.372,426.248v-2.124h3.186a1.061,1.061,0,0,0,1.062-1.062V422H181v1.062a1.061,1.061,0,0,0,1.062,1.062h3.186v2.124Z" transform="translate(-168.186 -392.124)" fill="#20cad1" stroke="#20cad1" stroke-width="1"/>
      <path id="Path_5911" data-name="Path 5911" d="M165.867,246.248v-3.186A1.061,1.061,0,0,0,164.805,242H152.062A1.061,1.061,0,0,0,151,243.062v2.671l.516.515h1.607v-2.124h4.248v2.124H159.5v-2.124h4.248v2.124Z" transform="translate(-140.31 -224.867)" fill="#20cad1" stroke="#20cad1" stroke-width="1"/>
      <path id="Path_5913" data-name="Path 5913" d="M1.713,25.865l8.458,8.4H36.711" transform="translate(-0.564 -8.505)" fill="none" stroke="#20cad1" stroke-linecap="round" stroke-linejoin="round" stroke-width="4"/>
    </g>
  </g>
</svg>
