<svg id="Group_2543" data-name="Group 2543" xmlns="http://www.w3.org/2000/svg" width="23.65" height="35.73" viewBox="0 0 23.65 35.73">
  <g id="Group_2544" data-name="Group 2544" transform="translate(0 0)">
    <g id="Group_2542" data-name="Group 2542">
      <g id="ekg-monitor">
        <path id="Union_71" data-name="Union 71" d="M11.984,31.181a12.727,12.727,0,0,1-.579-1.9l3.709-1.55-.661-1.1L11.18,27.994a12.246,12.246,0,0,1-.094-1.433,12.435,12.435,0,0,1,.9-4.62l.543-1.362-1.4-.39-.543,1.361a14,14,0,0,0-.586,1.889L7.772,22.326l-.761,1.059,2.736,1.372a13.3,13.3,0,0,0-.138,1.8,13.479,13.479,0,0,0,.972,5.011l1.588,3.983-2.1-.977C3.857,31.695,0,26.217,0,20.28a6.667,6.667,0,0,1,.356-2.119l.975.2a7.9,7.9,0,0,0,1.616.166c3.674,0,6.662-2.5,6.662-5.568v-.609H11.4l.505.736a11.66,11.66,0,0,0,7.018,4.6l4.731,1.13v.538c0,6.349-3.426,12.241-9.4,16.165a1.765,1.765,0,0,1-.454.207ZM20.192,16.71a4.414,4.414,0,0,1-.237-1.413V13.59H18.478V15.3a5.512,5.512,0,0,0,.094.993,11.713,11.713,0,0,1-1.185-.433A4.447,4.447,0,0,1,17,14.062V12.354H15.521v1.707a5.558,5.558,0,0,0,.065.794,9.274,9.274,0,0,1-2.4-2.377l-.436-.639.567-.474A6.666,6.666,0,0,1,17.6,9.883c3.338,0,6.054,2.27,6.054,5.061v2.592Zm-18.5.458L.878,17A8.6,8.6,0,0,1,4.6,13.484a10.745,10.745,0,0,1,3.527-1.047v.526c0,2.39-2.325,4.333-5.184,4.333A6.174,6.174,0,0,1,1.689,17.167ZM.177,5.678A1.086,1.086,0,0,1,0,5.092V4.325a.688.688,0,0,1,.739-.618.8.8,0,0,1,.591.247l3.1,3.6V.618A.688.688,0,0,1,5.174,0a.688.688,0,0,1,.739.618V4.075a8.194,8.194,0,0,0,3.142,6.272,8.331,8.331,0,0,1-.612.818,12.566,12.566,0,0,0-4.075,1.017Zm10.054,5.441a8.733,8.733,0,0,0,1.594-4.942V2.113a6.515,6.515,0,0,0,2.218.358,6.509,6.509,0,0,0,2.217-.358v3.3a6.077,6.077,0,0,0,.974,3.253,8.212,8.212,0,0,0-4.964,1.829l-.75.627ZM11.825.618c0-.342.993-.618,2.218-.618S16.26.276,16.26.618s-.993.618-2.217.618S11.825.959,11.825.618Z" fill="#20cad1"/>
      </g>
    </g>
  </g>
</svg>
