<svg xmlns="http://www.w3.org/2000/svg" width="36.677" height="36.733" viewBox="0 0 36.677 36.733">
  <g id="Group_27" data-name="Group 27" transform="translate(0.498 0.503)">
    <path id="Path_3921" data-name="Path 3921" d="M28.555,47.473A3.514,3.514,0,0,0,26.006,46.3a3.634,3.634,0,0,0-2.579,1.161l-2.383,2.375c-.2-.106-.392-.2-.581-.3-.271-.136-.528-.264-.747-.4a25.9,25.9,0,0,1-6.206-5.656,15.28,15.28,0,0,1-2.036-3.212c.618-.566,1.191-1.154,1.749-1.719.211-.211.422-.43.633-.641a3.46,3.46,0,0,0,0-5.218L11.8,30.634c-.234-.234-.475-.475-.7-.716-.452-.468-.928-.95-1.418-1.4a3.569,3.569,0,0,0-2.526-1.109,3.694,3.694,0,0,0-2.564,1.109l-.015.015L2.012,31.116A5.517,5.517,0,0,0,.376,34.623a13.22,13.22,0,0,0,.965,5.6,32.47,32.47,0,0,0,5.769,9.622,35.486,35.486,0,0,0,11.816,9.253,18.41,18.41,0,0,0,6.636,1.961c.158.008.324.015.475.015a5.682,5.682,0,0,0,4.351-1.87c.008-.015.023-.023.03-.038a17.143,17.143,0,0,1,1.32-1.365c.324-.309.656-.633.98-.973a3.762,3.762,0,0,0,1.139-2.609A3.624,3.624,0,0,0,32.7,51.628Zm2.7,7.941c-.008,0-.008.008,0,0-.294.317-.6.6-.92.92a19.832,19.832,0,0,0-1.455,1.508,3.635,3.635,0,0,1-2.835,1.2c-.113,0-.234,0-.347-.008a16.354,16.354,0,0,1-5.882-1.765,33.5,33.5,0,0,1-11.13-8.717,30.616,30.616,0,0,1-5.429-9.042,10.768,10.768,0,0,1-.845-4.721,3.462,3.462,0,0,1,1.041-2.24l2.571-2.572a1.714,1.714,0,0,1,1.146-.535,1.613,1.613,0,0,1,1.1.528l.023.023c.46.43.9.875,1.357,1.35.234.241.475.483.716.731l2.059,2.059a1.439,1.439,0,0,1,0,2.338c-.219.219-.43.437-.649.649-.633.649-1.237,1.252-1.893,1.84-.015.015-.03.023-.038.038a1.538,1.538,0,0,0-.392,1.712l.023.068a16.528,16.528,0,0,0,2.436,3.974l.008.008a27.677,27.677,0,0,0,6.7,6.093,10.288,10.288,0,0,0,.928.505c.271.136.528.264.747.4.03.015.06.038.09.053a1.634,1.634,0,0,0,.747.189,1.612,1.612,0,0,0,1.146-.52L24.853,48.9a1.706,1.706,0,0,1,1.139-.566,1.536,1.536,0,0,1,1.086.55l.015.015,4.155,4.155A1.491,1.491,0,0,1,31.255,55.414Z" transform="translate(-0.344 -25.339)" fill="#20cad1" stroke="#20cad1" stroke-width="1"/>
    <path id="Path_3922" data-name="Path 3922" d="M245.782,87.945a9.7,9.7,0,0,1,7.9,7.9,1.012,1.012,0,0,0,1,.845,1.348,1.348,0,0,0,.174-.015A1.019,1.019,0,0,0,255.7,95.5a11.735,11.735,0,0,0-9.562-9.562,1.023,1.023,0,0,0-1.176.83A1.007,1.007,0,0,0,245.782,87.945Z" transform="translate(-226.499 -79.446)" fill="#20cad1" stroke="#20cad1" stroke-width="1"/>
    <path id="Path_3923" data-name="Path 3923" d="M265.7,15.761A19.323,19.323,0,0,0,249.958.016a1.017,1.017,0,1,0-.332,2.006A17.259,17.259,0,0,1,263.7,16.093a1.012,1.012,0,0,0,1,.845,1.35,1.35,0,0,0,.173-.015A1,1,0,0,0,265.7,15.761Z" transform="translate(-230.042 0)" fill="#20cad1" stroke="#20cad1" stroke-width="1"/>
  </g>
</svg>
