<svg xmlns="http://www.w3.org/2000/svg" width="37.934" height="35.734" viewBox="0 0 37.934 35.734">
  <path id="Path_5752" data-name="Path 5752" d="M35.113,34.718c-2.563-4.653-7.861-10.062-10.849-10.062a2.163,2.163,0,0,0-.533.063A3.057,3.057,0,0,0,21.672,26.5s-.871-.453-.871-1V14.4a.345.345,0,0,0-.345-.345H17.477a.345.345,0,0,0-.345.345V25.49c0,.582-.871,1-.871,1A3.058,3.058,0,0,0,14.2,24.72a2.164,2.164,0,0,0-.533-.063c-2.988,0-8.285,5.409-10.849,10.062A19.993,19.993,0,0,0,.107,46.695c.193,1.708,2.192,3.1,4.456,3.1a6.522,6.522,0,0,0,5.276-2.9,12.38,12.38,0,0,0,1.242.066h0a5.707,5.707,0,0,0,4.258-1.48c1.452-1.491,1.369-3.915,1.369-4.581s0-9.234,0-9.822a5.036,5.036,0,0,1,2.255-2.485,4.64,4.64,0,0,1,2.254,2.485c0,.689,0,9.119,0,9.822s-.083,3.09,1.369,4.581a5.708,5.708,0,0,0,4.259,1.48h0a12.382,12.382,0,0,0,1.242-.066,6.522,6.522,0,0,0,5.275,2.9c2.264,0,4.263-1.39,4.456-3.1A20,20,0,0,0,35.113,34.718Z" transform="translate(0 -14.059)" fill="#20cad1"/>
</svg>
