<svg xmlns="http://www.w3.org/2000/svg" width="40.705" height="36.73" viewBox="0 0 40.705 36.73">
  <g id="Group_3225" data-name="Group 3225" transform="translate(21272.496 18.871)">
    <path id="Path_5577" data-name="Path 5577" d="M20.341,28.322C11.469,20.7.187,27.4,0,36.473a11.629,11.629,0,0,0,1.986,6.643h8.774l1.561-2.554a1.2,1.2,0,0,1,2.029-.026l3.293,5.08,4.8-9.948a1.2,1.2,0,0,1,2.128-.054l4.114,7.5H38.694c7.414-11.377-7.239-24.338-18.353-14.794Z" transform="translate(-21272.496 -43.877)" fill="#20cad1"/>
    <path id="Path_5578" data-name="Path 5578" d="M71.893,207.342l-3.348-6.079-4.735,9.772a1.212,1.212,0,0,1-2.093.127l-3.431-5.27-.919,1.5a1.2,1.2,0,0,1-1.027.568H48.746c.238.244-1.031-.994,15.692,15.27a1.217,1.217,0,0,0,1.689,0c16.466-16.014,15.454-15.027,15.692-15.27H72.947a1.2,1.2,0,0,1-1.054-.616Z" transform="translate(-21317.438 -205.71)" fill="#20cad1"/>
  </g>
</svg>
