<svg xmlns="http://www.w3.org/2000/svg" width="32.025" height="35.671" viewBox="0 0 32.025 35.671">
  <g id="Group_8508" data-name="Group 8508" transform="translate(-1566.504 -1004.399)">
    <g id="Group_2302" data-name="Group 2302" transform="translate(1566.504 1004.399)">
      <path id="Path_5713" data-name="Path 5713" d="M133.074,148.383a8.447,8.447,0,0,1-7.295,3.738,8.648,8.648,0,0,1-7.179-13.041l6.378-10.872a1.179,1.179,0,0,1,1.429-.511,1.162,1.162,0,0,1,.609.511l6.378,10.872A8.658,8.658,0,0,1,133.074,148.383Zm0,0" transform="translate(-109.915 -116.452)" fill="#20cad1"/>
      <path id="Path_5714" data-name="Path 5714" d="M366.227,9.857a4.567,4.567,0,0,1-4.394,2.781,4.65,4.65,0,0,1-3.816-7.012L360.976.582A1.179,1.179,0,0,1,362.4.072a1.155,1.155,0,0,1,.609.51l2.959,5.043A4.64,4.64,0,0,1,366.227,9.857Zm0,0" transform="translate(-334.594 0.001)" fill="#20cad1"/>
      <path id="Path_5715" data-name="Path 5715" d="M7.928,107.679a4.051,4.051,0,0,1-3.833,2.677,4.116,4.116,0,0,1-3.523-6.211l2.62-4.466a1.046,1.046,0,0,1,1.369-.408A1.031,1.031,0,0,1,5,99.679l2.62,4.466A4.1,4.1,0,0,1,7.928,107.679Zm0,0" transform="translate(0 -91.946)" fill="#20cad1"/>
    </g>
    <path id="Path_5716" data-name="Path 5716" d="M171.109,149.447a8.437,8.437,0,0,1-4.269,1.248,8.645,8.645,0,0,1-7.615-13.041l5.217-8.892a1.162,1.162,0,0,1,.609.511l6.378,10.872A8.658,8.658,0,0,1,171.109,149.447Zm0,0" transform="translate(1418.553 886.883)" fill="#20cad1"/>
    <path id="Path_5717" data-name="Path 5717" d="M404.273,10.925a4.579,4.579,0,0,1-1.481.29l-.161,0-.162,0A4.649,4.649,0,0,1,398.654,4.2l1.8-3.064a1.155,1.155,0,0,1,.609.51l2.958,5.043A4.64,4.64,0,0,1,404.273,10.925Zm0,0" transform="translate(1193.863 1003.331)" fill="#20cad1"/>
    <path id="Path_5718" data-name="Path 5718" d="M45.972,109.276a4.075,4.075,0,0,1-1.1.184l-.143,0-.143,0a4.117,4.117,0,0,1-3.379-6.209l1.4-2.384a1.031,1.031,0,0,1,.436.408l2.62,4.466A4.1,4.1,0,0,1,45.972,109.276Zm0,0" transform="translate(1528.459 910.773)" fill="#20cad1"/>
  </g>
</svg>
