<svg id="Group_8087" data-name="Group 8087" xmlns="http://www.w3.org/2000/svg" width="30.092" height="23.223" viewBox="0 0 30.092 23.223">
  <path id="Path_6486" data-name="Path 6486" d="M71,285.694a1.337,1.337,0,0,1,1.466-.949c2.488.022,4.976.008,7.463.008H80.3a8.086,8.086,0,0,1-2.218-7.318,7.85,7.85,0,0,1,3.094-4.934,8.124,8.124,0,0,1,10.611,12.252h.345c2.5,0,5,.013,7.493-.008a1.337,1.337,0,0,1,1.466.949v.47a1.345,1.345,0,0,1-1.466.948q-13.58-.018-27.161,0A1.343,1.343,0,0,1,71,286.164Zm9.281-6.688a5.765,5.765,0,1,0,5.76-5.776A5.8,5.8,0,0,0,80.281,279.005Z" transform="translate(-71 -270.875)" fill="#20cad1"/>
  <rect id="Rectangle_3215" data-name="Rectangle 3215" width="11.52" height="2.351" rx="1.175" transform="translate(9.286 20.872)" fill="#20cad1"/>
  <rect id="Rectangle_3216" data-name="Rectangle 3216" width="20.571" height="2.351" rx="1.175" transform="translate(4.761 17.404)" fill="#20cad1"/>
</svg>
