<svg xmlns="http://www.w3.org/2000/svg" width="32.368" height="39.432" viewBox="0 0 32.368 39.432">
  <path id="Path_5861" data-name="Path 5861" d="M626.072,264.123h-9.648a3.4,3.4,0,0,0-3.391,3.39V296.46a3.4,3.4,0,0,0,3.391,3.393h9.648a3.4,3.4,0,0,0,3.391-3.393V267.513A3.4,3.4,0,0,0,626.072,264.123Zm-.178,32.16H616.6v-5.6h5.3a1.785,1.785,0,0,0,0-3.57h-5.3v-3.57h5.3a1.785,1.785,0,0,0,0-3.57h-5.3V276.4h5.3a1.785,1.785,0,0,0,0-3.57h-5.3v-5.135h9.291Z" transform="translate(-380.839 -535.117) rotate(30)" fill="#20cad1" stroke="#20cad1" stroke-width="0.2"/>
</svg>
