<svg xmlns="http://www.w3.org/2000/svg" width="31.107" height="35.734" viewBox="0 0 31.107 35.734">
  <g id="Group_2972" data-name="Group 2972" transform="translate(0)">
    <path id="Path_5923" data-name="Path 5923" d="M78.272,301.391c0-1.365-.007-2.729.006-4.094a.486.486,0,0,0-.265-.483,5.014,5.014,0,0,0-5.73.009.49.49,0,0,0-.247.493c.006,2.729,0,5.458.01,8.187,0,.291-.048.421-.357.467A6.964,6.964,0,0,1,66.6,304.66a15.174,15.174,0,0,1-4.818-5.782,19.256,19.256,0,0,1-2.128-10.273,10.514,10.514,0,0,1,1.611-5.25,5.949,5.949,0,0,1,7.717-2.165,10.269,10.269,0,0,1,2.887,1.98.724.724,0,0,1,.166.472q.016,3.234,0,6.469a.566.566,0,0,0,.31.566,5.027,5.027,0,0,0,5.731-.065.435.435,0,0,0,.2-.447c0-2.181-.006-4.362.007-6.542a.753.753,0,0,1,.2-.488,9.142,9.142,0,0,1,4.212-2.4,6.04,6.04,0,0,1,6.942,3.674,12.74,12.74,0,0,1,1.069,5.568,19.132,19.132,0,0,1-4.751,12.672,9.532,9.532,0,0,1-4.947,3.248,6.193,6.193,0,0,1-2.441.066c-.263-.042-.305-.157-.3-.4C78.278,304.169,78.272,302.78,78.272,301.391Z" transform="translate(-59.605 -275.666)" fill="#20cad1"/>
    <path id="Path_5924" data-name="Path 5924" d="M164.158,234.676h2.079V235c0,4.135,0,8.27.009,12.4,0,.286-.11.406-.393.413-.446.01-.893.008-1.339,0-.279-.007-.365-.14-.364-.4q.017-5.75.008-11.5Z" transform="translate(-149.647 -234.676)" fill="#20cad1"/>
    <path id="Path_5925" data-name="Path 5925" d="M166.2,413.729h-2.047v-.363c0-3.983,0-7.966-.009-11.949,0-.324.1-.474.39-.476.491,0,.983.008,1.472.046a.361.361,0,0,1,.218.271q.014,6.189,0,12.378A.45.45,0,0,1,166.2,413.729Z" transform="translate(-149.644 -377.995)" fill="#20cad1"/>
  </g>
</svg>
