<svg xmlns="http://www.w3.org/2000/svg" width="18.508" height="18.508" viewBox="0 0 18.508 18.508">
  <g id="Group_8487" data-name="Group 8487" transform="translate(-106.85 -198.85)">
    <g id="calendar" transform="translate(107 199)">
      <g id="Group_1947" data-name="Group 1947">
        <g id="Group_1946" data-name="Group 1946">
          <path id="Path_5572" data-name="Path 5572" d="M17.5,16.092a.711.711,0,0,0,.711-.711V4.267a2.848,2.848,0,0,0-2.845-2.845h-.925V.711a.711.711,0,0,0-1.422,0v.711H5.156V.711a.711.711,0,0,0-1.422,0v.711H2.845A2.848,2.848,0,0,0,0,4.267v11.1a2.848,2.848,0,0,0,2.845,2.845H15.363a2.848,2.848,0,0,0,2.845-2.845.711.711,0,0,0-1.422,0,1.424,1.424,0,0,1-1.422,1.422H2.845a1.424,1.424,0,0,1-1.422-1.422V4.267A1.424,1.424,0,0,1,2.845,2.845h.889v.711a.711.711,0,0,0,1.422,0V2.845h7.859v.711a.711.711,0,0,0,1.422,0V2.845h.925a1.424,1.424,0,0,1,1.422,1.422V15.381A.711.711,0,0,0,17.5,16.092Z" fill="#20cad1" stroke="#20cad1" stroke-width="0.3"/>
        </g>
      </g>
    </g>
    <g id="Group_1948" data-name="Group 1948" transform="translate(111.178 204.849)">
      <circle id="Ellipse_448" data-name="Ellipse 448" cx="0.836" cy="0.836" r="0.836" transform="translate(8.356 0)" fill="#20cad1"/>
      <circle id="Ellipse_450" data-name="Ellipse 450" cx="0.836" cy="0.836" r="0.836" transform="translate(0 6.685)" fill="#20cad1"/>
      <circle id="Ellipse_451" data-name="Ellipse 451" cx="0.836" cy="0.836" r="0.836" transform="translate(0 0)" fill="#20cad1"/>
      <circle id="Ellipse_452" data-name="Ellipse 452" cx="0.836" cy="0.836" r="0.836" transform="translate(0 3.342)" fill="#20cad1"/>
      <circle id="Ellipse_453" data-name="Ellipse 453" cx="0.836" cy="0.836" r="0.836" transform="translate(4.178 3.342)" fill="#20cad1"/>
      <circle id="Ellipse_459" data-name="Ellipse 459" cx="0.836" cy="0.836" r="0.836" transform="translate(8.356 3.342)" fill="#20cad1"/>
      <circle id="Ellipse_454" data-name="Ellipse 454" cx="0.836" cy="0.836" r="0.836" transform="translate(4.178 0)" fill="#20cad1"/>
      <circle id="Ellipse_455" data-name="Ellipse 455" cx="0.836" cy="0.836" r="0.836" transform="translate(4.178 6.685)" fill="#20cad1"/>
      <circle id="Ellipse_458" data-name="Ellipse 458" cx="0.836" cy="0.836" r="0.836" transform="translate(8.356 6.685)" fill="#20cad1"/>
    </g>
  </g>
</svg>
