<svg id="undraw_my_answer_re_k4dv" xmlns="http://www.w3.org/2000/svg" width="207.725" height="160.357" viewBox="0 0 207.725 160.357">
  <path id="Path_6768" data-name="Path 6768" d="M942.844,628.56c-.873-7.02-5.224-13.937-11.919-16.222a32.594,32.594,0,0,1,0,22.378c-1.029,2.783-2.463,5.771-1.5,8.576a7.286,7.286,0,0,0,3.722,3.915,21.638,21.638,0,0,0,5.279,1.623l.355.294C941.648,642.655,943.717,635.58,942.844,628.56Z" transform="translate(-738.641 -489.44)" fill="#f0f0f0"/>
  <path id="Path_6769" data-name="Path 6769" d="M935.642,612.053a27.86,27.86,0,0,1,6.926,15.679,12,12,0,0,1-.136,3.757,6.881,6.881,0,0,1-1.711,3.191,14.244,14.244,0,0,0-2.21,2.645,4.213,4.213,0,0,0-.206,3.44,10.947,10.947,0,0,0,2.426,3.618,10.748,10.748,0,0,1,2.694,4.022c.056.193.352.095.3-.1-.8-2.769-3.491-4.342-4.773-6.837a4.267,4.267,0,0,1-.289-3.744A11.048,11.048,0,0,1,940.851,635a7.343,7.343,0,0,0,1.79-3.058,11.091,11.091,0,0,0,.28-3.737,27.03,27.03,0,0,0-1.974-8.214,28.354,28.354,0,0,0-5.1-8.17C935.715,611.67,935.51,611.905,935.642,612.053Z" transform="translate(-743.424 -489.023)" fill="#fff"/>
  <path id="Path_6770" data-name="Path 6770" d="M961.191,652.6a4.18,4.18,0,0,0,3.182-4.379.156.156,0,0,0-.311.016,3.87,3.87,0,0,1-2.968,4.067C960.9,652.346,961,652.642,961.191,652.6Z" transform="translate(-762.132 -515.773)" fill="#fff"/>
  <path id="Path_6771" data-name="Path 6771" d="M945.837,684.107a8.056,8.056,0,0,1-3.6-4.64c-.057-.193-.353-.095-.3.1a8.38,8.38,0,0,0,3.753,4.821C945.87,684.488,946.009,684.209,945.837,684.107Z" transform="translate(-748.094 -538.828)" fill="#fff"/>
  <path id="Path_6772" data-name="Path 6772" d="M943.292,632.362a2.366,2.366,0,0,1-2.242-.114c-.172-.1-.311.175-.14.279a2.651,2.651,0,0,0,2.48.131.161.161,0,0,0,.1-.2A.157.157,0,0,0,943.292,632.362Z" transform="translate(-747.28 -504.095)" fill="#fff"/>
  <path id="Path_6773" data-name="Path 6773" d="M858.461,657.9c.105.068.21.137.316.208a31.159,31.159,0,0,1,3.984,3.11c.1.087.195.176.289.266a32.848,32.848,0,0,1,7.134,9.765,31.891,31.891,0,0,1,1.747,4.521c.645,2.139,1.174,4.51,2.45,6.26a5.469,5.469,0,0,0,.426.526h11.534l.079-.037.461.021c-.018-.082-.039-.166-.058-.247-.011-.047-.024-.095-.034-.142-.008-.032-.016-.063-.021-.092,0-.01-.005-.021-.008-.029-.005-.029-.013-.055-.018-.082q-.174-.707-.358-1.413s0,0,0-.005a46.9,46.9,0,0,0-3.947-10.363c-.053-.1-.105-.2-.163-.295a30.441,30.441,0,0,0-2.734-4.147,26.9,26.9,0,0,0-1.792-2.05,22.376,22.376,0,0,0-5.6-4.195,17.769,17.769,0,0,0-13.347-1.687C858.685,657.827,858.574,657.861,858.461,657.9Z" transform="translate(-686.585 -522.462)" fill="#f0f0f0"/>
  <path id="Path_6774" data-name="Path 6774" d="M858.181,659.664a27.859,27.859,0,0,1,14.97,8.349A12,12,0,0,1,875.3,671.1a6.881,6.881,0,0,1,.555,3.579,14.24,14.24,0,0,0-.172,3.443,4.213,4.213,0,0,0,1.906,2.87,10.947,10.947,0,0,0,4.115,1.428A10.748,10.748,0,0,1,886.28,684c.161.12.338-.136.178-.256-2.309-1.728-5.4-1.365-7.928-2.585a4.267,4.267,0,0,1-2.484-2.816,11.05,11.05,0,0,1,.108-3.5,7.342,7.342,0,0,0-.412-3.519,11.092,11.092,0,0,0-2.026-3.153,27.027,27.027,0,0,0-6.521-5.37,28.352,28.352,0,0,0-8.99-3.454c-.2-.039-.219.272-.024.311Z" transform="translate(-686.279 -524.082)" fill="#fff"/>
  <path id="Path_6775" data-name="Path 6775" d="M909.828,671.437a4.18,4.18,0,0,0-.1-5.412c-.133-.15-.373.05-.239.2a3.87,3.87,0,0,1,.079,5.034C909.443,671.414,909.7,671.591,909.828,671.437Z" transform="translate(-724.159 -528.961)" fill="#fff"/>
  <path id="Path_6776" data-name="Path 6776" d="M909.69,711.015a8.057,8.057,0,0,1-5.666-1.539c-.161-.12-.339.137-.177.256a8.379,8.379,0,0,0,5.9,1.589C909.945,711.3,909.889,710.992,909.69,711.015Z" transform="translate(-719.98 -560.994)" fill="#fff"/>
  <path id="Path_6777" data-name="Path 6777" d="M876.5,667.568a2.366,2.366,0,0,1-1.859,1.259c-.2.02-.143.326.056.307a2.652,2.652,0,0,0,2.059-1.388.161.161,0,0,0-.039-.217A.157.157,0,0,0,876.5,667.568Z" transform="translate(-698.417 -530.088)" fill="#fff"/>
  <path id="Path_6778" data-name="Path 6778" d="M641.6,174.664a3.04,3.04,0,0,0,.916,4.571l-1.778,10.657,5.132-2.277.9-9.771a3.057,3.057,0,0,0-5.172-3.18Z" transform="translate(-526.156 -166.085)" fill="#9e616a"/>
  <path id="Path_6779" data-name="Path 6779" d="M596.807,547.561h-4.2l-2-16.185h6.193Z" transform="translate(-435.195 -391.545)" fill="#9e616a"/>
  <path id="Path_6780" data-name="Path 6780" d="M785.636,738.425h-13.53v-.171a5.267,5.267,0,0,1,5.266-5.266h8.265Z" transform="translate(-622.954 -578.341)" fill="#2f2e41"/>
  <path id="Path_6781" data-name="Path 6781" d="M489.807,547.561h-4.2l-2-16.185h6.193Z" transform="translate(-356.352 -391.545)" fill="#9e616a"/>
  <path id="Path_6782" data-name="Path 6782" d="M678.636,738.425h-13.53v-.171a5.267,5.267,0,0,1,5.266-5.266h8.265Z" transform="translate(-544.111 -578.341)" fill="#2f2e41"/>
  <path id="Path_6783" data-name="Path 6783" d="M690.7,451.188l-1.568,2.063s-.142.963-2.521,8.812l-1.3,58.991H693.2l10.552-47.2L714.708,522l6.843.4-.322-54.724s.864-11.258-2.2-13.349S690.7,451.188,690.7,451.188Z" transform="translate(-558.998 -370.697)" fill="#2f2e41"/>
  <circle id="Ellipse_3277" data-name="Ellipse 3277" cx="8.284" cy="8.284" r="8.284" transform="translate(134.009 14.35)" fill="#9e616a"/>
  <path id="Path_6784" data-name="Path 6784" d="M727.707,195.255l-.137-.274a49.361,49.361,0,0,1-2.183-4.845l-2.2.259h-5.741l.8-1.2-2.109.275a4.841,4.841,0,0,0-2.149.81,3.293,3.293,0,0,0-.975,1.005c-.753,1.29-1.9,3.4-1.916,3.421l-.11.2-.956-1.609c-.013-.062-1.2-6.245,2.769-8.341a6.384,6.384,0,0,1,6.068-3.463,2.612,2.612,0,0,1,1.776-.883,3.864,3.864,0,0,1,2.9,1.475,24.817,24.817,0,0,1,4.167,5.322l.3.425a3.348,3.348,0,0,1,.6,2.079,6.939,6.939,0,0,1-.237,3.54Z" transform="translate(-577.08 -171.324)" fill="#2f2e41"/>
  <path id="Path_6785" data-name="Path 6785" d="M718.316,268.729l4.584,2.534,9,2.521-2.688,23.564.489,23.211S714.464,331,699.849,318.806V289.59l.865-15.806s3.5-.994,5.258.72l3.34-4.339Z" transform="translate(-569.711 -236.252)" fill="#e4e4e4"/>
  <path id="Path_6786" data-name="Path 6786" d="M442.131,81.28l-2.02-2.171-11.13-1.261,1.044-17.094-6.068-4.329L419.5,80.491l20.594,14.424Z" transform="translate(-309.109 -41.578)" fill="#e4e4e4"/>
  <path id="Path_6787" data-name="Path 6787" d="M796.392,456.042a3.04,3.04,0,0,1,2.953-3.608l3.427-10.247,3.465,4.418-3.785,9.053a3.057,3.057,0,0,1-6.059.384Z" transform="translate(-640.81 -364.065)" fill="#9e616a"/>
  <path id="Path_6788" data-name="Path 6788" d="M803.651,290.635l3.383-2.7a10.442,10.442,0,0,1,4.512,5.329c1.053,3.421,2.895,22.894,2.895,22.894l-5,25-5.591-3.878,2.7-19.806L801.809,303Z" transform="translate(-644.841 -250.406)" fill="#e4e4e4"/>
  <rect id="Rectangle_3450" data-name="Rectangle 3450" width="85.313" height="20.731" transform="translate(31.089)" fill="#e6e6e6"/>
  <path id="Path_6789" data-name="Path 6789" d="M331.958,170.073h80.837V153.819H331.958Z" transform="translate(-298.631 -151.58)" fill="#fff"/>
  <circle id="Ellipse_3278" data-name="Ellipse 3278" cx="6.193" cy="6.193" r="6.193" transform="translate(42.532 4.173)" fill="#20cad1"/>
  <rect id="Rectangle_3451" data-name="Rectangle 3451" width="41.427" height="1.346" transform="translate(63.532 7.943)" fill="#20cad1"/>
  <rect id="Rectangle_3452" data-name="Rectangle 3452" width="41.427" height="1.346" transform="translate(63.532 11.443)" fill="#20cad1"/>
  <path id="Rectangle_1" data-name="Rectangle 1" d="M205.309,265.054l72.185,5.265v18.953l-72.185-1.34Z" transform="translate(-205.309 -233.544)" fill="#e6e6e6"/>
  <path id="Path_1" data-name="Path 1" d="M213.95,292.861l68.335,1.671V279.6l-68.335-4.583Z" transform="translate(-211.676 -240.888)" fill="#fff"/>
  <path id="Ellipse_1" data-name="Ellipse 1" d="M254.422,286.594a5.434,5.434,0,0,1,2.251.652,6.268,6.268,0,0,1,1.82,1.5,7.088,7.088,0,0,1,1.218,2.124,7.429,7.429,0,0,1,.445,2.538,7.087,7.087,0,0,1-.445,2.5,6.3,6.3,0,0,1-1.218,2.014,5.5,5.5,0,0,1-1.82,1.334,5.107,5.107,0,0,1-2.251.446,5.391,5.391,0,0,1-2.277-.585,6.211,6.211,0,0,1-1.878-1.477,7.059,7.059,0,0,1-1.276-2.156,7.425,7.425,0,0,1-.47-2.605,7.077,7.077,0,0,1,.47-2.564,6.256,6.256,0,0,1,1.276-2.038,5.457,5.457,0,0,1,1.878-1.3A5.1,5.1,0,0,1,254.422,286.594Z" transform="translate(-237.15 -249.408)" fill="#e6e6e6"/>
  <path id="Rectangle_2" data-name="Rectangle 2" d="M322.037,304.444l33.259,1.733v1.26l-33.259-1.616Z" transform="translate(-291.32 -262.569)" fill="#e6e6e6"/>
  <path id="Rectangle_3" data-name="Rectangle 3" d="M322.037,318.051l33.259,1.428v1.26l-33.259-1.31Z" transform="translate(-291.32 -272.595)" fill="#e6e6e6"/>
  <path id="Rectangle_4" data-name="Rectangle 4" d="M205.309,407.614l72.185-1.34v18.953l-72.185,5.265Z" transform="translate(-205.309 -337.602)" fill="#e6e6e6"/>
  <path id="Path_2" data-name="Path 2" d="M213.95,433.707l68.335-4.583V414.2l-68.335,1.671Z" transform="translate(-211.676 -343.44)" fill="#fff"/>
  <path id="Ellipse_2" data-name="Ellipse 2" d="M248.52,433.445a7.416,7.416,0,0,1,.575-2.584,6.973,6.973,0,0,1,1.36-2.09,6.1,6.1,0,0,1,1.932-1.38,5.326,5.326,0,0,1,2.292-.469,5.116,5.116,0,0,1,2.226.56,5.574,5.574,0,0,1,1.76,1.427,6.4,6.4,0,0,1,1.134,2.076,7.16,7.16,0,0,1,.344,2.521,7.42,7.42,0,0,1-.544,2.518,7.007,7.007,0,0,1-1.3,2.066,6.162,6.162,0,0,1-1.876,1.41,5.365,5.365,0,0,1-2.272.538,5.109,5.109,0,0,1-2.256-.5,5.534,5.534,0,0,1-1.82-1.4,6.364,6.364,0,0,1-1.19-2.107A7.152,7.152,0,0,1,248.52,433.445Z" transform="translate(-237.144 -352.816)" fill="#e6e6e6"/>
  <path id="Rectangle_5" data-name="Rectangle 5" d="M322.037,436.407,355.3,435.1v1.26l-33.259,1.428Z" transform="translate(-291.32 -358.84)" fill="#e6e6e6"/>
  <path id="Rectangle_6" data-name="Rectangle 6" d="M322.037,449.158l33.259-1.616v1.26l-33.259,1.733Z" transform="translate(-291.32 -368.011)" fill="#e6e6e6"/>
  <path id="Path_6790" data-name="Path 6790" d="M712.214,753.214H611.954a.263.263,0,1,1,0-.526h100.26a.263.263,0,0,1,0,.526Z" transform="translate(-504.752 -592.858)" fill="#cacaca"/>
</svg>
