<svg xmlns="http://www.w3.org/2000/svg" width="248.002" height="284.634" viewBox="0 0 248.002 284.634">
  <g id="Group_8225" data-name="Group 8225" transform="translate(-1557 -487.366)">
    <g id="Group_8224" data-name="Group 8224">
      <text id="Aucun_rendez-vous_aujourd_hui_" data-name="Aucun rendez-vous aujourd’hui " transform="translate(1584 768)" fill="rgba(0,0,0,0.8)" font-size="14" font-family="SoinSansNeue-Medium, Soin Sans Neue" font-weight="500"><tspan x="0" y="0">Aucun rendez-vous aujourd’hui </tspan></text>
      <g id="undraw_Schedule_re_2vro" transform="translate(1557 487.366)">
        <path id="Path_6537" data-name="Path 6537" d="M499.7,659.676l-6.458,5.946,5.133-8.612a66.51,66.51,0,0,0-10.657-13.67s-13.721,13.145-13.721,23.479,6.143,13.941,13.721,13.941,13.721-3.608,13.721-13.941A18.127,18.127,0,0,0,499.7,659.676Z" transform="translate(-403.943 -439.925)" fill="#f2f2f2"/>
        <path id="Path_6538" data-name="Path 6538" d="M509.8,665.179v.509c-.03,5.92-1.029,10.54-2.988,13.793-.028.048-.058.093-.086.141l-.219-.134-.209-.131c2.174-3.512,2.943-8.477,2.97-13.641,0-.166.005-.335,0-.5-.008-2.186-.141-4.4-.355-6.546-.015-.166-.033-.335-.05-.5-.3-2.834-.726-5.542-1.165-7.895-.03-.166-.063-.333-.1-.5-.759-3.979-1.533-6.861-1.71-7.5-.02-.078-.033-.121-.035-.131l.24-.068,0,0,.242-.068c0,.01.045.154.116.421.27,1,.971,3.709,1.659,7.285.03.161.063.328.093.494.358,1.909.709,4.042.986,6.281q.106.843.189,1.664c.02.169.038.338.053.5Q509.787,662.134,509.8,665.179Z" transform="translate(-422.165 -439.16)" fill="#fff"/>
        <path id="Path_6539" data-name="Path 6539" d="M500.308,658.416c-.169.023-.34.045-.514.063a13.9,13.9,0,0,1-1.422.073,13.53,13.53,0,0,1-5.85-1.321l-.32.4a14.032,14.032,0,0,0,6.17,1.422,14.4,14.4,0,0,0,1.518-.081c.171-.018.343-.04.512-.066a13.909,13.909,0,0,0,4.022-1.218l-.318-.408a13.483,13.483,0,0,1-3.8,1.132Z" transform="translate(-414.355 -447.869)" fill="#fff"/>
        <path id="Path_6540" data-name="Path 6540" d="M497.872,671.943q-.261.015-.522.015c-.053,0-.108,0-.161,0a13.6,13.6,0,0,1-11.165-5.832c-.1.149-.2.3-.3.449a14.108,14.108,0,0,0,11.465,5.888c.071,0,.141,0,.212,0,.177,0,.35-.008.524-.015a14.032,14.032,0,0,0,7.476-2.622c-.081-.149-.161-.3-.245-.446a13.509,13.509,0,0,1-7.284,2.564Z" transform="translate(-410.651 -452.957)" fill="#fff"/>
        <path id="Path_6541" data-name="Path 6541" d="M495.685,683.088c-.177.015-.353.025-.53.033s-.378.013-.567.013a13.64,13.64,0,0,1-13.076-9.814c-.113.2-.227.406-.335.61a14.139,14.139,0,0,0,13.412,9.708c.189,0,.378,0,.565-.013s.356-.015.532-.028a14.1,14.1,0,0,0,9.3-4.541c-.053-.187-.113-.371-.174-.557A13.6,13.6,0,0,1,495.685,683.088Z" transform="translate(-408.051 -457.069)" fill="#fff"/>
        <path id="Path_6542" data-name="Path 6542" d="M558.027,197.465H310.743a.359.359,0,0,1,0-.718H558.027a.359.359,0,0,1,0,.718Z" transform="translate(-310.384 -184.545)" fill="#cacaca"/>
        <circle id="Ellipse_3172" data-name="Ellipse 3172" cx="3.948" cy="3.948" r="3.948" transform="translate(4.489 0)" fill="#3f3d56"/>
        <circle id="Ellipse_3173" data-name="Ellipse 3173" cx="3.948" cy="3.948" r="3.948" transform="translate(18.127 0)" fill="#3f3d56"/>
        <circle id="Ellipse_3174" data-name="Ellipse 3174" cx="3.948" cy="3.948" r="3.948" transform="translate(31.766 0)" fill="#3f3d56"/>
        <path id="Path_6543" data-name="Path 6543" d="M855.792,171.97H846.1a.718.718,0,1,1,0-1.436h9.69a.718.718,0,1,1,0,1.436Z" transform="translate(-616.32 -169.555)" fill="#3f3d56"/>
        <path id="Path_6544" data-name="Path 6544" d="M855.792,178.257H846.1a.718.718,0,1,1,0-1.436h9.69a.718.718,0,1,1,0,1.436Z" transform="translate(-616.32 -173.15)" fill="#3f3d56"/>
        <path id="Path_6545" data-name="Path 6545" d="M855.792,184.544H846.1a.718.718,0,1,1,0-1.436h9.69a.718.718,0,1,1,0,1.436Z" transform="translate(-616.32 -176.745)" fill="#3f3d56"/>
        <rect id="Rectangle_3266" data-name="Rectangle 3266" width="226.615" height="120.064" transform="translate(7.45 29.151)" fill="#20cad1" opacity="0.135"/>
        <path id="Path_6546" data-name="Path 6546" d="M554.4,258.807v-1.177H510.285v-21.3h-1.177v21.3H464.994v-21.3h-1.177v21.3H419.7v-21.3h-1.177v21.3H374.414v-21.3h-1.177v21.3H327.783v1.177h45.453v23.527H327.783v1.177h45.453v23.527H327.783v1.177h45.453v23.523H327.783v1.177h45.453V356.4h1.177v-23.48h44.113V356.4H419.7v-23.48h44.113V356.4h1.177v-23.48h44.113V356.4h1.177v-23.48H554.4v-1.177H510.285V308.216H554.4v-1.177H510.285V283.512H554.4v-1.177H510.285V258.807ZM418.527,331.739H374.414V308.216h44.113Zm0-24.7H374.414V283.512h44.113Zm0-24.7H374.414V258.807h44.113Zm45.29,49.4H419.7V308.216h44.113Zm0-24.7H419.7V283.512h44.113Zm0-24.7H419.7V258.807h44.113Zm45.291,49.405H464.994V308.216h44.113Zm0-24.7H464.994V283.512h44.113Zm0-24.7H464.994V258.807h44.113Z" transform="translate(-320.334 -207.182)" fill="#fff"/>
        <rect id="Rectangle_3267" data-name="Rectangle 3267" width="15.161" height="14.677" transform="translate(62.856 57.347)" fill="#cacaca"/>
        <rect id="Rectangle_3268" data-name="Rectangle 3268" width="15.161" height="14.677" transform="translate(202.435 104.872)" fill="#cacaca"/>
        <rect id="Rectangle_3269" data-name="Rectangle 3269" width="15.161" height="14.677" transform="translate(67.565 129.277)" fill="#cacaca"/>
        <rect id="Rectangle_3270" data-name="Rectangle 3270" width="15.161" height="14.677" transform="translate(72.046 54.624)" fill="#20cad1"/>
        <path id="Path_6547" data-name="Path 6547" d="M370.13,248.668l17.991-16.029,5.307,2.63L371.851,257.9Z" transform="translate(-211.656 -133.033)" fill="#ffb6b6"/>
        <circle id="Ellipse_3175" data-name="Ellipse 3175" cx="4.282" cy="4.282" r="4.282" transform="translate(174.551 96.552)" fill="#ffb6b6"/>
        <path id="Path_6548" data-name="Path 6548" d="M322.408,529.926h-4.257l-2.025-16.42h6.283Z" transform="translate(-180.775 -293.645)" fill="#ffb6b6"/>
        <path id="Path_6549" data-name="Path 6549" d="M625.386,722.373H611.659V722.2A5.343,5.343,0,0,1,617,716.856h8.384Z" transform="translate(-482.666 -481.965)" fill="#2f2e41"/>
        <path id="Path_6550" data-name="Path 6550" d="M286.408,529.926h-4.257l-2.025-16.42h6.283Z" transform="translate(-160.188 -293.645)" fill="#ffb6b6"/>
        <path id="Path_6551" data-name="Path 6551" d="M589.386,722.373H575.659V722.2A5.343,5.343,0,0,1,581,716.856h8.384Z" transform="translate(-462.08 -481.965)" fill="#2f2e41"/>
        <path id="Path_6552" data-name="Path 6552" d="M604.546,500.878s10.7-.856,7.279,17.983-10.52,70.372-10.52,70.372l-6.432.884-3.8-68.745L588.2,590.117l-8.181-.884-8.01-73.8s-2.572-5.934,0-10.031S604.546,500.878,604.546,500.878Z" transform="translate(-459.337 -358.457)" fill="#2f2e41"/>
        <path id="Path_6553" data-name="Path 6553" d="M633.533,389.746l2.972-1.592s7.322-.625,10.31,7.977L654.74,408.1l12.845-11.132,5.566,3.853-16.188,19.32-6.731.86-14.557-18.839Z" transform="translate(-495.175 -293.994)" fill="#3f3d56"/>
        <path id="Path_6554" data-name="Path 6554" d="M587.474,310.753c-12.21,0-15.628,13.413-15.628,20.98s7,6.422,15.628,6.422a85.072,85.072,0,0,0,9.784-.149l1.288-3.146,1.037,2.606c2.2-.808,3.518-2.45,3.518-5.735C603.1,324.166,600.1,310.753,587.474,310.753Z" transform="translate(-459.9 -249.738)" fill="#2f2e41"/>
        <circle id="Ellipse_3176" data-name="Ellipse 3176" cx="10.516" cy="10.516" r="10.516" transform="translate(117.006 67.372)" fill="#ffb6b6"/>
        <path id="Path_6555" data-name="Path 6555" d="M579.846,332.885h4.159l1.835-5.138.367,5.138H588.2l1.07-3,.214,3h14.771a11.132,11.132,0,0,0-11.132-11.132h-2.141A11.132,11.132,0,0,0,579.846,332.885Z" transform="translate(-464.474 -256.028)" fill="#2f2e41"/>
        <rect id="Rectangle_3271" data-name="Rectangle 3271" width="15.161" height="14.677" transform="translate(170.522 84.595)" fill="#20cad1"/>
        <path id="Path_6556" data-name="Path 6556" d="M604.8,428.315c-1.615.021-6.478-28.836-6.478-28.836l-.728-15.551-5.314-.179v-.35a2.647,2.647,0,0,0-2.646-2.646H579.516a2.644,2.644,0,0,0-2.638,2.478l-4.167-.14-7.217,22.929s6.65,21.305,3.44,30.694c0,0,31.272,2.685,37.258-3.275C606.193,433.44,606.418,428.294,604.8,428.315Z" transform="translate(-456.267 -289.767)" fill="#3f3d56"/>
        <path id="Path_6557" data-name="Path 6557" d="M560.531,388.719l-1.791-2.857s-5.827-1.441-8.226,2.421-9.451,24.784-9.451,24.784l7.279,2.569,8.26-11.58Z" transform="translate(-442.296 -292.538)" fill="#3f3d56"/>
        <rect id="Rectangle_3272" data-name="Rectangle 3272" width="15.161" height="14.677" transform="translate(121.284 111.141)" fill="#20cad1"/>
        <path id="Path_6558" data-name="Path 6558" d="M558.789,439.471l-5.274-.558h0a5.174,5.174,0,0,0,3.672,7.27l20.87,4.165-2.177-6.7Z" transform="translate(-449.137 -323.026)" fill="#ffb6b6"/>
        <circle id="Ellipse_3177" data-name="Ellipse 3177" cx="4.282" cy="4.282" r="4.282" transform="translate(124.701 118.837)" fill="#ffb6b6"/>
        <path id="Path_6559" data-name="Path 6559" d="M570.406,448.186l-15.9-3.633a6.869,6.869,0,0,1-4.98-4.556l-.643-1.981,4.126-3.247,18.9,5.284Z" transform="translate(-446.769 -320.656)" fill="#3f3d56"/>
        <path id="Path_6560" data-name="Path 6560" d="M589.379,730.609H426.251a.428.428,0,1,1,0-.856H589.379a.428.428,0,0,1,0,.856Z" transform="translate(-376.397 -489.34)" fill="#cacaca"/>
      </g>
    </g>
  </g>
</svg>
