<svg xmlns="http://www.w3.org/2000/svg" xmlns:xlink="http://www.w3.org/1999/xlink" width="251.201" height="153.163" viewBox="0 0 251.201 153.163">
  <defs>
    <linearGradient id="linear-gradient" x1="0.5" y1="1" x2="0.5" gradientUnits="objectBoundingBox">
      <stop offset="0" stop-color="gray" stop-opacity="0.251"/>
      <stop offset="0.54" stop-color="gray" stop-opacity="0.122"/>
      <stop offset="1" stop-color="gray" stop-opacity="0.102"/>
    </linearGradient>
  </defs>
  <g id="undraw_personal_trainer_ote3" transform="translate(0 0)">
    <path id="Path_6140" data-name="Path 6140" d="M148.935,88.189c-13.792-.482-26.926-4.93-39.461-9.8S84.506,68.118,71.045,65.537c-8.668-1.66-18.57-1.893-25.546,2.751-6.713,4.467-8.883,12.178-10.048,19.332-.878,5.383-1.393,11.051,1.01,16.089,1.669,3.5,4.633,6.44,6.683,9.792,7.137,11.659,2.1,26.039-5.637,37.426-3.626,5.34-7.831,10.436-10.629,16.122s-4.091,12.2-1.643,18c2.427,5.748,8.207,10.067,14.47,13.1,12.72,6.162,27.709,7.934,42.324,8.935,32.355,2.213,64.881,1.255,97.321.3,12-.355,24.064-.715,35.872-2.571,6.56-1.031,13.331-2.667,18.092-6.618,6.044-5.014,7.542-13.5,3.492-19.793-6.793-10.546-25.582-13.164-30.327-24.484-2.614-6.229.071-13.17,3.869-18.947,8.149-12.4,21.806-23.268,22.527-37.437.493-9.73-6.072-19.474-16.225-24.088-10.644-4.825-25.4-4.218-33.247,3.77C175.32,85.448,161.113,88.613,148.935,88.189Z" transform="translate(-1.386 -64.451)" fill="#20cad1" opacity="0.1"/>
    <g id="Group_2624" data-name="Group 2624" transform="translate(101.644 76.231)" opacity="0.5">
      <path id="Path_6141" data-name="Path 6141" d="M471.535,402.58l-8.341.172-1.364,1.872v6.469l1.7,1.192h8l1.7-1.872v-6.13Z" transform="translate(-461.83 -402.573)" fill="#20cad1"/>
      <path id="Path_6142" data-name="Path 6142" d="M498.881,468.03s-7.661,1.192-8.341,0l.172-.85,8.169-.18Z" transform="translate(-489.351 -467)" fill="#fff" opacity="0.2"/>
      <path id="Path_6143" data-name="Path 6143" d="M498.205,542.09l1.361,1.364v6.482l-1.361,1.341s-4.936,1.7-8.172.339l-1.533-1.531V543.6l1.364-1.533Z" transform="translate(-487.819 -523.355)" fill="#20cad1"/>
      <path id="Path_6144" data-name="Path 6144" d="M501.97,543.683s-5.958,1.361-8,0V542.15h8.342Z" transform="translate(-491.926 -523.415)" fill="#fff" opacity="0.2"/>
      <path id="Path_6145" data-name="Path 6145" d="M505.742,501.842v9.209a1.381,1.381,0,0,1-1.446,1.306h0a1.381,1.381,0,0,1-1.446-1.306v-9.209a1.4,1.4,0,0,1,1.615-1.3h0A1.361,1.361,0,0,1,505.742,501.842Z" transform="translate(-498.592 -492.174)" fill="#20cad1"/>
      <path id="Path_6146" data-name="Path 6146" d="M525.125,403.64l-8.341.17-1.364,1.872v6.469l1.7,1.192h8l1.7-1.872v-6.13Z" transform="translate(-502.06 -403.368)" fill="#20cad1"/>
      <path id="Path_6147" data-name="Path 6147" d="M552.481,469.11s-7.661,1.192-8.341,0l.17-.85,8.172-.17Z" transform="translate(-529.588 -467.818)" fill="#fff" opacity="0.2"/>
      <path id="Path_6148" data-name="Path 6148" d="M551.775,543.2l1.361,1.364v6.482l-1.361,1.349s-4.938,1.7-8.172.339L542.07,551.2v-6.469l1.364-1.533Z" transform="translate(-528.034 -524.203)" fill="#20cad1"/>
      <path id="Path_6149" data-name="Path 6149" d="M555.56,544.733s-5.958,1.361-8,0V543.2H555.9Z" transform="translate(-532.156 -524.203)" fill="#fff" opacity="0.2"/>
      <path id="Path_6150" data-name="Path 6150" d="M559.284,502.892V512.1a1.383,1.383,0,0,1-1.446,1.306h0a1.383,1.383,0,0,1-1.448-1.306v-9.209a1.4,1.4,0,0,1,1.618-1.3h0A1.361,1.361,0,0,1,559.284,502.892Z" transform="translate(-538.785 -492.963)" fill="#20cad1"/>
      <path id="Path_6151" data-name="Path 6151" d="M598.51,423.39l-6.868.142-1.122,1.541V430.4l1.4.982h6.589l1.4-1.543v-5.046Z" transform="translate(-558.438 -418.195)" fill="#20cad1"/>
      <path id="Path_6152" data-name="Path 6152" d="M625.266,488.683s-6.3.98-6.866,0l.14-.7,6.731-.142Z" transform="translate(-585.336 -482.645)" fill="#fff" opacity="0.2"/>
      <path id="Path_6153" data-name="Path 6153" d="M624.683,549.68,625.8,550.8v5.325l-1.122,1.122s-4.064,1.4-6.731.279l-1.262-1.261v-5.325l1.122-1.262Z" transform="translate(-584.052 -529.068)" fill="#20cad1"/>
      <path id="Path_6154" data-name="Path 6154" d="M627.8,550.942s-4.906,1.122-6.586,0V549.68h6.866Z" transform="translate(-587.445 -529.068)" fill="#fff" opacity="0.2"/>
      <path id="Path_6155" data-name="Path 6155" d="M630.9,516.477v7.581a1.137,1.137,0,0,1-1.192,1.074h0a1.134,1.134,0,0,1-1.189-1.074v-7.581a1.152,1.152,0,0,1,1.329-1.069h0A1.122,1.122,0,0,1,630.9,516.477Z" transform="translate(-592.933 -503.329)" fill="#20cad1"/>
      <path id="Path_6156" data-name="Path 6156" d="M642.628,424.26l-6.868.14-1.119,1.541v5.328l1.4.98h6.586l1.4-1.541v-5.046Z" transform="translate(-591.559 -418.848)" fill="#20cad1"/>
      <path id="Path_6157" data-name="Path 6157" d="M669.378,489.55s-6.307.982-6.868,0l.14-.7,6.731-.14Z" transform="translate(-618.449 -483.298)" fill="#fff" opacity="0.2"/>
      <path id="Path_6158" data-name="Path 6158" d="M668.81,550.55l1.119,1.119v5.325l-1.119,1.122s-4.066,1.4-6.731.282l-1.259-1.254v-5.332l1.122-1.261Z" transform="translate(-617.18 -529.721)" fill="#20cad1"/>
      <path id="Path_6159" data-name="Path 6159" d="M671.907,551.811s-4.9,1.119-6.587,0V550.55h6.868Z" transform="translate(-620.558 -529.721)" fill="#fff" opacity="0.2"/>
      <path id="Path_6160" data-name="Path 6160" d="M675.013,517.365v7.579a1.137,1.137,0,0,1-1.192,1.074h0a1.137,1.137,0,0,1-1.192-1.074v-7.579a1.154,1.154,0,0,1,1.331-1.067h0A1.119,1.119,0,0,1,675.013,517.365Z" transform="translate(-626.046 -504.002)" fill="#20cad1"/>
    </g>
    <path id="Path_6161" data-name="Path 6161" d="M326.092,272.055a4.207,4.207,0,0,0-2.593-1.9,9.472,9.472,0,0,0-3.261-.2,28.672,28.672,0,0,0-5.218.86,5.438,5.438,0,0,0-2.874,1.5c-.02.025-.042.055-.065.08-1.094.287-2.181.728-3.241,1.087a30.422,30.422,0,0,1-3.241.88,19.2,19.2,0,0,0,4.011-2.83,11.34,11.34,0,0,0,1.5-1.785,5.936,5.936,0,0,0,2.493.167,9,9,0,0,0,4.32-2.673L322,263.477a8.276,8.276,0,0,0,1.745-1.994,7.8,7.8,0,0,0,.653-3.63c.02-1.71,0-3.42-.05-5.128l1.291,1a11.435,11.435,0,0,1,1.132-6.123,6.83,6.83,0,0,0,1.049-2.82c.02-1.566-1.326-2.8-2.7-3.49s-2.929-1.137-4.059-2.2c-1.68-1.583-1.994-4.108-2.825-6.277a24.945,24.945,0,0,0-1.745-3.433l-1.616-2.817a39.939,39.939,0,0,0-2.712-4.285,39.308,39.308,0,0,0-5.9-5.851l-10.929-9.416a102.7,102.7,0,0,0-8.2-6.589c-5.831-4.066-12.41-6.858-18.947-9.623a12,12,0,0,0-5.138-1.321,5.876,5.876,0,0,0-3.6,1.541,21.5,21.5,0,0,1-2.742-1.042l-.07-.032c.02-.147.042-.292.057-.439.022-.194.035-.389.05-.586a4.574,4.574,0,0,0,1.411-.461,1.692,1.692,0,0,0,.581-.451,2.067,2.067,0,0,0,.3-1.1,49.509,49.509,0,0,0,.185-7.828,16.562,16.562,0,0,0-2.244-7.422,3.854,3.854,0,0,0-1.7-1.645c-1-.4-2.151-.027-3.216-.207-1.842-.312-2.992-2.114-4.325-3.443a10.491,10.491,0,0,0-13.036-1.147,38.1,38.1,0,0,0-3.974,3.675,8.817,8.817,0,0,1-4.637,2.6,2.258,2.258,0,0,0-.94.249,1.936,1.936,0,0,0-.668,1.079,19.089,19.089,0,0,0-1.129,4.335c-.017-.09-.032-.18-.047-.269a8.455,8.455,0,0,0-.042,1.648,4.809,4.809,0,0,0,.593,1.994,2.7,2.7,0,0,0,1.364,1.3,3.715,3.715,0,0,0,1.314.212h.2c-.072.192-.142.384-.207.578a15.954,15.954,0,0,0-.835,5.113,15.675,15.675,0,0,0,15.559,15.8,15.506,15.506,0,0,0,3.079-.324c.337.107.673.217,1,.334a18.7,18.7,0,0,1,1.95.768c.269.127,1.359.763,2.675,1.583h0l-.09.187a9.907,9.907,0,0,0-2.864,9.581c.952,3.707,4.076,6.886,3.762,10.7a6.537,6.537,0,0,0-.067,1.633,3.957,3.957,0,0,0,1.139,1.91c.439.484.895.952,1.359,1.411-.037,2.436-.249,4.869-.479,7.3-.02.212-.025.426-.027.643a4.487,4.487,0,0,0,1.077,2.859,4.638,4.638,0,0,1,.875,3.375,23.287,23.287,0,0,1-1.583,4.811c-2.508,7.187.573,15.292-1.162,22.714a32.243,32.243,0,0,0-1.246,5.485,10.3,10.3,0,0,1-.324,3.49,6.546,6.546,0,0,1-1.977,2.284q-1.633,1.4-3.181,2.892a44.023,44.023,0,0,0-4.821-2.269,8.667,8.667,0,0,0-.823-.284c-1.95-1.825-4.408-2.992-6.716-4.333-1.915-1.109-3.739-2.356-5.574-3.6a31.178,31.178,0,0,1-5-3.941c-.748-.778-1.413-1.635-2.219-2.346a18.87,18.87,0,0,0-2.244-1.605,90.144,90.144,0,0,1-10.092-7.591c-2.426-2.1-4.41-4.814-7-6.7-1.588-1.157-3.435-2.211-5.38-1.994a5.133,5.133,0,0,0-1.773.546,4.636,4.636,0,0,0-1.625-.364,8.3,8.3,0,0,0-4.388,1.633q-11.966,7.272-24.307,13.9c-1.66.892-3.331,1.777-4.916,2.8a33.388,33.388,0,0,0-8.112,7.4c-.419.531-.947,1.134-1.613,1.055a1.441,1.441,0,0,1-.516-.184,6.489,6.489,0,0,1-2.244-2.65,8.43,8.43,0,0,0-1.521-2.1h0a4.429,4.429,0,0,0-.533-1c.885-2.184,1.648-4.42,2.356-6.671.369-1.182.725-2.371,1.2-3.518,1.162-2.837,3.014-5.407,3.67-8.409.157-.725.249-1.471.371-2.2a15.61,15.61,0,1,0-11.283-2.146v.087a11.03,11.03,0,0,1-.147,1.5,18.934,18.934,0,0,1-1.713,4.764c-.474,1.02-.947,2.044-1.438,3.061a2.843,2.843,0,0,1-.681-.229,2.06,2.06,0,0,1-.765-1.2,43,43,0,0,0-2.585-6.048,10.469,10.469,0,0,0-1.5-2.3,12.609,12.609,0,0,0-3.887-2.525c-.249-.12-.481-.249-.72-.364a6.153,6.153,0,0,0-.648-.421,16.383,16.383,0,0,1-3.413-2.044c-.725-.688-1.224-1.583-1.9-2.313a12.141,12.141,0,0,0-4.2-2.568,5.573,5.573,0,0,0-2.476-.648,2.976,2.976,0,0,0-.361.04,5.738,5.738,0,0,0-.613.14,3.333,3.333,0,0,1-.553-.369,5.467,5.467,0,0,1-1.586-3.076,14.379,14.379,0,0,1-.715-5.826,8.825,8.825,0,0,1,.219-1c.077-.127.152-.249.219-.386a13.006,13.006,0,0,0,6.808-20.059c-.127-.175-.249-.344-.391-.514l.15-.082a3.563,3.563,0,0,0,1.055-4.358,7.861,7.861,0,0,0-3.368-3.393c-.2-.122-.4-.237-.606-.352l-.174-.095c-.155-.085-.307-.167-.461-.249l-.182-.092c-.182-.092-.364-.179-.546-.264l-.082-.04c-.227-.1-.454-.2-.683-.3h0c-.222-.092-.444-.177-.668-.249l-.092-.035c-.212-.077-.426-.15-.641-.219l-.047-.015a16.76,16.76,0,0,0-4.851-.818,28.05,28.05,0,0,0-9.286,1.82,16,16,0,0,0-6.15,4.612,5.927,5.927,0,0,0-1.027.17,10.323,10.323,0,0,0-3.672,1.947,11.716,11.716,0,0,0-2.443,2.423,10.455,10.455,0,0,0-1.648,3.931c-.945,4.42.217,8.975,1.072,13.417s1.349,9.284-.748,13.27c-.79,1.5-1.912,2.795-2.742,4.263a6.47,6.47,0,0,0-.927,4.869c.581,1.977,2.493,3.221,3.49,5.016a6.147,6.147,0,0,1-.681,6.731c-.067.08-.135.16-.207.249a2.5,2.5,0,0,1-.269.269,5.644,5.644,0,0,0,4.737-.93,8.409,8.409,0,0,0,2.795-2.69c1.782-2.927.982-6.711,1.61-10.094.825-4.43,4.156-8.381,3.7-12.866-.309-3.009-2.274-5.524-3.817-8.112a32.089,32.089,0,0,1-2.568-5.465l-.085-.249h0a8.029,8.029,0,0,1-.566-3.989,5.579,5.579,0,0,1,.389-1.264c0,.047,0,.1,0,.145a9.785,9.785,0,0,0,.85,3.767c1.558,3.241,5.308,4.737,7.688,7.364.1.11.194.222.289.337.027.03.052.062.077.095l.2.249.085.117c.062.087.125.174.182.264l.077.112c.08.127.16.249.234.386a5.937,5.937,0,0,0,1.476-2.244c.022-.075.037-.152.052-.229.02.02.037.042.057.065.047.267.085.534.12.8h0a5.419,5.419,0,0,0,.122,1.145,50.343,50.343,0,0,1-.122,7.252c-.085,1.284.249,3.191-.568,4.148l-.025.027a1.32,1.32,0,0,1-.157.155h0c-.14.145-.282.287-.414.436a17.354,17.354,0,0,0-3.924,11.682c.065,4.784,1.593,9.419,3.326,13.868a38.937,38.937,0,0,0,2.134,4.737,8.272,8.272,0,0,0,1.648,2.216,9.931,9.931,0,0,0,2.393,1.428c.209.1.421.2.631.3l.536.249,4.081,1.94c.748,1.1,1.471,2.229,2.2,3.361.1.16.207.324.314.484.8,1.246,1.6,2.493,2.418,3.7l6.878,10.186a8.583,8.583,0,0,0,1.72,2.049,3.511,3.511,0,0,0,.643.4,3.365,3.365,0,0,0,.356.147,1.137,1.137,0,0,0-.182.77,1.3,1.3,0,0,0,.5.651c1.556,1.286,3.283,2.643,3.772,4.62.347,1.409,0,2.917.312,4.333.571,2.553,3.1,4.1,5.485,5.083a30.727,30.727,0,0,0,16.985,2.022,24.813,24.813,0,0,0,14.771-8.476c1.132-1.391,2.1-2.909,3.171-4.345a36.4,36.4,0,0,1,2.421-2.907,19.981,19.981,0,0,0,2.645-1.461,51.056,51.056,0,0,0,4.986-4.148c1.224-1.067,2.505-2.074,3.63-3.241a37.977,37.977,0,0,0,2.825-3.49q2.992-3.964,6.18-7.771a12.314,12.314,0,0,1,3.929-3.49l.072-.03a8.995,8.995,0,0,0,1.7,3.029c2.568,3.989,5.255,8.095,9.224,10.638A29.486,29.486,0,0,0,211.838,291c6.232,1.969,12.565,3.515,18.9,5.063.209-.4.414-.768.643-1.127a3.428,3.428,0,0,1,.274.329c.027.04.05.082.077.122a.9.9,0,0,0-.135.037,1.772,1.772,0,0,0-.895.942,10.464,10.464,0,0,0-.78,4.487c-.022,1.5,0,2.992,0,4.487a3.872,3.872,0,0,0,.249,1.64,3.394,3.394,0,0,0,2.812,1.5,23.5,23.5,0,0,0,5.734-.224,4.418,4.418,0,0,0,.531,1.269,9.058,9.058,0,0,0,4.826,3.572,42.864,42.864,0,0,0,5.941,1.341c3.538.7,7.157,1.827,10.675,1.035,1.4-.317,2.742-.93,4.146-1.2,3.213-.608,6.544.623,9.78.13a15.371,15.371,0,0,0,4.457-1.588,6.115,6.115,0,0,0,1.907-1.316,2.389,2.389,0,0,0,.616-2.166,8.76,8.76,0,0,0-.588-1.212,6.439,6.439,0,0,1-.421-2.044,56.13,56.13,0,0,0-1.341-7.858c-.017-.072-.037-.147-.057-.222a33.982,33.982,0,0,0,6.8-4.009l4.654-3.256a27.645,27.645,0,0,1,4.709-2.852,20.389,20.389,0,0,1,8.242-1.453c1.149,0,2.3.057,3.445.162a1.5,1.5,0,0,0-.322.553,2.053,2.053,0,0,0,.676,2.017,8.887,8.887,0,0,0,1.882,1.177,11.388,11.388,0,0,1,4.238,4.166,4.551,4.551,0,0,1,.7,3.627c-.5,1.511-2.276,2.553-2.174,4.143a2.55,2.55,0,0,0,1.675,2.059,6.769,6.769,0,0,0,2.742.314,10.423,10.423,0,0,0,4.44-.855,11.5,11.5,0,0,0,2.451-1.865,7.115,7.115,0,0,0,1.795-2.154,6.559,6.559,0,0,0,.444-2.61c.075-4.178-.646-8.414.184-12.507.249-1.247.648-2.466.86-3.722a26.218,26.218,0,0,0,.08-6.013A6.571,6.571,0,0,0,326.092,272.055Z" transform="translate(-78.052 -162.899)" fill="url(#linear-gradient)"/>
    <path id="Path_6162" data-name="Path 6162" d="M748.949,326.152a4.141,4.141,0,0,0-1.446,3.114c-.531,5,1.533,9.957,1.4,14.985-.11,4-1.6,7.818-3.071,11.54a68.69,68.69,0,0,0-4.32,20.054c-.506,6.808-1.247,13.9-4.9,19.657-.83,1.3-1.8,2.515-2.61,3.827-.853,1.371-1.528,2.842-2.281,4.268a45.926,45.926,0,0,1-8.476,11.385,11.7,11.7,0,0,1-3.326,2.476,6.7,6.7,0,0,1-5.2.055,4.971,4.971,0,0,1-3.211-4.141c-.062-1.65.922-3.139,1.91-4.46a73.212,73.212,0,0,1,11.468-12.156,6.6,6.6,0,0,0,1.994-2.261,10.106,10.106,0,0,0,.324-3.458,30.391,30.391,0,0,1,1.247-5.43c1.745-7.352-1.356-15.379,1.167-22.5a22.661,22.661,0,0,0,1.59-4.764,4.528,4.528,0,0,0-.88-3.346,4.4,4.4,0,0,1-1.08-2.832,5.371,5.371,0,0,1,.025-.636,68.733,68.733,0,0,0,.441-9.815,23.008,23.008,0,0,0-2.326-9.473,26.905,26.905,0,0,1-2.278-4.547c-.778-2.635-.06-5.485,1.1-7.978a13.918,13.918,0,0,1,3.8-5.143,10.171,10.171,0,0,1,11.246-.716c2.528,1.511,4.258,4.051,5.661,6.641C747.914,322.39,748.964,323.993,748.949,326.152Z" transform="translate(-553.581 -274.781)" opacity="0.06"/>
    <path id="Path_6163" data-name="Path 6163" d="M758.637,260.157q-.718,1.937-1.428,3.874c-.314.848-.626,1.7-.95,2.55a39.577,39.577,0,0,1-5.786,10.984c.391-.484-3.291-2.917-6.006-4.577-1.324-.815-2.421-1.443-2.69-1.568a19.646,19.646,0,0,0-1.962-.763c-1.035-.349-2.082-.651-3.116-1.027-2.393-.865-.72-2.164.3-3.56,3.353-4.572,3.989-10.82,7.8-15.02a14.038,14.038,0,0,0,6.3,6.1c.052.027.107.052.162.075,2.261,1.057,4.759,1.513,7.1,2.4.127.047.274.115.317.249A.5.5,0,0,1,758.637,260.157Z" transform="translate(-571.579 -228.655)" fill="#a1616a"/>
    <path id="Path_6164" data-name="Path 6164" d="M796.184,616.016a11.246,11.246,0,0,0-1.159,10.762,3.648,3.648,0,0,0,.84,1.3,3.932,3.932,0,0,0,1.6.748c4.951,1.408,10.236,1.132,15.307.249a26.95,26.95,0,0,0,5.041-1.284,33.674,33.674,0,0,0,6.965-4.024l4.682-3.226a28.371,28.371,0,0,1,4.737-2.827,20.819,20.819,0,0,1,8.289-1.438,38.67,38.67,0,0,1,7.23.691c1.588.307,3.49.623,4.607-.536a4.363,4.363,0,0,0,.952-2.52,37.563,37.563,0,0,0-.028-10.613,1.379,1.379,0,0,0-.307-.81,1.248,1.248,0,0,0-.618-.282c-2.206-.5-4.42.536-6.564,1.246-4.455,1.481-9.239,1.658-13.771,2.877-4.757,1.279-9.224,3.7-14.14,4.191-2.343.234-4.7.03-7.045.082-2.179.047-4.211.8-6.345.89C802.347,611.674,798.769,612.392,796.184,616.016Z" transform="translate(-615.634 -492.169)" fill="#a1616a"/>
    <path id="Path_6165" data-name="Path 6165" d="M796.184,616.016a11.246,11.246,0,0,0-1.159,10.762,3.648,3.648,0,0,0,.84,1.3,3.932,3.932,0,0,0,1.6.748c4.951,1.408,10.236,1.132,15.307.249a26.95,26.95,0,0,0,5.041-1.284,33.674,33.674,0,0,0,6.965-4.024l4.682-3.226a28.371,28.371,0,0,1,4.737-2.827,20.819,20.819,0,0,1,8.289-1.438,38.67,38.67,0,0,1,7.23.691c1.588.307,3.49.623,4.607-.536a4.363,4.363,0,0,0,.952-2.52,37.563,37.563,0,0,0-.028-10.613,1.379,1.379,0,0,0-.307-.81,1.248,1.248,0,0,0-.618-.282c-2.206-.5-4.42.536-6.564,1.246-4.455,1.481-9.239,1.658-13.771,2.877-4.757,1.279-9.224,3.7-14.14,4.191-2.343.234-4.7.03-7.045.082-2.179.047-4.211.8-6.345.89C802.347,611.674,798.769,612.392,796.184,616.016Z" transform="translate(-615.634 -492.169)" opacity="0.06"/>
    <path id="Path_6166" data-name="Path 6166" d="M817.991,532.36a3.374,3.374,0,0,0-.057,1.673,3.117,3.117,0,0,0,1,1.341c4.238,3.794,10.293,4.58,15.955,5.2a12.08,12.08,0,0,0,8.561-1.406,37.9,37.9,0,0,0,7.85-4.522c2.306-1.87,4.156-4.263,6.544-6.026,2.715-1.994,6.053-3.136,8.476-5.484a11.4,11.4,0,0,0,3.323-6.3,17.981,17.981,0,0,0,0-4.961,14.758,14.758,0,0,0-1.416-5.507,13.316,13.316,0,0,0-4.652-4.62,24.15,24.15,0,0,0-13.213-4.089c-6.482.057-12.465,3.829-17.117,8.065a50.378,50.378,0,0,0-11.717,15.938A48.668,48.668,0,0,0,817.991,532.36Z" transform="translate(-633.418 -413.783)" fill="#464353"/>
    <path id="Path_6167" data-name="Path 6167" d="M817.991,532.36a3.374,3.374,0,0,0-.057,1.673,3.117,3.117,0,0,0,1,1.341c4.238,3.794,10.293,4.58,15.955,5.2a12.08,12.08,0,0,0,8.561-1.406,37.9,37.9,0,0,0,7.85-4.522c2.306-1.87,4.156-4.263,6.544-6.026,2.715-1.994,6.053-3.136,8.476-5.484a11.4,11.4,0,0,0,3.323-6.3,17.981,17.981,0,0,0,0-4.961,14.758,14.758,0,0,0-1.416-5.507,13.316,13.316,0,0,0-4.652-4.62,24.15,24.15,0,0,0-13.213-4.089c-6.482.057-12.465,3.829-17.117,8.065a50.378,50.378,0,0,0-11.717,15.938A48.668,48.668,0,0,0,817.991,532.36Z" transform="translate(-633.418 -413.783)" opacity="0.06"/>
    <path id="Path_6168" data-name="Path 6168" d="M748.949,326.152a4.141,4.141,0,0,0-1.446,3.114c-.531,5,1.533,9.957,1.4,14.985-.11,4-1.6,7.818-3.071,11.54a68.69,68.69,0,0,0-4.32,20.054c-.506,6.808-1.247,13.9-4.9,19.657-.83,1.3-1.8,2.515-2.61,3.827-.853,1.371-1.528,2.842-2.281,4.268a45.926,45.926,0,0,1-8.476,11.385,11.7,11.7,0,0,1-3.326,2.476,6.7,6.7,0,0,1-5.2.055,4.971,4.971,0,0,1-3.211-4.141c-.062-1.65.922-3.139,1.91-4.46a73.212,73.212,0,0,1,11.468-12.156,6.6,6.6,0,0,0,1.994-2.261,10.106,10.106,0,0,0,.324-3.458,30.391,30.391,0,0,1,1.247-5.43c1.745-7.352-1.356-15.379,1.167-22.5a22.661,22.661,0,0,0,1.59-4.764,4.528,4.528,0,0,0-.88-3.346,4.4,4.4,0,0,1-1.08-2.832,5.371,5.371,0,0,1,.025-.636,68.733,68.733,0,0,0,.441-9.815,23.008,23.008,0,0,0-2.326-9.473,26.905,26.905,0,0,1-2.278-4.547c-.778-2.635-.06-5.485,1.1-7.978a13.918,13.918,0,0,1,3.8-5.143,10.171,10.171,0,0,1,11.246-.716c2.528,1.511,4.258,4.051,5.661,6.641C747.914,322.39,748.964,323.993,748.949,326.152Z" transform="translate(-553.581 -274.781)" fill="#a1616a"/>
    <ellipse id="Ellipse_611" data-name="Ellipse 611" cx="9.436" cy="14.806" rx="9.436" ry="14.806" transform="translate(172.158 38.507)" fill="#a1616a"/>
    <path id="Path_6169" data-name="Path 6169" d="M703.607,659.874a3.29,3.29,0,0,1,.5,2.742,4.793,4.793,0,0,0,3.064.892,9.467,9.467,0,0,0,3.154-.725,10.42,10.42,0,0,0,2.453-1.286,10.814,10.814,0,0,0,2.991-3.765c.421-.788.78-1.807.249-2.515a2.414,2.414,0,0,0-.748-.578,44.42,44.42,0,0,0-5.983-2.844,4.4,4.4,0,0,0-1.8-.4,3.87,3.87,0,0,0-2.069.93,11.22,11.22,0,0,0-3.221,3.989c-.234.5-.942,1.683-.591,2.2.16.237.748.319,1,.469a3.225,3.225,0,0,1,1.01.9Z" transform="translate(-546.078 -529.191)" fill="#fbbebe"/>
    <path id="Path_6170" data-name="Path 6170" d="M703.607,659.874a3.29,3.29,0,0,1,.5,2.742,4.793,4.793,0,0,0,3.064.892,9.467,9.467,0,0,0,3.154-.725,10.42,10.42,0,0,0,2.453-1.286,10.814,10.814,0,0,0,2.991-3.765c.421-.788.78-1.807.249-2.515a2.414,2.414,0,0,0-.748-.578,44.42,44.42,0,0,0-5.983-2.844,4.4,4.4,0,0,0-1.8-.4,3.87,3.87,0,0,0-2.069.93,11.22,11.22,0,0,0-3.221,3.989c-.234.5-.942,1.683-.591,2.2.16.237.748.319,1,.469a3.225,3.225,0,0,1,1.01.9Z" transform="translate(-546.078 -529.191)" opacity="0.03"/>
    <path id="Path_6171" data-name="Path 6171" d="M711.7,662.237c4.218.783,8.1,2.822,12.243,3.921a40.688,40.688,0,0,1,5.009,1.4,6.818,6.818,0,0,1,3.8,3.361,9.625,9.625,0,0,1,.576,2.373,4.529,4.529,0,0,1-.356,3.376c-.721,1-2.082,1.217-3.3,1.364-4.383.521-8.765,1.045-13.163,1.414a22.987,22.987,0,0,0-2.655.317c-.723.145-1.428.364-2.147.533-.93.217-1.875.354-2.817.5a29.072,29.072,0,0,1-7.27.429,3.389,3.389,0,0,1-2.827-1.476,3.767,3.767,0,0,1-.249-1.625c-.012-1.481-.025-2.959,0-4.437a10.068,10.068,0,0,1,.785-4.448,1.768,1.768,0,0,1,.9-.935,2.066,2.066,0,0,1,.773-.07,9.128,9.128,0,0,1,3.8.678c.92.456,1.668,1.217,2.605,1.63,1.775.788,3.916.222,5.714.962a7.153,7.153,0,0,0,.013-3.921,30.522,30.522,0,0,1-.88-3.974,2.535,2.535,0,0,0-.169-.867C711.949,662.464,711.994,662.194,711.7,662.237Z" transform="translate(-543.847 -537.33)" fill="#464353"/>
    <path id="Path_6172" data-name="Path 6172" d="M711.7,662.237c4.218.783,8.1,2.822,12.243,3.921a40.688,40.688,0,0,1,5.009,1.4,6.818,6.818,0,0,1,3.8,3.361,9.625,9.625,0,0,1,.576,2.373,4.529,4.529,0,0,1-.356,3.376c-.721,1-2.082,1.217-3.3,1.364-4.383.521-8.765,1.045-13.163,1.414a22.987,22.987,0,0,0-2.655.317c-.723.145-1.428.364-2.147.533-.93.217-1.875.354-2.817.5a29.072,29.072,0,0,1-7.27.429,3.389,3.389,0,0,1-2.827-1.476,3.767,3.767,0,0,1-.249-1.625c-.012-1.481-.025-2.959,0-4.437a10.068,10.068,0,0,1,.785-4.448,1.768,1.768,0,0,1,.9-.935,2.066,2.066,0,0,1,.773-.07,9.128,9.128,0,0,1,3.8.678c.92.456,1.668,1.217,2.605,1.63,1.775.788,3.916.222,5.714.962a7.153,7.153,0,0,0,.013-3.921,30.522,30.522,0,0,1-.88-3.974,2.535,2.535,0,0,0-.169-.867C711.949,662.464,711.994,662.194,711.7,662.237Z" transform="translate(-543.847 -537.33)" opacity="0.06"/>
    <path id="Path_6173" data-name="Path 6173" d="M175.3,445.305c-.85-.269-1.67.484-2.146,1.246-1.979,3.111-1.817,7.265-.234,10.6a8.043,8.043,0,0,0,1.536,2.286,14.788,14.788,0,0,0,2.992,1.994,22.511,22.511,0,0,1,7.17,6.731c1.219,1.8,2.179,3.774,3.562,5.447,3.405,4.118,9,5.983,12.305,10.171A12.962,12.962,0,0,0,203,486.656a4.273,4.273,0,0,0,6.689-3.311,48.031,48.031,0,0,0,3.333-6.026,71.71,71.71,0,0,0,3.739-9.69c.371-1.172.73-2.351,1.2-3.49,1.169-2.812,3.031-5.357,3.69-8.329a35.944,35.944,0,0,1,.713-3.587,6.828,6.828,0,0,1,1.715-2.742c2.593-2.52,3.989-6.193,6.05-9.159a19.774,19.774,0,0,0,2.261-3.752,5.935,5.935,0,0,0,.249-4.28,3.57,3.57,0,0,0-3.326-2.4,5.052,5.052,0,0,0-1.867.573,20.8,20.8,0,0,0-5.47,3.769,26.477,26.477,0,0,0-1.994,2.144c-3.046,3.64-5.43,8.057-5.639,12.8-.07,1.625.06,3.428-.972,4.687-2.847,3.478-3.762,8.259-6.19,12.044-1.124,1.745-2.413,3.552-4.335,4.348a1.848,1.848,0,0,1-.912.179c-.768-.087-1.209-.895-1.533-1.6a61.84,61.84,0,0,0-4.385-7.915,7.538,7.538,0,0,0-2.418-2.605c-.713-.4-1.541-.573-2.211-1.037a6.549,6.549,0,0,1-1.91-2.775,43.106,43.106,0,0,0-5.936-9.254c-1.082-1.289-2.508-2.62-4.178-2.428C177.773,443.007,176.8,444.679,175.3,445.305Z" transform="translate(-148.354 -362.906)" fill="#fbbebe"/>
    <path id="Path_6174" data-name="Path 6174" d="M175.3,445.305c-.85-.269-1.67.484-2.146,1.246-1.979,3.111-1.817,7.265-.234,10.6a8.043,8.043,0,0,0,1.536,2.286,14.788,14.788,0,0,0,2.992,1.994,22.511,22.511,0,0,1,7.17,6.731c1.219,1.8,2.179,3.774,3.562,5.447,3.405,4.118,9,5.983,12.305,10.171A12.962,12.962,0,0,0,203,486.656a4.273,4.273,0,0,0,6.689-3.311,48.031,48.031,0,0,0,3.333-6.026,71.71,71.71,0,0,0,3.739-9.69c.371-1.172.73-2.351,1.2-3.49,1.169-2.812,3.031-5.357,3.69-8.329a35.944,35.944,0,0,1,.713-3.587,6.828,6.828,0,0,1,1.715-2.742c2.593-2.52,3.989-6.193,6.05-9.159a19.774,19.774,0,0,0,2.261-3.752,5.935,5.935,0,0,0,.249-4.28,3.57,3.57,0,0,0-3.326-2.4,5.052,5.052,0,0,0-1.867.573,20.8,20.8,0,0,0-5.47,3.769,26.477,26.477,0,0,0-1.994,2.144c-3.046,3.64-5.43,8.057-5.639,12.8-.07,1.625.06,3.428-.972,4.687-2.847,3.478-3.762,8.259-6.19,12.044-1.124,1.745-2.413,3.552-4.335,4.348a1.848,1.848,0,0,1-.912.179c-.768-.087-1.209-.895-1.533-1.6a61.84,61.84,0,0,0-4.385-7.915,7.538,7.538,0,0,0-2.418-2.605c-.713-.4-1.541-.573-2.211-1.037a6.549,6.549,0,0,1-1.91-2.775,43.106,43.106,0,0,0-5.936-9.254c-1.082-1.289-2.508-2.62-4.178-2.428C177.773,443.007,176.8,444.679,175.3,445.305Z" transform="translate(-148.354 -362.906)" opacity="0.03"/>
    <ellipse id="Ellipse_612" data-name="Ellipse 612" cx="6.572" cy="5.931" rx="6.572" ry="5.931" transform="translate(20.201 58.626)" fill="#fbbebe"/>
    <ellipse id="Ellipse_613" data-name="Ellipse 613" cx="2.366" cy="2.366" rx="2.366" ry="2.366" transform="translate(30.569 60.972)" fill="#fbbebe"/>
    <ellipse id="Ellipse_614" data-name="Ellipse 614" cx="9.052" cy="2.421" rx="9.052" ry="2.421" transform="translate(18.583 59.715)" fill="#fbbebe"/>
    <path id="Path_6175" data-name="Path 6175" d="M147.046,349.252a16.394,16.394,0,0,1,.519,2.131,12.734,12.734,0,0,1-1.959-2.575,1.917,1.917,0,0,1-.347-.548,14.644,14.644,0,0,1-1.359-5.841,12.8,12.8,0,1,1,16.169,12.353,16,16,0,0,0,1-3.8,2.742,2.742,0,0,0-.184-1.284,2.926,2.926,0,0,0-.94-1.082,8.119,8.119,0,0,0-5.056-1.536,13.874,13.874,0,0,0-5.2,1.246c-.516.222-1.134.521-1.745.725A4.543,4.543,0,0,1,147.046,349.252Z" transform="translate(-127.483 -287.632)" fill="#fbbebe"/>
    <path id="Path_6176" data-name="Path 6176" d="M188.638,442.825c-.82,1.314-2.573,1.715-4.113,1.6a14.04,14.04,0,0,1-7.7-3.59c-2.219-1.845-4.158-3.989-6.427-5.764a22.811,22.811,0,0,0-14.345-4.714c1.05-.87.663-2.934.748-4.29a41.94,41.94,0,0,0,0-8.259c-.037-.292-.08-.578-.13-.865.085.09.175.177.267.267a12.819,12.819,0,0,0,12.238,3.121,9.966,9.966,0,0,0-.322,1.326,13.911,13.911,0,0,0,.72,5.769,5.389,5.389,0,0,0,1.6,3.046,7.025,7.025,0,0,0,2.079.88,11.465,11.465,0,0,1,3.874,2.244,31.362,31.362,0,0,0,2.341,2.1,16.3,16.3,0,0,0,2.53,1.306,31.656,31.656,0,0,1,6.083,3.687,1.994,1.994,0,0,1,.79.937,1.541,1.541,0,0,1-.227,1.2Z" transform="translate(-136.605 -353.189)" fill="#fbbebe"/>
    <path id="Path_6177" data-name="Path 6177" d="M190.244,503.215c-.172,1.137-1.214,2.024-1.95,2.907-2,2.413-4.026,4.834-6.262,7.043a98,98,0,0,1-7.646,6.569l-3.405,2.725a4.286,4.286,0,0,1-1.448.872,2.645,2.645,0,0,1-1.865-.222,3.645,3.645,0,0,1-.646-.4,8.744,8.744,0,0,1-1.73-2.032q-3.455-5.043-6.918-10.089c-.823-1.2-1.63-2.436-2.433-3.67-.107-.16-.209-.322-.317-.481-.733-1.122-1.463-2.244-2.214-3.328l-4.1-1.922-.538-.249-.636-.3a10.073,10.073,0,0,1-2.406-1.414,8.145,8.145,0,0,1-1.658-2.2,38.439,38.439,0,0,1-2.149-4.7c-1.745-4.405-3.281-9-3.346-13.739a16.975,16.975,0,0,1,3.946-11.57,12.424,12.424,0,0,1,1.219-1.182,2.18,2.18,0,0,1,1.77-.611c.686.1,1.336.2,1.994.309q2.722.469,5.4,1.147a11.189,11.189,0,0,0,4.906.553c.262-.052.521-.127.78-.194.212-.055.421-.107.638-.142a2.938,2.938,0,0,1,.364-.04,5.724,5.724,0,0,1,2.493.643,12.388,12.388,0,0,1,4.238,2.543c.683.723,1.184,1.61,1.912,2.291a16.523,16.523,0,0,0,3.435,2.027,6.158,6.158,0,0,1,.651.416,7.392,7.392,0,0,1,1.246,1.184h0c1.511,1.782,2.408,4.188,4.076,5.961a24.332,24.332,0,0,1,3.455,4.679c.157.282.309.566.459.855q.374.722.7,1.463c.055.127.11.249.16.381a22.869,22.869,0,0,1,.82,2.286c.566,1.882.942,3.914,2.2,5.425a27.213,27.213,0,0,0,3.119,2.65,5.517,5.517,0,0,1,1.516,2.062A2.947,2.947,0,0,1,190.244,503.215Z" transform="translate(-123.484 -389.424)" fill="#fbbebe"/>
    <path id="Path_6178" data-name="Path 6178" d="M195.223,489.954q-.429.541-.88,1.067c-.05.065-.1.127-.16.189a47.616,47.616,0,0,1-8.94,8.1c-2.049,1.431-4.211,2.7-6.367,3.966l-3.989,2.336a24.7,24.7,0,0,1-5.208,2.53c-.593.177-1.214.319-1.82.486-.107-.16-.209-.322-.317-.481-.733-1.122-1.463-2.244-2.214-3.328l-4.1-1.922a24.035,24.035,0,0,0,5.948-5.33,64.636,64.636,0,0,0,6.3-10.062,7.564,7.564,0,0,0,.775-1.795,6.172,6.172,0,0,0-.267-3.169,16.7,16.7,0,0,0-6.681-9.007,31.575,31.575,0,0,0-7.334-3.283,12.344,12.344,0,0,0-5.517-.955,12.126,12.126,0,0,1,1.219-1.179,2.173,2.173,0,0,1,1.77-.613c.686.1,1.336.2,1.994.312,1.334.409,2.645.9,3.949,1.4a18.516,18.516,0,0,1,2.493,1.129,22.313,22.313,0,0,1,2.3,1.608,57.367,57.367,0,0,0,6.811,4.465c2.742,1.513,5.622,2.742,8.5,3.989a2.261,2.261,0,0,0,.985.249.773.773,0,0,0,.748-.583.939.939,0,0,0-.12-.521,5.2,5.2,0,0,0-2.655-2.029c-4.253-2.059-7.993-5.023-11.692-7.965a1.175,1.175,0,0,1-.234-.249l.638-.142a95.107,95.107,0,0,0,13.076,7.883q.361.184.725.359c.175.087.347.172.524.249h0a11.159,11.159,0,0,1,3.383,2.244,10.331,10.331,0,0,1,1.5,2.271,42.684,42.684,0,0,1,2.6,5.983,1.351,1.351,0,0,0,.047.13,2.3,2.3,0,0,0,.459.855.973.973,0,0,0,.262.207C194.193,489.629,194.836,489.6,195.223,489.954Z" transform="translate(-135.403 -391.136)" opacity="0.06"/>
    <path id="Path_6179" data-name="Path 6179" d="M171.16,466.9a94.843,94.843,0,0,0,13.076,7.88l.725.362a12.915,12.915,0,0,1,3.909,2.493,10.406,10.406,0,0,1,1.5,2.274,42.261,42.261,0,0,1,2.6,5.983,2.024,2.024,0,0,0,.77,1.192c.424.234,1.1.217,1.473.571-.339.424-.683.843-1.04,1.246a47.543,47.543,0,0,1-8.94,8.107c-2.049,1.431-4.211,2.7-6.367,3.966l-3.989,2.336a24.809,24.809,0,0,1-5.208,2.528c-.7.212-1.431.371-2.136.576-.733-1.122-1.463-2.244-2.214-3.328l-4.642-2.174a23.362,23.362,0,0,0,6.482-5.649,64.5,64.5,0,0,0,6.3-10.059,7.6,7.6,0,0,0,.775-1.795,6.181,6.181,0,0,0-.267-3.171,16.7,16.7,0,0,0-6.664-8.982,31.68,31.68,0,0,0-7.334-3.283,12.342,12.342,0,0,0-5.517-.952,12.416,12.416,0,0,1,1.219-1.182,2.18,2.18,0,0,1,1.77-.611c.686.1,1.336.2,1.994.309,1.334.411,2.645.9,3.949,1.4a18.2,18.2,0,0,1,2.493,1.129,22.323,22.323,0,0,1,2.3,1.608,57.327,57.327,0,0,0,6.821,4.453c2.742,1.516,5.622,2.755,8.5,3.989a2.255,2.255,0,0,0,.985.249.768.768,0,0,0,.748-.583.935.935,0,0,0-.12-.519,5.184,5.184,0,0,0-2.655-2.029c-4.253-2.059-7.993-5.026-11.692-7.978a1.1,1.1,0,0,1-.234-.249Z" transform="translate(-135.403 -389.424)" fill="#20cad1"/>
    <ellipse id="Ellipse_615" data-name="Ellipse 615" cx="15.648" cy="15.648" rx="15.648" ry="15.648" transform="translate(55.038 59.715)" fill="#20cad1"/>
    <path id="Path_6180" data-name="Path 6180" d="M396.975,571.294a33.59,33.59,0,0,0,8.476-3.54,50.077,50.077,0,0,0,5.006-4.109c1.234-1.057,2.52-2.054,3.652-3.221a38.02,38.02,0,0,0,2.842-3.445q3-3.929,6.2-7.708a12.448,12.448,0,0,1,3.951-3.46c2.84-1.334,6.173-.434,9.169.481a85.283,85.283,0,0,1,13.151,4.911c2.388,1.189,4.7,2.515,7.113,3.655a100.632,100.632,0,0,0,13.749,4.931,1.745,1.745,0,0,0,1.1.09,1.612,1.612,0,0,0,.651-.543,9.289,9.289,0,0,0,1.443-2.493.479.479,0,0,0-.117-.646c-1.994-1.942-4.582-3.136-7-4.52-1.925-1.1-3.767-2.333-5.607-3.568a30.677,30.677,0,0,1-5.033-3.9c-.748-.77-1.421-1.62-2.231-2.324a18.683,18.683,0,0,0-2.269-1.59,91.174,91.174,0,0,1-10.151-7.521c-2.438-2.084-4.435-4.769-7.04-6.639-1.6-1.147-3.458-2.191-5.412-1.982-2.378.249-4.133,2.244-5.791,3.964-5.572,5.786-12.6,9.927-18.82,15.015-5.076,4.148-9.82,9.077-16,11.266.277.917.374,1.835.653,2.742a28.665,28.665,0,0,0,1.3,3.7,29.078,29.078,0,0,0,1.728,3.091l2.478,4.046a10.227,10.227,0,0,0,1.733,2.311C396.264,570.643,396.975,570.773,396.975,571.294Z" transform="translate(-310.73 -433.65)" fill="#464353"/>
    <path id="Path_6181" data-name="Path 6181" d="M396.975,571.294a33.59,33.59,0,0,0,8.476-3.54,50.077,50.077,0,0,0,5.006-4.109c1.234-1.057,2.52-2.054,3.652-3.221a38.02,38.02,0,0,0,2.842-3.445q3-3.929,6.2-7.708a12.448,12.448,0,0,1,3.951-3.46c2.84-1.334,6.173-.434,9.169.481a85.283,85.283,0,0,1,13.151,4.911c2.388,1.189,4.7,2.515,7.113,3.655a100.632,100.632,0,0,0,13.749,4.931,1.745,1.745,0,0,0,1.1.09,1.612,1.612,0,0,0,.651-.543,9.289,9.289,0,0,0,1.443-2.493.479.479,0,0,0-.117-.646c-1.994-1.942-4.582-3.136-7-4.52-1.925-1.1-3.767-2.333-5.607-3.568a30.677,30.677,0,0,1-5.033-3.9c-.748-.77-1.421-1.62-2.231-2.324a18.683,18.683,0,0,0-2.269-1.59,91.174,91.174,0,0,1-10.151-7.521c-2.438-2.084-4.435-4.769-7.04-6.639-1.6-1.147-3.458-2.191-5.412-1.982-2.378.249-4.133,2.244-5.791,3.964-5.572,5.786-12.6,9.927-18.82,15.015-5.076,4.148-9.82,9.077-16,11.266.277.917.374,1.835.653,2.742a28.665,28.665,0,0,0,1.3,3.7,29.078,29.078,0,0,0,1.728,3.091l2.478,4.046a10.227,10.227,0,0,0,1.733,2.311C396.264,570.643,396.975,570.773,396.975,571.294Z" transform="translate(-310.73 -433.65)" opacity="0.06"/>
    <path id="Path_6182" data-name="Path 6182" d="M691.461,668.766a3.3,3.3,0,0,1,.5,2.742,4.785,4.785,0,0,0,3.056.9,9.6,9.6,0,0,0,3.161-.723,10.519,10.519,0,0,0,2.453-1.286,10.948,10.948,0,0,0,3-3.767c.421-.785.78-1.8.237-2.513a2.348,2.348,0,0,0-.748-.578,44.518,44.518,0,0,0-5.971-2.845,4.451,4.451,0,0,0-1.8-.406,3.873,3.873,0,0,0-2.072.932,11.219,11.219,0,0,0-3.219,3.989c-.234.5-.942,1.685-.593,2.2.16.237.748.319,1,.466A3.226,3.226,0,0,1,691.461,668.766Z" transform="translate(-536.968 -535.872)" fill="#fbbebe"/>
    <path id="Path_6183" data-name="Path 6183" d="M703.925,670.617c4.218.785,8.1,2.822,12.243,3.922a40.71,40.71,0,0,1,5.008,1.4,6.819,6.819,0,0,1,3.8,3.361,9.657,9.657,0,0,1,.576,2.373,4.528,4.528,0,0,1-.356,3.376c-.72,1-2.082,1.219-3.3,1.364-4.383.524-8.765,1.045-13.163,1.414a23.572,23.572,0,0,0-2.65.317c-.723.147-1.428.364-2.146.534-.927.219-1.875.354-2.817.5a29.079,29.079,0,0,1-7.27.426,3.389,3.389,0,0,1-2.827-1.476,3.768,3.768,0,0,1-.249-1.625c0-1.478-.025-2.959,0-4.438a10.067,10.067,0,0,1,.785-4.448,1.775,1.775,0,0,1,.9-.935,2.065,2.065,0,0,1,.773-.07,9.132,9.132,0,0,1,3.8.678c.92.456,1.583-.907,2.52-.5,1.778.785.573-1.6,2.368-.855.419-1.292,2.2-.524,1.89-1.847s.8-.748.673-2.109a2.541,2.541,0,0,0-.17-.868C704.174,670.844,704.219,670.574,703.925,670.617Z" transform="translate(-538.016 -543.621)" fill="#464353"/>
    <path id="Path_6184" data-name="Path 6184" d="M167.03,334.872a6.2,6.2,0,0,1-3.293.434,20.475,20.475,0,0,0-2.949.152,2.784,2.784,0,0,0-1.015.269,2.538,2.538,0,0,0-.942,1.1,7.792,7.792,0,0,0-.8,2.448,5.617,5.617,0,0,1-.723,2.77c-.815,1.035-2.087.875-3.241,1.079a8.725,8.725,0,0,0-2.844,1.087,7.028,7.028,0,0,0-3.3,4.839c-.032.227-.055.451-.065.678-.025.643.04,1.3-.045,1.93a3.361,3.361,0,0,1-.095.466,1,1,0,0,1-.042.132c-.037-.292-.08-.578-.13-.865a12.73,12.73,0,0,1-1.959-2.575,1.918,1.918,0,0,1-.347-.548,14.644,14.644,0,0,1-1.359-5.841,12.8,12.8,0,0,1,23.137-7.554Z" transform="translate(-127.476 -287.64)" opacity="0.06"/>
    <path id="Path_6185" data-name="Path 6185" d="M118.424,312.735a7.8,7.8,0,0,0-3.385-3.361,18.431,18.431,0,0,0-9.1-2.7,27.494,27.494,0,0,0-9.311,1.778,16.047,16.047,0,0,0-6.185,4.567,6.224,6.224,0,0,0-1.035.167,10.427,10.427,0,0,0-3.692,1.93,11.752,11.752,0,0,0-2.458,2.4,10.316,10.316,0,0,0-1.658,3.9c-.95,4.378.219,8.9,1.077,13.29s1.359,9.2-.748,13.146c-.8,1.5-1.925,2.767-2.772,4.223a6.275,6.275,0,0,0-.93,4.824c.573,1.965,2.5,3.211,3.51,4.979a5.983,5.983,0,0,1-1.164,7.16,5.771,5.771,0,0,0,4.772-.92,8.432,8.432,0,0,0,2.81-2.665c1.792-2.9,1-6.649,1.62-10,.83-4.388,4.181-8.3,3.72-12.744-.312-2.992-2.286-5.472-3.839-8.037a31.494,31.494,0,0,1-2.6-5.392,8.142,8.142,0,0,1-.656-4.183,5.63,5.63,0,0,1,.391-1.247v.142a9.551,9.551,0,0,0,.853,3.739c1.855,3.789,6.793,5.185,8.885,8.848a5.905,5.905,0,0,0,1.5-2.231,10.246,10.246,0,0,0,.14-2.4,6.949,6.949,0,0,1,3.361-5.515,8.634,8.634,0,0,1,2.844-1.084c1.152-.207,2.423-.05,3.241-1.084a5.608,5.608,0,0,0,.725-2.767,7.743,7.743,0,0,1,.8-2.451,2.515,2.515,0,0,1,.942-1.1,2.742,2.742,0,0,1,1.017-.269,20.424,20.424,0,0,1,2.947-.152,6.117,6.117,0,0,0,3.336-.456A3.521,3.521,0,0,0,118.424,312.735Z" transform="translate(-78.05 -270.409)" fill="#464353"/>
    <path id="Path_6186" data-name="Path 6186" d="M751.263,257.2v.1c-.451,3.889-4.191,3.71-5.063,9.837-.344,2.4-3.989,2.844-6.384,3.49-1.035-.349-2.082-.651-3.116-1.027-2.393-.865-.72-2.164.3-3.56,3.353-4.572,3.989-10.82,7.8-15.02a14.038,14.038,0,0,0,6.3,6.1A.9.9,0,0,0,751.263,257.2Z" transform="translate(-571.579 -228.632)" opacity="0.06"/>
    <path id="Path_6187" data-name="Path 6187" d="M704.916,219.732a15.648,15.648,0,1,1-15.208-15.641,15.791,15.791,0,0,1,15.208,15.641Z" transform="translate(-525.144 -193.398)" fill="#a1616a"/>
    <path id="Path_6188" data-name="Path 6188" d="M774.918,273.848a12.182,12.182,0,0,1,5.17,1.306c6.564,2.742,13.183,5.507,19.049,9.533a105.02,105.02,0,0,1,8.247,6.529l10.991,9.339a39.787,39.787,0,0,1,5.933,5.8,39.351,39.351,0,0,1,2.725,4.238l1.63,2.78a24.949,24.949,0,0,1,1.745,3.4c.838,2.146,1.149,4.649,2.839,6.218,1.134,1.055,2.7,1.483,4.083,2.179s2.742,1.917,2.72,3.468A6.549,6.549,0,0,1,839,331.428a11.193,11.193,0,0,0-1.137,6.065l-17.974-13.736a6.106,6.106,0,0,0-2.343-1.294,6.375,6.375,0,0,0-3.408.571,66.077,66.077,0,0,1-27.1,3.562,28.471,28.471,0,0,1-11.74-3.036,36.409,36.409,0,0,1-5.435-3.989,66.6,66.6,0,0,1-6.232-5.679A4.015,4.015,0,0,1,762.481,312a6.286,6.286,0,0,1,.067-1.615c.314-3.782-2.827-6.931-3.784-10.6a9.723,9.723,0,0,1,3.044-9.64c2.142,1.875,2.064,5.168,1.815,8-.337,3.817.73,5.709.394,9.528,1.356-.05,1.109.823,1.688-.406a11.382,11.382,0,0,0,.8-3.969q.6-7.344,1.458-14.664c.284-2.441.608-4.876.92-7.314.189-1.483.164-2.869.947-4.186A6.419,6.419,0,0,1,774.918,273.848Z" transform="translate(-588.852 -245.764)" fill="#20cad1"/>
    <path id="Path_6189" data-name="Path 6189" d="M806.806,291.241a6.09,6.09,0,0,1,3.517.312q3.042.9,6.048,1.907a16.392,16.392,0,0,1,4.684,2.161,25.629,25.629,0,0,1,5.532,7.312,17.517,17.517,0,0,1,1,4.951,6.5,6.5,0,0,1-.027,2.186,5.309,5.309,0,0,1-1.2,2.1,14.375,14.375,0,0,1-2.957,2.65c-2.934,1.974-6.482,2.8-9.937,3.523a65.4,65.4,0,0,1-9.336,1.441c-1.224.077-2.645,0-3.393-.967a3.816,3.816,0,0,1-.5-.982,37.178,37.178,0,0,1-2.336-15.265,11.237,11.237,0,0,1,.436-2.8,20.035,20.035,0,0,1,4.527-6.94,9.56,9.56,0,0,1,6.021-1.561" transform="translate(-618.394 -258.71)" fill="#a1616a"/>
    <path id="Path_6190" data-name="Path 6190" d="M767.119,324.742a4.141,4.141,0,0,0-1.446,3.114c-.531,5,1.533,9.957,1.4,14.985-.11,3.989-1.6,7.818-3.071,11.54a68.69,68.69,0,0,0-4.32,20.054c-.506,6.808-1.247,13.9-4.9,19.657-.83,1.3-1.8,2.515-2.61,3.827-.853,1.371-1.528,2.842-2.281,4.268a45.925,45.925,0,0,1-8.476,11.385,11.7,11.7,0,0,1-3.326,2.476,6.7,6.7,0,0,1-5.2.055,4.97,4.97,0,0,1-3.211-4.141c-.062-1.65.922-3.139,1.91-4.46a73.206,73.206,0,0,1,11.468-12.156,6.6,6.6,0,0,0,1.994-2.261,10.113,10.113,0,0,0,.324-3.458,30.4,30.4,0,0,1,1.246-5.43c1.745-7.352-1.356-15.379,1.167-22.5a22.667,22.667,0,0,0,1.591-4.764,4.539,4.539,0,0,0-.88-3.346,4.412,4.412,0,0,1-1.082-2.832,4.865,4.865,0,0,1,.027-.636,68.732,68.732,0,0,0,.441-9.815,23.008,23.008,0,0,0-2.326-9.473,26.924,26.924,0,0,1-2.279-4.547c-.778-2.635-.06-5.485,1.1-7.978a13.919,13.919,0,0,1,3.8-5.143,10.171,10.171,0,0,1,11.246-.715c2.528,1.511,4.258,4.051,5.661,6.641C766.084,320.98,767.146,322.583,767.119,324.742Z" transform="translate(-567.221 -273.723)" opacity="0.06"/>
    <path id="Path_6191" data-name="Path 6191" d="M769.4,324.742a4.141,4.141,0,0,0-1.446,3.114c-.531,5,1.533,9.957,1.4,14.985-.11,3.989-1.6,7.818-3.071,11.54a68.771,68.771,0,0,0-4.32,20.054c-.509,6.808-1.247,13.9-4.9,19.657-.83,1.3-1.8,2.515-2.61,3.827-.85,1.371-1.528,2.842-2.281,4.268a45.975,45.975,0,0,1-8.476,11.385,11.71,11.71,0,0,1-3.328,2.476,6.7,6.7,0,0,1-5.2.055,4.972,4.972,0,0,1-3.208-4.141c-.065-1.65.92-3.139,1.91-4.46a73.192,73.192,0,0,1,11.468-12.156,6.574,6.574,0,0,0,1.994-2.261,10.052,10.052,0,0,0,.324-3.458,30.391,30.391,0,0,1,1.246-5.43c1.745-7.352-1.356-15.379,1.167-22.5a22.673,22.673,0,0,0,1.593-4.764,4.549,4.549,0,0,0-.88-3.346,4.388,4.388,0,0,1-1.112-2.832,4.874,4.874,0,0,1,.028-.636,69.126,69.126,0,0,0,.439-9.815,23.014,23.014,0,0,0-2.326-9.473,26.9,26.9,0,0,1-2.279-4.547c-.778-2.635-.06-5.485,1.1-7.978a13.944,13.944,0,0,1,3.8-5.143,10.17,10.17,0,0,1,11.246-.716c2.528,1.511,4.258,4.051,5.662,6.641C768.358,320.98,769.415,322.583,769.4,324.742Z" transform="translate(-568.932 -273.723)" fill="#a1616a"/>
    <path id="Path_6192" data-name="Path 6192" d="M982.654,627l-.214.065" transform="translate(-756.977 -510.881)" fill="#464353"/>
    <path id="Path_6193" data-name="Path 6193" d="M808.15,670.869a1.834,1.834,0,0,1,.045-.249" transform="translate(-626.137 -543.627)" fill="#464353"/>
    <path id="Path_6194" data-name="Path 6194" d="M1005.867,595.812a5.518,5.518,0,0,1,2.89-1.478,29.015,29.015,0,0,1,5.235-.853,9.785,9.785,0,0,1,3.281.2,4.227,4.227,0,0,1,2.608,1.885,6.548,6.548,0,0,1,.613,2.825,25.817,25.817,0,0,1-.08,5.953c-.212,1.247-.608,2.453-.865,3.69-.833,4.054-.11,8.249-.184,12.388a6.4,6.4,0,0,1-.446,2.588,7.2,7.2,0,0,1-1.8,2.134,11.432,11.432,0,0,1-2.465,1.847,10.611,10.611,0,0,1-4.467.848,6.841,6.841,0,0,1-2.742-.312,2.553,2.553,0,0,1-1.688-2.039c-.1-1.578,1.68-2.61,2.189-4.106a4.457,4.457,0,0,0-.7-3.592,11.369,11.369,0,0,0-4.266-4.126,9.045,9.045,0,0,1-1.892-1.167,2,2,0,0,1-.681-1.994,2.38,2.38,0,0,1,2.156-1.331,7.4,7.4,0,0,0,2.63-.416,3.6,3.6,0,0,0,1.551-1.745,6.481,6.481,0,0,0,.282-4.879,5.991,5.991,0,0,0-.927-1.688c-.374-.479-1.142-.883-1.409-1.406C1004.207,598.1,1005.232,596.56,1005.867,595.812Z" transform="translate(-770.405 -485.676)" fill="#20cad1"/>
    <path id="Path_6195" data-name="Path 6195" d="M847.279,431.783c-4.118-3.64-9.86-4.629-15.245-5.734q-4.161-.85-8.282-1.895a30.878,30.878,0,0,0-5.485-1.074,9.291,9.291,0,0,0-5.395,1.087,5.539,5.539,0,0,0-2.817,4.54c0,.748.177,1.481.122,2.221a11.564,11.564,0,0,1-1.2,3.358,8.825,8.825,0,0,0-.3,5.524c.8,2.909,3.1,5.472,2.9,8.476a56.786,56.786,0,0,0,.8,15.207c1.032,4.924,2.321,9.87,2.291,14.908s-1.556,10.336-5.318,13.692a20.55,20.55,0,0,0,9.057,4.949c2.9.725,6.347.653,8.411-1.508a2.326,2.326,0,0,0,.775-1.85,3.619,3.619,0,0,0-.536-1.209c-1.418-2.54-1.246-5.672-.618-8.508s1.7-5.594,1.974-8.491c.2-2.1-.025-4.238.376-6.312.309-1.588.977-3.084,1.379-4.652,1.184-4.652-.06-9.536-1.3-14.17a16.086,16.086,0,0,0,5.016,5.854c3.071,2.448,6.786,4.609,10.69,4.176,3.475-.389,6.434-2.8,8.476-5.639.017-3.278,1.154-6.377.952-9.648a24.491,24.491,0,0,0-.768-4.251,21.1,21.1,0,0,0-1.5-4.555C850.789,434.38,848.869,433.186,847.279,431.783Z" transform="translate(-626.303 -357.775)" opacity="0.06"/>
    <path id="Path_6196" data-name="Path 6196" d="M850.71,431.783c-4.118-3.64-9.857-4.629-15.245-5.734q-4.161-.85-8.279-1.895a30.921,30.921,0,0,0-5.485-1.074,9.287,9.287,0,0,0-5.392,1.087,5.533,5.533,0,0,0-2.817,4.54c0,.748.174,1.481.12,2.221a11.856,11.856,0,0,1-1.2,3.358,8.826,8.826,0,0,0-.3,5.524c.8,2.909,3.094,5.472,2.9,8.476a56.69,56.69,0,0,0,.8,15.207c1.032,4.924,2.321,9.87,2.291,14.908s-1.566,10.318-5.33,13.669a20.561,20.561,0,0,0,9.057,4.949c2.9.725,6.35.653,8.411-1.508a2.327,2.327,0,0,0,.775-1.85,3.618,3.618,0,0,0-.536-1.209c-1.419-2.54-1.247-5.672-.618-8.509s1.7-5.594,1.977-8.491c.2-2.1-.027-4.238.376-6.312.307-1.588.977-3.084,1.376-4.652,1.184-4.652-.057-9.536-1.3-14.17a16.069,16.069,0,0,0,5.018,5.854c3.071,2.448,6.784,4.61,10.688,4.176,3.475-.389,6.434-2.8,8.476-5.639.015-3.278,1.152-6.377.95-9.648a24.491,24.491,0,0,0-.768-4.251,20.972,20.972,0,0,0-1.5-4.555C854.236,434.38,852.3,433.186,850.71,431.783Z" transform="translate(-628.882 -357.775)" fill="#a1616a"/>
    <path id="Path_6197" data-name="Path 6197" d="M757.657,689.244a15.568,15.568,0,0,1-4.639-4.345,12.241,12.241,0,0,0-1.4-1.83,2.7,2.7,0,0,0-2.069-.85,3.369,3.369,0,0,0-2.107,1.426c-1.471,1.822-2.418,4.051-4.051,5.734a14.814,14.814,0,0,1-7.14,3.66c-2.625.668-5.335,1.02-7.908,1.865a3.6,3.6,0,0,0-2.094,1.354,3.023,3.023,0,0,0,.334,3.071,9.009,9.009,0,0,0,4.854,3.538,43.9,43.9,0,0,0,5.983,1.329c3.555.7,7.2,1.81,10.735,1.025,1.411-.314,2.742-.922,4.168-1.187,3.241-.6,6.584.616,9.837.127a15.4,15.4,0,0,0,4.487-1.573,6.187,6.187,0,0,0,1.92-1.3,2.349,2.349,0,0,0,.621-2.146,8.652,8.652,0,0,0-.591-1.2,6.179,6.179,0,0,1-.424-2.024,55.47,55.47,0,0,0-1.366-7.8,3.175,3.175,0,0,0-1.389-2.284.748.748,0,0,0-.556-.062c-.3.112-.394.471-.484.773a4.757,4.757,0,0,1-8.272,1.64" transform="translate(-564.438 -552.326)" fill="#20cad1"/>
    <path id="Path_6198" data-name="Path 6198" d="M707.522,219.74a15.849,15.849,0,0,1-.1,1.765,5.048,5.048,0,0,1-4.338-1.443c-.526-.558-.92-1.234-1.441-1.8a2.2,2.2,0,0,0-3.622-.052,5.306,5.306,0,0,0-1.214,2.146,2.925,2.925,0,0,1-.718,1.586,2.27,2.27,0,0,1-1.6.332,4.773,4.773,0,0,1-2.1-.4c-1.2-.646-1.6-2.124-2.044-3.41-.748-2.161-2.431-6.25-5.046-6.686a5.526,5.526,0,0,0-3.74,1.162,6.7,6.7,0,0,1-4.465,1.733h0a15.651,15.651,0,0,1,30.457,5.066Z" transform="translate(-527.75 -193.406)" opacity="0.06"/>
    <path id="Path_6199" data-name="Path 6199" d="M667.228,188.836a3.762,3.762,0,0,1-1.321-.209,3.565,3.565,0,0,1-1.9-3.164,14.17,14.17,0,0,1,1.159-5.774,1.914,1.914,0,0,1,.671-1.07,2.328,2.328,0,0,1,.945-.237,8.939,8.939,0,0,0,4.664-2.57,38.138,38.138,0,0,1,3.989-3.64,10.667,10.667,0,0,1,13.108,1.134c1.341,1.316,2.493,3.1,4.353,3.41,1.072.177,2.221-.192,3.241.207a3.823,3.823,0,0,1,1.71,1.628,16.149,16.149,0,0,1,2.261,7.352,47.992,47.992,0,0,1-.184,7.756,2.025,2.025,0,0,1-.287,1.1,1.675,1.675,0,0,1-.586.449,5.033,5.033,0,0,1-5.806-.977c-.529-.556-.92-1.232-1.441-1.8a2.2,2.2,0,0,0-3.622-.05,5.307,5.307,0,0,0-1.214,2.146,2.893,2.893,0,0,1-.718,1.583,2.288,2.288,0,0,1-1.6.334,4.769,4.769,0,0,1-2.1-.4c-1.2-.643-1.6-2.122-2.044-3.408-.748-2.161-2.428-6.252-5.046-6.686a5.513,5.513,0,0,0-3.74,1.162C670.22,188.175,669.143,188.868,667.228,188.836Z" transform="translate(-517.911 -168.139)" fill="#464353"/>
    <path id="Path_6200" data-name="Path 6200" d="M277.856,610.065c-.172,1.137-1.214,2.024-1.949,2.907-2,2.413-4.026,4.834-6.262,7.043A97.973,97.973,0,0,1,262,626.584l-3.405,2.725a4.286,4.286,0,0,1-1.448.873,2.645,2.645,0,0,1-1.865-.222c.05-.1.1-.192.16-.284l4.084-6.843c.8-1.341,1.329-2.563,2.244-3.822a38.082,38.082,0,0,1,4.467-5.377,38.675,38.675,0,0,1,7.452-4.951c.369-1.107,1.915-1.414,2.959-.89a3.7,3.7,0,0,1,1.03.79A2.947,2.947,0,0,1,277.856,610.065Z" transform="translate(-211.097 -496.275)" opacity="0.06"/>
    <path id="Path_6201" data-name="Path 6201" d="M260.289,561l-4.084,6.846a.968.968,0,0,0,.232,1.551c1.566,1.274,3.3,2.618,3.792,4.575.352,1.4,0,2.892.314,4.293.576,2.528,3.116,4.064,5.519,5.036a31.245,31.245,0,0,0,17.084,1.994A25.034,25.034,0,0,0,298,576.882c1.137-1.376,2.109-2.882,3.189-4.3,2.992-3.927,6.788-7.15,10.555-10.341,4.849-4.108,7.706-10.236,11.966-14.958a5.973,5.973,0,0,1,2.742-2.029c.623-.157,1.5.075,1.521.718.057,1.246,1.06,2.266,1.745,3.308,2.583,3.949,5.285,8.02,9.276,10.538a29.517,29.517,0,0,0,7.127,2.992c6.257,1.95,12.637,3.49,19.009,5.016a10.66,10.66,0,0,1,1.152-1.817c.661-.81,1.531-1.428,2.194-2.244a11.84,11.84,0,0,0,2.029-5.275c-3.807-2.331-7.713-4.737-11.468-7.16a27.06,27.06,0,0,1-5.323-4.106c-1-1.082-1.835-2.321-2.835-3.41a28.925,28.925,0,0,0-3.3-2.924l-8.975-7.187c-2.578-2.062-5.205-4.238-7.728-6.372-1.419-1.2-2.992-2.466-4.846-2.523a8.437,8.437,0,0,0-4.415,1.618q-12.036,7.207-24.431,13.766c-1.673.883-3.353,1.76-4.949,2.775a33.356,33.356,0,0,0-8.157,7.324c-.421.526-.955,1.124-1.623,1.045a1.46,1.46,0,0,1-.521-.182,6.356,6.356,0,0,1-2.244-2.625,6.082,6.082,0,0,0-2.279-2.6,2.139,2.139,0,0,0-2.959.892,40.584,40.584,0,0,0-7.456,4.981,37.939,37.939,0,0,0-4.467,5.377C261.618,558.439,261.089,559.661,260.289,561Z" transform="translate(-211.579 -434.161)" fill="#464353"/>
    <path id="Path_6202" data-name="Path 6202" d="M246.61,502.52a50.243,50.243,0,0,1,7.05,3.879" transform="translate(-204.588 -417.434)" opacity="0.06"/>
    <path id="Path_6203" data-name="Path 6203" d="M975.778,464.6c.075,2.326.135,4.657.107,6.98a7.61,7.61,0,0,1-.658,3.595,7.827,7.827,0,0,1-1.745,1.974l-4.106,3.722a9.151,9.151,0,0,1-4.345,2.645c-1.942.329-3.839-.616-5.706-1.247a18.729,18.729,0,0,0-5.834-.98,21.544,21.544,0,0,1-3.405-.09,13.956,13.956,0,0,1-2.378-.676L944,479.234c.1-.935,1-1.531,1.745-2.122,2.655-2.154,3.819-5.617,4.657-8.93a53.243,53.243,0,0,0,1.451-7.88,12.938,12.938,0,0,0-.092-3.949,15.7,15.7,0,0,0-1.1-3.026l-1.3-2.939c-.748-1.66-2.244-2.4-3.767-3.378,2.3.872,5.1,1.214,6.848,2.944a4.536,4.536,0,0,0,1.182.957,5.588,5.588,0,0,0,1.538.334c2.6.389,4.8,2.019,6.946,3.528q3.936,2.772,8.092,5.208a19.022,19.022,0,0,1,3.583,2.453,5.778,5.778,0,0,1,1.939,3.779" transform="translate(-728.12 -375.762)" fill="#464353"/>
    <path id="Path_6204" data-name="Path 6204" d="M160.282,449.449c-3.268.646-4.969,4.487-4.777,7.811a12.714,12.714,0,0,0,3.445,7.94c1.364,1.433,3.064,2.54,4.3,4.089,1.82,2.284,2.453,5.3,4.081,7.728a21.053,21.053,0,0,0,4.487,4.465q5.7,4.547,11.769,8.608c1.645,1.1,3.445,2.211,5.425,2.169a6.764,6.764,0,0,0,4.8-2.55,20.471,20.471,0,0,0,2.785-4.831c2.847-6.208,5.714-12.482,7.075-19.174a24.8,24.8,0,0,1,1.665-6.19,30.053,30.053,0,0,1,2.842-4.128,28.478,28.478,0,0,0,4.806-10.74,13.853,13.853,0,0,0-.167-7.653,6.96,6.96,0,0,0-5.639-4.7,6.854,6.854,0,0,0-5.417,2.421,13.4,13.4,0,0,0-2.73,5.442,26.069,26.069,0,0,0-.9,8.725c.16,2.371.643,4.764.234,7.108a19.037,19.037,0,0,1-1.723,4.717c-1.842,3.924-3.715,7.9-6.5,11.218-.907,1.082-2.156,2.176-3.545,1.922-1.92-.349-2.428-2.78-3.376-4.487-1.162-2.094-3.366-3.353-5.093-5.016-2.458-2.368-3.931-5.544-5.679-8.476s-4.009-5.826-7.23-6.95-7.514.319-8.342,3.63" transform="translate(-136.185 -364.699)" opacity="0.06"/>
    <path id="Path_6205" data-name="Path 6205" d="M162.808,448.3c-3.271.646-7.434,1.067-7.23,4.4a12.689,12.689,0,0,0,3.445,7.94c1.364,1.436,3.064,2.543,4.3,4.091,1.82,2.284,2.453,5.3,4.081,7.728a20.939,20.939,0,0,0,4.487,4.465q5.7,4.55,11.769,8.608c1.645,1.1,3.445,2.214,5.425,2.171a6.773,6.773,0,0,0,4.8-2.55,20.386,20.386,0,0,0,2.785-4.834c2.847-6.208,5.714-12.482,7.075-19.174a24.781,24.781,0,0,1,1.665-6.188,30.227,30.227,0,0,1,2.842-4.131,28.45,28.45,0,0,0,4.806-10.737,13.862,13.862,0,0,0-.167-7.656,6.96,6.96,0,0,0-5.639-4.7,6.862,6.862,0,0,0-5.417,2.421,13.379,13.379,0,0,0-2.73,5.445,26.061,26.061,0,0,0-.9,8.725c.16,2.373.643,4.767.234,7.107a19.019,19.019,0,0,1-1.723,4.719c-1.842,3.924-3.715,7.9-6.5,11.218-.907,1.082-2.156,2.174-3.545,1.922-1.92-.352-2.428-2.782-3.376-4.487-1.162-2.094-3.366-3.353-5.093-5.016-2.458-2.366-3.931-5.544-5.679-8.476s-4.009-5.824-7.23-6.95.813,6.09-.017,9.4" transform="translate(-136.245 -361.276)" opacity="0.06"/>
    <path id="Path_6206" data-name="Path 6206" d="M160.282,447.173c-3.268.646-4.969,4.487-4.777,7.81a12.714,12.714,0,0,0,3.445,7.943c1.364,1.433,3.064,2.54,4.3,4.089,1.82,2.284,2.453,5.3,4.081,7.728a21.007,21.007,0,0,0,4.487,4.467q5.7,4.547,11.769,8.606c1.645,1.1,3.445,2.214,5.425,2.171a6.764,6.764,0,0,0,4.8-2.55,20.469,20.469,0,0,0,2.785-4.831c2.847-6.208,5.714-12.482,7.075-19.176a24.781,24.781,0,0,1,1.665-6.188,30.228,30.228,0,0,1,2.842-4.131,28.449,28.449,0,0,0,4.806-10.737,13.862,13.862,0,0,0-.167-7.656,6.953,6.953,0,0,0-5.639-4.7,6.846,6.846,0,0,0-5.417,2.421,13.4,13.4,0,0,0-2.73,5.442,26.069,26.069,0,0,0-.9,8.726c.16,2.371.643,4.764.234,7.1a19.019,19.019,0,0,1-1.723,4.719c-1.842,3.924-3.715,7.9-6.5,11.218-.907,1.082-2.156,2.174-3.545,1.922-1.92-.352-2.428-2.78-3.376-4.487-1.162-2.1-3.366-3.356-5.093-5.016-2.458-2.368-3.931-5.544-5.679-8.476s-4.009-5.824-7.23-6.948-7.514.319-8.342,3.63" transform="translate(-136.185 -362.994)" fill="#fbbebe"/>
    <g id="Group_2625" data-name="Group 2625" transform="translate(2.521 36.672)" opacity="0.06">
      <path id="Path_6207" data-name="Path 6207" d="M97.244,384.625a31.494,31.494,0,0,1-2.6-5.392l-.085-.249a8.076,8.076,0,0,1-1.314-1.892,9.538,9.538,0,0,1-.853-3.74q0-.071,0-.142A5.634,5.634,0,0,0,92,374.456a8.172,8.172,0,0,0,.656,4.183,31.58,31.58,0,0,0,2.6,5.392c1.548,2.588,3.525,5.081,3.832,8.05.461,4.442-2.889,8.354-3.717,12.744-.633,3.353.17,7.1-1.623,10a8.4,8.4,0,0,1-2.81,2.663,7.948,7.948,0,0,1-2.3,1,5.345,5.345,0,0,1-.479.5,5.771,5.771,0,0,0,4.772-.92,8.431,8.431,0,0,0,2.81-2.665c1.792-2.9,1-6.649,1.62-10,.83-4.388,4.181-8.3,3.72-12.744C100.772,389.669,98.8,387.178,97.244,384.625Z" transform="translate(-88.16 -357.033)"/>
      <path id="Path_6208" data-name="Path 6208" d="M170.6,313.974a7.8,7.8,0,0,0-3.385-3.361,19.6,19.6,0,0,0-5.686-2.294,20.324,20.324,0,0,1,3.695,1.723,7.841,7.841,0,0,1,3.388,3.363,3.492,3.492,0,0,1-1.062,4.318,6.141,6.141,0,0,1-3.336.456,20.074,20.074,0,0,0-2.947.15,2.836,2.836,0,0,0-1.017.269,2.53,2.53,0,0,0-.942,1.109,7.747,7.747,0,0,0-.8,2.451,5.617,5.617,0,0,1-.725,2.767c-.813,1.035-2.084.878-3.241,1.082a8.725,8.725,0,0,0-2.844,1.087,6.934,6.934,0,0,0-3.361,5.514,10.227,10.227,0,0,1-.137,2.4,3.954,3.954,0,0,1-.648,1.246A8.5,8.5,0,0,1,148.7,337.8a5.9,5.9,0,0,0,1.5-2.231,10.246,10.246,0,0,0,.14-2.4,6.949,6.949,0,0,1,3.361-5.514,8.633,8.633,0,0,1,2.844-1.084c1.152-.207,2.423-.05,3.241-1.084a5.608,5.608,0,0,0,.725-2.767,7.743,7.743,0,0,1,.8-2.451,2.515,2.515,0,0,1,.942-1.1,2.743,2.743,0,0,1,1.017-.269,20.42,20.42,0,0,1,2.947-.152,6.117,6.117,0,0,0,3.336-.456A3.517,3.517,0,0,0,170.6,313.974Z" transform="translate(-132.744 -308.32)"/>
    </g>
    <path id="Path_6209" data-name="Path 6209" d="M174.52,426.55s2.944,2.533,8.536,1C183.056,427.542,179.593,428.906,174.52,426.55Z" transform="translate(-150.47 -360.403)" opacity="0.06"/>
    <path id="Path_6210" data-name="Path 6210" d="M699.741,231.585a2.032,2.032,0,0,1-.3,1.092,1.668,1.668,0,0,1-.586.446,5.028,5.028,0,0,1-5.8-.975c-.529-.558-.92-1.246-1.441-1.8a2.651,2.651,0,0,0-1.994-.972,2.616,2.616,0,0,0-1.628.92,5.4,5.4,0,0,0-1.214,2.146,2.9,2.9,0,0,1-.716,1.586,2.272,2.272,0,0,1-1.6.332,4.721,4.721,0,0,1-2.1-.4c-1.2-.643-1.6-2.124-2.047-3.408-.748-2.164-2.428-6.252-5.043-6.689a5.535,5.535,0,0,0-3.74,1.162,6.771,6.771,0,0,1-4.467,1.745,3.812,3.812,0,0,1-1.321-.209,3.415,3.415,0,0,1-1.86-2.8,8.306,8.306,0,0,0-.042,1.633,3.578,3.578,0,0,0,1.9,3.164,3.813,3.813,0,0,0,1.321.209,6.7,6.7,0,0,0,4.467-1.733,5.53,5.53,0,0,1,3.74-1.162c2.605.424,4.3,4.512,5.033,6.674.444,1.286.848,2.767,2.047,3.41a4.756,4.756,0,0,0,2.1.4,2.352,2.352,0,0,0,1.6-.332,3.091,3.091,0,0,0,.716-1.586,5.379,5.379,0,0,1,1.214-2.146,2.63,2.63,0,0,1,1.628-.92,2.539,2.539,0,0,1,1.994.972c.5.566.912,1.246,1.441,1.8a5.028,5.028,0,0,0,5.8.975,1.7,1.7,0,0,0,.586-.446,2.034,2.034,0,0,0,.3-1.094,59.442,59.442,0,0,0,.249-6.317C699.96,228.7,699.853,230.145,699.741,231.585Z" transform="translate(-517.782 -208.168)" opacity="0.06"/>
    <path id="Path_6211" data-name="Path 6211" d="M87.75,660.355s.4-.441-.349-.616v-.725h.449a3.827,3.827,0,0,0-3.034-3.739v-.88h.117V653.25H82.048v1.144h.082v.89a3.829,3.829,0,0,0-2.992,3.74h.4v.7s-.945.446,0,1.247.8,1.379.8,1.379-.4,1.5-1.192,1.69V677.9a3.081,3.081,0,0,0,3.081,3.084h2.436a3.084,3.084,0,0,0,3.084-3.084V664.035s-1.394-1.044-1.144-1.69a15.6,15.6,0,0,1,1.152-1.989Z" transform="translate(-78.85 -530.587)" fill="#464353"/>
  </g>
</svg>
