<svg xmlns="http://www.w3.org/2000/svg" width="980.139" height="980.068" viewBox="0 0 980.139 980.068">
  <path id="Path_5757" data-name="Path 5757" d="M171.744,852.3H637.181c99.813,0,181.063-81.25,181.063-181.063h0A181.117,181.117,0,0,0,637.181,490.178H533.941V386.866A181.118,181.118,0,0,0,352.878,205.8h0c-99.884,0-181.063,81.25-181.063,181.063V852.3Zm465.437,166.784H4.96V386.866C4.96,195.023,161.034,39.02,352.806,39.02h.071A348.133,348.133,0,0,1,695.869,328.249,348.133,348.133,0,0,1,985.1,671.312h0c0,191.7-156.074,347.776-347.918,347.776" transform="translate(-4.96 -39.02)" fill="#fff" opacity="0.407"/>
</svg>
