<svg xmlns="http://www.w3.org/2000/svg" width="43" height="43" viewBox="0 0 43 43">
  <g id="Group_8495" data-name="Group 8495" transform="translate(-1017 -432)">
    <rect id="Rectangle_2618" data-name="Rectangle 2618" width="43" height="43" rx="12" transform="translate(1017 432)" fill="rgba(32,202,209,0.07)"/>
    <path id="Path_6376" data-name="Path 6376" d="M-390.682,954.083a1.647,1.647,0,0,0-2.573-.973c-.36.221-.711.457-1.079.664a.552.552,0,0,1-.383.052,36.112,36.112,0,0,1-5.191-1.995,15.584,15.584,0,0,0-3.867-1.708c-.126.005-.746.005-.872,0a15.583,15.583,0,0,0-3.867,1.708,36.112,36.112,0,0,1-5.191,1.995.552.552,0,0,1-.383-.052c-.368-.207-.719-.443-1.079-.664a1.647,1.647,0,0,0-2.573.973.244.244,0,0,1-.043.062v4.709a2.81,2.81,0,0,0,.61,1.748,46.874,46.874,0,0,0,3.683,4.045,16.981,16.981,0,0,0,5.48,2.964,13.6,13.6,0,0,0,3.8.693h0a13.6,13.6,0,0,0,3.8-.693,16.98,16.98,0,0,0,5.48-2.964,46.873,46.873,0,0,0,3.683-4.045,2.81,2.81,0,0,0,.61-1.748v-4.709A.244.244,0,0,1-390.682,954.083Zm-23.712,6.41c0,.306-.058,1.627-.058,1.987a11.52,11.52,0,0,1-2.056-2.293,1.887,1.887,0,0,1-.427-1.194c0-1.515-.007-3.03,0-4.545a.787.787,0,0,1,1.189-.689c.422.236.83.5,1.232.768a.388.388,0,0,1,.112.286C-414.392,956.706-414.394,958.6-414.394,960.493Zm19.518,2.394a1.3,1.3,0,0,1-.525,1.047,16.387,16.387,0,0,1-5.592,2.966,11.936,11.936,0,0,1-3.217.558,11.936,11.936,0,0,1-3.217-.558,16.387,16.387,0,0,1-5.592-2.966,1.3,1.3,0,0,1-.525-1.047q0-4.033,0-8.067c0-.044.006-.087.009-.134.662-.223,1.324-.437,1.98-.667a37.252,37.252,0,0,0,5.548-2.533,3.857,3.857,0,0,1,1.8-.508,3.857,3.857,0,0,1,1.8.508,37.258,37.258,0,0,0,5.548,2.533c.656.231,1.317.445,1.98.667,0,.047.009.09.009.134Q-394.875,958.854-394.876,962.887Zm3.389-3.895a1.887,1.887,0,0,1-.427,1.194,11.524,11.524,0,0,1-2.056,2.293c0-.36-.058-1.681-.058-1.987,0-1.894,0-3.787,0-5.681a.388.388,0,0,1,.112-.286c.4-.27.81-.532,1.232-.768a.787.787,0,0,1,1.189.689C-391.48,955.963-391.484,957.478-391.487,958.993Z" transform="translate(1442.711 -504.713)" fill="#20cad1" stroke="#20cad1" stroke-width="0.8"/>
  </g>
</svg>
