<svg xmlns="http://www.w3.org/2000/svg" xmlns:xlink="http://www.w3.org/1999/xlink" width="20.273" height="20.272" viewBox="0 0 20.273 20.272">
  <defs>
    <clipPath id="clip-path">
      <rect id="Rectangle_3456" data-name="Rectangle 3456" width="20.273" height="20.272" transform="translate(0 0.001)" fill="#20cad1"/>
    </clipPath>
  </defs>
  <g id="Group_8512" data-name="Group 8512" transform="translate(0 -0.001)">
    <g id="Group_8511" data-name="Group 8511" clip-path="url(#clip-path)">
      <path id="Path_6791" data-name="Path 6791" d="M7.4,9.152H1.75A1.752,1.752,0,0,1,0,7.4V1.75A1.752,1.752,0,0,1,1.75,0H7.4a1.752,1.752,0,0,1,1.75,1.75V7.4A1.752,1.752,0,0,1,7.4,9.152M1.75,1.5a.25.25,0,0,0-.25.25V7.4a.25.25,0,0,0,.25.25H7.4a.25.25,0,0,0,.25-.25V1.75A.25.25,0,0,0,7.4,1.5Z" fill="#20cad1"/>
      <path id="Path_6792" data-name="Path 6792" d="M7.4,20.272H1.75A1.752,1.752,0,0,1,0,18.522V12.87a1.752,1.752,0,0,1,1.75-1.75H7.4a1.752,1.752,0,0,1,1.75,1.75v5.652a1.752,1.752,0,0,1-1.75,1.75M1.75,12.62a.25.25,0,0,0-.25.25v5.652a.25.25,0,0,0,.25.25H7.4a.25.25,0,0,0,.25-.25V12.87a.25.25,0,0,0-.25-.25Z" fill="#20cad1"/>
      <path id="Path_6793" data-name="Path 6793" d="M18.523,9.152H12.87A1.752,1.752,0,0,1,11.12,7.4V1.75A1.752,1.752,0,0,1,12.87,0h5.653a1.752,1.752,0,0,1,1.75,1.75V7.4a1.752,1.752,0,0,1-1.75,1.75M12.87,1.5a.25.25,0,0,0-.25.25V7.4a.25.25,0,0,0,.25.25h5.653a.25.25,0,0,0,.25-.25V1.75a.25.25,0,0,0-.25-.25Z" fill="#20cad1"/>
      <path id="Path_6794" data-name="Path 6794" d="M18.523,20.272H12.87a1.752,1.752,0,0,1-1.75-1.75V12.87a1.752,1.752,0,0,1,1.75-1.75h5.653a1.752,1.752,0,0,1,1.75,1.75v5.652a1.752,1.752,0,0,1-1.75,1.75M12.87,12.62a.25.25,0,0,0-.25.25v5.652a.25.25,0,0,0,.25.25h5.653a.25.25,0,0,0,.25-.25V12.87a.25.25,0,0,0-.25-.25Z" fill="#20cad1"/>
    </g>
  </g>
</svg>
