<svg xmlns="http://www.w3.org/2000/svg" width="192.579" height="210.24" viewBox="0 0 192.579 210.24">
  <g id="undraw_Folder_files_re_2cbm" transform="translate(-117.237 -100.825)">
    <path id="Path_6575" data-name="Path 6575" d="M453.759,262.736l-52.23,11.751a5.418,5.418,0,0,0-4.092,6.467l14.322,63.66,61.368-13.806a2.689,2.689,0,0,0,1.329-.733l-14.229-63.246A5.418,5.418,0,0,0,453.759,262.736Z" transform="translate(-244.368 -161.778)" fill="#e6e6e6"/>
    <path id="Path_6576" data-name="Path 6576" d="M441.06,281.982l-28.624,6.44a4.934,4.934,0,0,0-3.727,5.888l13.466,59.852,54.5-12.262-9.806-43.588a21.623,21.623,0,0,0-25.811-16.33Z" transform="translate(-250.641 -172.259)" fill="#fff"/>
    <path id="Path_6577" data-name="Path 6577" d="M492.161,410.277l-35.932,8.084a1.2,1.2,0,1,0,.527,2.342l35.932-8.084a1.2,1.2,0,0,0-.527-2.342Z" transform="translate(-276.606 -243.862)" fill="#e4e4e4"/>
    <path id="Path_6578" data-name="Path 6578" d="M489.813,399.846,453.88,407.93a1.2,1.2,0,1,0,.528,2.345l35.932-8.084a1.2,1.2,0,1,0-.527-2.345Z" transform="translate(-275.3 -238.063)" fill="#e4e4e4"/>
    <path id="Path_6579" data-name="Path 6579" d="M467.112,399.733l-15.576,3.5a1.2,1.2,0,0,0,.527,2.342l15.576-3.5a1.2,1.2,0,0,0-.527-2.342Z" transform="translate(-273.997 -238)" fill="#e4e4e4"/>
    <path id="Path_6580" data-name="Path 6580" d="M482.553,367.577l-35.932,8.084a1.2,1.2,0,0,0,.528,2.345l35.932-8.084a1.2,1.2,0,0,0-.527-2.345Z" transform="translate(-271.264 -220.123)" fill="#e4e4e4"/>
    <path id="Path_6581" data-name="Path 6581" d="M480.209,357.151l-35.932,8.084a1.2,1.2,0,0,0,.527,2.342l35.932-8.084a1.2,1.2,0,0,0-.527-2.342Z" transform="translate(-269.961 -214.326)" fill="#e4e4e4"/>
    <path id="Path_6582" data-name="Path 6582" d="M457.5,357.033l-15.576,3.5a1.2,1.2,0,0,0,.528,2.345l15.576-3.5a1.2,1.2,0,1,0-.527-2.345Z" transform="translate(-268.655 -214.261)" fill="#e4e4e4"/>
    <path id="Path_6583" data-name="Path 6583" d="M472.947,324.877l-35.932,8.084a1.2,1.2,0,1,0,.528,2.345l35.932-8.084a1.2,1.2,0,0,0-.528-2.345Z" transform="translate(-265.923 -196.383)" fill="#e6e6e6"/>
    <path id="Path_6584" data-name="Path 6584" d="M470.6,314.451l-35.932,8.084a1.2,1.2,0,1,0,.528,2.345l35.932-8.084a1.2,1.2,0,0,0-.527-2.345Z" transform="translate(-264.619 -190.587)" fill="#e6e6e6"/>
    <path id="Path_6585" data-name="Path 6585" d="M447.9,314.334l-15.576,3.5a1.2,1.2,0,0,0,.528,2.345l15.576-3.5a1.2,1.2,0,1,0-.527-2.345Z" transform="translate(-263.314 -190.522)" fill="#e6e6e6"/>
    <path id="Path_6586" data-name="Path 6586" d="M288.149,429.241a1.275,1.275,0,0,0-1.262,1.284V563.315a1.275,1.275,0,0,0,1.262,1.284h163.64a1.275,1.275,0,0,0,1.262-1.284V451.841a1.275,1.275,0,0,0-1.262-1.284H357.87a3.789,3.789,0,0,1-2.578-1.013l-21.114-19.519a2.927,2.927,0,0,0-1.991-.783Z" transform="translate(-168.546 -254.422)" fill="#3f3d56"/>
    <path id="Path_6587" data-name="Path 6587" d="M551.007,302.042,461.86,263.716a9.82,9.82,0,0,0-12.885,5.137L402.262,377.508,507,422.538a4.874,4.874,0,0,0,2.731.338l46.409-107.949A9.82,9.82,0,0,0,551.007,302.042Z" transform="translate(-247.124 -161.954)" fill="#e6e6e6"/>
    <path id="Path_6588" data-name="Path 6588" d="M522.691,307.329l-48.855-21A8.943,8.943,0,0,0,462.1,291L418.183,393.156,511.21,433.15l31.984-74.4A39.192,39.192,0,0,0,522.691,307.329Z" transform="translate(-255.976 -174.563)" fill="#fff"/>
    <path id="Path_6589" data-name="Path 6589" d="M520.187,548.879l-61.33-26.367a2.176,2.176,0,0,0-1.719,4l61.33,26.367a2.176,2.176,0,0,0,1.719-4Z" transform="translate(-262.468 -306.179)" fill="#e4e4e4"/>
    <path id="Path_6590" data-name="Path 6590" d="M527.838,531.075l-61.33-26.367a2.178,2.178,0,1,0-1.72,4l61.33,26.367a2.178,2.178,0,1,0,1.72-4Z" transform="translate(-266.719 -296.28)" fill="#e4e4e4"/>
    <path id="Path_6591" data-name="Path 6591" d="M500.748,498.343l-26.585-11.43a2.176,2.176,0,1,0-1.719,4l26.585,11.429a2.176,2.176,0,1,0,1.719-4Z" transform="translate(-285.41 -286.387)" fill="#e4e4e4"/>
    <path id="Path_6592" data-name="Path 6592" d="M551.516,476l-61.33-26.367a2.178,2.178,0,0,0-1.72,4L549.8,480a2.178,2.178,0,0,0,1.72-4Z" transform="translate(-294.317 -265.66)" fill="#e4e4e4"/>
    <path id="Path_6593" data-name="Path 6593" d="M559.17,458.2l-61.33-26.367a2.176,2.176,0,1,0-1.719,4l61.33,26.367a2.176,2.176,0,1,0,1.719-4Z" transform="translate(-298.574 -255.767)" fill="#e4e4e4"/>
    <path id="Path_6594" data-name="Path 6594" d="M532.077,425.462l-26.585-11.429a2.178,2.178,0,1,0-1.72,4l26.585,11.429a2.178,2.178,0,0,0,1.721-4Z" transform="translate(-302.826 -245.868)" fill="#e4e4e4"/>
    <path id="Path_6595" data-name="Path 6595" d="M582.848,403.119l-61.33-26.367a2.178,2.178,0,1,0-1.72,4l61.33,26.367a2.178,2.178,0,0,0,1.72-4Z" transform="translate(-311.736 -225.141)" fill="#20cad1"/>
    <path id="Path_6596" data-name="Path 6596" d="M590.5,385.323l-61.33-26.367a2.178,2.178,0,1,0-1.72,4l61.33,26.367a2.178,2.178,0,1,0,1.72-4Z" transform="translate(-315.99 -215.248)" fill="#20cad1"/>
    <path id="Path_6597" data-name="Path 6597" d="M563.409,352.582l-26.585-11.429a2.178,2.178,0,0,0-1.72,4l26.585,11.429a2.178,2.178,0,0,0,1.72-4Z" transform="translate(-320.245 -205.349)" fill="#20cad1"/>
    <path id="Path_6598" data-name="Path 6598" d="M380.759,439.736l-52.23,11.751a5.418,5.418,0,0,0-4.092,6.467l14.322,63.66,61.368-13.806a2.689,2.689,0,0,0,1.329-.733l-14.229-63.246a5.418,5.418,0,0,0-6.467-4.092Z" transform="translate(-189.349 -260.183)" fill="#e6e6e6"/>
    <path id="Path_6599" data-name="Path 6599" d="M368.06,458.982l-28.624,6.44a4.934,4.934,0,0,0-3.727,5.888l13.466,59.852,54.5-12.262-9.806-43.588a21.623,21.623,0,0,0-25.811-16.33Z" transform="translate(-195.623 -270.664)" fill="#fff"/>
    <path id="Path_6600" data-name="Path 6600" d="M419.161,587.277l-35.932,8.084a1.2,1.2,0,1,0,.527,2.342l35.932-8.084a1.2,1.2,0,0,0-.527-2.342Z" transform="translate(-221.587 -342.267)" fill="#e4e4e4"/>
    <path id="Path_6601" data-name="Path 6601" d="M416.813,576.846,380.88,584.93a1.2,1.2,0,0,0,.528,2.345l35.932-8.084a1.2,1.2,0,1,0-.528-2.345Z" transform="translate(-220.281 -336.468)" fill="#e4e4e4"/>
    <path id="Path_6602" data-name="Path 6602" d="M394.112,576.733l-15.576,3.5a1.2,1.2,0,0,0,.527,2.342l15.576-3.5a1.2,1.2,0,1,0-.527-2.342Z" transform="translate(-218.979 -336.405)" fill="#e4e4e4"/>
    <path id="Path_6603" data-name="Path 6603" d="M409.553,544.577l-35.932,8.084a1.2,1.2,0,1,0,.527,2.345l35.932-8.084a1.2,1.2,0,1,0-.528-2.345Z" transform="translate(-216.245 -318.528)" fill="#e4e4e4"/>
    <path id="Path_6604" data-name="Path 6604" d="M407.209,534.151l-35.932,8.084a1.2,1.2,0,0,0,.527,2.342l35.932-8.084a1.2,1.2,0,1,0-.527-2.342Z" transform="translate(-214.942 -312.731)" fill="#e4e4e4"/>
    <path id="Path_6605" data-name="Path 6605" d="M384.5,534.033l-15.576,3.5a1.2,1.2,0,0,0,.528,2.345l15.576-3.5a1.2,1.2,0,0,0-.528-2.345Z" transform="translate(-213.636 -312.666)" fill="#e4e4e4"/>
    <path id="Path_6606" data-name="Path 6606" d="M399.946,501.877l-35.932,8.084a1.2,1.2,0,1,0,.527,2.345l35.932-8.084a1.2,1.2,0,0,0-.527-2.345Z" transform="translate(-210.904 -294.788)" fill="#e6e6e6"/>
    <path id="Path_6607" data-name="Path 6607" d="M397.6,491.451l-35.932,8.084a1.2,1.2,0,0,0,.528,2.345l35.932-8.084a1.2,1.2,0,1,0-.527-2.345Z" transform="translate(-209.6 -288.992)" fill="#e6e6e6"/>
    <path id="Path_6608" data-name="Path 6608" d="M374.9,491.334l-15.576,3.5a1.2,1.2,0,0,0,.528,2.345l15.576-3.5a1.2,1.2,0,1,0-.528-2.345Z" transform="translate(-208.296 -288.926)" fill="#e6e6e6"/>
    <path id="Path_6609" data-name="Path 6609" d="M285.686,507.787a1.284,1.284,0,0,0-1.284,1.284c0,.048.04,98.944.04,98.944a1.283,1.283,0,0,0,1.276,1.14H464.565a1.283,1.283,0,0,0,1.276-1.14l11.132-98.8a1.284,1.284,0,0,0-.318-1,1.269,1.269,0,0,0-.957-.428Z" transform="translate(-167.165 -298.09)" fill="#3f3d56"/>
    <path id="Path_6610" data-name="Path 6610" d="M307.094,519.561a6.907,6.907,0,0,0-6.887,6.827l.223,76.645a6.887,6.887,0,0,0,6.887,6.947H420.849a52.918,52.918,0,0,0,52.625-47.028l4.026-35.732a6.886,6.886,0,0,0-6.843-7.658Zm173.98,0-.02-.444h.02Z" transform="translate(-175.952 -304.389)" fill="#20cad1"/>
    <path id="Path_6611" data-name="Path 6611" d="M370.188,645.143H326.208a1.714,1.714,0,1,1,0-3.427h43.981C372.4,641.685,372.42,645.174,370.188,645.143Z" transform="translate(-189.455 -372.549)" fill="#e4e4e4"/>
    <path id="Path_6612" data-name="Path 6612" d="M429.435,665.329H326.208a1.714,1.714,0,0,1,0-3.427H429.435C431.645,661.871,431.667,665.36,429.435,665.329Z" transform="translate(-189.455 -383.772)" fill="#e4e4e4"/>
  </g>
</svg>
