<svg xmlns="http://www.w3.org/2000/svg" width="19.559" height="14.919" viewBox="0 0 19.559 14.919">
    <path fill="#20cad1" stroke="#20cad1" d="M16.819 59.882H1.74A1.742 1.742 0 0 0 0 61.622v10.439A1.742 1.742 0 0 0 1.74 73.8h15.079a1.742 1.742 0 0 0 1.74-1.74V61.622a1.742 1.742 0 0 0-1.74-1.74zm0 1.16a.577.577 0 0 1 .222.045l-7.762 6.727-7.761-6.727a.577.577 0 0 1 .222-.045zm0 11.6H1.74a.58.58 0 0 1-.58-.58v-9.75L8.9 69.02a.581.581 0 0 0 .76 0l7.74-6.708v9.749a.58.58 0 0 1-.581.58z" transform="translate(.5 -59.382)"/>
</svg>
