<svg xmlns="http://www.w3.org/2000/svg" width="210.832" height="189.533" viewBox="0 0 210.832 189.533">
  <g id="Group_2195" data-name="Group 2195" transform="translate(1 1.069)">
    <path id="Path_5675" data-name="Path 5675" d="M525.8,265.852a.367.367,0,0,1-.209-.066L424.269,195.222a1.837,1.837,0,0,0-2.1,0l-100.593,70.56a.366.366,0,0,1-.421-.6l100.594-70.56a2.573,2.573,0,0,1,2.938,0l101.323,70.564a.366.366,0,0,1-.21.667Z" transform="translate(-318.802 -194.163)" fill="#20cad1" stroke="#20cad1" stroke-width="2"/>
    <path id="Path_5676" data-name="Path 5676" d="M23.264,79.462,119.258,8.319,215.98,84.524,124.2,138.93,74.377,127.573Z" transform="translate(-14.741 -5.271)" fill="#f2fcfc"/>
    <path id="Path_5677" data-name="Path 5677" d="M403.407,643.04H355.983a2.216,2.216,0,1,1,0-4.431h47.423a2.216,2.216,0,1,1,0,4.431Z" transform="translate(-339.564 -475.776)" fill="#20cad1"/>
    <path id="Path_5678" data-name="Path 5678" d="M373,617.04H355.983a2.216,2.216,0,1,1,0-4.431H373a2.216,2.216,0,1,1,0,4.431Z" transform="translate(-339.564 -459.302)" fill="#20cad1"/>
    <path id="Path_5679" data-name="Path 5679" d="M499.754,324.564a2.774,2.774,0,0,1-1.051-.206l-59.2-24.565V222.9a2.568,2.568,0,0,1,2.565-2.565H555.64A2.568,2.568,0,0,1,558.2,222.9v76.946l-.111.048-57.257,24.451A2.791,2.791,0,0,1,499.754,324.564Z" transform="translate(-393.887 -210.748)" fill="#f2fcfc"/>
    <path id="Path_5680" data-name="Path 5680" d="M499.437,324.431a2.958,2.958,0,0,1-1.121-.219L439,299.6V222.585a2.751,2.751,0,0,1,2.748-2.748H555.323a2.751,2.751,0,0,1,2.748,2.748v77.066L500.592,324.2A2.972,2.972,0,0,1,499.437,324.431Zm-59.7-25.321L498.6,323.534a2.241,2.241,0,0,0,1.71-.01l57.033-24.356V222.585a2.018,2.018,0,0,0-2.015-2.015H441.748a2.017,2.017,0,0,0-2.015,2.015Z" transform="translate(-393.57 -210.431)" fill="#20cad1" stroke="#20cad1" stroke-width="2"/>
    <path id="Path_5681" data-name="Path 5681" d="M521.267,387.837h-.073L479.134,405.8l-57.546,24.573a1.856,1.856,0,0,1-1.422.007L360.8,405.746,317.7,387.867l-.066-.029h-.073A2.567,2.567,0,0,0,315,390.4V501.779a2.567,2.567,0,0,0,2.565,2.565h203.7a2.568,2.568,0,0,0,2.565-2.565V390.4A2.567,2.567,0,0,0,521.267,387.837ZM523.1,501.779a1.832,1.832,0,0,1-1.832,1.832h-203.7a1.833,1.833,0,0,1-1.832-1.832V390.4a1.836,1.836,0,0,1,1.762-1.832l43.3,17.967,59.088,24.518a2.609,2.609,0,0,0,1.993-.011l57.256-24.452,42.206-18.022A1.838,1.838,0,0,1,523.1,390.4Z" transform="translate(-315 -316.88)" fill="#20cad1" stroke="#20cad1" stroke-width="2"/>
    <path id="Path_5682" data-name="Path 5682" d="M545.318,317.536a10.075,10.075,0,0,1-6.062-2.014l-.108-.081-22.829-17.479a10.142,10.142,0,1,1,12.337-16.1L543.443,293.2l34.944-45.572a10.142,10.142,0,0,1,14.22-1.877l-.217.295.223-.291a10.154,10.154,0,0,1,1.877,14.22l-41.1,53.6A10.147,10.147,0,0,1,545.318,317.536Z" transform="translate(-446.284 -224.139)" fill="#20cad1" stroke="#f2fcfc" stroke-width="5"/>
  </g>
</svg>
