<svg xmlns="http://www.w3.org/2000/svg" width="230.373" height="160.355" viewBox="0 0 230.373 160.355">
  <g id="undraw_medical_care_movn" transform="translate(0 0)">
    <path id="Path_6688" data-name="Path 6688" d="M841.1,165.6l-17.771.173c-.835-4.112-3.642-14.9-1.114-17.845a4.326,4.326,0,0,1,4.557-3.871h0c2.755-4.312,7.342-3.664,10.443-.971,3.121,1.077,4.3,2.99,3.886,5.586,2.311,2.023,2.738,4.484,1.7,7.286Z" transform="translate(-648.614 -140.947)" fill="#2f2e41"/>
    <path id="Path_6689" data-name="Path 6689" d="M847.441,233.142l-12.822-1.775-2.564-3.748c3.532-2.343,4.782-5.616,3.156-10.06l8.877-.2c-.416,3.958.893,7.022,4.537,8.877Z" transform="translate(-656.667 -197.537)" fill="#ffb9b9"/>
    <path id="Path_6690" data-name="Path 6690" d="M828.839,723.354l-.49,6.7a2.134,2.134,0,0,0,2.257,2.285l3.443-.209a1.088,1.088,0,0,0,.99-1.35l-1.911-7.643Z" transform="translate(-653.918 -572.102)" fill="#e6e6e6"/>
    <path id="Path_6691" data-name="Path 6691" d="M867.668,723.14l-1.911,7.643a1.088,1.088,0,0,0,.99,1.35l3.443.208a2.134,2.134,0,0,0,2.257-2.285l-.49-6.7Z" transform="translate(-681.601 -572.102)" fill="#e6e6e6"/>
    <path id="Path_6692" data-name="Path 6692" d="M668.157,389.525l-4.646-.466-4.625-49.439-1.748,49.28-4.564-.163-7.693-68.251h29.391Z" transform="translate(-477.58 -237.342)" fill="#20cad1"/>
    <circle id="Ellipse_3271" data-name="Ellipse 3271" cx="8.877" cy="8.877" r="8.877" transform="translate(174.6 5.425)" fill="#ffb9b9"/>
    <path id="Path_6693" data-name="Path 6693" d="M828.418,306.472l-35.9.395c5.328-20.282,8.515-39.123,2.959-52.076l8.876-4.34c4.28,4.464,9.047,4,14.2-.395l8.482,2.17C825.584,269.211,826.235,287.4,828.418,306.472Z" transform="translate(-627.386 -221.75)" fill="#20cad1"/>
    <path id="Path_6694" data-name="Path 6694" d="M754.5,341.871l22.29,8.877,4.984,1.466a1.724,1.724,0,0,0,2.159-1.236h0a1.724,1.724,0,0,0-.981-2l-5.175-1.586-15.583-9.074,3.255-8.581-6.805-3.649Z" transform="translate(-599.232 -278.059)" fill="#ffb9b9"/>
    <path id="Path_6695" data-name="Path 6695" d="M755.26,282.9a22.14,22.14,0,0,1,10.257,8.285l8.285-12.033L767.885,268.3Z" transform="translate(-599.795 -235.264)" fill="#20cad1"/>
    <path id="Path_6696" data-name="Path 6696" d="M849.425,165.848a18.128,18.128,0,0,0-10.588.122c-2.193,1.062-4.827.964-7.757.089V157.2l15.815.422Z" transform="translate(-655.944 -152.985)" fill="#2f2e41"/>
    <path id="Path_6697" data-name="Path 6697" d="M832.629,347.053A2.632,2.632,0,0,0,830,349.682l1.038,21.723a2.632,2.632,0,0,0,2.629,2.629h11.864a2.632,2.632,0,0,0,2.629-2.629l1.038-21.723a2.632,2.632,0,0,0-2.629-2.629Z" transform="translate(-655.145 -293.583)" fill="#3f3d56"/>
    <path id="Path_6698" data-name="Path 6698" d="M888.945,336.249l-19.429,7.736-1.466.584c-.047.018-.093.034-.143.049L863,346.063c-.628.184-1.5-.662-2.005-1.245a1.579,1.579,0,0,1-.042-2.057,1.749,1.749,0,0,1,.223-.215,1.45,1.45,0,0,1,.649-.285l4.906-.965a1.644,1.644,0,0,0,.5-.187l2.288-1.333,11.879-6.916a1.613,1.613,0,0,0,.7-1.966l-2.267-5.98a1.611,1.611,0,0,1,.745-1.992l3.756-2.013a1.61,1.61,0,0,1,2.319,1.012l3.261,12.421A1.614,1.614,0,0,1,888.945,336.249Z" transform="translate(-677.798 -274.078)" fill="#ffb9b9"/>
    <path id="Path_6699" data-name="Path 6699" d="M921.309,273.412a22.141,22.141,0,0,0-10.257,8.285l-8.285-12.033,5.918-11.244Z" transform="translate(-709.034 -227.944)" fill="#20cad1"/>
    <path id="Path_6700" data-name="Path 6700" d="M846.75,208.4a16.245,16.245,0,0,1-12.193,0c1.233-2.1-.61-3.754-1.557-5.879l15.825-.47C847.615,203.9,845.829,206.08,846.75,208.4Z" transform="translate(-657.366 -186.2)" fill="#fff"/>
    <path id="Path_6701" data-name="Path 6701" d="M736.83,56.033l-.184-.183.259-.259,1.55-1.809.2.169L737.1,55.766Z" transform="translate(-545.538 -39.829)" fill="#fff"/>
    <rect id="Rectangle_3435" data-name="Rectangle 3435" width="0.26" height="2.026" transform="translate(174.382 15.304) rotate(-50.195)" fill="#fff"/>
    <rect id="Rectangle_3436" data-name="Rectangle 3436" width="5.074" height="0.259" transform="matrix(0.537, -0.844, 0.844, 0.537, 189.014, 22.009)" fill="#fff"/>
    <rect id="Rectangle_3437" data-name="Rectangle 3437" width="0.259" height="5.074" transform="translate(174.616 17.867) rotate(-32.471)" fill="#fff"/>
    <path id="Path_6702" data-name="Path 6702" d="M868.554,392.768v4.7l-1.636.652c-.052.02-.1.038-.159.055l-5.482,1.613c-.7.206-1.671-.738-2.238-1.39a1.762,1.762,0,0,1-.046-2.3,1.956,1.956,0,0,1,.249-.24,1.619,1.619,0,0,1,.724-.319l5.476-1.077a1.834,1.834,0,0,0,.559-.208Z" transform="translate(-676.317 -327.439)" fill="#fff"/>
    <path id="Path_6703" data-name="Path 6703" d="M887.406,261.244h-.937c0-13.26-2.73-22.5-5.391-22.5l-.234-.937c2.386,0,3.907,3.846,4.763,7.072A66.759,66.759,0,0,1,887.406,261.244Z" transform="translate(-692.798 -212.678)" fill="#3f3d56"/>
    <path id="Path_6704" data-name="Path 6704" d="M820.349,259.3h-.937c0-12.144,2.749-19.688,6.8-19.688l-.234.938C823.174,240.551,820.349,246.348,820.349,259.3Z" transform="translate(-647.303 -214.016)" fill="#3f3d56"/>
    <circle id="Ellipse_3272" data-name="Ellipse 3272" cx="2.344" cy="2.344" r="2.344" transform="translate(191.796 46.456)" fill="#3f3d56"/>
    <path id="Path_6705" data-name="Path 6705" d="M805.894,319.788h-.938c0-3.36,1.893-6.094,4.219-6.094v.938C807.366,314.632,805.894,316.945,805.894,319.788Z" transform="translate(-636.598 -268.878)" fill="#3f3d56"/>
    <path id="Path_6706" data-name="Path 6706" d="M825.437,319.788H824.5c0-2.843-1.472-5.156-3.281-5.156v-.937C823.544,313.694,825.437,316.428,825.437,319.788Z" transform="translate(-648.641 -268.878)" fill="#3f3d56"/>
    <circle id="Ellipse_3273" data-name="Ellipse 3273" cx="0.938" cy="0.938" r="0.938" transform="translate(175.39 50.206)" fill="#3f3d56"/>
    <circle id="Ellipse_3274" data-name="Ellipse 3274" cx="0.938" cy="0.938" r="0.938" transform="translate(167.89 50.206)" fill="#3f3d56"/>
    <path id="Path_6707" data-name="Path 6707" d="M312.379,163.626l-16.465,2.788a1.667,1.667,0,0,1-1.886-1.2c-1.19-4.293-3.677-9.894-1.262-12.706a4.619,4.619,0,0,1,4.866-4.133h0c2.941-4.6,7.841-3.913,11.152-1.037,3.332,1.15,4.589,3.193,4.15,5.965a6.415,6.415,0,0,1,2.354,4.237,6.12,6.12,0,0,1-1.674,4.761Z" transform="translate(-256.531 -143.988)" fill="#2f2e41"/>
    <path id="Path_6708" data-name="Path 6708" d="M324.967,240.89l-12.764-.751a14.027,14.027,0,0,0,1.251-8.259h9.51C322.943,233.894,323.945,237.378,324.967,240.89Z" transform="translate(-271.679 -208.289)" fill="#9f616a"/>
    <path id="Path_6709" data-name="Path 6709" d="M300.668,720.582l-.524,7.157a2.278,2.278,0,0,0,2.41,2.441l3.676-.223a1.162,1.162,0,0,0,1.057-1.442l-2.041-8.162Z" transform="translate(-262.745 -570.038)" fill="#e6e6e6"/>
    <path id="Path_6710" data-name="Path 6710" d="M342.131,720.353l-2.041,8.162a1.162,1.162,0,0,0,1.057,1.442l3.676.223a2.278,2.278,0,0,0,2.41-2.44l-.524-7.157Z" transform="translate(-292.306 -570.038)" fill="#e6e6e6"/>
    <path id="Path_6711" data-name="Path 6711" d="M139.668,373.667l-4.961-.5-4.939-52.794L127.9,373l-4.874-.175-8.215-72.881H146.2Z" transform="translate(-85.027 -222.13)" fill="#20cad1"/>
    <circle id="Ellipse_3275" data-name="Ellipse 3275" cx="9.479" cy="9.479" r="9.479" transform="translate(37.302 7.671)" fill="#9f616a"/>
    <path id="Path_6712" data-name="Path 6712" d="M321.582,171.788a28.3,28.3,0,0,0-11.306.088,16.469,16.469,0,0,1-8.283.064v-6.392l16.887.3Z" transform="translate(-264.118 -159.166)" fill="#2f2e41"/>
    <path id="Path_6713" data-name="Path 6713" d="M318.726,217.017a17.347,17.347,0,0,1-13.02,0c1.317-2.248-.652-4.008-1.662-6.277l16.9-.5C319.65,212.209,317.743,214.538,318.726,217.017Z" transform="translate(-265.636 -192.261)" fill="#fff"/>
    <rect id="Rectangle_3438" data-name="Rectangle 3438" width="0.26" height="2.164" transform="translate(37.077 17.383) rotate(-50.195)" fill="#fff"/>
    <rect id="Rectangle_3439" data-name="Rectangle 3439" width="5.418" height="0.259" transform="matrix(0.537, -0.844, 0.844, 0.537, 52.702, 24.555)" fill="#fff"/>
    <rect id="Rectangle_3440" data-name="Rectangle 3440" width="0.259" height="5.418" transform="translate(37.327 20.123) rotate(-32.471)" fill="#fff"/>
    <path id="Path_6714" data-name="Path 6714" d="M246.143,292.961l-7.258-4.5,6.19-18.129a8.552,8.552,0,0,1,3.738-4.44l2.085-1.207.181,18.288Z" transform="translate(-217.382 -232.58)" fill="#20cad1"/>
    <path id="Path_6715" data-name="Path 6715" d="M294.137,290.335l-1.074-9.2a32.267,32.267,0,0,1,2.738-13.873l1-13.515-11.012-4.5c-.034.224-.062.449-.095.673l-5.161,2.581-5.033-1.144.028-1.609-10.011,4.5c3.311,15.391,1.5,31.375-4.188,50.254l13.189,3.606.11-6.333,11.754-.84c.121,2.055.218,4.073.275,6.046,6.632,2.442,6.86,2.4,12.9-1.095A70.917,70.917,0,0,1,294.137,290.335Z" transform="translate(-234.004 -221.149)" fill="#20cad1"/>
    <path id="Path_6716" data-name="Path 6716" d="M246.906,151.191l-6.757-2.252L229.34,136.355l3.3-10.692,15.017,21.023Z" transform="translate(-169.842 -93.062)" fill="#20cad1"/>
    <path id="Path_6717" data-name="Path 6717" d="M371.286,392.443a1.88,1.88,0,0,0,2.245,1.416l5.736-1.3-.829-3.661-5.736,1.3A1.877,1.877,0,0,0,371.286,392.443Z" transform="translate(-315.4 -324.573)" fill="#e6e6e6"/>
    <path id="Path_6718" data-name="Path 6718" d="M391.309,357.657l3.254,6.007c5.472-1.526,10.215-6.338,14.766-12.013l-1.251-4-7.759,2Z" transform="translate(-330.263 -294.022)" fill="#20cad1"/>
    <path id="Path_6719" data-name="Path 6719" d="M71.79,172.661l6.246,1.115,14.277,20.3-7.584-1.785Z" transform="translate(-53.166 -127.868)" fill="#e6e6e6"/>
    <path id="Path_6720" data-name="Path 6720" d="M222.026,312.65a.531.531,0,0,0-.436.823l13.345,20.248a.53.53,0,0,0,.321.224l6.209,1.461a.53.53,0,0,0,.555-.821l-14.652-20.833a.527.527,0,0,0-.341-.217l-4.9-.875a.573.573,0,0,0-.1-.009Z" transform="translate(-204.509 -268.105)" fill="#3f3d56"/>
    <path id="Path_6721" data-name="Path 6721" d="M255.608,366.767l.371,3.736,5.853-.581a1.877,1.877,0,1,0-.371-3.736Z" transform="translate(-229.767 -307.746)" fill="#e6e6e6"/>
    <path id="Path_6722" data-name="Path 6722" d="M235.991,357.845a4.828,4.828,0,0,0,4.822,4.8h.962l.7-5.839-5.8-2.088Z" transform="translate(-215.239 -299.257)" fill="#20cad1"/>
    <path id="Path_6723" data-name="Path 6723" d="M210.875,64.95l-.183-.183.277-.277,1.655-1.932.2.169-1.662,1.939Z" transform="translate(-156.032 -46.329)" fill="#fff"/>
    <rect id="Rectangle_3441" data-name="Rectangle 3441" width="230.373" height="0.519" transform="translate(0 159.836)" fill="#3f3d56"/>
    <path id="Path_6724" data-name="Path 6724" d="M495,549.3h54.48V483.222c0-3.5-3.447-6.346-7.683-6.346H502.683c-4.236,0-7.683,2.847-7.683,6.346Z" transform="translate(-407.053 -389.726)" fill="#e6e6e6"/>
    <path id="Path_6725" data-name="Path 6725" d="M511,570.275h46.178V514.263c0-2.966-2.921-5.379-6.512-5.379H517.512c-3.591,0-6.512,2.413-6.512,5.379Z" transform="translate(-418.903 -413.431)" fill="#fff"/>
    <path id="Path_6726" data-name="Path 6726" d="M486.442,457.053A2.263,2.263,0,0,0,484,459.07v5.823a2.263,2.263,0,0,0,2.442,2.017h55.3a2.263,2.263,0,0,0,2.442-2.017V459.07a2.263,2.263,0,0,0-2.442-2.017Z" transform="translate(-398.907 -375.046)" fill="#3f3d56"/>
    <path id="Path_6727" data-name="Path 6727" d="M530.37,717.836a2.393,2.393,0,0,0-2.386,2.386h0a2.393,2.393,0,0,0,2.386,2.386h4.466v-4.772Z" transform="translate(-431.48 -568.174)" fill="#3f3d56"/>
    <path id="Path_6728" data-name="Path 6728" d="M557.8,717.836h-4.344v4.772H557.8a2.393,2.393,0,0,0,2.386-2.386h0A2.393,2.393,0,0,0,557.8,717.836Z" transform="translate(-450.341 -568.174)" fill="#20cad1"/>
    <path id="Path_6729" data-name="Path 6729" d="M559.352,720.088a2.372,2.372,0,0,1,.584,1.557h0a2.393,2.393,0,0,1-2.386,2.386h-4.1v.245H557.8a2.393,2.393,0,0,0,2.386-2.386h0A2.38,2.38,0,0,0,559.352,720.088Z" transform="translate(-450.341 -569.842)" opacity="0.2"/>
    <path id="Path_6730" data-name="Path 6730" d="M603.1,577.179a2.393,2.393,0,0,0-3.373-.1h0a2.393,2.393,0,0,0-.1,3.373l3.063,3.25,3.472-3.273Z" transform="translate(-484.061 -463.455)" fill="#3f3d56"/>
    <path id="Path_6731" data-name="Path 6731" d="M619.09,594.31l-2.979-3.161-3.472,3.273,2.979,3.161a2.393,2.393,0,0,0,3.373.1h0A2.393,2.393,0,0,0,619.09,594.31Z" transform="translate(-494.173 -474.354)" fill="#20cad1"/>
    <path id="Path_6732" data-name="Path 6732" d="M619.732,604.708A2.372,2.372,0,0,1,619,606.2h0a2.393,2.393,0,0,1-3.373-.1l-2.812-2.982-.178.168,2.979,3.161a2.393,2.393,0,0,0,3.373.1h0A2.381,2.381,0,0,0,619.732,604.708Z" transform="translate(-494.173 -483.218)" opacity="0.2"/>
    <path id="Path_6733" data-name="Path 6733" d="M554.1,606.179a2.393,2.393,0,0,0-3.373-.1h0a2.393,2.393,0,0,0-.1,3.373l3.063,3.25,3.472-3.273Z" transform="translate(-447.773 -484.931)" fill="#3f3d56"/>
    <path id="Path_6734" data-name="Path 6734" d="M570.09,623.31l-2.979-3.161-3.472,3.273,2.979,3.161a2.393,2.393,0,0,0,3.373.1h0A2.393,2.393,0,0,0,570.09,623.31Z" transform="translate(-457.885 -495.83)" fill="#20cad1"/>
    <path id="Path_6735" data-name="Path 6735" d="M570.732,633.708A2.372,2.372,0,0,1,570,635.2h0a2.393,2.393,0,0,1-3.373-.1l-2.812-2.983-.178.168,2.979,3.161a2.393,2.393,0,0,0,3.373.1h0A2.381,2.381,0,0,0,570.732,633.708Z" transform="translate(-457.885 -504.695)" opacity="0.2"/>
    <path id="Path_6736" data-name="Path 6736" d="M603.1,633.179a2.393,2.393,0,0,0-3.373-.1h0a2.393,2.393,0,0,0-.1,3.373l3.063,3.25,3.472-3.273Z" transform="translate(-484.061 -504.926)" fill="#3f3d56"/>
    <path id="Path_6737" data-name="Path 6737" d="M619.09,650.31l-2.979-3.161-3.472,3.273,2.979,3.161a2.393,2.393,0,0,0,3.373.1h0a2.393,2.393,0,0,0,.1-3.373Z" transform="translate(-494.173 -515.826)" fill="#20cad1"/>
    <path id="Path_6738" data-name="Path 6738" d="M619.732,660.708A2.372,2.372,0,0,1,619,662.2h0a2.393,2.393,0,0,1-3.373-.1l-2.812-2.983-.178.168,2.979,3.161a2.393,2.393,0,0,0,3.373.1h0A2.381,2.381,0,0,0,619.732,660.708Z" transform="translate(-494.173 -524.69)" opacity="0.2"/>
    <path id="Path_6739" data-name="Path 6739" d="M626.121,681.075a2.393,2.393,0,0,0,.058-3.374h0a2.393,2.393,0,0,0-3.374-.059l-3.212,3.1,3.315,3.432Z" transform="translate(-499.324 -537.914)" fill="#3f3d56"/>
    <path id="Path_6740" data-name="Path 6740" d="M609.474,697.3l3.124-3.018-3.315-3.432-3.124,3.018a2.393,2.393,0,0,0-.059,3.374h0A2.393,2.393,0,0,0,609.474,697.3Z" transform="translate(-488.837 -548.189)" fill="#20cad1"/>
    <path id="Path_6741" data-name="Path 6741" d="M607.948,697.962a2.372,2.372,0,0,1-1.5-.714h0a2.393,2.393,0,0,1,.059-3.374l2.948-2.848-.17-.176-3.124,3.018a2.393,2.393,0,0,0-.059,3.374h0A2.38,2.38,0,0,0,607.948,697.962Z" transform="translate(-488.837 -548.189)" opacity="0.2"/>
    <path id="Path_6742" data-name="Path 6742" d="M560.121,652.075a2.393,2.393,0,0,0,.059-3.374h0a2.393,2.393,0,0,0-3.374-.059l-3.212,3.1,3.315,3.432Z" transform="translate(-450.446 -516.438)" fill="#3f3d56"/>
    <path id="Path_6743" data-name="Path 6743" d="M543.474,668.3l3.124-3.018-3.315-3.432-3.124,3.018a2.393,2.393,0,0,0-.059,3.374h0A2.393,2.393,0,0,0,543.474,668.3Z" transform="translate(-439.959 -526.713)" fill="#20cad1"/>
    <path id="Path_6744" data-name="Path 6744" d="M541.948,668.962a2.372,2.372,0,0,1-1.5-.714h0a2.393,2.393,0,0,1,.059-3.374l2.948-2.848-.17-.176-3.124,3.018a2.393,2.393,0,0,0-.059,3.374h0A2.381,2.381,0,0,0,541.948,668.962Z" transform="translate(-439.959 -526.713)" opacity="0.2"/>
    <path id="Path_6745" data-name="Path 6745" d="M654.121,617.075a2.393,2.393,0,0,0,.059-3.374h0a2.393,2.393,0,0,0-3.374-.059l-3.212,3.1,3.315,3.432Z" transform="translate(-520.06 -490.518)" fill="#3f3d56"/>
    <path id="Path_6746" data-name="Path 6746" d="M637.474,633.3l3.124-3.018-3.315-3.432-3.124,3.018a2.393,2.393,0,0,0-.059,3.374h0a2.393,2.393,0,0,0,3.374.059Z" transform="translate(-509.573 -500.793)" fill="#20cad1"/>
    <path id="Path_6747" data-name="Path 6747" d="M635.948,633.962a2.372,2.372,0,0,1-1.5-.714h0a2.393,2.393,0,0,1,.059-3.374l2.948-2.848-.17-.176-3.124,3.018a2.393,2.393,0,0,0-.059,3.374h0A2.381,2.381,0,0,0,635.948,633.962Z" transform="translate(-509.573 -500.793)" opacity="0.2"/>
    <path id="Path_6748" data-name="Path 6748" d="M640.1,699.179a2.393,2.393,0,0,0-3.373-.1h0a2.393,2.393,0,0,0-.1,3.373l3.063,3.25,3.472-3.273Z" transform="translate(-511.462 -553.804)" fill="#3f3d56"/>
    <path id="Path_6749" data-name="Path 6749" d="M656.09,716.31l-2.979-3.161-3.472,3.273,2.979,3.161a2.393,2.393,0,0,0,3.373.1h0A2.393,2.393,0,0,0,656.09,716.31Z" transform="translate(-521.574 -564.703)" fill="#20cad1"/>
    <path id="Path_6750" data-name="Path 6750" d="M656.732,726.708A2.372,2.372,0,0,1,656,728.2h0a2.393,2.393,0,0,1-3.373-.1l-2.812-2.983-.178.168,2.979,3.161a2.393,2.393,0,0,0,3.373.1h0A2.381,2.381,0,0,0,656.732,726.708Z" transform="translate(-521.574 -573.568)" opacity="0.2"/>
    <path id="Path_6751" data-name="Path 6751" d="M575.1,698.179a2.393,2.393,0,0,0-3.373-.1h0a2.393,2.393,0,0,0-.1,3.373l3.063,3.25,3.472-3.273Z" transform="translate(-463.325 -553.064)" fill="#3f3d56"/>
    <path id="Path_6752" data-name="Path 6752" d="M591.09,715.31l-2.979-3.161-3.472,3.273,2.979,3.161a2.393,2.393,0,0,0,3.373.1h0a2.393,2.393,0,0,0,.1-3.373Z" transform="translate(-473.437 -563.963)" fill="#20cad1"/>
    <path id="Path_6753" data-name="Path 6753" d="M591.732,725.708A2.372,2.372,0,0,1,591,727.2h0a2.393,2.393,0,0,1-3.373-.1l-2.812-2.983-.178.168,2.979,3.161a2.393,2.393,0,0,0,3.373.1h0a2.381,2.381,0,0,0,.742-1.839Z" transform="translate(-473.437 -572.827)" opacity="0.2"/>
    <path id="Path_6754" data-name="Path 6754" d="M585.513,657.494a3.441,3.441,0,1,1-4.129-3.372,3.476,3.476,0,0,1,1.376,0A3.441,3.441,0,0,1,585.513,657.494Z" transform="translate(-468.988 -520.938)" fill="#20cad1"/>
    <path id="Path_6755" data-name="Path 6755" d="M590.618,654.122v6.744a3.473,3.473,0,0,1-1.376,0v-6.744A3.473,3.473,0,0,1,590.618,654.122Z" transform="translate(-476.846 -520.938)" opacity="0.2"/>
    <path id="Path_6756" data-name="Path 6756" d="M591.513,604.494a3.441,3.441,0,1,1-2.753-3.372,3.441,3.441,0,0,1,2.753,3.372Z" transform="translate(-473.432 -481.688)" fill="#20cad1"/>
    <path id="Path_6757" data-name="Path 6757" d="M596.618,601.122v6.744a3.473,3.473,0,0,1-1.376,0v-6.744A3.473,3.473,0,0,1,596.618,601.122Z" transform="translate(-481.29 -481.688)" opacity="0.2"/>
    <path id="Path_6758" data-name="Path 6758" d="M591.513,680.494a3.441,3.441,0,0,1-2.753,3.372,3.442,3.442,0,1,1,0-6.744,3.441,3.441,0,0,1,2.753,3.372Z" transform="translate(-473.432 -537.971)" fill="#20cad1"/>
    <path id="Path_6759" data-name="Path 6759" d="M596.618,677.122v6.744a3.475,3.475,0,0,1-1.376,0v-6.744A3.473,3.473,0,0,1,596.618,677.122Z" transform="translate(-481.29 -537.971)" opacity="0.2"/>
    <path id="Path_6760" data-name="Path 6760" d="M624.513,717.494a3.441,3.441,0,1,1-4.129-3.372,3.476,3.476,0,0,1,1.376,0A3.441,3.441,0,0,1,624.513,717.494Z" transform="translate(-497.871 -565.372)" fill="#20cad1"/>
    <path id="Path_6761" data-name="Path 6761" d="M629.618,714.122v6.744a3.476,3.476,0,0,1-1.376,0v-6.744A3.476,3.476,0,0,1,629.618,714.122Z" transform="translate(-505.729 -565.372)" opacity="0.2"/>
    <path id="Path_6762" data-name="Path 6762" d="M656.67,656.489a3.441,3.441,0,0,1,.518,4.322,3.442,3.442,0,1,1-4.856-4.68A3.441,3.441,0,0,1,656.67,656.489Z" transform="translate(-522.464 -522.028)" fill="#20cad1"/>
    <path id="Path_6763" data-name="Path 6763" d="M653.861,657.86l4.856,4.68a3.476,3.476,0,0,1-.955.991l-4.856-4.68A3.475,3.475,0,0,1,653.861,657.86Z" transform="translate(-523.994 -523.757)" opacity="0.2"/>
    <path id="Path_6764" data-name="Path 6764" d="M660.67,685.489a3.441,3.441,0,1,1-5.293.633,3.477,3.477,0,0,1,.955-.991A3.441,3.441,0,0,1,660.67,685.489Z" transform="translate(-525.427 -543.505)" fill="#20cad1"/>
    <path id="Path_6765" data-name="Path 6765" d="M657.861,686.86l4.856,4.68a3.475,3.475,0,0,1-.955.991l-4.856-4.68A3.476,3.476,0,0,1,657.861,686.86Z" transform="translate(-526.956 -545.234)" opacity="0.2"/>
    <path id="Path_6766" data-name="Path 6766" d="M541.67,692.489a3.441,3.441,0,1,1-5.293.633,3.477,3.477,0,0,1,.955-.991A3.441,3.441,0,0,1,541.67,692.489Z" transform="translate(-437.299 -548.689)" fill="#20cad1"/>
    <path id="Path_6767" data-name="Path 6767" d="M538.861,693.86l4.856,4.68a3.475,3.475,0,0,1-.955.991l-4.856-4.68A3.475,3.475,0,0,1,538.861,693.86Z" transform="translate(-438.828 -550.418)" opacity="0.2"/>
    <rect id="Rectangle_3442" data-name="Rectangle 3442" width="1.297" height="9.599" transform="translate(91.968 82.007)" opacity="0.2"/>
    <rect id="Rectangle_3443" data-name="Rectangle 3443" width="1.297" height="9.599" transform="translate(99.491 82.007)" opacity="0.2"/>
    <rect id="Rectangle_3444" data-name="Rectangle 3444" width="1.297" height="9.599" transform="translate(107.015 82.007)" opacity="0.2"/>
    <rect id="Rectangle_3445" data-name="Rectangle 3445" width="1.297" height="9.599" transform="translate(114.538 82.007)" opacity="0.2"/>
    <rect id="Rectangle_3446" data-name="Rectangle 3446" width="1.297" height="9.599" transform="translate(122.062 82.007)" opacity="0.2"/>
    <rect id="Rectangle_3447" data-name="Rectangle 3447" width="1.297" height="9.599" transform="translate(129.585 82.007)" opacity="0.2"/>
    <rect id="Rectangle_3448" data-name="Rectangle 3448" width="1.297" height="9.599" transform="translate(137.108 82.007)" opacity="0.2"/>
  </g>
</svg>
