<svg xmlns="http://www.w3.org/2000/svg" width="24.872" height="33.189" viewBox="0 0 24.872 33.189">
  <g id="Group_8342" data-name="Group 8342" transform="translate(-643.761 -602.592)">
    <path id="Path_6652" data-name="Path 6652" d="M666.3,635.781H646.1a.27.27,0,0,0-.079-.049,2.863,2.863,0,0,1-2.261-2.933q.032-13.589,0-27.179a2.918,2.918,0,0,1,3.039-3.028c4.66.044,9.321.018,13.982.008a1.233,1.233,0,0,1,.944.392q3.151,3.169,6.312,6.327c.211.212.4.448.6.673v23.456a1.449,1.449,0,0,0-.066.174,2.52,2.52,0,0,1-1.031,1.578A9.207,9.207,0,0,1,666.3,635.781Zm-5.955-31.771c-.14-.006-.236-.014-.332-.014q-6.634,0-13.269,0a1.4,1.4,0,0,0-1.585,1.6q0,13.6,0,27.208a1.4,1.4,0,0,0,1.592,1.589q9.45,0,18.9,0a2.262,2.262,0,0,0,.637-.078c.647-.193.953-.7.953-1.544q0-10.754,0-21.508V610.9h-.4q-1.845,0-3.689,0a2.776,2.776,0,0,1-2.8-2.843Zm5.744,5.471-4.325-4.326c0,1.035-.028,2.142.012,3.248a1.193,1.193,0,0,0,1.094,1.068C663.966,609.506,665.062,609.481,666.092,609.481Z" fill="#4ec692"/>
    <path id="Path_6653" data-name="Path 6653" d="M735.745,793.192H722.57c-.587,0-.786.2-.786.792q0,5,0,10.007c0,.593.2.793.785.793h13.176c.568,0,.77-.2.77-.776q0-5.02,0-10.039C736.515,793.4,736.313,793.192,735.745,793.192Zm-3.488,7.26a.9.9,0,0,0-.293.054c-.353.122-.715.241-1.064.357-.426.141-.867.286-1.3.438a.305.305,0,0,1-.413-.114c-.473-.583-.963-1.168-1.437-1.733l-.594-.71a.838.838,0,0,0-.606-.383h0a.845.845,0,0,0-.609.4q-1.437,1.8-2.878,3.589l-.031.037v-7.95H735.26V802.8l-1.676-1.43-.257-.218c-.191-.161-.389-.328-.578-.5A.717.717,0,0,0,732.258,800.452Zm-5.7-.48.317.378.966,1.153.164.2c.2.236.4.481.6.724a.682.682,0,0,0,.824.234c.952-.325,1.751-.588,2.513-.828a.376.376,0,0,1,.282.026c.548.454,1.086.916,1.656,1.406l.323.277H723.7Z" transform="translate(-72.959 -178.228)" fill="#4ec692"/>
  </g>
</svg>
