<svg xmlns="http://www.w3.org/2000/svg" width="270.941" height="164.275" viewBox="0 0 270.941 164.275">
  <g id="undraw_Stability_ball_b4ia" transform="translate(0 0)">
    <path id="Path_6102" data-name="Path 6102" d="M919.6,132.207a24.125,24.125,0,0,0,1.91-2.812l-13.473-2.211,14.571.107a24.6,24.6,0,0,0,.469-19.462L903.53,117.971l18.028-13.252a24.562,24.562,0,1,0-40.564,27.488,24.653,24.653,0,0,0-2.8,4.478l17.488,9.086-18.646-6.258a24.573,24.573,0,0,0,3.956,23.064A24.564,24.564,0,0,0,895.766,201.9a8.436,8.436,0,0,0-.485,2.853,8.094,8.094,0,0,0,1.069,4.1,8.407,8.407,0,0,0,0,8.2,8.407,8.407,0,0,0,0,8.2,8.407,8.407,0,0,0,0,8.2,8.1,8.1,0,0,0-1.069,4.1c0,3.708,2.295,6.711,5.127,6.711s5.127-3,5.127-6.711a8.1,8.1,0,0,0-1.071-4.1,8.391,8.391,0,0,0,0-8.2,8.39,8.39,0,0,0,0-8.2,8.39,8.39,0,0,0,0-8.2,8.1,8.1,0,0,0,1.071-4.1,8.449,8.449,0,0,0-.5-2.892A24.564,24.564,0,0,0,919.6,162.578,24.56,24.56,0,0,0,919.6,132.207Z" transform="translate(-669.98 -92.462)" fill="rgba(32,202,209,0.1)"/>
    <path id="Path_6103" data-name="Path 6103" d="M700.34,294.591a18.476,18.476,0,0,1-1.427-2.1l10.074-1.654-10.895.079a18.393,18.393,0,0,1-.352-14.552l14.621,7.584-13.482-9.911a18.367,18.367,0,1,1,30.327,20.556,18.284,18.284,0,0,1,2.095,3.349l-13.079,6.794,13.951-4.682a18.365,18.365,0,0,1-2.961,17.248,18.367,18.367,0,0,1-11.045,29.41,6.328,6.328,0,0,1,.362,2.133,6.039,6.039,0,0,1-.8,3.058,6.277,6.277,0,0,1,0,6.134,6.282,6.282,0,0,1,0,6.137,6.277,6.277,0,0,1,0,6.134,6.042,6.042,0,0,1,.8,3.058c0,2.77-1.715,5.018-3.823,5.018s-3.823-2.248-3.823-5.018a6.041,6.041,0,0,1,.8-3.058,6.277,6.277,0,0,1,0-6.134,6.282,6.282,0,0,1,0-6.137,6.277,6.277,0,0,1,0-6.134,6.038,6.038,0,0,1-.8-3.058,6.307,6.307,0,0,1,.375-2.164,18.37,18.37,0,0,1-10.9-29.379,18.37,18.37,0,0,1,0-22.71Z" transform="translate(-536.355 -238.875)" fill="rgba(32,202,209,0.1)"/>
    <ellipse id="Ellipse_609" data-name="Ellipse 609" cx="127.643" cy="16.056" rx="127.643" ry="16.056" transform="translate(15.656 132.164)" fill="rgba(32,202,209,0.1)"/>
    <path id="Path_6104" data-name="Path 6104" d="M543.4,505.539c0,.51-.015,1.019-.043,1.509v.219a27.282,27.282,0,0,1-1.165,6.343c-.018.064-.041.133-.061.2a29.355,29.355,0,0,1-2.615,5.885l-.109.184a32.754,32.754,0,0,1-4.078,5.469l-.158.168a37.2,37.2,0,0,1-5.742,5.015c-.071.054-.145.107-.217.156a42.442,42.442,0,0,1-6.924,3.935c-.334.15-.67.3-1.019.443l-.306.127a47.941,47.941,0,0,1-11.578,3.142l-.487.066a51.258,51.258,0,0,1-6.733.441c-16.688,0-31.061-8.007-37.547-19.529q-.655-1.155-1.2-2.355l-.148-.329a27.66,27.66,0,0,1-2.312-9.911v-.255c0-.306-.013-.614-.013-.922a27.212,27.212,0,0,1,.928-7.057c.018-.071.036-.14.056-.209a28.88,28.88,0,0,1,2.8-6.708c.033-.059.066-.12.1-.178a32.488,32.488,0,0,1,4.22-5.683,1.855,1.855,0,0,1,.135-.15l.02-.02c.2-.214.405-.431.614-.642l.313-.316c.206-.206.418-.408.629-.612h.013q.764-.719,1.557-1.394c.734-.622,1.5-1.221,2.294-1.8l.171-.127a42.554,42.554,0,0,1,6.682-3.9c.069-.033.14-.069.209-.1a46.389,46.389,0,0,1,8.2-2.89c.089-.025.176-.046.255-.066a50.132,50.132,0,0,1,10.658-1.414h.362c.326,0,.655-.013.984-.013,16.537,0,30.8,7.867,37.372,19.216.059.1.115.2.173.3l.255.446c.14.255.273.51.405.78.061.122.12.242.178.365.036.071.074.143.107.217h0a28.081,28.081,0,0,1,2.148,6.275c.02.084.036.166.054.255A27.27,27.27,0,0,1,543.4,505.539Z" transform="translate(-360.903 -393.432)" fill="#20cad1"/>
    <g id="Group_2615" data-name="Group 2615" transform="translate(139.932 78.825)" opacity="0.2">
      <path id="Path_6105" data-name="Path 6105" d="M656.328,491.749q-2.826-1.07-5.607-2.227A217.364,217.364,0,0,1,617.45,472.25h.362a217.428,217.428,0,0,0,38.355,19.206C656.216,491.555,656.272,491.649,656.328,491.749Z" transform="translate(-617.45 -472.25)" fill="#f2f2f2"/>
    </g>
    <g id="Group_2616" data-name="Group 2616" transform="translate(128.999 80.24)" opacity="0.2">
      <path id="Path_6106" data-name="Path 6106" d="M627.5,504.213q-6.881-2.294-13.617-5.1a217.384,217.384,0,0,1-33.6-17.468q-3.018-1.919-5.734-3.785l.255-.064q2.653,1.812,5.607,3.69a217.315,217.315,0,0,0,47.033,22.478C627.465,504.05,627.48,504.131,627.5,504.213Z" transform="translate(-574.55 -477.8)" fill="#f2f2f2"/>
    </g>
    <g id="Group_2617" data-name="Group 2617" transform="translate(120.594 83.194)" opacity="0.2">
      <path id="Path_6107" data-name="Path 6107" d="M603.43,519.812v.219q-9.605-2.928-18.974-6.8a217.409,217.409,0,0,1-33.6-17.48c-3.377-2.148-6.476-4.253-9.284-6.262l.209-.1c2.786,1.99,5.862,4.078,9.2,6.2A216.683,216.683,0,0,0,603.43,519.812Z" transform="translate(-541.57 -489.39)" fill="#f2f2f2"/>
    </g>
    <g id="Group_2618" data-name="Group 2618" transform="translate(113.733 87.197)" opacity="0.2">
      <path id="Path_6108" data-name="Path 6108" d="M582.193,538.078c-.018.069-.041.135-.061.2a209.663,209.663,0,0,1-22.611-7.875,217.175,217.175,0,0,1-33.6-17.478c-4.195-2.668-7.959-5.273-11.275-7.7l.171-.125c3.313,2.419,7.054,5.01,11.229,7.668A216.228,216.228,0,0,0,582.193,538.078Z" transform="translate(-514.65 -505.1)" fill="#f2f2f2"/>
    </g>
    <g id="Group_2619" data-name="Group 2619" transform="translate(108.164 92.116)" opacity="0.2">
      <path id="Path_6109" data-name="Path 6109" d="M563.236,558.543l-.11.184a209.058,209.058,0,0,1-24.749-8.471,217.524,217.524,0,0,1-33.6-17.478c-4.5-2.862-8.5-5.653-11.978-8.229.041-.048.087-.1.135-.148,3.481,2.574,7.485,5.352,11.978,8.219A216.025,216.025,0,0,0,563.236,558.543Z" transform="translate(-492.8 -524.4)" fill="#f2f2f2"/>
    </g>
    <g id="Group_2620" data-name="Group 2620" transform="translate(103.834 97.955)" opacity="0.2">
      <path id="Path_6110" data-name="Path 6110" d="M546.391,581.266l-.158.168a208.62,208.62,0,0,1-25.378-8.64,217.423,217.423,0,0,1-33.6-17.478c-4.261-2.717-8.084-5.365-11.445-7.832.033-.059.066-.117.1-.176,3.361,2.469,7.194,5.125,11.468,7.847A215.975,215.975,0,0,0,546.391,581.266Z" transform="translate(-475.81 -547.31)" fill="#f2f2f2"/>
    </g>
    <g id="Group_2621" data-name="Group 2621" transform="translate(100.967 104.841)" opacity="0.2">
      <path id="Path_6111" data-name="Path 6111" d="M532.109,606.584c-.071.054-.145.107-.217.155A209.424,209.424,0,0,1,507.61,598.4a217.3,217.3,0,0,1-33.6-17.478c-3.44-2.192-6.6-4.332-9.45-6.384.018-.069.036-.138.056-.207,2.872,2.057,6.05,4.223,9.521,6.432A216.184,216.184,0,0,0,532.109,606.584Z" transform="translate(-464.56 -574.33)" fill="#f2f2f2"/>
    </g>
    <g id="Group_2622" data-name="Group 2622" transform="translate(100.07 113.027)" opacity="0.2">
      <path id="Path_6112" data-name="Path 6112" d="M521.333,635.052l-.306.128a209.293,209.293,0,0,1-20.9-7.378c-6.626-2.74-13.153-5.831-19.519-9.239q-7.187-3.853-14.081-8.239-2.882-1.835-5.49-3.619v-.255q2.671,1.822,5.63,3.711c4.187,2.668,9.029,5.538,14.473,8.436A215.122,215.122,0,0,0,521.333,635.052Z" transform="translate(-461.04 -606.45)" fill="#f2f2f2"/>
    </g>
    <g id="Group_2623" data-name="Group 2623" transform="translate(102.384 123.193)" opacity="0.2">
      <path id="Path_6113" data-name="Path 6113" d="M516.218,668.046l-.487.066q-6.924-2.317-13.711-5.12a216.553,216.553,0,0,1-28.363-14.259q-1.7-1.019-3.39-2.064l-.148-.329q1.858,1.157,3.869,2.357A217.046,217.046,0,0,0,516.218,668.046Z" transform="translate(-470.12 -646.34)" fill="#f2f2f2"/>
    </g>
    <path id="Path_6114" data-name="Path 6114" d="M533,669.74c-.334.15-.67.3-1.019.443l-.306.128a47.938,47.938,0,0,1-11.568,3.142l-.487.066a51.268,51.268,0,0,1-6.733.441c-16.688,0-31.061-8.007-37.547-19.529.729-.112,1.46-.206,2.194-.29l.331-.036c1.973-.209,3.96-.326,5.943-.41a71.175,71.175,0,0,1,7.447,0c.173,0,.347.02.51.036a34.147,34.147,0,0,1,5.023.734c5.033,1.142,9.646,3.621,14.218,6.014C518.068,664.164,525.289,667.758,533,669.74Z" transform="translate(-371.625 -528.555)" opacity="0.1"/>
    <path id="Path_6115" data-name="Path 6115" d="M556.706,491.386c-6.57-11.349-20.834-19.216-37.372-19.216h-1.346a49.957,49.957,0,0,0-10.658,1.414l-.255.064a46.8,46.8,0,0,0-8.2,2.89l-.209.1a42.388,42.388,0,0,0-6.682,3.9l-.171.125a37.039,37.039,0,0,0-5.421,4.776,18.275,18.275,0,0,1-1.529,6.262c-.668,1.376-1.358,2.7-.413,4.078a4.956,4.956,0,0,0,3.178,2.143c3.214.13,5-4.167,6.514-6.308,2.319-3.277,5.757-5.553,9.116-7.753a20.985,20.985,0,0,1,4.5-2.452,15.459,15.459,0,0,1,4.218-.742,24.523,24.523,0,0,1,11.468,1.993c4.078,1.848,7.7,5.033,12.146,5.474,2.016.2,4.078-.191,6.053.27,3.509.823,5.943,4.134,9.358,5.291a10.8,10.8,0,0,0,6.835-.224q-.436-.918-.935-1.807A1.094,1.094,0,0,1,556.706,491.386Z" transform="translate(-378.067 -393.365)" opacity="0.1"/>
    <path id="Path_6116" data-name="Path 6116" d="M319.726,575.088c-1.208,1.274-2.564,2.393-3.81,3.629-4.615,4.587-7.574,10.548-11.723,15.546a26.823,26.823,0,0,0-3.168,4.182,6.326,6.326,0,0,0-.655,5.059,8.794,8.794,0,0,0,2.826,3.446,12.973,12.973,0,0,0,2.306,1.69c1.917,1.019,4.185,1.076,6.356,1.109,1.2.018,2.658-.117,3.17-1.2a21.041,21.041,0,0,1-5.3-3.609,7.181,7.181,0,0,1-2.113-2.979c-.622-2,.3-4.185,1.6-5.828s2.982-2.961,4.254-4.628,2.092-3.581,3.624-4.942a29.675,29.675,0,0,1,3.568-2.312,26,26,0,0,0,4.587-4.208l7.518-8.087a.818.818,0,0,0-.054-1.386c-1.636-1.68-4.72-4.628-6.968-2.416C323.579,570.284,321.823,572.876,319.726,575.088Z" transform="translate(-241.037 -464.297)" fill="#a0616a"/>
    <path id="Path_6117" data-name="Path 6117" d="M319.726,575.088c-1.208,1.274-2.564,2.393-3.81,3.629-4.615,4.587-7.574,10.548-11.723,15.546a26.823,26.823,0,0,0-3.168,4.182,6.326,6.326,0,0,0-.655,5.059,8.794,8.794,0,0,0,2.826,3.446,12.973,12.973,0,0,0,2.306,1.69c1.917,1.019,4.185,1.076,6.356,1.109,1.2.018,2.658-.117,3.17-1.2a21.041,21.041,0,0,1-5.3-3.609,7.181,7.181,0,0,1-2.113-2.979c-.622-2,.3-4.185,1.6-5.828s2.982-2.961,4.254-4.628,2.092-3.581,3.624-4.942a29.675,29.675,0,0,1,3.568-2.312,26,26,0,0,0,4.587-4.208l7.518-8.087a.818.818,0,0,0-.054-1.386c-1.636-1.68-4.72-4.628-6.968-2.416C323.579,570.284,321.823,572.876,319.726,575.088Z" transform="translate(-241.037 -464.297)" opacity="0.1"/>
    <path id="Path_6118" data-name="Path 6118" d="M419.3,489.881c1.516-.321,3.15.487,4.615-.015a5.415,5.415,0,0,0,2.064-1.59l2.447-2.607a9.522,9.522,0,0,0,1.82-2.406,11.7,11.7,0,0,0,.693-2.582,10.962,10.962,0,0,1,2.9-6.086,8.142,8.142,0,0,1,8.033-1.371,13.485,13.485,0,0,1,6.5,5.337c-1.443,1.733-3.058,3.333-4.5,5.066a8.359,8.359,0,0,1-1.608,1.608,8.98,8.98,0,0,1-2.148.951c-2.592.918-5.352,2.245-6.42,4.781a15.6,15.6,0,0,0-.714,2.778,9.462,9.462,0,0,1-2.4,4.786,5.133,5.133,0,0,1-4.975,1.412c-1.909-.607-3.079-2.477-4.062-4.22A20.356,20.356,0,0,1,419.3,489.881Z" transform="translate(-329.867 -393.789)" fill="#a0616a"/>
    <path id="Path_6119" data-name="Path 6119" d="M419.3,489.881c1.516-.321,3.15.487,4.615-.015a5.415,5.415,0,0,0,2.064-1.59l2.447-2.607a9.522,9.522,0,0,0,1.82-2.406,11.7,11.7,0,0,0,.693-2.582,10.962,10.962,0,0,1,2.9-6.086,8.142,8.142,0,0,1,8.033-1.371,13.485,13.485,0,0,1,6.5,5.337c-1.443,1.733-3.058,3.333-4.5,5.066a8.359,8.359,0,0,1-1.608,1.608,8.98,8.98,0,0,1-2.148.951c-2.592.918-5.352,2.245-6.42,4.781a15.6,15.6,0,0,0-.714,2.778,9.462,9.462,0,0,1-2.4,4.786,5.133,5.133,0,0,1-4.975,1.412c-1.909-.607-3.079-2.477-4.062-4.22A20.356,20.356,0,0,1,419.3,489.881Z" transform="translate(-329.867 -393.789)" opacity="0.1"/>
    <path id="Path_6120" data-name="Path 6120" d="M679.724,453.764c9.578,3.428,19.1,7.488,27.014,13.889,3.624,2.933,6.853,6.318,10.3,9.46,1.8,1.646,3.667,3.224,5.53,4.8l13.224,11.214a47.775,47.775,0,0,0,5.1,3.943c4.274,2.747,9.371,4.144,13.556,7.1a13.551,13.551,0,0,0,.739,4.483,2.579,2.579,0,0,0,2.615,1.7c6.591-.38,13.273,2.819,19.912,2.013a1.249,1.249,0,0,0,.935-.6c.446-.78-.316-1.509-.984-1.975l-9.014-6.31c-1.486-1.04-2.971-2.08-4.485-3.076-5.474-3.6-11.32-6.654-16.395-10.785-1.083-.882-2.125-1.809-3.17-2.74-5.525-4.909-11.053-9.822-16.29-15.036-7.612-7.582-14.812-16.04-22.358-23.689a20.918,20.918,0,0,0-2.314-2.118,21.327,21.327,0,0,0-2.526-1.547l-9.58-5.263c-1.45-.8-3.058-1.621-4.677-1.307a2.508,2.508,0,0,0-2.294.586,7.863,7.863,0,0,0-1.427,2.057,12.534,12.534,0,0,0-1.249,2.842c-.341,1.353-.229,2.8-.624,4.134-.255.879-.729,1.682-1.05,2.549A8.758,8.758,0,0,0,679.724,453.764Z" transform="translate(-523.9 -367.795)" fill="#a0616a"/>
    <path id="Path_6121" data-name="Path 6121" d="M679.724,453.764c9.578,3.428,19.1,7.488,27.014,13.889,3.624,2.933,6.853,6.318,10.3,9.46,1.8,1.646,3.667,3.224,5.53,4.8l13.224,11.214a47.775,47.775,0,0,0,5.1,3.943c4.274,2.747,9.371,4.144,13.556,7.1a13.551,13.551,0,0,0,.739,4.483,2.579,2.579,0,0,0,2.615,1.7c6.591-.38,13.273,2.819,19.912,2.013a1.249,1.249,0,0,0,.935-.6c.446-.78-.316-1.509-.984-1.975l-9.014-6.31c-1.486-1.04-2.971-2.08-4.485-3.076-5.474-3.6-11.32-6.654-16.395-10.785-1.083-.882-2.125-1.809-3.17-2.74-5.525-4.909-11.053-9.822-16.29-15.036-7.612-7.582-14.812-16.04-22.358-23.689a20.918,20.918,0,0,0-2.314-2.118,21.327,21.327,0,0,0-2.526-1.547l-9.58-5.263c-1.45-.8-3.058-1.621-4.677-1.307a2.508,2.508,0,0,0-2.294.586,7.863,7.863,0,0,0-1.427,2.057,12.534,12.534,0,0,0-1.249,2.842c-.341,1.353-.229,2.8-.624,4.134-.255.879-.729,1.682-1.05,2.549A8.758,8.758,0,0,0,679.724,453.764Z" transform="translate(-523.9 -367.795)" opacity="0.1"/>
    <ellipse id="Ellipse_610" data-name="Ellipse 610" cx="10.783" cy="10.783" rx="10.783" ry="10.783" transform="translate(80.059 94.346)" fill="#a0616a"/>
    <path id="Path_6122" data-name="Path 6122" d="M636.85,421.445c1.506.025,3.216.143,4.164,1.313s.734,2.773.494,4.215c-.749,4.559-1.529,9.2-3.614,13.324a1.9,1.9,0,0,1-.742.9c-.6.308-1.31-.053-1.883-.408-4.177-2.594-8.354-5.388-13.115-6.626a1.188,1.188,0,0,1-.742-.4,1.144,1.144,0,0,1-.043-.882c.474-2.113,1.073-4.2,1.445-6.336.224-1.274-.191-4.332.938-5.122,1.2-.841,4.638-.13,6.053-.107Z" transform="translate(-480.389 -355.253)" fill="#a0616a"/>
    <path id="Path_6123" data-name="Path 6123" d="M702.122,458.77c9.577,3.428,19.1,7.488,27,13.887,3.624,2.936,6.853,6.32,10.3,9.463,1.8,1.646,3.667,3.224,5.53,4.8l13.224,11.214a47.766,47.766,0,0,0,5.1,3.94c4.292,2.758,9.389,4.149,13.558,7.09a13.561,13.561,0,0,0,.739,4.485,2.582,2.582,0,0,0,2.615,1.7c6.591-.382,13.273,2.819,19.912,2.013a1.252,1.252,0,0,0,.935-.6c.446-.765-.316-1.509-.984-1.975l-9.014-6.308c-1.486-1.04-2.972-2.08-4.485-3.076-5.464-3.6-11.31-6.654-16.385-10.783-1.083-.882-2.126-1.812-3.17-2.74-5.525-4.908-11.053-9.822-16.293-15.036-7.61-7.582-14.809-16.04-22.356-23.7a21.2,21.2,0,0,0-2.322-2.09,21.653,21.653,0,0,0-2.526-1.544l-9.58-5.263c-1.45-.8-3.058-1.621-4.677-1.307a2.5,2.5,0,0,0-2.294.584,7.871,7.871,0,0,0-1.427,2.059,12.566,12.566,0,0,0-1.249,2.839c-.341,1.353-.229,2.8-.624,4.136-.255.879-.729,1.682-1.05,2.549A8.75,8.75,0,0,0,702.122,458.77Z" transform="translate(-540.589 -371.532)" fill="#a0616a"/>
    <path id="Path_6124" data-name="Path 6124" d="M676.685,443.055l.3-4.411a15.323,15.323,0,0,1,.553-3.657,14.367,14.367,0,0,1,2.013-3.67,8.843,8.843,0,0,1,1.529-1.817c.869-.731,1.993-1.129,2.8-1.922.232-.227.448-.561.311-.854a.855.855,0,0,0-.255-.275,28.784,28.784,0,0,0-6.759-3.751l-4.47-1.978a29.381,29.381,0,0,0-4.763,8.2,12.091,12.091,0,0,1-.548,1.575c-.573,1.2-1.662,2.067-2.352,3.2a11.039,11.039,0,0,0-1.177,3.532,3.9,3.9,0,0,0-.043,2.166,3.959,3.959,0,0,0,1.687,1.7c2.959,1.939,6.083,3.94,9.613,4.215.647.048,1.509.372,1.715-.255C676.991,444.635,676.652,443.57,676.685,443.055Z" transform="translate(-511.974 -355.027)" fill="#3f3d56"/>
    <path id="Path_6125" data-name="Path 6125" d="M366.485,552.509c-1.116,1.5-.367,3.675.79,5.14s2.7,2.694,3.351,4.445c1.552,4.187-2.778,8.41-2.63,12.865.133,3.971,3.642,6.848,6.626,9.486,6.341,5.607,11.759,13.421,11.045,21.861a12.717,12.717,0,0,0,7.034-5.191,13.688,13.688,0,0,1,1.188,6.787,22.55,22.55,0,0,0,9.43-20.949c-.477-3.782-1.934-7.47-1.708-11.272a39.533,39.533,0,0,1,1.18-6.076,36.954,36.954,0,0,0,.841-7.921c0-3.038-.563-6.412-2.959-8.28-2.039-1.588-4.842-1.641-7.426-1.629-2.729.018-5.459.031-8.183.2-2.78.173-5.648,1.091-8.385,1.16C373.631,553.212,369.336,548.686,366.485,552.509Z" transform="translate(-290.103 -452.085)" fill="#3f3d56"/>
    <path id="Path_6126" data-name="Path 6126" d="M318.37,478.73a11.26,11.26,0,0,0-4.717,3.025c-.813.882-1.486,1.888-2.329,2.742a23.067,23.067,0,0,1-3.4,2.6c-2.245,1.555-4.348,3.3-6.448,5.044l-10.347,8.589c-1.618,1.343-3.237,2.689-4.763,4.136-1.883,1.784-3.621,3.731-5.632,5.375-1.177.963-2.444,1.822-3.525,2.9a26.357,26.357,0,0,0-2.681,3.359,161.767,161.767,0,0,1-10.959,13.6,34.123,34.123,0,0,1-5.375,5.1c-4.169,3-7.335,7.5-11,11.109-.311.306-.652.742-.461,1.137a.856.856,0,0,0,.51.385c2.681,1,4.99-3.351,7.783-2.735,1.274.28,2.057,1.486,2.969,2.406s2.477,1.6,3.43.719a15.148,15.148,0,0,1,.966-7.554c1.562-3.876,4.661-6.932,7.969-9.491s6.909-4.74,10.016-7.541c5.212-4.7,9.019-11.1,15.2-14.42,2.421-1.3,5.1-2.059,7.51-3.39,4.671-2.584,7.939-7.136,10.492-11.818a6.313,6.313,0,0,1,1.2-1.736,6.806,6.806,0,0,1,1.758-1,27.048,27.048,0,0,0,8.665-6.348c-.765-.548-1.481-1.134-2.243-1.685a9.082,9.082,0,0,1-1.69-1.445A19.549,19.549,0,0,1,320,479.8,2.533,2.533,0,0,0,318.37,478.73Z" transform="translate(-201.235 -398.253)" fill="#a0616a"/>
    <path id="Path_6127" data-name="Path 6127" d="M507.741,429.785a2.833,2.833,0,0,1-.663-2.4q.166-4.022.326-8.041c.074-1.888.255-4,1.679-5.242q-6.18-1.241-12.462-1.9a20.05,20.05,0,0,0-5-.079,21.8,21.8,0,0,0-5.706,1.955A35.185,35.185,0,0,0,480,417.2a23.783,23.783,0,0,1-2.2,1.509,27.06,27.06,0,0,1-4.473,1.529,14.57,14.57,0,0,0-9.455,17.271c.51-1.318.867-2.7,1.463-3.978a6.553,6.553,0,0,1,2.727-3.147,5.968,5.968,0,0,1,4.3-.283,16.387,16.387,0,0,1,3.971,1.9c2.839,1.72,5.739,3.729,7.087,6.759,2.8-2.085,5.671-4.078,8.479-6.172a12.759,12.759,0,0,1,9.748-3.168A22.519,22.519,0,0,1,507.741,429.785Z" transform="translate(-362.763 -348.521)" fill="#ff6584"/>
    <path id="Path_6128" data-name="Path 6128" d="M395.579,417.346l-.339,4.7,1.223-1.009-.612-4.159Z" transform="translate(-294.482 -328.602)" fill="#ff6584"/>
    <path id="Path_6129" data-name="Path 6129" d="M198.423,248.86l-3.955,2.508,2.4-4.353a3.91,3.91,0,0,0-2.393-.854h-.064a4.625,4.625,0,0,1-.821-.061l-1.341.851.576-1.045a4.766,4.766,0,0,1-2.345-1.784l-2.4,1.529L189.6,242.9a7.023,7.023,0,0,0-5.375-2.717,7.367,7.367,0,0,0-6.152,3.795,4.6,4.6,0,0,1-4.078,2.194h-.135c-2.755,0-4.987,3.122-4.987,6.975s2.232,6.975,4.987,6.975a3.753,3.753,0,0,0,1.738-.436,7.192,7.192,0,0,1,6.035-.117,6.285,6.285,0,0,0,5.133,0,7.2,7.2,0,0,1,5.984.117,3.734,3.734,0,0,0,1.718.426c2.755,0,4.988-3.125,4.988-6.975A8.846,8.846,0,0,0,198.423,248.86Z" transform="translate(-143.26 -214.11)" fill="rgba(32,202,209,0.1)"/>
    <path id="Path_6130" data-name="Path 6130" d="M191.006,285.557a7.363,7.363,0,0,0-4.274.464,6.3,6.3,0,0,1-5.133-.013,7.192,7.192,0,0,0-6.035.12,3.76,3.76,0,0,1-1.738.433c-2.447,0-4.483-2.464-4.906-5.716a4.692,4.692,0,0,0,1.223-1.318,6.871,6.871,0,0,1,12.269-.043,4.717,4.717,0,0,0,4.078,2.233h.064C188.5,281.717,190.185,283.279,191.006,285.557Z" transform="translate(-143.297 -246.988)" fill="rgba(32,202,209,0.1)" opacity="0.03"/>
    <path id="Path_6131" data-name="Path 6131" d="M518.715,319.448l-1.972,1.241,1.2-2.176a1.94,1.94,0,0,0-1.193-.426h-.02a2.4,2.4,0,0,1-.408-.031l-.67.423.288-.51a2.372,2.372,0,0,1-1.17-.889l-1.2.765.765-1.374a3.5,3.5,0,0,0-2.7-1.361A3.645,3.645,0,0,0,508.572,317a2.294,2.294,0,0,1-2.039,1.093h-.066c-1.374,0-2.487,1.557-2.487,3.479s1.114,3.479,2.487,3.479a1.874,1.874,0,0,0,.866-.217,3.568,3.568,0,0,1,3.01-.059,3.163,3.163,0,0,0,1.274.275,3.131,3.131,0,0,0,1.274-.27,3.588,3.588,0,0,1,2.984.059,1.868,1.868,0,0,0,.859.211c1.374,0,2.487-1.557,2.487-3.479A4.412,4.412,0,0,0,518.715,319.448Z" transform="translate(-392.966 -276.332)" fill="rgba(32,202,209,0.1)"/>
    <path id="Path_6132" data-name="Path 6132" d="M515,337.788a3.67,3.67,0,0,0-2.131.232,3.193,3.193,0,0,1-1.274.27,3.131,3.131,0,0,1-1.287-.275,3.588,3.588,0,0,0-3.01.061,1.865,1.865,0,0,1-.866.217c-1.221,0-2.235-1.231-2.447-2.852a2.347,2.347,0,0,0,.609-.658,3.426,3.426,0,0,1,6.116-.023,2.36,2.36,0,0,0,2.039,1.116h.031A2.541,2.541,0,0,1,515,337.788Z" transform="translate(-392.974 -289.581)" fill="rgba(32,202,209,0.1)" opacity="0.03"/>
    <path id="Path_6133" data-name="Path 6133" d="M596.533,157.96l3.168,2.011-1.924-3.5a3.139,3.139,0,0,1,1.916-.683h.051a3.993,3.993,0,0,0,.658-.048l1.076.68-.469-.841a3.823,3.823,0,0,0,1.878-1.425l1.924,1.218-1.216-2.207a5.622,5.622,0,0,1,4.307-2.176,5.9,5.9,0,0,1,4.929,3.04,3.683,3.683,0,0,0,3.26,1.756h.107c2.207,0,4,2.5,4,5.589s-1.784,5.586-4,5.586a3.007,3.007,0,0,1-1.392-.347,5.757,5.757,0,0,0-4.842-.094,5.1,5.1,0,0,1-2.067.441,5.029,5.029,0,0,1-2.039-.433,5.772,5.772,0,0,0-4.794.094,3.02,3.02,0,0,1-1.379.339c-2.207,0-4-2.5-4-5.586A7.107,7.107,0,0,1,596.533,157.96Z" transform="translate(-461.303 -147.65)" fill="rgba(32,202,209,0.1)"/>
    <path id="Path_6134" data-name="Path 6134" d="M622.4,187.42a5.9,5.9,0,0,1,3.425.372,5.038,5.038,0,0,0,4.111,0,5.778,5.778,0,0,1,4.842.094,2.979,2.979,0,0,0,1.392.349c1.96,0,3.591-1.975,3.932-4.587a3.744,3.744,0,0,1-.981-1.058,5.512,5.512,0,0,0-9.837-.033,3.78,3.78,0,0,1-3.257,1.784h-.051C624.411,184.344,623.063,185.6,622.4,187.42Z" transform="translate(-481.207 -175.32)" fill="rgba(32,202,209,0.1)" opacity="0.03"/>
    <path id="Path_6135" data-name="Path 6135" d="M360.706,392.659c-.133-.2-.782,0-1.45.436-.117.079-.229.161-.331.242a4.8,4.8,0,0,0-1.483-.484l.028-.02a11.264,11.264,0,0,0,1.863-1.529H357.9l2.082-.8c.255-.405.336-.744.2-.956-.377-.566-2.2-.02-4.078,1.223a10.081,10.081,0,0,0-2.261,1.97c-1.529.178-2.6.627-2.6,1.149,0,.362.51.688,1.338.915l-.048.031c-1.871,1.241-3.084,2.709-2.707,3.275.331.51,1.784.133,3.41-.813l-1.078-.51,1.7.117.036-.023c.181-.12.354-.242.522-.365l-1.274-.591,1.868.127a8.946,8.946,0,0,0,.989-.956c1.741-.092,3.1-.51,3.339-1.05a4.623,4.623,0,0,0,.423-.219,3.968,3.968,0,0,0,.663-.54h-.51l.742-.285C360.729,392.855,360.757,392.735,360.706,392.659Z" transform="translate(-278.042 -331.632)" fill="rgba(32,202,209,0.1)"/>
    <path id="Path_6136" data-name="Path 6136" d="M154.486,677.325a12.49,12.49,0,0,1-.255,2.6c-.036.161-.071.319-.107.471-.951,3.81-3.632,6.6-6.83,6.776h-.326c-3.382,0-6.241-2.918-7.187-6.937-.025-.107-.048-.214-.074-.321a12.491,12.491,0,0,1-.268-2.6c0-5.444,3.372-9.855,7.528-9.855S154.486,671.882,154.486,677.325Z" transform="translate(-121.33 -538.885)" fill="#3f3d56"/>
    <path id="Path_6137" data-name="Path 6137" d="M154.486,677.348a12.486,12.486,0,0,1-.255,2.6c-.036.161-.071.319-.107.472a3.025,3.025,0,0,1-.339-.013,15.325,15.325,0,0,1-2.462-.339,15.1,15.1,0,0,1-2.2.51,15.3,15.3,0,0,1-1.72.161h-.581a15.324,15.324,0,0,1-2.062-.138,15.022,15.022,0,0,1-3.234-.8,15.5,15.5,0,0,1-1.748.469c-.025-.107-.048-.214-.074-.321a12.492,12.492,0,0,1-.268-2.6c0-5.444,3.372-9.855,7.528-9.855S154.486,671.9,154.486,677.348Z" transform="translate(-121.33 -538.907)" opacity="0.1"/>
    <path id="Path_6138" data-name="Path 6138" d="M117.6,569.274a15.238,15.238,0,0,0-1.639-6.881l-8.856,2.755,7.773-4.572a15.292,15.292,0,0,0-11.5-6.555,15.371,15.371,0,0,0-1.2-1.6L89.45,556.379l10.434-6.121A15.291,15.291,0,0,0,75.8,558.413L86.7,570.951l-11.83-8.543a15.3,15.3,0,0,0,13.7,27.014,15.359,15.359,0,0,0,9.791.26,15.317,15.317,0,0,0,18.6-14.942c0-.341-.013-.678-.036-1.019a15.273,15.273,0,0,0,.673-4.447Z" transform="translate(-68.379 -449.193)" fill="#57b894"/>
    <path id="Path_6139" data-name="Path 6139" d="M117.416,634.991a40.828,40.828,0,0,0-14.167-.181c-5.316.882-10.75,2.816-15.949,1.4-3.058-.831-5.693-2.75-8.665-3.823a16.433,16.433,0,0,0-8.955-.525A15.309,15.309,0,0,0,88.648,652.3a15.358,15.358,0,0,0,9.791.265,15.317,15.317,0,0,0,18.6-14.942c0-.341-.013-.678-.036-1.019A14.6,14.6,0,0,0,117.416,634.991Z" transform="translate(-68.464 -512.071)" opacity="0.1"/>
  </g>
</svg>
