<svg xmlns="http://www.w3.org/2000/svg" width="17.846" height="15.5" viewBox="0 0 17.846 15.5">
  <g id="left-align" transform="translate(0.5 -31)">
    <g id="Group_2631" data-name="Group 2631" transform="translate(0 31.5)">
      <g id="Group_2630" data-name="Group 2630" transform="translate(0 0)">
        <path id="Path_6191" data-name="Path 6191" d="M16.34,31.5H.506a.538.538,0,0,0,0,1.074H16.34a.538.538,0,0,0,0-1.074Z" transform="translate(0 -31.5)" fill="#20cad1" stroke="#20cad1" stroke-width="1"/>
      </g>
    </g>
    <g id="Group_2633" data-name="Group 2633" transform="translate(0 35.957)">
      <g id="Group_2632" data-name="Group 2632" transform="translate(0 0)">
        <path id="Path_6192" data-name="Path 6192" d="M12.352,114.5H.537a.537.537,0,0,0,0,1.074H12.352a.537.537,0,0,0,0-1.074Z" transform="translate(0 -114.5)" fill="#20cad1" stroke="#20cad1" stroke-width="1"/>
      </g>
    </g>
    <g id="Group_2635" data-name="Group 2635" transform="translate(0 40.468)">
      <g id="Group_2634" data-name="Group 2634" transform="translate(0 0)">
        <path id="Path_6193" data-name="Path 6193" d="M16.34,198.5H.506a.538.538,0,0,0,0,1.074H16.34a.538.538,0,0,0,0-1.074Z" transform="translate(0 -198.5)" fill="#20cad1" stroke="#20cad1" stroke-width="1"/>
      </g>
    </g>
    <g id="Group_2637" data-name="Group 2637" transform="translate(0 44.926)">
      <g id="Group_2636" data-name="Group 2636">
        <path id="Path_6194" data-name="Path 6194" d="M8.109,281.5H.537a.537.537,0,0,0,0,1.074H8.109a.537.537,0,0,0,0-1.074Z" transform="translate(0 -281.5)" fill="#20cad1" stroke="#20cad1" stroke-width="1"/>
      </g>
    </g>
  </g>
</svg>
