<svg id="undraw_Updated_resume_re_q1or" xmlns="http://www.w3.org/2000/svg" width="388.293" height="194.814" viewBox="0 0 388.293 194.814">
  <rect id="Rectangle_62" data-name="Rectangle 62" width="388.128" height="184.173" transform="translate(0.165 10.641)" fill="#e6e6e6"/>
  <rect id="Rectangle_75" data-name="Rectangle 75" width="365.931" height="153.661" transform="translate(11.264 26.434)" fill="#fff"/>
  <rect id="Rectangle_80" data-name="Rectangle 80" width="388.128" height="16.489" fill="#20cad1"/>
  <circle id="Ellipse_90" data-name="Ellipse 90" cx="3.056" cy="3.056" r="3.056" transform="translate(9.197 6.64)" fill="#fff"/>
  <circle id="Ellipse_91" data-name="Ellipse 91" cx="3.056" cy="3.056" r="3.056" transform="translate(20.797 6.64)" fill="#fff"/>
  <circle id="Ellipse_92" data-name="Ellipse 92" cx="3.056" cy="3.056" r="3.056" transform="translate(32.398 6.64)" fill="#fff"/>
  <rect id="Rectangle_3313" data-name="Rectangle 3313" width="51.537" height="3.874" transform="translate(222.124 49.796)" fill="#e6e6e6"/>
  <rect id="Rectangle_3314" data-name="Rectangle 3314" width="79.584" height="3.874" transform="translate(222.124 61.168)" fill="#20cad1"/>
  <rect id="Rectangle_3315" data-name="Rectangle 3315" width="64.859" height="3.874" transform="translate(222.952 71.998)" fill="#e6e6e6"/>
  <rect id="Rectangle_3316" data-name="Rectangle 3316" width="37.864" height="3.874" transform="translate(222.124 83.881)" fill="#e6e6e6"/>
  <rect id="Rectangle_3317" data-name="Rectangle 3317" width="57.146" height="3.874" transform="translate(222.124 95.488)" fill="#20cad1"/>
  <rect id="Rectangle_3318" data-name="Rectangle 3318" width="6.311" height="6.311" transform="translate(198.635 48.578)" fill="#e6e6e6"/>
  <rect id="Rectangle_3319" data-name="Rectangle 3319" width="6.311" height="6.311" transform="translate(198.635 59.949)" fill="#20cad1"/>
  <rect id="Rectangle_3320" data-name="Rectangle 3320" width="6.311" height="6.311" transform="translate(198.635 70.779)" fill="#e6e6e6"/>
  <rect id="Rectangle_3321" data-name="Rectangle 3321" width="6.311" height="6.311" transform="translate(198.635 82.662)" fill="#e6e6e6"/>
  <rect id="Rectangle_3322" data-name="Rectangle 3322" width="6.311" height="6.311" transform="translate(198.635 94.27)" fill="#20cad1"/>
  <rect id="Rectangle_3323" data-name="Rectangle 3323" width="51.537" height="3.874" transform="translate(222.124 107.168)" fill="#e6e6e6"/>
  <rect id="Rectangle_3324" data-name="Rectangle 3324" width="79.584" height="3.874" transform="translate(222.124 118.539)" fill="#20cad1"/>
  <rect id="Rectangle_3325" data-name="Rectangle 3325" width="64.859" height="3.874" transform="translate(222.952 129.369)" fill="#e6e6e6"/>
  <rect id="Rectangle_3326" data-name="Rectangle 3326" width="37.864" height="3.874" transform="translate(222.124 141.252)" fill="#e6e6e6"/>
  <rect id="Rectangle_3327" data-name="Rectangle 3327" width="57.146" height="3.874" transform="translate(222.124 152.86)" fill="#e6e6e6"/>
  <rect id="Rectangle_3328" data-name="Rectangle 3328" width="6.311" height="6.311" transform="translate(198.635 105.949)" fill="#e6e6e6"/>
  <rect id="Rectangle_3329" data-name="Rectangle 3329" width="6.311" height="6.311" transform="translate(198.635 117.321)" fill="#20cad1"/>
  <rect id="Rectangle_3330" data-name="Rectangle 3330" width="6.311" height="6.311" transform="translate(198.635 128.151)" fill="#e6e6e6"/>
  <rect id="Rectangle_3331" data-name="Rectangle 3331" width="6.311" height="6.311" transform="translate(198.635 140.034)" fill="#e6e6e6"/>
  <rect id="Rectangle_3332" data-name="Rectangle 3332" width="6.311" height="6.311" transform="translate(198.635 151.641)" fill="#e6e6e6"/>
  <rect id="Rectangle_3333" data-name="Rectangle 3333" width="51.537" height="3.874" transform="translate(59.088 137.552)" fill="#3f3d56"/>
  <rect id="Rectangle_3334" data-name="Rectangle 3334" width="64.859" height="3.874" transform="translate(52.193 147.618)" fill="#3f3d56"/>
  <path id="Path_6613" data-name="Path 6613" d="M370.179,293.446a33.663,33.663,0,0,1-49.607,29.635l-.007-.007a33.653,33.653,0,1,1,49.613-29.629Z" transform="translate(-251.825 -204.757)" fill="#3f3d56"/>
  <circle id="Ellipse_3182" data-name="Ellipse 3182" cx="9.148" cy="9.148" r="9.148" transform="translate(75.726 68.76)" fill="#fff"/>
  <path id="Path_6614" data-name="Path 6614" d="M366.841,341.063a47.15,47.15,0,0,1-31.576-.122l-.007,0,6.815-13.453h18.3Z" transform="translate(-266.347 -235.107)" fill="#fff"/>
</svg>
