<svg xmlns="http://www.w3.org/2000/svg" width="201.315" height="193.334" viewBox="0 0 201.315 193.334">
  <g id="undraw_Delivery_address_re_cjca" transform="translate(0 0)">
    <path id="Path_6635" data-name="Path 6635" d="M343.04,322.869v.206h.144A2.042,2.042,0,0,1,343.04,322.869Zm1.106-87.44a74.56,74.56,0,0,0-15.453,45.535q0,3.762.369,7.417c.038.419.081.837.138,1.25a74.385,74.385,0,0,0,12.679,33.75c.268.394.543.781.819,1.169a74.886,74.886,0,0,0,115.984,7.317c.431-.456.844-.919,1.25-1.381a74.818,74.818,0,0,0,3.281-95.057c-.319-.419-.644-.837-.981-1.25q-1.109-1.4-2.3-2.737c-.406-.462-.819-.925-1.25-1.381a74.759,74.759,0,0,0-55-24.083c-.719,0-1.431.012-2.143.031q-.712.019-1.425.056a74.85,74.85,0,0,0-54.983,28.113c-.337.412-.662.831-.981,1.25Zm-.962,87.646a2.056,2.056,0,0,1-.144-.206v.206Z" transform="translate(-277.349 -162.617)" fill="#fff"/>
    <path id="Path_6636" data-name="Path 6636" d="M363.459,322.15l.212-.431,15.909-32.038v-.006l.619-1.243v-.006l26.282-52.946v-.006l.619-1.243.006-.006,13.31-26.826.637-1.281q.713-.037,1.425-.056l-.631,1.275L408.5,234.223v.006l-.619,1.243v.006l-26.97,54.327-.006.006L365,321.875l-.625,1.25-.1.206-.631,1.269c-.275-.387-.55-.775-.819-1.169Z" transform="translate(-298.294 -162.666)" fill="#3f3d56"/>
    <path id="Path_6637" data-name="Path 6637" d="M360.285,419.279v1.25h-30.5c-.056-.412-.1-.831-.138-1.25Z" transform="translate(-277.935 -293.514)" fill="#3f3d56"/>
    <path id="Path_6638" data-name="Path 6638" d="M531.647,442.529v-1.25h30.5c.056.412.1.831.138,1.25Z" transform="translate(-401.897 -307.015)" fill="#3f3d56"/>
    <path id="Path_6639" data-name="Path 6639" d="M597.682,433.243h1.25v30.5c-.412.056-.831.1-1.25.138Z" transform="translate(-442.422 -302.083)" fill="#3f3d56"/>
    <path id="Path_6640" data-name="Path 6640" d="M487.758,273.685c-.319-.419-.643-.837-.981-1.25h-2.3V269.7c-.406-.462-.819-.925-1.25-1.381v4.118H369.674c-.337.412-.662.831-.981,1.25H483.228v96.438c.431-.456.844-.919,1.25-1.381V273.685Z" transform="translate(-301.897 -200.872)" fill="#3f3d56"/>
    <rect id="Rectangle_3381" data-name="Rectangle 3381" width="116.267" height="1.25" transform="translate(65.689 159.208)" fill="#3f3d56"/>
    <path id="Path_6641" data-name="Path 6641" d="M343.04,322.869v.206h.144A2.042,2.042,0,0,1,343.04,322.869Zm1.106-87.44a74.56,74.56,0,0,0-15.453,45.535q0,3.762.369,7.417c.038.419.081.837.138,1.25a74.385,74.385,0,0,0,12.679,33.75c.268.394.543.781.819,1.169a74.886,74.886,0,0,0,115.984,7.317c.431-.456.844-.919,1.25-1.381a74.818,74.818,0,0,0,3.281-95.057c-.319-.419-.644-.837-.981-1.25q-1.109-1.4-2.3-2.737c-.406-.462-.819-.925-1.25-1.381a74.759,74.759,0,0,0-55-24.083c-.719,0-1.431.012-2.143.031q-.712.019-1.425.056a74.85,74.85,0,0,0-54.983,28.113c-.337.412-.662.831-.981,1.25Zm-13.691,54.2c-.056-.412-.1-.831-.144-1.25a73.748,73.748,0,0,1,15.41-52.952c.331-.419.662-.837,1.006-1.25a73.642,73.642,0,0,1,52.746-26.832c.475-.025.95-.05,1.431-.062q1.378-.056,2.774-.056a73.527,73.527,0,0,1,55,24.683c.431.475.85.95,1.25,1.437.244.275.475.55.7.831.344.412.675.831,1.006,1.25a73.587,73.587,0,0,1-1.706,93.151c-.4.487-.819.962-1.25,1.437a73.65,73.65,0,0,1-115.353-6.736c-.05-.069-.1-.137-.144-.206a2.046,2.046,0,0,1-.144-.206q-.272-.384-.525-.769a73.08,73.08,0,0,1-12.06-32.469Zm12.729,33.444a2.056,2.056,0,0,1-.144-.206v.206Z" transform="translate(-277.349 -162.617)" fill="#ccc"/>
    <path id="Path_6646" data-name="Path 6646" d="M219.937,103.592A54.011,54.011,0,0,1,295.2,116.653c17.175,24.389,34.41,88.342,22.244,125.391-36.287-38.329-92.035-42.312-110.564-63.193C187.078,156.539,195.548,120.768,219.937,103.592Z" transform="translate(-195.842 -93.736)" fill="#20cad1"/>
    <circle id="b262ea8c-1946-46c9-a449-3a1996c39394" cx="17.615" cy="17.615" r="17.615" transform="translate(38.314 29.853)" fill="#fff"/>
    <circle id="bcc29a3a-8123-4529-80aa-6f70df2823cf" cx="11.537" cy="11.537" r="11.537" transform="translate(124.951 144.417)" fill="#20cad1"/>
    <path id="Path_6647" data-name="Path 6647" d="M287.958,199.146a17.615,17.615,0,0,0,30.423,17.763,17.612,17.612,0,0,1-26.817-22.132,17.615,17.615,0,0,0-3.606,4.369Z" transform="translate(-250.875 -155.743)" fill="#231f20" opacity="0.2" style="isolation: isolate"/>
    <path id="Path_6648" data-name="Path 6648" d="M206.792,202.158c18.529,20.881,74.277,24.864,110.564,63.193a74.71,74.71,0,0,0,2.608-10.724c-36.269-34.845-88.914-39.248-106.816-59.423-16.023-18.057-13.528-44.927.932-63.624C194.248,149.964,188.648,181.712,206.792,202.158Z" transform="translate(-195.791 -116.961)" fill="#231f20" opacity="0.2" style="isolation: isolate"/>
  </g>
</svg>
