<svg xmlns="http://www.w3.org/2000/svg" width="14.097" height="14.061" viewBox="0 0 14.097 14.061">
  <g id="Group_1095" data-name="Group 1095" transform="translate(-545.791 -165.645)">
    <g id="logout" transform="translate(545.941 165.795)">
      <path id="Path_2508" data-name="Path 2508" d="M283.209,208.868h-5.447a.43.43,0,0,1,0-.86h5.447a.43.43,0,1,1,0,.86Zm0,0" transform="translate(-269.878 -202.417)" fill="#bf1e23" stroke="#bf1e23" stroke-width="0.3"/>
      <path id="Path_2509" data-name="Path 2509" d="M400.434,133.131a.43.43,0,0,1-.3-.734l1.846-1.846L400.13,128.7a.43.43,0,1,1,.608-.608l2.15,2.15a.43.43,0,0,1,0,.608l-2.15,2.15A.427.427,0,0,1,400.434,133.131Zm0,0" transform="translate(-389.253 -124.53)" fill="#bf1e23" stroke="#bf1e23" stroke-width="0.3"/>
      <path id="Path_2510" data-name="Path 2510" d="M4.587,13.769a1.182,1.182,0,0,1-.355-.053L.781,12.566A1.157,1.157,0,0,1,0,11.475V1.155A1.148,1.148,0,0,1,1.147.008,1.183,1.183,0,0,1,1.5.061l3.451,1.15A1.157,1.157,0,0,1,5.734,2.3V12.622A1.148,1.148,0,0,1,4.587,13.769ZM1.147.868a.288.288,0,0,0-.287.287V11.475a.3.3,0,0,0,.2.276L4.494,12.9a.312.312,0,0,0,.094.013.287.287,0,0,0,.287-.287V2.3a.3.3,0,0,0-.2-.276L1.24.88A.311.311,0,0,0,1.147.868Zm0,0" transform="translate(0 -0.008)" fill="#bf1e23" stroke="#bf1e23" stroke-width="0.3"/>
      <path id="Path_2511" data-name="Path 2511" d="M34.7,4.595a.43.43,0,0,1-.43-.43V1.585a.718.718,0,0,0-.717-.717H27.1a.43.43,0,0,1,0-.86h6.45a1.578,1.578,0,0,1,1.577,1.577v2.58A.43.43,0,0,1,34.7,4.595Zm0,0" transform="translate(-25.951 -0.008)" fill="#bf1e23" stroke="#bf1e23" stroke-width="0.3"/>
      <path id="Path_2512" data-name="Path 2512" d="M184.056,281.927h-2.294a.43.43,0,1,1,0-.86h2.294a.718.718,0,0,0,.717-.717v-2.58a.43.43,0,1,1,.86,0v2.58A1.578,1.578,0,0,1,184.056,281.927Zm0,0" transform="translate(-176.458 -269.886)" fill="#bf1e23" stroke="#bf1e23" stroke-width="0.3"/>
    </g>
  </g>
</svg>
