<svg id="Group_2312" data-name="Group 2312" xmlns="http://www.w3.org/2000/svg" width="189.703" height="58.471" viewBox="0 0 189.703 58.471">
  <g id="Group_2310" data-name="Group 2310">
    <g id="Group_2308" data-name="Group 2308" transform="translate(48.288)">
      <path id="Path_5753" data-name="Path 5753" d="M169.59,88.794a7.847,7.847,0,1,0,7.751,7.751,7.51,7.51,0,0,0-7.751-7.751m0,23.253a15.353,15.353,0,0,1-10.992-4.319,14.789,14.789,0,0,1-4.449-11.183A14.639,14.639,0,0,1,158.6,85.427a16.235,16.235,0,0,1,21.919,0,14.69,14.69,0,0,1,4.51,11.118,14.835,14.835,0,0,1-4.51,11.183,15.211,15.211,0,0,1-10.927,4.319" transform="translate(-154.15 -67.318)" fill="#fff"/>
      <path id="Path_5754" data-name="Path 5754" d="M270.054,67.738a8.212,8.212,0,0,0,2.224,5.91,7.947,7.947,0,0,0,13.534-5.91,7.475,7.475,0,0,0-2.413-5.78,7.948,7.948,0,0,0-5.527-2.224,7.662,7.662,0,0,0-7.819,8M285.94,82.668v-4C284.352,81.525,280.6,83.3,276.6,83.3a14,14,0,0,1-10.294-4.257,15.139,15.139,0,0,1-4.257-11.18c0-4.637,1.4-8.323,4.257-11.183A14.065,14.065,0,0,1,276.6,52.359c4.066,0,7.751,1.715,9.339,4.575V38.51h7.686V82.668Z" transform="translate(-227.013 -38.51)" fill="#fff"/>
    </g>
    <path id="Path_5755" data-name="Path 5755" d="M395.055,83.13l-7.436,18.486L380.251,83.13H371.99l11.563,27.384-6.8,16.772h8.2l18.36-44.155Z" transform="translate(-253.104 -68.815)" fill="#fff"/>
    <g id="Group_2309" data-name="Group 2309" transform="translate(0 0.166)">
      <path id="Path_5756" data-name="Path 5756" d="M487.04,88.794a7.847,7.847,0,1,0,7.751,7.751,7.51,7.51,0,0,0-7.751-7.751m0,23.253a15.358,15.358,0,0,1-10.992-4.319A14.789,14.789,0,0,1,471.6,96.545a14.639,14.639,0,0,1,4.449-11.118,16.235,16.235,0,0,1,21.919,0,14.69,14.69,0,0,1,4.51,11.118,14.835,14.835,0,0,1-4.51,11.183,15.2,15.2,0,0,1-10.927,4.319" transform="translate(-320.448 -67.483)" fill="#fff"/>
      <path id="Path_5757" data-name="Path 5757" d="M12.545,76.009H33.714a8.246,8.246,0,0,0,8.235-8.235h0a8.237,8.237,0,0,0-8.235-8.235h-4.7v-4.7a8.237,8.237,0,0,0-8.235-8.235h0a8.244,8.244,0,0,0-8.235,8.235V76.009Zm21.168,7.585H4.96V54.84A15.838,15.838,0,0,1,20.78,39.02h0a15.833,15.833,0,0,1,15.6,13.154,15.833,15.833,0,0,1,13.154,15.6h0A15.84,15.84,0,0,1,33.714,83.594" transform="translate(-4.96 -39.02)" fill="#fff"/>
    </g>
  </g>
  <g id="Group_2311" data-name="Group 2311" transform="translate(180.591 9.054)">
    <path id="Path_5758" data-name="Path 5758" d="M566.816,75.654a4.473,4.473,0,0,1-1.786-.354,4.593,4.593,0,0,1-1.451-.977,4.46,4.46,0,0,1-.971-1.458,4.779,4.779,0,0,1,0-3.578,4.566,4.566,0,0,1,.971-1.458,4.528,4.528,0,0,1,3.251-1.338,4.431,4.431,0,0,1,1.779.354,4.6,4.6,0,0,1,1.445.984,4.53,4.53,0,0,1,.971,1.458,4.779,4.779,0,0,1,0,3.578,4.462,4.462,0,0,1-.971,1.458,4.593,4.593,0,0,1-1.452.977A4.54,4.54,0,0,1,566.816,75.654Zm0-.88a3.475,3.475,0,0,0,1.844-.494,3.56,3.56,0,0,0,1.273-1.325,3.751,3.751,0,0,0,.465-1.87,3.819,3.819,0,0,0-.465-1.877,3.554,3.554,0,0,0-1.273-1.331,3.656,3.656,0,0,0-3.669,0,3.588,3.588,0,0,0-1.286,1.331,3.963,3.963,0,0,0-.007,3.747,3.553,3.553,0,0,0,1.279,1.325A3.477,3.477,0,0,0,566.816,74.774Zm1.377-2.822.7.565a2.642,2.642,0,0,1-.835.753,2.269,2.269,0,0,1-1.175.308,2.548,2.548,0,0,1-1.3-.328,2.259,2.259,0,0,1-.873-.9,2.663,2.663,0,0,1-.309-1.279,2.5,2.5,0,0,1,.322-1.26,2.387,2.387,0,0,1,.887-.893,2.5,2.5,0,0,1,1.273-.328,2.3,2.3,0,0,1,1.175.3,2.583,2.583,0,0,1,.835.76l-.708.513a1.858,1.858,0,0,0-.526-.487,1.336,1.336,0,0,0-.734-.211,1.446,1.446,0,0,0-1.111.464,1.722,1.722,0,0,0,0,2.267,1.427,1.427,0,0,0,1.111.474,1.338,1.338,0,0,0,.753-.218A1.682,1.682,0,0,0,568.193,71.952Z" transform="translate(-562.26 -66.49)" fill="#fff"/>
  </g>
</svg>
