<svg xmlns="http://www.w3.org/2000/svg" width="19.559" height="14.919" viewBox="0 0 19.559 14.919">
  <path id="envelope" d="M16.819,59.882H1.74A1.742,1.742,0,0,0,0,61.622V72.061A1.742,1.742,0,0,0,1.74,73.8H16.819a1.742,1.742,0,0,0,1.74-1.74V61.622A1.742,1.742,0,0,0,16.819,59.882Zm0,1.16a.577.577,0,0,1,.222.045L9.279,67.814,1.518,61.087a.577.577,0,0,1,.222-.045Zm0,11.6H1.74a.58.58,0,0,1-.58-.58V62.312L8.9,69.02a.581.581,0,0,0,.76,0L17.4,62.312v9.749A.58.58,0,0,1,16.819,72.641Z" transform="translate(0.5 -59.382)" fill="#20cad1" stroke="#20cad1" stroke-width="1"/>
</svg>
