<svg xmlns="http://www.w3.org/2000/svg" width="19.159" height="21.81" viewBox="0 0 19.159 21.81">
  <g id="Group_2632" data-name="Group 2632" transform="translate(-1009.7 -483.7)">
    <g id="password" transform="translate(1010 484)">
      <g id="Group_2631" data-name="Group 2631">
        <g id="Group_2630" data-name="Group 2630">
          <circle id="Ellipse_638" data-name="Ellipse 638" cx="0.855" cy="0.855" r="0.855" transform="translate(13.103 13.519)" fill="#20cad1" stroke="#20cad1" stroke-width="0.6"/>
          <path id="Path_6361" data-name="Path 6361" d="M49.73,15a.828.828,0,0,0,.829-.829V11.1a3.318,3.318,0,0,0-3.314-3.314h-1V4.866a4.972,4.972,0,0,0-9.942,0V7.788h-.993A3.318,3.318,0,0,0,32,11.1V17.9a3.318,3.318,0,0,0,3.314,3.314H47.245A3.318,3.318,0,0,0,50.559,17.9a.829.829,0,0,0-1.657,0,1.659,1.659,0,0,1-1.657,1.657H35.314A1.659,1.659,0,0,1,33.657,17.9V11.1a1.659,1.659,0,0,1,1.657-1.657H47.245A1.659,1.659,0,0,1,48.9,11.1v3.065A.828.828,0,0,0,49.73,15ZM44.592,7.788H37.964V4.866a3.316,3.316,0,0,1,6.628,0Z" transform="translate(-32)" fill="#20cad1" stroke="#20cad1" stroke-width="0.6"/>
          <ellipse id="Ellipse_639" data-name="Ellipse 639" cx="0.783" cy="0.855" rx="0.783" ry="0.855" transform="translate(6.979 13.519)" fill="#20cad1" stroke="#20cad1" stroke-width="0.6"/>
          <ellipse id="Ellipse_640" data-name="Ellipse 640" cx="0.783" cy="0.855" rx="0.783" ry="0.855" transform="translate(3.845 13.519)" fill="#20cad1" stroke="#20cad1" stroke-width="0.6"/>
          <circle id="Ellipse_641" data-name="Ellipse 641" cx="0.855" cy="0.855" r="0.855" transform="translate(9.97 13.519)" fill="#20cad1" stroke="#20cad1" stroke-width="0.6"/>
        </g>
      </g>
    </g>
  </g>
</svg>
