<svg xmlns="http://www.w3.org/2000/svg" xmlns:xlink="http://www.w3.org/1999/xlink" width="341.961" height="220.45" viewBox="0 0 341.961 220.45">
  <defs>
    <linearGradient id="linear-gradient" x1="0.5" y1="1" x2="0.5" gradientUnits="objectBoundingBox">
      <stop offset="0" stop-color="gray" stop-opacity="0.251"/>
      <stop offset="0.54" stop-color="gray" stop-opacity="0.122"/>
      <stop offset="1" stop-color="gray" stop-opacity="0.102"/>
    </linearGradient>
    <linearGradient id="linear-gradient-2" x1="0.5" y1="1" x2="0.5" y2="0" xlink:href="#linear-gradient"/>
  </defs>
  <g id="Group_2627" data-name="Group 2627" transform="translate(0.486)">
    <rect id="Rectangle_2566" data-name="Rectangle 2566" width="8.89" height="8.89" transform="translate(261.909 60.639)" fill="#20cad1" opacity="0.1"/>
    <rect id="Rectangle_2574" data-name="Rectangle 2574" width="8.89" height="8.89" transform="translate(261.909 82.566)" fill="#20cad1" opacity="0.1"/>
    <rect id="Rectangle_2576" data-name="Rectangle 2576" width="8.89" height="8.89" transform="translate(261.909 104.49)" fill="#20cad1" opacity="0.1"/>
    <rect id="Rectangle_2578" data-name="Rectangle 2578" width="8.89" height="8.89" transform="translate(261.909 126.417)" fill="#20cad1" opacity="0.1"/>
    <rect id="Rectangle_2580" data-name="Rectangle 2580" width="8.89" height="8.89" transform="translate(261.909 148.344)" fill="#20cad1" opacity="0.1"/>
    <path id="Path_6260" data-name="Path 6260" d="M838.4,708.063V702.33h8.887v4.917Z" transform="translate(-576.491 -532.061)" fill="#20cad1" opacity="0.1"/>
    <g id="Group_2626" data-name="Group 2626" transform="translate(23.077 0)">
      <path id="Path_6241" data-name="Path 6241" d="M90.882,356.76h29.554v40.286H93.042c-.07.416-.14.83-.218,1.246h27.611v32.484a.416.416,0,0,1-.137-.052q-1.165-.463-2.33-.982c-.166-.076-.329-.154-.5-.227q-1.165-.55-2.33-1.165c-.271-.143-.542-.291-.807-.443a48.468,48.468,0,0,1-11.62-9.045c-.1-.1-.2-.2-.291-.291-.472-.513-.935-1.031-1.383-1.561-.169-.2-.332-.393-.5-.582-.53-.646-1.043-1.316-1.538-1.989-.076-.1-.146-.2-.218-.291a43.019,43.019,0,0,1-5.009-9.057c-.041-.1-.079-.2-.116-.291-.4-1.019-.766-2.053-1.08-3.107-.134-.44-.265-.874-.376-1.331-.041-.131-.073-.265-.108-.4-1.637-6.451-1.826-13.155-1.826-19.827v-2.33q.035-4.086.1-8.163.023-1.049.044-2.106.061-2.676.175-5.364c.017-.5.041-.993.067-1.485q.017-.428.044-.856Q90.774,358.286,90.882,356.76Z" transform="translate(-90.27 -258.266)" fill="#20cad1" opacity="0.1"/>
      <path id="Path_6242" data-name="Path 6242" d="M154.393,152.885H138.18A123.41,123.41,0,0,1,146.8,141.02c2.411-2.959,4.951-5.842,7.589-8.62Z" transform="translate(-124.228 -99.247)" fill="#20cad1" opacity="0.1"/>
      <path id="Path_6243" data-name="Path 6243" d="M122.151,207v42.368H92.69c0-.122.017-.248.029-.37.026-.335.052-.667.082-1,.029-.39.067-.781.1-1.165s.076-.85.122-1.273.084-.85.131-1.273.093-.845.146-1.264.1-.845.157-1.264c.044-.347.087-.7.137-1.046.067-.492.137-.984.21-1.474a1.4,1.4,0,0,1,.035-.221,101.62,101.62,0,0,1,2.167-10.636,78.753,78.753,0,0,1,3.655-10.776,80.929,80.929,0,0,1,5.5-10.607Z" transform="translate(-91.986 -152.121)" fill="#20cad1" opacity="0.1"/>
      <path id="Path_6244" data-name="Path 6244" d="M218.09,117.056v40.286h63.127V117.056Zm0,41.532v34.6c.361.073.716.146,1.075.207.481.093.964.178,1.456.25l.291.041c.192.032.387.058.582.082.486.07.973.122,1.456.169.227.023.463.041.693.061l.562.041h0c.306.023.609.041.912.052.186,0,.373.015.562.02s.291,0,.443,0h1.619c.25,0,.5,0,.748-.023h.015a4.455,4.455,0,0,0,.521-.02,1.282,1.282,0,0,0,.148,0,3.506,3.506,0,0,0,.431-.017.613.613,0,0,1,.1,0c.323-.02.649-.047.979-.076s.641-.064.97-.1l.661-.082a57.988,57.988,0,0,0,7.994-1.7c5.892-1.643,11.649-3.94,17.538-5.621,7.607-2.17,16.018-3.238,23.368-.6V158.588ZM281.217,72.2V18.568a81.116,81.116,0,0,0-20.508,2.4c-15.986,4.016-30.34,12.727-42.618,23.852V72.2h3.177v1.244H218.09v42.368h63.127V73.441H234.265V72.195Zm81.1-18.117a26.132,26.132,0,0,1-11.445-3.326c-6.8-3.7-12.232-9.41-18.3-14.227a84.028,84.028,0,0,0-44.293-17.6V72.2h90.109l.224-.236Zm8.21-1.456,8.7,9.555V50.114a34.851,34.851,0,0,0-8.7,2.5Zm8.7,149.15V158.588H360.67c-.047-.183-.1-.37-.157-.556.055.186.1.373.154.556H288.279v31.231c.687.51,1.366,1.048,2.039,1.59h0q1.089.891,2.164,1.8l.722.6c.347.291.7.582,1.048.859q1.051.848,2.117,1.678.533.419,1.072.824a146.22,146.22,0,0,0,17.951,11.739c1.4.783,2.822,1.538,4.249,2.275q1.424.734,2.869,1.439,2.167,1.057,4.368,2.039h0a160.35,160.35,0,0,0,42.52,12.383q4.887.719,9.817,1.136V201.771h.291ZM288.279,73.441v42.368h90.954V73.441Zm0,43.609v40.292h90.954V117.056Zm98.013-66.994V63.54L397.4,51.346Q391.878,50.434,386.292,50.056Zm0,67v40.286h88.461V117.056Zm88.149,87.916.312-46.384H386.292v70.061a159.409,159.409,0,0,0,17.1-.207h.1q4.077-.262,8.117-.746h.061a149.254,149.254,0,0,0,41.713-11.142m38.442-92.882q-.5-1.165-1.034-2.33c-.658-1.456-1.351-2.872-2.068-4.284h-6.9v40.283h17.448c-.015-11.41-2.9-23.059-7.444-33.669Zm-10,34.915v39.9a57.091,57.091,0,0,0,12.057-16.262,55.973,55.973,0,0,0,5.379-23.639Zm0-53.272V115.8h6.256a113.935,113.935,0,0,0-6.255-10.484ZM421.822,57.963c-.46-.178-.923-.355-1.386-.524a125.858,125.858,0,0,0-14.94-4.491l-17,18.656h0l-.332.358.218.236h60.512a129.278,129.278,0,0,0-27.07-14.235Zm28.846,15.479H387.533l-1.241,1.133v41.235h88.461V95.831A125.958,125.958,0,0,0,450.668,73.441Z" transform="translate(-180.865 -18.563)" fill="#20cad1" opacity="0.1"/>
      <path id="Path_6245" data-name="Path 6245" d="M122.151,280.39v20.995H92.69c0-.122.017-.248.029-.37.026-.335.052-.667.082-1,.029-.39.067-.781.1-1.165s.076-.85.122-1.273.084-.85.131-1.273.093-.845.146-1.264.1-.845.157-1.264c.044-.347.087-.7.137-1.046q.1-.738.21-1.474a1.4,1.4,0,0,1,.035-.221A101.625,101.625,0,0,1,96.01,280.4Z" transform="translate(-91.986 -204.139)" fill="#20cad1" opacity="0.1"/>
      <path id="Path_6246" data-name="Path 6246" d="M90.882,356.76h29.554v40.286H93.042c-.07.416-.14.83-.218,1.246h27.611v32.484a.416.416,0,0,1-.137-.052q-1.165-.463-2.33-.982c-.166-.076-.329-.154-.5-.227q-1.165-.55-2.33-1.165c-.271-.143-.542-.291-.807-.443a48.468,48.468,0,0,1-11.62-9.045c-.1-.1-.2-.2-.291-.291-.472-.513-.935-1.031-1.383-1.561-.169-.2-.332-.393-.5-.582-.53-.646-1.043-1.316-1.538-1.989-.076-.1-.146-.2-.218-.291a43.019,43.019,0,0,1-5.009-9.057c-.041-.1-.079-.2-.116-.291-.4-1.019-.766-2.053-1.08-3.107-.134-.44-.265-.874-.376-1.331-.041-.131-.073-.265-.108-.4-1.637-6.451-1.826-13.155-1.826-19.827v-2.33q.035-4.086.1-8.163.023-1.049.044-2.106.061-2.676.175-5.364c.017-.5.041-.993.067-1.485q.017-.428.044-.856Q90.774,358.286,90.882,356.76Z" transform="translate(-90.27 -258.266)" fill="#20cad1" opacity="0.1"/>
      <path id="Path_6247" data-name="Path 6247" d="M224.354,179.37v36.3H202.13v-36.3H205.3V167.08H218.3v12.29Z" transform="translate(-164.909 -118.422)" fill="#20cad1" opacity="0.1"/>
      <rect id="Rectangle_2556" data-name="Rectangle 2556" width="22.221" height="40.286" transform="translate(37.221 98.491)" fill="#20cad1" opacity="0.1"/>
      <path id="Path_6248" data-name="Path 6248" d="M218.09,499.37h22.221v33.491a57.566,57.566,0,0,1-7.994,1.7c-.221.032-.44.058-.661.082-.326.038-.649.073-.973.1l-.976.079h-.1l-.431.023h-.149c-.175,0-.347.02-.521.023h-.015c-.251,0-.5.018-.749.023h-2.062a4.58,4.58,0,0,1-.565-.023q-.449-.017-.909-.052h0l-.562-.041c-.233-.017-.466-.041-.7-.064q-.734-.064-1.456-.166l-.582-.082-.291-.041c-.486-.073-.97-.154-1.456-.247-.361-.064-.716-.137-1.075-.213Z" transform="translate(-180.865 -359.346)" fill="#20cad1" opacity="0.1"/>
      <rect id="Rectangle_2557" data-name="Rectangle 2557" width="18.324" height="40.583" transform="translate(180.041 56.66)" fill="#20cad1" opacity="0.1"/>
      <path id="Path_6249" data-name="Path 6249" d="M534.1,338.19v40.289H443.15V361.1H491.6v10.251h24.181V338.19Z" transform="translate(-335.736 -239.7)" fill="#20cad1" opacity="0.1"/>
      <path id="Path_6250" data-name="Path 6250" d="M550.342,541.214a1.653,1.653,0,0,1-.291-.017v26.429q-4.925-.4-9.814-1.133A160.556,160.556,0,0,1,497.7,554.116q-5.862-2.644-11.486-5.763a146.777,146.777,0,0,1-17.948-11.739q-2.149-1.643-4.235-3.358c-.964-.8-1.919-1.613-2.892-2.4-.67-.545-1.348-1.083-2.039-1.6v-31.24h72.388c-.052-.186-.1-.37-.151-.556.055.186.108.37.154.556h18.563v43.178C550.15,541.2,550.246,541.206,550.342,541.214Z" transform="translate(-351.687 -357.991)" fill="#20cad1" opacity="0.1"/>
      <path id="Path_6251" data-name="Path 6251" d="M906.45,166.812H894.51V163.1h5.35V152.05q.7.256,1.386.524V163.1h5.2Z" transform="translate(-660.292 -113.174)" fill="#20cad1" opacity="0.1"/>
      <path id="Path_6252" data-name="Path 6252" d="M865.152,249.368H806.527a.037.037,0,0,0,.017,0H795.65V208.785h3.081v30h14.078V221.017h11.634V207h11.941v14.026h11.629v17.765h17.142Z" transform="translate(-590.223 -152.121)" fill="#20cad1" opacity="0.1"/>
      <path id="Path_6253" data-name="Path 6253" d="M795.65,356.76v40.286h69.5V356.76Zm88.362,87.7.1-31.89H865.155V398.3h-69.5v70.049a159.4,159.4,0,0,0,17.1-.207h.1q4.077-.262,8.117-.746h.061a149.255,149.255,0,0,0,41.713-11.142" transform="translate(-590.223 -258.266)" fill="#20cad1" opacity="0.1"/>
      <path id="Path_6254" data-name="Path 6254" d="M1124.873,499.37h16.213a56,56,0,0,1-5.379,23.636,57.069,57.069,0,0,1-12.057,16.265V513.643h1.223Z" transform="translate(-822.7 -359.346)" fill="#20cad1" opacity="0.1"/>
      <path id="Path_6255" data-name="Path 6255" d="M1144.074,413.149H1127.85V379.48h8.781C1141.171,390.089,1144.06,401.739,1144.074,413.149Z" transform="translate(-825.677 -274.37)" fill="#20cad1" opacity="0.1"/>
      <rect id="Rectangle_2558" data-name="Rectangle 2558" width="9.817" height="12.724" transform="translate(188.55 67.943)" fill="#20cad1" opacity="0.1"/>
      <rect id="Rectangle_2559" data-name="Rectangle 2559" width="9.817" height="2.93" transform="translate(188.55 94.316)" fill="#20cad1" opacity="0.1"/>
      <rect id="Rectangle_2560" data-name="Rectangle 2560" width="9.817" height="8.548" transform="translate(188.55 98.491)" fill="#20cad1" opacity="0.1"/>
      <rect id="Rectangle_2561" data-name="Rectangle 2561" width="9.817" height="12.724" transform="translate(188.55 120.689)" fill="#20cad1" opacity="0.1"/>
      <rect id="Rectangle_2562" data-name="Rectangle 2562" width="9.817" height="12.724" transform="translate(188.55 147.064)" fill="#20cad1" opacity="0.1"/>
      <path id="Path_6256" data-name="Path 6256" d="M747.517,623.865a1.409,1.409,0,0,1,.291.02,1.653,1.653,0,0,1-.291-.017v2.956H737.7V614.1h9.817Z" transform="translate(-549.15 -440.662)" fill="#20cad1" opacity="0.1"/>
      <path id="Path_6257" data-name="Path 6257" d="M747.517,704.65v9.826q-4.928-.4-9.817-1.133V704.65Z" transform="translate(-549.15 -504.84)" fill="#20cad1" opacity="0.1"/>
      <rect id="Rectangle_2563" data-name="Rectangle 2563" width="42.074" height="0.935" transform="translate(107.414 137.843)" fill="#20cad1" opacity="0.1"/>
      <rect id="Rectangle_2564" data-name="Rectangle 2564" width="42.074" height="3.582" transform="translate(107.414 140.021)" fill="#20cad1" opacity="0.1"/>
      <rect id="Rectangle_2565" data-name="Rectangle 2565" width="42.074" height="5.761" transform="translate(107.414 155.345)" fill="#20cad1" opacity="0.1"/>
      <path id="Path_6258" data-name="Path 6258" d="M506.135,612.08v5.761H473.226q-2.149-1.637-4.234-3.361c-.967-.8-1.922-1.611-2.892-2.4Z" transform="translate(-356.648 -439.23)" fill="#20cad1" opacity="0.1"/>
      <path id="Path_6259" data-name="Path 6259" d="M567.16,672.17v5.775h-3.474q-5.863-2.644-11.486-5.763Z" transform="translate(-417.674 -481.82)" fill="#20cad1" opacity="0.1"/>
      <rect id="Rectangle_2567" data-name="Rectangle 2567" width="8.283" height="8.283" transform="translate(43.189 63.805)" fill="#20cad1" opacity="0.1"/>
      <rect id="Rectangle_2568" data-name="Rectangle 2568" width="8.283" height="8.283" transform="translate(43.189 83.044)" fill="#20cad1" opacity="0.1"/>
      <rect id="Rectangle_2569" data-name="Rectangle 2569" width="8.283" height="8.283" transform="translate(43.189 102.281)" fill="#20cad1" opacity="0.1"/>
      <rect id="Rectangle_2570" data-name="Rectangle 2570" width="8.283" height="8.283" transform="translate(43.189 121.519)" fill="#20cad1" opacity="0.1"/>
      <rect id="Rectangle_2571" data-name="Rectangle 2571" width="8.283" height="8.283" transform="translate(43.189 140.756)" fill="#20cad1" opacity="0.1"/>
      <rect id="Rectangle_2572" data-name="Rectangle 2572" width="8.283" height="8.283" transform="translate(43.189 159.995)" fill="#20cad1" opacity="0.1"/>
      <rect id="Rectangle_2573" data-name="Rectangle 2573" width="8.283" height="8.283" transform="translate(254.14 102.394)" fill="#20cad1" opacity="0.1"/>
      <rect id="Rectangle_2575" data-name="Rectangle 2575" width="8.283" height="8.283" transform="translate(254.14 122.825)" fill="#20cad1" opacity="0.1"/>
      <rect id="Rectangle_2577" data-name="Rectangle 2577" width="8.283" height="8.283" transform="translate(254.14 143.251)" fill="#20cad1" opacity="0.1"/>
      <rect id="Rectangle_2579" data-name="Rectangle 2579" width="8.283" height="8.283" transform="translate(254.14 163.682)" fill="#20cad1" opacity="0.1"/>
      <rect id="Rectangle_2581" data-name="Rectangle 2581" width="8.283" height="8.283" transform="translate(254.14 184.11)" fill="#20cad1" opacity="0.1"/>
      <path id="Path_6261" data-name="Path 6261" d="M96.53,316.91v4.738h28.342V316.91Zm2.822,4.441h-2.33V317.21h2.33Zm2.822,0h-2.33V317.21h2.33Zm2.816,0h-2.33V317.21h2.33Zm2.822,0h-2.33V317.21h2.33Zm2.819,0H108.3V317.21h2.33Zm2.822,0h-2.33V317.21h2.33Zm2.822,0h-2.33V317.21h2.33Zm2.819,0h-2.33V317.21h2.33Zm2.819,0h-2.33V317.21h2.33Zm2.822,0h-2.33V317.21h2.33Z" transform="translate(-94.707 -230.022)" fill="#20cad1" opacity="0.1"/>
      <path id="Path_6262" data-name="Path 6262" d="M96.53,364.27v4.738h28.342V364.27Zm2.822,4.441h-2.33V364.57h2.33Zm2.822,0h-2.33V364.57h2.33Zm2.816,0h-2.33V364.57h2.33Zm2.822,0h-2.33V364.57h2.33Zm2.819,0H108.3V364.57h2.33Zm2.822,0h-2.33V364.57h2.33Zm2.822,0h-2.33V364.57h2.33Zm2.819,0h-2.33V364.57h2.33Zm2.819,0h-2.33V364.57h2.33Zm2.822,0h-2.33V364.57h2.33Z" transform="translate(-94.707 -263.589)" fill="#20cad1" opacity="0.1"/>
      <path id="Path_6263" data-name="Path 6263" d="M96.53,411.64v4.735h28.342V411.64Zm2.822,4.435h-2.33v-4.141h2.33Zm2.822,0h-2.33v-4.141h2.33Zm2.816,0h-2.33v-4.141h2.33Zm2.822,0h-2.33v-4.141h2.33Zm2.819,0H108.3v-4.141h2.33Zm2.822,0h-2.33v-4.141h2.33Zm2.822,0h-2.33v-4.141h2.33Zm2.819,0h-2.33v-4.141h2.33Zm2.819,0h-2.33v-4.141h2.33Zm2.822,0h-2.33v-4.141h2.33Z" transform="translate(-94.707 -297.164)" fill="#20cad1" opacity="0.1"/>
      <path id="Path_6264" data-name="Path 6264" d="M96.53,459v4.736h28.342V459Zm2.822,4.438h-2.33v-4.147h2.33Zm2.822,0h-2.33v-4.147h2.33Zm2.816,0h-2.33v-4.147h2.33Zm2.822,0h-2.33v-4.147h2.33Zm2.819,0H108.3v-4.147h2.33Zm2.822,0h-2.33v-4.147h2.33Zm2.822,0h-2.33v-4.147h2.33Zm2.819,0h-2.33v-4.147h2.33Zm2.819,0h-2.33v-4.147h2.33Zm2.822,0h-2.33v-4.147h2.33Z" transform="translate(-94.707 -330.733)" fill="#20cad1" opacity="0.1"/>
      <path id="Path_6265" data-name="Path 6265" d="M97,506.34c.111.449.242.891.376,1.331V506.64h2.33v4.138H98.456c.035.1.073.2.114.291h26.647v-4.73Zm5.533,4.438H100.2V506.64h2.33Zm2.816,0h-2.33V506.64h2.33Zm2.822,0h-2.33V506.64h2.33Zm2.819,0h-2.33V506.64h2.33Zm2.822,0h-2.33V506.64h2.33Zm2.822,0H114.3V506.64h2.33Zm2.819,0h-2.33V506.64h2.33Zm2.819,0h-2.33V506.64h2.33Zm2.822,0h-2.33V506.64h2.33Z" transform="translate(-95.041 -364.285)" fill="#20cad1" opacity="0.1"/>
    </g>
    <path id="Path_6266" data-name="Path 6266" d="M119.54,553.7c.081.1.156.212.234.313h1.654v2.135l.535.625V554h2.5v4.482h-1.028c.1.1.2.212.313.312h19.014V553.7Zm7.958,4.782H125v-4.464h2.5Zm3.029,0h-2.5v-4.464h2.5Zm3.029,0h-2.5v-4.464h2.5Zm3.026,0h-2.5v-4.464h2.5Zm3.026,0h-2.5v-4.464h2.5Zm3.029,0h-2.5v-4.464h2.5Z" transform="translate(-87.314 -435.691)" fill="#20cad1" opacity="0.1"/>
    <path id="Path_6267" data-name="Path 6267" d="M172.93,601.06c.288.162.578.313.869.472v-.156h2.5v1.41c.181.078.353.163.531.244v-1.654h2.5v2.707a1,1,0,0,0,.147.053V601.06Z" transform="translate(-124.016 -468.247)" fill="#20cad1" opacity="0.1"/>
    <path id="Path_6268" data-name="Path 6268" d="M404.9,246.334Zm-17.94,85.956Zm-18.717-43.734c.055.186.1.373.154.556h0C368.356,288.93,368.3,288.743,368.245,288.557ZM404.9,246.334ZM229,202.726v1.241h13.009V202.72ZM386.966,332.291Zm-18.72-43.734c.055.186.1.373.154.556h0C368.356,288.93,368.3,288.743,368.245,288.557ZM404.9,246.334Zm-17.94,85.956Zm-18.717-43.734c.055.186.1.373.154.556h0C368.356,288.93,368.3,288.743,368.245,288.557Z" transform="translate(-165.52 -182.941)" fill="#20cad1" opacity="0.1"/>
    <ellipse id="Ellipse_620" data-name="Ellipse 620" cx="30.457" cy="4.892" rx="30.457" ry="4.892" transform="translate(244.277 210.666)" fill="#20cad1" opacity="0.1"/>
    <ellipse id="Ellipse_621" data-name="Ellipse 621" cx="30.457" cy="4.892" rx="30.457" ry="4.892" transform="translate(106.913 205.773)" fill="#20cad1" opacity="0.1"/>
    <path id="Path_6269" data-name="Path 6269" d="M448.66,326.4a.167.167,0,0,0-.047-.081c-.466-.459-6.4-8.858-6.4-8.858s-.313-.938-.819-2.157a2.144,2.144,0,0,0,.359-.7,2.41,2.41,0,0,0,.059-.328c0-.034.025-.062.034-.1a2.373,2.373,0,0,0-.031-1.288,2.23,2.23,0,0,1-.128.313,5.226,5.226,0,0,0-.469-1.044c-.788-1.357-1.913-2.5-2.741-3.823a10.344,10.344,0,0,1-1.41-6.864v.369a10.72,10.72,0,0,1,.188-1.407,9.759,9.759,0,0,1,.522-1.544c.744-1.7,1.947-3.188,2.679-4.9a9.27,9.27,0,0,0,.556-1.791,10.032,10.032,0,0,0,.278-3.141,5,5,0,0,1-.078.747,10.175,10.175,0,0,0-2.872-6.773c-2.554-2.566-6.22-3.563-9.727-4.089a8.911,8.911,0,0,1-4.095-1.563,7.118,7.118,0,0,0-4.664-.891,7.692,7.692,0,0,0-4.748,2.347c-1.666,1.832-2.388,4.426-4.332,5.97a19.232,19.232,0,0,1-4.045,2.013,5.415,5.415,0,0,0-3.11,2.932v.05l-.019.05c-.456,1.619.425,3.266.885,4.882a19.787,19.787,0,0,1,.534,5.167c.034,2.113.066,4.229.031,6.345-.016.831-.044,1.672-.106,2.5a13.116,13.116,0,0,0-2.147.863,42.525,42.525,0,0,0-3.32,3.285l-5.123,19.573.069.078-.069.266.259-.059a26.376,26.376,0,0,0,5.23,4.395l.219,3.838a6.823,6.823,0,0,0,3.8,5.442c.081,1.335.334,6.755-.838,8.9a10,10,0,0,0-1.107,5.089,17.3,17.3,0,0,1-.056,4.97,8.129,8.129,0,0,0-.059,3.488h0V369.9c0,3.466.041,14.575,0,15.832-.059,1.485,0,23.443,0,23.443s-.291,10.974-1.222,13.947-.7,12.816-.7,12.816-.585,11.725,1.482,14.038c0,.1-.019.209-.022.313v.147c-.025.891.147,1.838.913,2.129a13.079,13.079,0,0,1,4.02,2.916,7.293,7.293,0,0,0,5.626,1.457,42.373,42.373,0,0,1,5.592-.256h0s1.169-.213.791-1.666h0a13.017,13.017,0,0,0-1.807-3.216c.119.031.234.056.344.078l.112.022h.088a1.2,1.2,0,0,0,.144,0h.063a1.075,1.075,0,0,0,.175,0h0c.785-.075,3.71,1.288,4.232,2.188s2.363,1.585,3.751,1.757a26.656,26.656,0,0,0,4.654-.294,17.137,17.137,0,0,0,2.607-.475c.413-.156.5-.656.381-1.219h0a3.173,3.173,0,0,0-1.082-1.825,8.781,8.781,0,0,1-1.669-2.082l-.131-.209c.872-.831,2.447-3.551,2.926-4.113.581-.685-.938-25.719-.938-25.719v-12.55l2.329-11.878,1.628-6.286,1.4-9.49s2.444-11.084,1.691-12.172h0c0-.022-.625-11.434-1.282-14.175a31.078,31.078,0,0,1-.044-6.649,1.313,1.313,0,0,0,.313-1.369,2.845,2.845,0,0,0-.181-.466v-.144a21.522,21.522,0,0,1,4.21-1.432c2.329-.456,1.747-1.657,1.747-1.657s.525-1.028.872-1.657.059-6.173,0-6.63c-.022-.184-.166-1.2-.331-2.36.747-.531,1.719-1.191,2.779-1.816C449.279,327.987,448.826,326.727,448.66,326.4Zm-30.382,79.247s-1.747,4.457-1.047,5.6-.116,5.376-.116,5.376l-.585,6.286s-1.628,11.659-1.047,14.4c.456,2.15.625,8.574.678,11.253h0a.793.793,0,0,0-.116.056l-.078.041c.269-1.053.156-3.185-1.178-7.474l-.113-17.714s-.206-20.461,1.41-22.749a17.22,17.22,0,0,0,2.188-6.173s-.35,5.6-.578,7.089A11.685,11.685,0,0,0,418.278,405.646Zm-3.254,44.029c-.016.037-.034.075-.047.109l-.088-.112A.924.924,0,0,0,415.024,449.676Z" transform="translate(-276.226 -245.083)" fill="url(#linear-gradient)"/>
    <path id="Path_6270" data-name="Path 6270" d="M478.8,838a31.037,31.037,0,0,1-7.17.772c-1.369-.166-3.182-.86-3.7-1.766s-3.407-2.275-4.182-2.188a2.816,2.816,0,0,1-.938-.131,11.566,11.566,0,0,1-1.563-.6,2.905,2.905,0,0,1,.034-1.188,1.913,1.913,0,0,1,.069-.231,2.066,2.066,0,0,1,1.05-1.169l.112-.053a3.186,3.186,0,0,1,.675-.206c2.457-.472,12.594.475,12.594.475s.284.51.675,1.141a8.728,8.728,0,0,0,1.65,2.094,3.2,3.2,0,0,1,1.066,1.838C479.295,837.341,479.207,837.848,478.8,838Z" transform="translate(-322.183 -626.388)" fill="#fff"/>
    <path id="Path_6271" data-name="Path 6271" d="M478.81,839.927a31,31,0,0,1-7.167.772c-1.369-.166-3.182-.863-3.7-1.766a7.618,7.618,0,0,0-4.179-2.188,7.237,7.237,0,0,1-2.5-.731,2.591,2.591,0,0,1,.513-2.1l1.563,1.11s4.182,1.3,4.957,2.5,2.188,1.875,4.229,2a39.586,39.586,0,0,0,6.67-.791C479.3,839.267,479.219,839.774,478.81,839.927Z" transform="translate(-322.191 -628.314)" opacity="0.1"/>
    <path id="Path_6272" data-name="Path 6272" d="M434.528,839.844a41.632,41.632,0,0,0-5.52.26,7.108,7.108,0,0,1-5.567-1.466,13.043,13.043,0,0,0-3.967-2.938c-.76-.294-.938-1.25-.9-2.144v-.147a8.741,8.741,0,0,1,.25-1.679l12.162-.26,1.053,1.428.162.219.641.872s.291.381.672.938a13.348,13.348,0,0,1,1.785,3.238h0C435.681,839.631,434.528,839.844,434.528,839.844Z" transform="translate(-292.872 -626.636)" fill="#fff"/>
    <path id="Path_6273" data-name="Path 6273" d="M434.528,844.443a41.632,41.632,0,0,0-5.52.259,7.1,7.1,0,0,1-5.564-1.466,12.68,12.68,0,0,0-3.97-2.932c-.76-.294-.938-1.25-.9-2.144.869.2,2.694.722,3.41,1.625.938,1.207,2.616,3.235,5,3.363,1.925.1,6.614-.241,8.333-.378C435.685,844.23,434.528,844.443,434.528,844.443Z" transform="translate(-292.872 -631.236)" opacity="0.1"/>
    <path id="Path_6274" data-name="Path 6274" d="M433.055,831.722c-.141,1.044-.575,1.325-.888,1.388a.6.6,0,0,1-.231,0,.76.76,0,0,1-.122-.019s-10.921,2.413-13.128.46a1.538,1.538,0,0,1-.156-.163,8.755,8.755,0,0,1,.25-1.678l12.162-.259L432,832.878a2.066,2.066,0,0,1,1.05-1.169Z" transform="translate(-292.846 -626.623)" opacity="0.1"/>
    <path id="Path_6275" data-name="Path 6275" d="M479.313,832.781c-.244.269-.447.422-.575.369-.575-.231-5.289-1.035-6.786-.344s-6.564.113-6.564.113,0-.6-.028-1.563a3.183,3.183,0,0,1,.675-.206c2.457-.472,12.594.475,12.594.475S478.926,832.15,479.313,832.781Z" transform="translate(-325.04 -626.326)" opacity="0.1"/>
    <path id="Path_6276" data-name="Path 6276" d="M450.956,575.03l-1.382,9.546-1.607,6.327-2.3,11.959v12.659s1.494,25.187.919,25.875-2.76,4.6-3.335,4.376-5.289-1.035-6.786-.347-6.564.115-6.564.115-.116-9.774-.691-12.534,1.035-14.491,1.035-14.491l.575-6.323s.806-4.257.116-5.408,1.035-5.626,1.035-5.626a11.775,11.775,0,0,1-.572-4.029c.231-1.494.572-7.13.572-7.13a17.582,17.582,0,0,1-2.169,6.211c-1.6,2.3-1.394,22.887-1.394,22.887l.112,17.817c2.879,9.433,0,8.511,0,8.511s-10.921,2.416-13.128.459-1.575-14.272-1.575-14.272-.228-9.89.691-12.878,1.21-14.032,1.21-14.032-.059-22.083,0-23.574c.044-1.25,0-12.444,0-15.941v-1.035l1.319-3.276,15.629-1.957h7.477s11.253,2.644,12.415,3.785a.26.26,0,0,1,.063.069C453.372,563.877,450.956,575.03,450.956,575.03Z" transform="translate(-289.55 -439.279)" fill="#20cad1"/>
    <path id="Path_6277" data-name="Path 6277" d="M472.11,770.88s3.438,8.28,5.061,8.855S472.11,770.88,472.11,770.88Z" transform="translate(-329.679 -584.985)" opacity="0.1"/>
    <path id="Path_6278" data-name="Path 6278" d="M476.18,809.88s11.609.575,11.493,1.841S476.18,809.88,476.18,809.88Z" transform="translate(-332.478 -611.795)" opacity="0.1"/>
    <path id="Path_6279" data-name="Path 6279" d="M426.49,799.29c.46.435,8.855,1.25,8.165,2.044s-7.474,2.338-7.474,2.338Z" transform="translate(-298.319 -604.516)" opacity="0.1"/>
    <path id="Path_6280" data-name="Path 6280" d="M422.08,753.59c0,.344,1.725,11.04,2.188,11.5s4.254.919,4.254.919Z" transform="translate(-295.287 -573.101)" opacity="0.1"/>
    <path id="Path_6281" data-name="Path 6281" d="M435.65,280.494c-1.647,1.841-2.36,4.451-4.279,6.008a18.976,18.976,0,0,1-4,2.022,5.314,5.314,0,0,0-3.1,3.054c-.45,1.625.419,3.285.875,4.911a20.332,20.332,0,0,1,.528,5.2c.031,2.129.066,4.257.028,6.386-.056,3.316-.331,6.786-2.091,9.6,6.355,2.022,13.113,2.3,19.777,2.557a19.96,19.96,0,0,0,3.841-.1,32.965,32.965,0,0,0,3.273-.828,25.094,25.094,0,0,1,6.52-.835,10.948,10.948,0,0,0,2.863-.191,2.825,2.825,0,0,0,2.066-1.816,3.373,3.373,0,0,0-.528-2.463c-.775-1.363-1.875-2.5-2.707-3.845a10.565,10.565,0,0,1-.678-9.5c.738-1.716,1.926-3.21,2.651-4.929a10.4,10.4,0,0,0-2.094-11.028c-2.523-2.582-6.142-3.582-9.605-4.114a8.723,8.723,0,0,1-4.045-1.563,6.923,6.923,0,0,0-4.607-.894A7.52,7.52,0,0,0,435.65,280.494Z" transform="translate(-296.339 -246.208)" fill="#3f3d56"/>
    <path id="Path_6282" data-name="Path 6282" d="M532.252,326.793a10.4,10.4,0,0,0-.8,4.773,10.221,10.221,0,0,1,.8-3.388c.734-1.716,1.922-3.21,2.647-4.929a9.975,9.975,0,0,0,.728-4.539,9.713,9.713,0,0,1-.728,3.157C534.174,323.586,532.986,325.077,532.252,326.793Z" transform="translate(-370.457 -274.152)"/>
    <path id="Path_6283" data-name="Path 6283" d="M427.158,330.712c.019,1.225.038,2.454.041,3.679q0-2.532-.041-5.057a20.287,20.287,0,0,0-.528-5.2,25.756,25.756,0,0,1-.938-3.232c-.278,1.532.513,3.085.938,4.614A20.191,20.191,0,0,1,427.158,330.712Z" transform="translate(-297.731 -275.658)"/>
    <path id="Path_6284" data-name="Path 6284" d="M460.265,397.164a10.571,10.571,0,0,1-2.86.191,25.074,25.074,0,0,0-6.517.819,33.188,33.188,0,0,1-3.273.825,19.748,19.748,0,0,1-3.845.1c-6.439-.253-12.969-.525-19.136-2.366a10.6,10.6,0,0,1-.625,1.188c6.355,2.019,13.112,2.3,19.773,2.557a19.76,19.76,0,0,0,3.844-.1,32.339,32.339,0,0,0,3.26-.822,25.072,25.072,0,0,1,6.5-.828,10.79,10.79,0,0,0,2.86-.194,2.827,2.827,0,0,0,2.066-1.813,2.482,2.482,0,0,0-.031-1.3A2.918,2.918,0,0,1,460.265,397.164Z" transform="translate(-296.614 -326.884)"/>
    <path id="Path_6285" data-name="Path 6285" d="M463.331,348.7c-.231.519-1.206,5-1.438,5.461s-1.494,7.814-1.61,8.227-8.324-1.725-8.324-1.725l-4.942-4.142-5.079-5.054s-.15-4.561,3.592-6.023a5.7,5.7,0,0,1,.781-.244c4.539-1.091,4.082-14.891,4.082-14.891l9.315,4.023s-1.725,8.052-1.666,9.605c.016.522.425.847.96,1.044a7.585,7.585,0,0,0,2.544.275S463.562,348.186,463.331,348.7Z" transform="translate(-308.938 -282.128)" fill="#fbbebe"/>
    <path id="Path_6286" data-name="Path 6286" d="M536.666,436.018l1.322.347s.978,1.488-1.322,2.873a39.838,39.838,0,0,0-4.2,2.935l-6.8,2.069-1.31-4.11,6.326-4.8Z" transform="translate(-365.598 -354.32)" fill="#20cad1"/>
    <path id="Path_6287" data-name="Path 6287" d="M536.666,436.018l1.322.347s.978,1.488-1.322,2.873a39.838,39.838,0,0,0-4.2,2.935l-6.8,2.069-1.31-4.11,6.326-4.8Z" transform="translate(-365.598 -354.32)" opacity="0.1"/>
    <path id="Path_6288" data-name="Path 6288" d="M399.184,448.587l-2.644,2.588s4.77,5.52,8.44,5.864,6.036-4.2,6.036-4.2l-3.176-5Z" transform="translate(-277.73 -362.92)" fill="#20cad1"/>
    <path id="Path_6289" data-name="Path 6289" d="M399.184,448.587l-2.644,2.588s4.77,5.52,8.44,5.864,6.036-4.2,6.036-4.2l-3.176-5Z" transform="translate(-277.73 -362.92)" opacity="0.1"/>
    <ellipse id="Ellipse_622" data-name="Ellipse 622" cx="9.199" cy="9.199" rx="9.199" ry="9.199" transform="translate(137.374 38.803)" opacity="0.1"/>
    <ellipse id="Ellipse_623" data-name="Ellipse 623" cx="9.199" cy="9.199" rx="9.199" ry="9.199" transform="translate(137.374 38.112)" fill="#fbbebe"/>
    <path id="Path_6290" data-name="Path 6290" d="M456.982,563.839a29.705,29.705,0,0,0-6.155,1.379c-3.438,1.144-30.382.019-30.757,0v-1.035l1.319-3.276,15.629-1.957h7.477s11.253,2.644,12.416,3.785C456.957,563.423,456.982,563.839,456.982,563.839Z" transform="translate(-293.906 -439.3)" opacity="0.1"/>
    <path id="Path_6291" data-name="Path 6291" d="M463.331,380.97c-.231.519-1.206,5-1.438,5.461s-1.494,7.814-1.61,8.227-8.324-1.725-8.324-1.725l-4.942-4.142-5.079-5.054s-.15-4.561,3.592-6.023l9.29,10.681L459,377.25a7.589,7.589,0,0,0,2.544.275S463.562,380.454,463.331,380.97Z" transform="translate(-308.938 -314.394)" opacity="0.1"/>
    <path id="Path_6292" data-name="Path 6292" d="M434.714,387.685l-9.508-10.94a3.985,3.985,0,0,0-3.773-.278c-2.129.922-4.773,1.669-5.464,2.129a42.635,42.635,0,0,0-3.279,3.3l7.708,20.164L417,415.345s.519,6.786-.8,9.258a10.162,10.162,0,0,0-1.094,5.117,17.772,17.772,0,0,1-.056,5,8.328,8.328,0,0,0-.059,3.507s27.316,1.15,30.764,0a29.435,29.435,0,0,1,6.155-1.378s-.625-11.5-1.25-14.263.519-13.281.519-13.281l-.747-11.271,4.482-11.565s-2.429-7.414-4.961-8.161a49.132,49.132,0,0,1-5.576-1.61,19.559,19.559,0,0,0-3.854-.978l-1.51.506Z" transform="translate(-288.833 -313.343)" fill="#20cad1"/>
    <rect id="Rectangle_2582" data-name="Rectangle 2582" width="21.893" height="33.502" rx="2.94" transform="translate(138.223 82.889) rotate(3.89)" opacity="0.1"/>
    <rect id="Rectangle_2583" data-name="Rectangle 2583" width="21.893" height="33.502" rx="2.94" transform="translate(138.912 82.202) rotate(3.89)" fill="#3f3d56"/>
    <rect id="Rectangle_2584" data-name="Rectangle 2584" width="19.073" height="28.826" transform="translate(140.148 84.808) rotate(3.89)" fill="#fff"/>
    <rect id="Rectangle_2585" data-name="Rectangle 2585" width="15.582" height="4.343" transform="translate(141.926 92.354) rotate(4.004)" opacity="0.1"/>
    <rect id="Rectangle_2586" data-name="Rectangle 2586" width="2.472" height="2.263" transform="translate(154.442 110.491) rotate(3.89)" opacity="0.1"/>
    <rect id="Rectangle_2587" data-name="Rectangle 2587" width="12.656" height="2.263" transform="translate(141.848 104.351) rotate(3.89)" opacity="0.1"/>
    <rect id="Rectangle_2588" data-name="Rectangle 2588" width="13.178" height="3.479" transform="translate(143.674 84.132) rotate(3.89)" fill="#3f3d56"/>
    <rect id="Rectangle_2589" data-name="Rectangle 2589" width="13.178" height="3.479" transform="translate(143.674 84.132) rotate(3.89)" opacity="0.1"/>
    <path id="Path_6293" data-name="Path 6293" d="M476.711,572.56s-.116,17.023-4.6,26.8c0,0,5.408-12.881,5.408-13.4s2.988-5.923,2.188-7.533S476.711,572.56,476.711,572.56Z" transform="translate(-329.679 -448.656)" opacity="0.1"/>
    <path id="Path_6294" data-name="Path 6294" d="M463.281,298.882a6.4,6.4,0,0,1,1.041-4.285,5.279,5.279,0,0,0,4.082,5.564.691.691,0,0,1-.2-.756,23.158,23.158,0,0,0,1.857,2.222,2.468,2.468,0,0,0,2.666.566c1.16-.625,1.172-2.272.872-3.554a16.693,16.693,0,0,0-3.841-7.336,5.083,5.083,0,0,0-4.032-2.05,9.919,9.919,0,0,0-5.211.816,13.852,13.852,0,0,0-2.5,1.747l-4.376,3.57a4.155,4.155,0,0,0-1.063,1.119,3.061,3.061,0,0,0-.331,1.172,6.317,6.317,0,0,0,2.944,5.961,4.66,4.66,0,0,1,2.791-4.376,1.213,1.213,0,0,1,.435.9l.922-1.644a1.81,1.81,0,0,1,.625-.741,1.632,1.632,0,0,1,1.763.5,3.148,3.148,0,0,0,1.607,1.06l.025-2.448" transform="translate(-316.005 -253.872)" opacity="0.1"/>
    <path id="Path_6295" data-name="Path 6295" d="M463.308,297.782a6.4,6.4,0,0,1,1.041-4.289,5.282,5.282,0,0,0,4.086,5.564.684.684,0,0,1-.2-.753,23.547,23.547,0,0,0,1.857,2.222,2.455,2.455,0,0,0,2.666.563c1.16-.625,1.172-2.272.872-3.551a16.692,16.692,0,0,0-3.842-7.336,6.148,6.148,0,0,0-2.147-1.669,6.251,6.251,0,0,0-1.875-.381,9.918,9.918,0,0,0-5.211.813,14.024,14.024,0,0,0-2.5,1.75l-4.376,3.57a4.11,4.11,0,0,0-1.063,1.119,3.047,3.047,0,0,0-.331,1.172,6.314,6.314,0,0,0,2.944,5.958,4.667,4.667,0,0,1,2.791-4.376,1.222,1.222,0,0,1,.435.9l.919-1.638a1.79,1.79,0,0,1,.625-.741,1.632,1.632,0,0,1,1.763.5,3.167,3.167,0,0,0,1.607,1.06l.025-2.451" transform="translate(-316.033 -253.116)" fill="#3f3d56"/>
    <path id="Path_6296" data-name="Path 6296" d="M440.479,465.589c-.8-.406-14.088,1.666-14.088,1.666a76.02,76.02,0,0,0-7.477-1.494,6.706,6.706,0,0,1-5.626-6.039l-.578-10.349,1.785-1.563,7.646,5a24.715,24.715,0,0,1,0,2.985,4.206,4.206,0,0,0-.256.938.312.312,0,0,0,.256.281c.519.131,7.589,1.275,7.589,1.275s16.388-1.122,20.474,4.4a4.15,4.15,0,0,1,.722,1.363C451.938,467.824,441.207,465.949,440.479,465.589Z" transform="translate(-288.846 -362.9)" fill="#fbbebe"/>
    <path id="Path_6297" data-name="Path 6297" d="M470.576,483.747c-.625.278-1.013.478-1.013.478s-5.864-.172-9.159-1.366a21.511,21.511,0,0,0-7.3-.982s-13.728-2.363-11.6-5.448a.313.313,0,0,0,.256.281c.519.131,7.589,1.275,7.589,1.275s16.388-1.122,20.474,4.4a4.152,4.152,0,0,1,.75,1.363Z" transform="translate(-308.488 -382.573)" opacity="0.1"/>
    <path id="Path_6298" data-name="Path 6298" d="M476.3,441.58s.806,5.692.863,6.155.347,6.036,0,6.67-.863,1.666-.863,1.666.575,1.206-1.725,1.669a23.614,23.614,0,0,0-5,1.838s-5.867-.172-9.143-1.378a21.1,21.1,0,0,0-7.3-.978s-17.426-2.991-9.949-6.642a11.506,11.506,0,0,1,12.766,1.294l8.336-.516s3.107-1.9,3.97-1.725a3.19,3.19,0,0,0,1.782-.288l.059-6.039Z" transform="translate(-308.511 -358.616)" fill="#fbbebe"/>
    <path id="Path_6299" data-name="Path 6299" d="M403.207,396.688l-1.669-.088-5.057,19.692s5.461-1.382,7.814,0,6.67,1.666,6.67,1.666l-1.61-15.7Z" transform="translate(-277.689 -327.697)" opacity="0.1"/>
    <path id="Path_6300" data-name="Path 6300" d="M403.207,395.577l-1.669-.087-5.057,19.692s5.461-1.382,7.814,0,6.67,1.666,6.67,1.666l-1.61-15.7Z" transform="translate(-277.689 -326.933)" fill="#20cad1"/>
    <path id="Path_6301" data-name="Path 6301" d="M532.26,409.57l2.3.519s5.867,8.44,6.327,8.912-2.188,2.188-3.279,2.188-6.439.625-7.993,2.069-.907-5.823-.907-5.989,1.929-4.751,1.929-4.751Z" transform="translate(-368.492 -336.612)" opacity="0.1"/>
    <path id="Path_6302" data-name="Path 6302" d="M532.26,408.47l2.3.516s5.867,8.455,6.327,8.915-2.188,2.188-3.279,2.188-6.439.625-7.993,2.069-.907-5.823-.907-5.989,1.941-4.767,1.941-4.767Z" transform="translate(-368.492 -335.856)" fill="#20cad1"/>
    <path id="Path_6303" data-name="Path 6303" d="M464.332,303.849a4.612,4.612,0,0,1,.016-.719,6.4,6.4,0,0,0-.963,2.36v.872c0,.506,0,1.016-.016,1.522h-.044v.234a1.242,1.242,0,0,0-.016-.241,3.324,3.324,0,0,1-1.538-1.044c-.466-.419-1.194-.819-1.763-.5a1.792,1.792,0,0,0-.625.741l-.928,1.638a1.209,1.209,0,0,0-.434-.9,4.661,4.661,0,0,0-2.791,4.376,6.352,6.352,0,0,1-2.966-4.979,6.321,6.321,0,0,0,2.966,5.667,4.667,4.667,0,0,1,2.791-4.376,1.222,1.222,0,0,1,.434.9l.919-1.638a1.79,1.79,0,0,1,.625-.741,1.632,1.632,0,0,1,1.763.5,3.166,3.166,0,0,0,1.607,1.06q0-1.2.025-2.394A6.365,6.365,0,0,1,464.332,303.849Z" transform="translate(-316.031 -263.442)"/>
    <path id="Path_6304" data-name="Path 6304" d="M487.495,312.228c.016-.213.041-.425.072-.625l.034-.863A6.325,6.325,0,0,0,487.495,312.228Z" transform="translate(-340.251 -268.673)"/>
    <path id="Path_6305" data-name="Path 6305" d="M507.812,321.3a2.461,2.461,0,0,1-2.666-.563,23.146,23.146,0,0,1-1.857-2.222.691.691,0,0,0,.2.756.737.737,0,0,1-.181-.047,20.652,20.652,0,0,0,1.841,2.188,2.482,2.482,0,0,0,2.666.563,2.555,2.555,0,0,0,1.022-2.566A2.17,2.17,0,0,1,507.812,321.3Z" transform="translate(-351.084 -274.022)"/>
    <path id="Path_6306" data-name="Path 6306" d="M494.779,310.555a5.314,5.314,0,0,1-3.895-4.645,5.28,5.28,0,0,0,4.095,5.386A.688.688,0,0,1,494.779,310.555Z" transform="translate(-342.577 -265.354)"/>
    <path id="Path_6307" data-name="Path 6307" d="M837.112,332.938s-1.231-.172-1.231-1.963A28.162,28.162,0,0,0,835,325.83h0s-.763-5.836-1.816-6.761-2.407-6.358-2.407-6.358-.231-2.948-.7-3.582a30.416,30.416,0,0,1-2.051-4.4c-.941-2.216-4.854-3.735-4.854-3.735s-7.092-4.113-9.1-5.454h0a3.1,3.1,0,0,1-.513-.388c-.35-.456-1.876-.466-1.876-.466a31,31,0,0,1-.363-3.213v-.338a10.815,10.815,0,0,0,4.754-5.883c.037-.119.069-.241.1-.363a1.016,1.016,0,0,0,.625-.55,11.038,11.038,0,0,1,.41-1.25,4.636,4.636,0,0,1,1.156-1.013,4.382,4.382,0,0,0,1.2-3.56c-.031-1.05-.2-2.107-.134-3.148a1.243,1.243,0,0,1,.019-.263c.019-.153.041-.313.069-.463.153-.775.488-1.507.675-2.276a2.928,2.928,0,0,0-.231-2.3c-.641-.972-1.975-1.166-3.148-1.25-1.329-.113-2.5.031-3.367-1.072a11.776,11.776,0,0,0-1.338-1.613c-.175-.163-1.875-1.2-1.875-1.269a7.6,7.6,0,0,0-5.314-.409c-.885.256-1.713.675-2.61.885-1.925.456-4.145-.038-5.782,1.066a6.824,6.824,0,0,0-1.973,2.588q-.625,1.194-1.269,2.391a15.382,15.382,0,0,0-1.685,4.092,6.93,6.93,0,0,0-.115.96h0v.5a1.734,1.734,0,0,0,.019.313,1.811,1.811,0,0,0,.022.194c.022.066.028.213.047.313s.056.278.094.413a.634.634,0,0,0,.056.175c.019.059.069.209.109.313s.044.109.069.163a2.933,2.933,0,0,0,.159.313c.025.041.044.081.069.122a3.549,3.549,0,0,0,.288.419c.666.835,1.654,1.366,2.382,2.147v.35a10.7,10.7,0,0,0,4.9,8.721c0,.119.016.241.022.363a17.832,17.832,0,0,1-.034,2.782,1.32,1.32,0,0,0-1.038-.463,1.488,1.488,0,0,0-.4.034l-.028-.022h0v.028c-.687.169-1.535.885-2.344,2.919,0,0-2.463,2.776-4.339,2.66s-6.623,2.891-6.623,2.891-4.632,3-5.626,6.067a42.393,42.393,0,0,1-2,5.089l-5.742,11.79h0L770.5,334.4a43.374,43.374,0,0,1,.469,4.8c-.116.638,2.4,6.358,2.4,6.358s8.324,14.622,11.725,15.372l.244-.169a2.124,2.124,0,0,0,.46.169l.7-.491a7.328,7.328,0,0,1-.056,1.647c-.466,1.447.178,10.868,1,12.716s.528,26.072.528,26.072l-.116,2.135a.9.9,0,0,0,.028.187l-.028.507.084.044a6.047,6.047,0,0,1-.084,2.038,22.584,22.584,0,0,0-.413,3.585s-2.344,14.966-1.232,17.973,2.054,6.3,2.054,6.3,1.172,3.751.056,4.376-4.276,1.735-3.632,3.294c.594,1.444,2.848,5.314,3.182,5.88l-.028.313-.459,4.979a6.257,6.257,0,0,0,.528,1.9,3.268,3.268,0,0,0,3.342,2.088c.312-.022.672-.056,1.025-.1a44.42,44.42,0,0,0,7.592-1.979,2.99,2.99,0,0,1-.591-.491h0a1.715,1.715,0,0,1-.522-1.25c.05-.909-1.647-5.226-2.073-6.292l-.1-.238s3.87-4.048,3.226-7.63c0,0-4.282-2.5-2.873-3.876a43.924,43.924,0,0,0,3.929-5.314s.116-14.738,0-16.935a18.256,18.256,0,0,1,.216-4.576c.047-.225.1-.447.163-.669a39.915,39.915,0,0,0,5.9.447q1.082,0,2.188-.044,0,.312.028.675c.163,3.651.466,10.055.713,12.434.35,3.407,2.285,12.6,2.285,12.6s-3.691,2.366.644,8.208a7.919,7.919,0,0,1-.288,2.422h0a26.5,26.5,0,0,0-.741,3.054,5.366,5.366,0,0,0,.037,2.788c.7,1.382,4.923,1.269,4.923,1.269h0a.664.664,0,0,1,.1-.016A6.024,6.024,0,0,1,821.5,452.3c1.6,1.288,7.686.725,10.984.313,1.291-.166,2.154-.313,2.154-.313a1.267,1.267,0,0,0,.044-.45h0c-.034-.81-.669-2.585-4.97-4.17,0,0-4.045-2.719-3.989-5.089h-.556c.294-.009.5-.009.5-.009s-1.585-5.78-.938-6.251-1.291-6.877-1.291-6.877-1.11-10.753-1.172-11.5a6.612,6.612,0,0,1,.294-1.907l-.294-5.9s-.056-1.96,0-2.6a12.194,12.194,0,0,0-.131-1.654c-.028-.219-.056-.447-.088-.672,1.516-.384,2.5-.738,2.5-.738l-.175-20.521c1.288-2.5,1.525-7.99,1.519-11.878,0-2.5-.112-4.351-.112-4.351l1.76-2.873s.406-3.438-.238-4.192a.722.722,0,0,1,.078-.985,3.284,3.284,0,0,1,.391-.275.472.472,0,0,1-.041-.069,3.112,3.112,0,0,1,.391-.278s-.625-.969-.066-1.378c.525.356.994.641,1.35.844-.025.228-.05.359-.05.359l.15-.312.553.312s2.757-5.492,2.7-6.3,1.876-4.22,1.876-4.22a4.228,4.228,0,0,1,1.291-2.544c1.057-.75.819-6.186.819-6.186a13.291,13.291,0,0,1,1-3.985C838.444,334.507,837.112,332.938,837.112,332.938Zm-52.75-2.41.053,1.31c-.312-.5-.537-.863-.537-.863Z" transform="translate(-534.8 -236.65)" fill="url(#linear-gradient-2)"/>
    <path id="Path_6310" data-name="Path 6310" d="M837.567,847.751a38.854,38.854,0,0,1-8.439,2.069,3.211,3.211,0,0,1-3.279-2.076,6.345,6.345,0,0,1-.519-1.875l.453-4.954.237-2.635,7.305-1.9,1.034,3.166.1.238c.413,1.059,2.082,5.354,2.032,6.251a1.715,1.715,0,0,0,.509,1.25,2.912,2.912,0,0,0,.569.466Z" transform="translate(-572.491 -630.012)" fill="#fff"/>
    <path id="Path_6311" data-name="Path 6311" d="M924.373,844.476a1.254,1.254,0,0,1-.044.45s-10.7,1.782-12.884,0a5.792,5.792,0,0,0-4.489-1.322s-4.138.113-4.829-1.25a5.416,5.416,0,0,1-.034-2.772,26.608,26.608,0,0,1,.725-3.038l.166-.131.984-.791,11.528-.341h.088c-.056,2.357,3.91,5.061,3.91,5.061C923.717,841.9,924.339,843.67,924.373,844.476Z" transform="translate(-625.152 -629.256)" fill="#fff"/>
    <path id="Path_6312" data-name="Path 6312" d="M924.372,853.928a1.286,1.286,0,0,1-.047.45s-10.7,1.782-12.881,0a5.792,5.792,0,0,0-4.491-1.322s-4.142.113-4.833-1.25a5.462,5.462,0,0,1-.034-2.776c1.594.159,4.11.556,5.1,1.507,1.494,1.438,4.026,2.876,5.577,2.991C913.985,853.6,921.271,853.834,924.372,853.928Z" transform="translate(-625.148 -638.707)" opacity="0.1"/>
    <path id="Path_6313" data-name="Path 6313" d="M838.708,871.708a38.867,38.867,0,0,1-8.44,2.069,3.211,3.211,0,0,1-3.279-2.075c1.275.428,3.041.875,3.97.466,1.1-.491,5-.8,7.189-.938a2.841,2.841,0,0,0,.559.478Z" transform="translate(-573.633 -653.969)" opacity="0.1"/>
    <path id="Path_6314" data-name="Path 6314" d="M869.932,357.618c-4.126-1.6-9.434-6.9-8.108-9.377a5.6,5.6,0,0,0,.516-1.988,18.128,18.128,0,0,0,.037-2.813,38.661,38.661,0,0,0-.553-4.579s12.881.291,12.131,2.188a7.038,7.038,0,0,0-.194,2.6c.063,1.078.216,2.307.378,3.341.222,1.416.45,2.5.45,2.5s-.791,1.1-1.25,1.163S875.853,359.915,869.932,357.618Z" transform="translate(-597.436 -288.005)" fill="#cf6f80"/>
    <path id="Path_6315" data-name="Path 6315" d="M835.414,839.734l-.1.106c-3.851-4.657-8.508,1.15-8.508,1.15l-.069-.125.238-2.635,7.3-1.9,1.035,3.166Z" transform="translate(-573.461 -629.977)" opacity="0.1"/>
    <path id="Path_6316" data-name="Path 6316" d="M917.551,835.581s-2.813-.056-4.313,1.269-8.752.284-8.439,0a1.082,1.082,0,0,0,.162-.478l.985-.791,11.528-.341C917.517,835.459,917.551,835.581,917.551,835.581Z" transform="translate(-627.113 -629.228)" opacity="0.1"/>
    <path id="Path_6317" data-name="Path 6317" d="M833.2,705.743a8.773,8.773,0,0,0-.475,1.6,18.353,18.353,0,0,0-.216,4.551c.116,2.188,0,16.851,0,16.851a44.614,44.614,0,0,1-3.854,5.289c-1.382,1.379,2.813,3.854,2.813,3.854.625,3.566-3.163,7.592-3.163,7.592-3.851-4.657-8.508,1.147-8.508,1.147s-2.532-4.376-3.163-5.939,2.472-2.641,3.563-3.279-.056-4.376-.056-4.376-.919-3.279-2.013-6.27,1.207-17.879,1.207-17.879a23.1,23.1,0,0,1,.4-3.57,6.048,6.048,0,0,0,.084-2.025c-.019-.228-.041-.416-.056-.547s-.028-.187-.028-.187l.044-.075,1.563-2.913S833.952,703.908,833.2,705.743Z" transform="translate(-566.457 -535.966)" fill="#20cad1"/>
    <path id="Path_6318" data-name="Path 6318" d="M910.122,748.731s-2.813-.059-4.314,1.25-8.752.287-8.439,0,.284-2.413.284-2.413c-4.254-5.811-.625-8.168-.625-8.168s-1.9-9.143-2.241-12.534c-.241-2.366-.538-8.752-.7-12.369-.069-1.563-.11-2.641-.11-2.641l3.445-.685.447-.088,8.383-1.685s.231,1.563.388,2.841a12.507,12.507,0,0,1,.128,1.647c-.053.625,0,2.585,0,2.585l.288,5.864a6.789,6.789,0,0,0-.288,1.9c.06.75,1.151,11.443,1.151,11.443s1.9,6.383,1.25,6.842S910.122,748.731,910.122,748.731Z" transform="translate(-619.683 -542.723)" fill="#20cad1"/>
    <path id="Path_6319" data-name="Path 6319" d="M874.411,341.078a7.041,7.041,0,0,0-.194,2.6,10.706,10.706,0,0,1-11.384-.213,38.664,38.664,0,0,0-.553-4.579S875.161,339.181,874.411,341.078Z" transform="translate(-597.892 -288.026)" opacity="0.1"/>
    <path id="Path_6320" data-name="Path 6320" d="M869.966,300.286a10.694,10.694,0,1,1-21.386.256v-.256a10.7,10.7,0,1,1,21.392,0Z" transform="translate(-588.474 -254.135)" fill="#cf6f80"/>
    <path id="Path_6321" data-name="Path 6321" d="M869.932,373.875c-4.126-1.6-9.434-6.9-8.108-9.377a5.6,5.6,0,0,0,.516-1.988l5.648,4.645,3.495,2.866,2.657-6.761c.222,1.416.45,2.5.45,2.5s-.791,1.1-1.25,1.163S875.853,376.173,869.932,373.875Z" transform="translate(-597.436 -304.262)" opacity="0.1"/>
    <path id="Path_6322" data-name="Path 6322" d="M860.06,374.777l-4.717,79.238-6.151.4L833.26,408.472l2.613-54.547.553-11.525,7.083,5.817L847,351.083l2.735-6.961,5.086,4.432Z" transform="translate(-572.958 -284.637)" fill="#20cad1"/>
    <path id="Path_6323" data-name="Path 6323" d="M840.2,705.8a8.775,8.775,0,0,0-.475,1.6,45.322,45.322,0,0,1-12.909-4.029l-.084-.044.028-.5v-.263l1.563-2.913S840.949,703.963,840.2,705.8Z" transform="translate(-573.454 -536.021)" opacity="0.1"/>
    <path id="Path_6324" data-name="Path 6324" d="M897.486,718.015a31.708,31.708,0,0,1-3.457.4c-.069-1.563-.109-2.641-.109-2.641l3.463-.7Z" transform="translate(-619.642 -546.62)" opacity="0.1"/>
    <path id="Path_6325" data-name="Path 6325" d="M915.241,712.241a24.268,24.268,0,0,1-8.727.822l-.044-1.979,8.383-1.685S915.075,710.95,915.241,712.241Z" transform="translate(-628.269 -542.723)" opacity="0.1"/>
    <path id="Path_6326" data-name="Path 6326" d="M817.278,473.849c-12.816,2.188-24.553-4.085-24.553-4.085l.112-2.126s.291-24.1-.516-25.944-1.435-11.2-.979-12.631-1.666-23-1.666-23l-.344-8.752L776.74,392.2l5.626-11.731a42.435,42.435,0,0,0,1.957-5.064c.978-3.048,5.52-6.039,5.52-6.039s4.657-2.988,6.5-2.876,4.254-2.644,4.254-2.644c1.782-4.542,3.394-2.5,3.394-2.5a4.023,4.023,0,0,1-.087.672c-.625,4.986,10.109,20.739,10.262,21.021h0l1.035,24.9,1.035,31.511Z" transform="translate(-539.09 -303.146)" opacity="0.1"/>
    <path id="Path_6327" data-name="Path 6327" d="M816.157,473.849c-12.816,2.188-24.556-4.085-24.556-4.085l.116-2.126s.287-24.1-.519-25.944-1.435-11.212-.975-12.653-1.675-22.987-1.675-22.987L788.2,397.3l-12.591-5.117,5.626-11.731a43.042,43.042,0,0,0,1.957-5.061c.978-3.038,5.536-6.033,5.536-6.033s4.658-2.988,6.5-2.876,4.264-2.641,4.264-2.641c1.785-4.542,3.751-2.5,3.751-2.5,0,.219-.187.313-.088.672,1.375,4.836,9.765,20.739,9.918,21.021h0l1.035,24.9,1.013,31.526Z" transform="translate(-538.313 -303.146)" fill="#fff"/>
    <path id="Path_6328" data-name="Path 6328" d="M868.316,385.31c-1.378-.575-8.68-8.912-8.68-8.912v-1.9c-.266-.625-1.847-.244-3.126.194l.55-11.525.625.519C859.051,368.521,868.166,385.032,868.316,385.31Z" transform="translate(-593.925 -304.716)" opacity="0.1"/>
    <path id="Path_6329" data-name="Path 6329" d="M869.419,383.13c-1.382-.578-8.683-8.911-8.683-8.911v-1.9c-.266-.625-1.844-.244-3.126.194L858.151,361l.625.516C860.154,366.342,869.266,382.849,869.419,383.13Z" transform="translate(-594.682 -303.224)" fill="#fff"/>
    <path id="Path_6330" data-name="Path 6330" d="M826.333,562.779c.172,0,8.911-.919,8.911-.919s5.292,10.409,4.945,12.938-.975,4.773-3.1,4.376-11.456.312-11.456.312Z" transform="translate(-572.698 -441.3)" opacity="0.1"/>
    <path id="Path_6331" data-name="Path 6331" d="M825.223,560.569c.175,0,8.915-.919,8.915-.919s5.289,10.424,4.945,12.925-.978,4.773-3.1,4.376-11.459.313-11.459.313Z" transform="translate(-571.935 -439.782)" fill="#fff"/>
    <path id="Path_6332" data-name="Path 6332" d="M837.329,547s8.021,4.314,8.193,5.626-4.082-.575-5-.806a11.913,11.913,0,0,0-1.841-.288l-6.13.166Z" transform="translate(-577.455 -431.085)" fill="#cf6f80"/>
    <ellipse id="Ellipse_624" data-name="Ellipse 624" cx="0.844" cy="0.844" rx="0.844" ry="0.844" transform="translate(271.305 79.443)" opacity="0.1"/>
    <ellipse id="Ellipse_625" data-name="Ellipse 625" cx="0.844" cy="0.844" rx="0.844" ry="0.844" transform="translate(271.305 79.1)" fill="#3f3d56"/>
    <ellipse id="Ellipse_626" data-name="Ellipse 626" cx="0.844" cy="0.844" rx="0.844" ry="0.844" transform="translate(272.858 115.977)" opacity="0.1"/>
    <ellipse id="Ellipse_627" data-name="Ellipse 627" cx="0.844" cy="0.844" rx="0.844" ry="0.844" transform="translate(272.858 115.63)" fill="#3f3d56"/>
    <ellipse id="Ellipse_628" data-name="Ellipse 628" cx="0.844" cy="0.844" rx="0.844" ry="0.844" transform="translate(272.15 97.71)" opacity="0.1"/>
    <ellipse id="Ellipse_629" data-name="Ellipse 629" cx="0.844" cy="0.844" rx="0.844" ry="0.844" transform="translate(272.15 97.367)" fill="#3f3d56"/>
    <path id="Path_6333" data-name="Path 6333" d="M917.4,426.1s.575.863,0,1.25.056,1.382.056,1.382-1.435.838-.8,1.6.232,4.17.232,4.17l-1.725,2.872s.1,1.841.109,4.329c0,3.882-.228,9.34-1.491,11.828l.169,20.414s-6.042,2.21-11.1,1.535l-.75-32.758s1.094-18.576,1.5-22.14a37.077,37.077,0,0,0,.287-5.579,62.239,62.239,0,0,0-.75-8.161s-.625-11.215-.688-14.319c-.028-1.485.05-5.817.138-9.937.1-4.5.206-8.752.206-8.752l-1.141-9.03s1.141-.113,1.485.344a3.293,3.293,0,0,0,.5.384h0c1.973,1.332,8.93,5.426,8.93,5.426s3.851,1.532,4.773,3.726a32.481,32.481,0,0,0,2.01,4.376c.447.625.691,3.563.691,3.563s1.325,5.408,2.36,6.323,1.779,6.73,1.779,6.73l-9.143,7.189s-.8,11.959-.975,12.422S917.4,426.1,917.4,426.1Z" transform="translate(-624.956 -305.831)" fill="#fff"/>
    <path id="Path_6334" data-name="Path 6334" d="M917.73,425.861s.572.863,0,1.25.053,1.382.053,1.382-1.435.838-.8,1.6.231,4.17.231,4.17l-1.719,2.873s.1,1.841.113,4.329c0,3.882-.228,9.34-1.491,11.828l.172,20.414s-6.042,2.21-11.1,1.535l-.747-32.758s1.091-18.576,1.5-22.14a36.709,36.709,0,0,0,.284-5.579,62.6,62.6,0,0,0-.747-8.161s-.625-11.215-.691-14.319c-.028-1.485.05-5.817.138-9.937.1-4.5.206-8.752.206-8.752l-1.507-9.152s1.507,0,1.854.466a2.971,2.971,0,0,0,.5.384h0c1.969,1.332,8.927,5.426,8.927,5.426s3.842,1.532,4.78,3.726a34.654,34.654,0,0,0,2.01,4.376c.447.625.691,3.563.691,3.563s1.325,5.408,2.36,6.323,1.782,6.73,1.782,6.73l-9.143,7.189s-.8,11.959-.979,12.422S917.73,425.861,917.73,425.861Z" transform="translate(-624.935 -305.589)" fill="#fff"/>
    <path id="Path_6335" data-name="Path 6335" d="M907.53,377.758l.828,2.407-4.348,4.376c.1-4.5.206-8.752.206-8.752l-1.506-9.149s1.506,0,1.853.466a2.969,2.969,0,0,0,.5.384h0l3.695,10.656Z" transform="translate(-625.685 -307.101)" opacity="0.1"/>
    <path id="Path_6336" data-name="Path 6336" d="M906.4,375.535l.828,2.4-4.345,4.376c.094-4.5.206-8.752.206-8.752l-1.51-9.152s1.51,0,1.853.466a3.125,3.125,0,0,0,.5.385h0l3.717,10.665Z" transform="translate(-624.907 -305.568)" fill="#fff"/>
    <path id="Path_6337" data-name="Path 6337" d="M869.966,300.286a10.651,10.651,0,0,1-.525,3.316.443.443,0,0,1-.337-.081,13.833,13.833,0,0,0-3.17-7.705,8.166,8.166,0,0,0-1.719-1.782,3.365,3.365,0,0,0-2.332-.66c-.938.128-1.766.766-2.713.847-1.25.1-2.369-.763-3.61-.8a3.538,3.538,0,0,0-2.653,1.232,7.233,7.233,0,0,0-1.422,2.635,15.439,15.439,0,0,0-.794,4.551c-.016.875-.1,1.972-.913,2.291a4.658,4.658,0,0,0-1.178-3.563l-.019-.022v-.256a10.7,10.7,0,1,1,21.392,0Z" transform="translate(-588.474 -254.135)" opacity="0.1"/>
    <path id="Path_6338" data-name="Path 6338" d="M856.558,267.94a7.364,7.364,0,0,0-5.195-.406c-.866.256-1.682.672-2.56.881-1.876.453-4.064-.038-5.673,1.06a6.77,6.77,0,0,0-1.932,2.576l-1.25,2.379a15.464,15.464,0,0,0-1.653,4.064,5.2,5.2,0,0,0,.8,4.2c.66.838,1.641,1.366,2.36,2.157a4.688,4.688,0,0,1,1.175,3.573c.813-.313.894-1.416.913-2.291a15.454,15.454,0,0,1,.794-4.551,7.24,7.24,0,0,1,1.422-2.635,3.542,3.542,0,0,1,2.654-1.235c1.25.044,2.372.91,3.61.8.938-.078,1.769-.716,2.713-.844a3.351,3.351,0,0,1,2.332.66,8.005,8.005,0,0,1,1.716,1.782,13.773,13.773,0,0,1,3.173,7.705c.353.256.863-.081,1.038-.481a11.462,11.462,0,0,1,.4-1.25,4.619,4.619,0,0,1,1.132-1.01,4.424,4.424,0,0,0,1.182-3.542,17.616,17.616,0,0,1-.044-3.851c.147-.772.478-1.5.659-2.266a2.963,2.963,0,0,0-.225-2.285c-.625-.966-1.941-1.16-3.088-1.25-1.3-.113-2.469.031-3.3-1.066a12.207,12.207,0,0,0-1.313-1.607C858.224,269.04,856.558,268.008,856.558,267.94Z" transform="translate(-581.317 -238.77)" fill="#512e4e"/>
    <path id="Path_6339" data-name="Path 6339" d="M778.828,467.086l-3.263-6.036-1.035,9.315a43.2,43.2,0,0,1,.459,4.773c-.116.635,2.357,6.323,2.357,6.323s8.167,14.55,11.5,15.3l11.253-8.052-2.988-3.795s-1.035-.4-1.294,0c0,0-5.551-9.546-6.123-10.234a3.478,3.478,0,0,1-.463-2.072s-.863-.919-.575-1.782-1.651-3.851-1.651-3.851l1.782-1.666Z" transform="translate(-537.57 -372.001)" opacity="0.1"/>
    <path id="Path_6340" data-name="Path 6340" d="M774.217,458.84l-.863.691-1.035,9.315a43.177,43.177,0,0,1,.459,4.773c-.116.635,2.36,6.323,2.36,6.323s8.164,14.55,11.5,15.3l11.271-8.052-2.991-3.795s-1.035-.4-1.294,0c0,0-5.548-9.546-6.123-10.234a3.443,3.443,0,0,1-.459-2.072s-.863-.919-.575-1.782-1.669-3.851-1.669-3.851l1.782-1.666Z" transform="translate(-536.052 -370.482)" fill="#fff"/>
    <path id="Path_6346" data-name="Path 6346" d="M834.92,822.224s3.019-1.9,5-.519S834.92,822.224,834.92,822.224Z" transform="translate(-579.084 -619.579)" opacity="0.1"/>
    <path id="Path_6347" data-name="Path 6347" d="M910,805.663a6.113,6.113,0,0,1,4.917,2.072C917.161,810.151,910,805.663,910,805.663Z" transform="translate(-630.696 -608.884)" opacity="0.1"/>
    <path id="Path_6348" data-name="Path 6348" d="M874.343,305.773c-.384.335-.878.569-1.135,1.01a11.7,11.7,0,0,0-.4,1.25c-.175.4-.684.738-1.041.481a13.817,13.817,0,0,0-3.17-7.705,8,8,0,0,0-1.716-1.779,3.36,3.36,0,0,0-2.335-.663c-.938.128-1.763.766-2.71.847-1.25.1-2.372-.763-3.613-.8a3.526,3.526,0,0,0-2.651,1.232,7.234,7.234,0,0,0-1.422,2.635,15.443,15.443,0,0,0-.794,4.551c-.019.872-.1,1.96-.906,2.285a4.343,4.343,0,0,1,0,.7c.816-.313.9-1.416.916-2.291a15.459,15.459,0,0,1,.794-4.551,7.237,7.237,0,0,1,1.422-2.635,3.538,3.538,0,0,1,2.651-1.235c1.25.044,2.376.91,3.613.8.938-.078,1.769-.716,2.71-.844a3.36,3.36,0,0,1,2.335.66,8.008,8.008,0,0,1,1.716,1.782,13.79,13.79,0,0,1,3.169,7.7c.356.256.866-.081,1.041-.481a12.145,12.145,0,0,1,.4-1.25,4.639,4.639,0,0,1,1.135-1.01,4.424,4.424,0,0,0,1.182-3.541V302.8A4.112,4.112,0,0,1,874.343,305.773Z" transform="translate(-591.134 -260.16)"/>
    <path id="Path_6349" data-name="Path 6349" d="M841.438,311.017c-.716-.791-1.7-1.322-2.357-2.16a4.534,4.534,0,0,1-.909-2.557,4.816,4.816,0,0,0,.909,3.248c.66.838,1.641,1.366,2.357,2.157a4.689,4.689,0,0,1,1.182,2.788A4.688,4.688,0,0,0,841.438,311.017Z" transform="translate(-581.309 -265.622)"/>
    <ellipse id="Ellipse_630" data-name="Ellipse 630" cx="30.457" cy="4.892" rx="30.457" ry="4.892" transform="translate(10.878 203.167)" fill="#20cad1" opacity="0.1"/>
    <rect id="Rectangle_2590" data-name="Rectangle 2590" width="1.96" height="44.126" transform="translate(40.357 114.346)" fill="#535461"/>
    <path id="Path_6351" data-name="Path 6351" d="M132.727,676.144l-.125,1.988-.172,2.813-.072,1.169-.175,2.813-.075,1.169-.172,2.813-1.979,31.9a5.4,5.4,0,0,1-5.392,5.07H114.291a5.4,5.4,0,0,1-5.392-5.092l-1.979-31.9-.172-2.813-.072-1.169-.178-2.813-.072-1.169-.172-2.813-.125-1.988a2.813,2.813,0,0,1,2.794-2.972h21.011a2.813,2.813,0,0,1,2.791,2.994Z" transform="translate(-78.092 -517.804)" fill="#3f3d56"/>
    <path id="Path_6352" data-name="Path 6352" d="M116.93,670.52l-.175,2.807h-26l-.175-2.807Z" transform="translate(-62.42 -510.195)" fill="#9d9cb5"/>
    <path id="Path_6353" data-name="Path 6353" d="M117.226,683.24l-.172,2.807H91.545l-.175-2.807Z" transform="translate(-62.964 -518.939)" fill="#9d9cb5"/>
    <path id="Path_6354" data-name="Path 6354" d="M117.522,695.97l-.172,2.8H92.335l-.175-2.8Z" transform="translate(-63.506 -527.689)" fill="#9d9cb5"/>
    <path id="Path_6355" data-name="Path 6355" d="M41.621,575.721c11.415,8.258,16.169,21.174,16.169,21.174s-13.753-.472-25.172-8.73S16.44,567,16.44,567,30.193,567.463,41.621,575.721Z" transform="translate(-16.441 -444.834)" fill="#20cad1"/>
    <path id="Path_6356" data-name="Path 6356" d="M16.44,567s14.275,7.924,18.855,14.485S57.778,596.9,57.778,596.9" transform="translate(-16.441 -444.834)" fill="none" stroke="#535461" stroke-miterlimit="10" stroke-width="2"/>
    <path id="Path_6357" data-name="Path 6357" d="M90.4,531.231a27.674,27.674,0,0,1,8.8,11.522A27.655,27.655,0,0,1,85.5,538a27.835,27.835,0,0,1-8.8-11.525A27.673,27.673,0,0,1,90.4,531.231Z" transform="translate(-57.864 -416.979)" fill="#20cad1"/>
    <path id="Path_6358" data-name="Path 6358" d="M76.7,526.48s7.771,4.313,10.265,7.883,12.237,8.39,12.237,8.39" transform="translate(-57.864 -416.979)" fill="none" stroke="#535461" stroke-miterlimit="10" stroke-width="2"/>
    <path id="Path_6359" data-name="Path 6359" d="M158.556,554.715c-7.136,7.842-8.646,18.092-8.646,18.092s10.062-2.469,17.192-10.315,8.646-18.092,8.646-18.092S165.692,546.872,158.556,554.715Z" transform="translate(-108.191 -429.298)" fill="#20cad1"/>
    <path id="Path_6360" data-name="Path 6360" d="M175.754,544.41s-9.3,8.039-11.659,13.578-14.185,14.825-14.185,14.825" transform="translate(-108.191 -429.305)" fill="none" stroke="#535461" stroke-miterlimit="10" stroke-width="2"/>
    <path id="Path_6308" data-name="Path 6308" d="M945.576,541.557l-.675,2.876s-5.407-2.766-6.38-6.267,1.629-4.835,1.629-4.835l5.042,2.132Z" transform="translate(-650.153 -421.688)" fill="#fff"/>
    <path id="Path_6309" data-name="Path 6309" d="M945.576,541.557l-.675,2.876s-5.407-2.766-6.38-6.267,1.629-4.835,1.629-4.835l5.042,2.132Z" transform="translate(-650.153 -421.688)" opacity="0.1"/>
    <path id="Path_6341" data-name="Path 6341" d="M935.311,563.384c.625.759.231,4.173.231,4.173l-1.726,2.854s.1,1.844.109,4.332l-2.9.906a1.725,1.725,0,0,1-2.238-1.7l.5-16.129,6.767,2.585c-.575.4.056,1.381.056,1.381S934.68,562.624,935.311,563.384Z" transform="translate(-643.611 -438.523)" opacity="0.1"/>
    <path id="Path_6342" data-name="Path 6342" d="M936.425,562.277c.625.757.231,4.17.231,4.17l-1.719,2.857s.1,1.841.113,4.329l-2.954.922a1.685,1.685,0,0,1-2.188-1.66l.5-16.185,6.764,2.591c-.578.4.053,1.381.053,1.381S935.794,561.517,936.425,562.277Z" transform="translate(-644.381 -437.76)" fill="#fff"/>
    <path id="Path_6343" data-name="Path 6343" d="M946.031,544.365s-.459,2.935-1.609,3.107-1.666,4.748-2.813,4.589-.387-4.257-.347-5.051-1.25-4.082-.287-4.83,4.026,0,4.026,0Z" transform="translate(-651.742 -427.543)" fill="#cf6f80"/>
    <path id="Path_6344" data-name="Path 6344" d="M945.815,467.976l2.166-4.376a28.317,28.317,0,0,1,.866,5.117c0,1.782,1.206,1.957,1.206,1.957s1.322,1.563.625,2.7a13.076,13.076,0,0,0-.975,3.966s.228,5.4-.806,6.152a4.244,4.244,0,0,0-1.266,2.532s-1.9,3.391-1.838,4.2-2.644,6.267-2.644,6.267,1.322-6.786-6.383-9.718c0,0-.059-2.3.516-2.932s1.472-.938.91-4.113a37.28,37.28,0,0,1-.162-7.771,48.855,48.855,0,0,1,1.725-5.539Z" transform="translate(-649.094 -373.753)" opacity="0.1"/>
    <path id="Path_6345" data-name="Path 6345" d="M948.325,461.6l1.894.625a28.316,28.316,0,0,1,.866,5.117c0,1.782,1.207,1.957,1.207,1.957s1.322,1.563.625,2.7a13.123,13.123,0,0,0-.979,3.967s.232,5.4-.8,6.152a4.187,4.187,0,0,0-1.25,2.532s-1.9,3.391-1.838,4.2-2.648,6.267-2.648,6.267,1.322-6.786-6.383-9.718c0,0-.056-2.3.519-2.932s1.472-.938.91-4.114a37.261,37.261,0,0,1-.162-7.771,48.863,48.863,0,0,1,1.725-5.539Z" transform="translate(-650.641 -372.379)" fill="#fff"/>
    <path id="Path_6350" data-name="Path 6350" d="M926.551,289.863c-.184.766-.512,1.494-.663,2.266a7.241,7.241,0,0,0-.1,1.582,6.065,6.065,0,0,1,.1-.891c.15-.772.478-1.5.663-2.266a3.924,3.924,0,0,0,.1-1.294,4.334,4.334,0,0,1-.1.6Z" transform="translate(-641.545 -253.908)"/>
  </g>
</svg>
