<svg xmlns="http://www.w3.org/2000/svg" width="21.965" height="20.743" viewBox="0 0 21.965 20.743">
  <g id="Group_1136" data-name="Group 1136" transform="translate(-113 -299.5)">
    <path id="Path_3965" data-name="Path 3965" d="M115.251,312.026a5.818,5.818,0,0,1-1.249-4.1,8.293,8.293,0,0,1,8.123-8.424,8.178,8.178,0,1,1-.07,16.355H114l2.47-2.117a.343.343,0,0,0,.006-.518C116.255,313.024,115.869,312.681,115.251,312.026Z" transform="translate(0 1)" fill="none" stroke="#20cad1" stroke-linecap="round" stroke-linejoin="round" stroke-width="2"/>
    <path id="Path_3966" data-name="Path 3966" d="M185.927,365.305a4.848,4.848,0,0,0,1.028-3.375,6.823,6.823,0,0,0-6.683-6.93,6.728,6.728,0,1,0,.057,13.456h6.627l-2.032-1.742a.283.283,0,0,1,0-.426C185.1,366.127,185.407,365.834,185.927,365.305Z" transform="translate(-52.991 -49.212)" fill="#fff" stroke="#20cad1" stroke-linecap="round" stroke-linejoin="round" stroke-width="2"/>
  </g>
</svg>
