<svg xmlns="http://www.w3.org/2000/svg" width="23.001" height="24.923" viewBox="0 0 23.001 24.923">
  <g id="Group_2530" data-name="Group 2530" transform="translate(-1515.481 -65.081)">
    <path id="Path_390" data-name="Path 390" d="M18.684,12.709V8.972A7.421,7.421,0,0,0,11.212,1.5h0A7.421,7.421,0,0,0,3.74,8.972v3.88a4.2,4.2,0,0,1-.287,1.293L1.728,17.307A.9.9,0,0,0,2.446,18.6H20.7a.809.809,0,0,0,.718-1.293l-2.155-3.018A2.161,2.161,0,0,1,18.684,12.709Z" transform="translate(1515.363 65.081)" fill="none" stroke="#20cad1" stroke-miterlimit="10" stroke-width="3"/>
    <path id="Path_391" data-name="Path 391" d="M11.029,18.674H7.437A1.44,1.44,0,0,1,6,17.237H6A1.44,1.44,0,0,1,7.437,15.8h3.592a1.44,1.44,0,0,1,1.437,1.437h0A1.44,1.44,0,0,1,11.029,18.674Z" transform="translate(1517.27 71.33)" fill="#20cad1"/>
  </g>
</svg>
