<svg xmlns="http://www.w3.org/2000/svg" width="239.802" height="160.356" viewBox="0 0 239.802 160.356">
  <g id="undraw_healthy_options_sdo3" transform="translate(0 0)">
    <path id="Path_6212" data-name="Path 6212" d="M157.428,139.791c-.646,0-1.3-.01-1.938-.03l.015-.465c.919.029,1.857.037,2.781.024l.006.465Q157.861,139.791,157.428,139.791Zm3.664-.108-.027-.464c.921-.054,1.853-.131,2.771-.227l.049.463C162.96,139.552,162.02,139.629,161.092,139.684Zm-8.4-.072c-.928-.071-1.866-.164-2.788-.277l.057-.462c.915.112,1.846.2,2.767.275Zm13.972-.512-.07-.46c.915-.139,1.836-.3,2.739-.479l.091.456C168.514,138.8,167.586,138.959,166.664,139.1Zm-19.533-.17c-.917-.155-1.843-.334-2.751-.531l.1-.455c.9.2,1.82.373,2.73.527Zm25.028-.922-.112-.452c.9-.222,1.8-.467,2.684-.729l.132.446C173.973,137.536,173.064,137.783,172.159,138.007Zm-30.5-.267c-.9-.239-1.8-.5-2.691-.783l.14-.444c.879.278,1.777.539,2.67.776Zm35.874-1.327-.153-.44c.871-.3,1.748-.63,2.605-.974l.173.432C179.292,135.778,178.409,136.108,177.531,136.414Zm-41.224-.365c-.874-.321-1.753-.668-2.613-1.03l.181-.429c.853.36,1.726.7,2.593,1.022Zm46.42-1.715-.193-.424c.837-.38,1.678-.786,2.5-1.206l.212.415c-.828.423-1.676.832-2.519,1.215Zm4.98-2.546-.23-.4c.8-.458,1.6-.939,2.381-1.431l.249.393c-.783.5-1.59.981-2.4,1.442Zm4.729-2.992-.266-.381c.756-.528,1.51-1.081,2.241-1.643l.284.369C193.957,127.708,193.2,128.265,192.436,128.8Zm-70.936-.655c-.751-.546-1.5-1.117-2.231-1.7l.29-.364c.723.577,1.468,1.145,2.213,1.686Zm75.375-2.757-.3-.356c.7-.594,1.405-1.214,2.083-1.841l.316.342C198.291,124.162,197.585,124.786,196.875,125.385Zm-79.756-.741c-.7-.613-1.395-1.25-2.066-1.894l.322-.336c.666.639,1.356,1.272,2.05,1.88Zm83.869-3.063-.331-.327c.649-.658,1.292-1.339,1.908-2.023l.346.311C202.289,120.232,201.642,120.918,200.988,121.581Zm-87.911-.817c-.642-.675-1.276-1.373-1.884-2.073l.352-.3c.6.7,1.233,1.388,1.87,2.058Zm91.663-3.346-.36-.3c.587-.714,1.164-1.45,1.717-2.19l.373.279c-.557.745-1.139,1.487-1.73,2.206Zm-95.334-.884c-.576-.728-1.144-1.48-1.687-2.235l.378-.272c.539.749,1.1,1.5,1.674,2.218Zm98.692-3.606-.385-.261c.519-.764,1.027-1.551,1.511-2.338l.4.244c-.487.793-1,1.586-1.523,2.356Zm-101.962-.938c-.507-.777-1-1.577-1.475-2.378l.4-.236c.468.795.961,1.589,1.464,2.36Zm104.9-3.842-.407-.225c.447-.809.881-1.639,1.291-2.468l.417.206C211.92,106.5,211.483,107.333,211.033,108.147Zm2.486-5.031-.426-.187c.371-.847.727-1.714,1.059-2.578l.434.167C214.251,101.388,213.892,102.262,213.518,103.116Zm-112.609-1c-.357-.856-.7-1.732-1.015-2.6l.437-.159c.315.865.654,1.734,1.008,2.584Zm114.621-4.239-.442-.146c.29-.875.564-1.77.814-2.659l.448.126C216.1,96.089,215.823,96.991,215.531,97.873ZM99,96.853c-.277-.887-.537-1.793-.773-2.693l.45-.118c.234.894.493,1.793.767,2.673Zm118.05-4.374-.453-.105c.208-.9.4-1.813.566-2.722l.458.084c-.169.917-.361,1.839-.571,2.744ZM97.576,91.433c-.194-.909-.37-1.835-.522-2.753l.459-.076c.151.911.326,1.83.518,2.732Zm120.486-4.464-.461-.063c.125-.912.231-1.841.314-2.763l.464.042c-.084.929-.191,1.866-.317,2.784Zm-121.4-1.063c-.11-.921-.2-1.86-.268-2.789l.464-.034c.067.922.157,1.853.266,2.768ZM218.568,81.39l-.465-.021c.041-.922.063-1.858.063-2.78h.465C218.631,79.518,218.61,80.461,218.568,81.39ZM96.25,80.319c-.016-.571-.024-1.153-.024-1.73q0-.537.009-1.072l.465.008q-.009.531-.009,1.064c0,.573.008,1.151.024,1.717Zm.561-5.573-.465-.029c.058-.93.138-1.869.238-2.792l.463.05C96.948,72.891,96.868,73.823,96.811,74.746Zm121.054-2.839c-.093-.918-.221-1.365-.356-2.278l.46-.068c.136.921.252,1.623.346,2.548ZM97.409,69.218l-.46-.071c.143-.921.308-1.849.492-2.759l.456.092C97.715,67.384,97.551,68.3,97.409,69.218Zm119.63-2.331c-.177-.908-.378-1.822-.6-2.716l.452-.11c.219.9.421,1.822.6,2.737ZM98.512,63.769l-.451-.113c.226-.9.476-1.81.744-2.7l.446.134C98.984,61.972,98.736,62.874,98.512,63.769Zm117.212-2.284c-.26-.886-.543-1.778-.843-2.65l.44-.151c.3.879.588,1.777.85,2.67Zm-115.61-3.049-.439-.154c.309-.88.643-1.764.993-2.628l.432.175C100.752,56.686,100.421,57.564,100.114,58.437Zm113.8-2.209c-.34-.857-.7-1.716-1.081-2.555l.425-.191c.381.845.747,1.712,1.089,2.575ZM102.2,53.271l-.423-.194c.389-.847.8-1.7,1.23-2.523l.414.213C103,51.589,102.589,52.431,102.2,53.271Zm109.436-2.1c-.417-.822-.858-1.645-1.312-2.447l.4-.229c.457.808.9,1.638,1.322,2.466ZM104.757,48.323l-.4-.232c.464-.806.954-1.613,1.455-2.4l.392.25C105.7,46.722,105.218,47.523,104.757,48.323ZM208.9,46.336c-.492-.783-1.007-1.563-1.531-2.318l.382-.265c.528.761,1.047,1.547,1.542,2.336Zm-101.152-2.7-.38-.268c.537-.761,1.1-1.519,1.668-2.254l.368.285C108.842,42.124,108.285,42.876,107.753,43.631Zm97.986-1.86c-.561-.735-1.145-1.465-1.736-2.171l.357-.3c.6.711,1.184,1.447,1.75,2.187Zm-94.576-2.536-.354-.3c.6-.707,1.23-1.411,1.865-2.092l.34.317C112.383,37.835,111.761,38.533,111.163,39.235Zm91.006-1.724c-.625-.681-1.274-1.355-1.927-2l.328-.33c.659.655,1.312,1.334,1.942,2.02Zm-87.212-2.342-.325-.333c.666-.651,1.354-1.295,2.047-1.913l.31.347C116.3,33.884,115.618,34.523,114.957,35.169Zm83.268-1.578c-.685-.621-1.393-1.234-2.1-1.822l.3-.359c.715.592,1.428,1.209,2.118,1.836ZM119.1,31.467l-.294-.361c.72-.586,1.464-1.164,2.211-1.718l.277.374C120.556,30.311,119.818,30.885,119.1,31.467Zm4.464-3.309-.26-.386c.77-.518,1.564-1.026,2.357-1.509l.242.4C125.119,27.14,124.332,27.644,123.568,28.158Zm4.744-2.886-.223-.408c.815-.446,1.651-.879,2.484-1.286l.2.418C129.95,24.4,129.121,24.829,128.312,25.272Zm56.169-1.078c-.828-.413-1.676-.811-2.521-1.185l.188-.426c.852.376,1.706.778,2.541,1.194ZM133.3,22.834l-.185-.427c.852-.369,1.723-.723,2.59-1.052l.165.435C135.007,22.116,134.142,22.467,133.3,22.834Zm46.089-.892c-.862-.334-1.744-.653-2.622-.948l.148-.441c.884.3,1.773.618,2.642.955Zm-40.9-1.079-.145-.442c.884-.29,1.787-.563,2.682-.811l.124.448C140.262,20.3,139.366,20.575,138.488,20.862Zm35.619-.692c-.888-.253-1.793-.489-2.691-.7l.107-.453c.9.213,1.817.451,2.712.706Zm-30.262-.795-.1-.454c.907-.207,1.83-.4,2.745-.561l.083.458C145.662,18.983,144.746,19.17,143.846,19.376Zm24.851-.481c-.906-.17-1.829-.321-2.744-.45l.065-.461c.922.129,1.852.282,2.765.453Zm-19.379-.506-.062-.461c.921-.123,1.858-.226,2.785-.307l.04.464C151.162,18.164,150.232,18.266,149.317,18.388Zm13.873-.267c-.917-.086-1.85-.153-2.774-.2l.023-.465c.931.045,1.871.112,2.795.2Zm-8.334-.216-.02-.465c.855-.036,1.727-.054,2.591-.054h.211v.465h-.209c-.858,0-1.723.018-2.572.054Z" transform="translate(-93.558 -17.385)" fill="#3f3d56"/>
    <path id="Path_6213" data-name="Path 6213" d="M434.389,88.1V213.631c0,3.114-3.037,5.636-6.779,5.637H366.373a7.518,7.518,0,0,1-4.8-1.648,5.2,5.2,0,0,1-1.984-3.989V88.1c0-3.116,3.035-5.642,6.779-5.641h9.164v.978c0,2.566,2.5,4.645,5.581,4.646h31.145a6.31,6.31,0,0,0,3.309-.906,5.079,5.079,0,0,0,.549-.383,4.3,4.3,0,0,0,1.722-3.356v-.978h9.767c3.744,0,6.78,2.525,6.779,5.641Z" transform="translate(-295.638 -59.432)" fill="#3f3d56"/>
    <rect id="Rectangle_2552" data-name="Rectangle 2552" width="56.889" height="43.284" transform="translate(72.908 49.819)" fill="#20cad1"/>
    <path id="Path_6214" data-name="Path 6214" d="M238.841,284.784c5.065.109,9.094,3.779,9.094,3.779s-4.183,3.494-9.248,3.386-9.094-3.779-9.094-3.779S233.776,284.676,238.841,284.784Z" transform="translate(-195.89 -222.556)" fill="#20cad1"/>
    <path id="Path_6215" data-name="Path 6215" d="M137.657,185.233c4.576,2.174,9.823.7,9.823.7s-2.172-5-6.748-7.173-9.823-.7-9.823-.7S133.081,183.059,137.657,185.233Z" transform="translate(-120.171 -140.294)" fill="#20cad1"/>
    <path id="Path_6216" data-name="Path 6216" d="M132.86,201.061c5.045-.461,9.461,2.734,9.461,2.734s-3.764,3.942-8.809,4.4-9.461-2.734-9.461-2.734S127.815,201.522,132.86,201.061Z" transform="translate(-114.909 -158.282)" fill="#3f3d56"/>
    <path id="Path_6217" data-name="Path 6217" d="M241.214,175.984c-.484,5.043,2.691,9.473,2.691,9.473s3.959-3.746,4.443-8.789-2.691-9.473-2.691-9.473S241.7,170.941,241.214,175.984Z" transform="translate(-204.768 -132.332)" fill="#3f3d56"/>
    <path id="Path_6218" data-name="Path 6218" d="M337.262,318.254c-2.646,4.32-1.736,9.694-1.736,9.694s5.2-1.631,7.847-5.951,1.736-9.694,1.736-9.694S339.908,313.933,337.262,318.254Z" transform="translate(-277.055 -263.375)" fill="#3f3d56"/>
    <path id="Path_6219" data-name="Path 6219" d="M224.026,288.652l.386-.261a12.082,12.082,0,0,1-2.132-6.7c.011-3.5,1.732-6.745,3.4-9.879.309-.582.617-1.162.913-1.741a38.013,38.013,0,0,0,2.956-7.422c2.582-9.595.04-20.915-6.8-30.281-5.426-7.43-13.514-13.927-24.726-19.863l-.218.411c11.149,5.9,19.185,12.354,24.568,19.726,6.757,9.253,9.272,20.426,6.726,29.885a37.558,37.558,0,0,1-2.921,7.331c-.3.577-.6,1.155-.91,1.735-1.691,3.184-3.44,6.477-3.451,10.1A12.551,12.551,0,0,0,224.026,288.652Z" transform="translate(-171.497 -167.098)" fill="#3f3d56"/>
    <ellipse id="Ellipse_616" data-name="Ellipse 616" cx="4.421" cy="4.421" rx="4.421" ry="4.421" transform="translate(0 37.175)" fill="#3f3d56"/>
    <path id="Path_6220" data-name="Path 6220" d="M194.948,340.739l-27.755-2.313V297.719l27.755-1.388Z" transform="translate(-128.286 -247.074)" fill="#20cad1"/>
    <path id="Path_6221" data-name="Path 6221" d="M584.61,340.739l27.755-2.313V297.719l-27.755-1.388Z" transform="translate(-448.566 -247.074)" fill="#20cad1"/>
    <path id="Path_6222" data-name="Path 6222" d="M487.335,358.818a5.546,5.546,0,0,0-6.085-.774,8.212,8.212,0,0,1-2.7.773,15.633,15.633,0,0,1,1.1-5.938l.123-.317h-1.631l-.047.171a18.076,18.076,0,0,0-.429,2.03,5.26,5.26,0,0,0-.341-.862,7.463,7.463,0,0,0-3.9-3.235l-.225-.077-.072.227a7.465,7.465,0,0,0,.283,5.059,7.067,7.067,0,0,0,3.284,2.976A8.44,8.44,0,0,1,473.5,358a3.723,3.723,0,0,0-3.942.333,11.7,11.7,0,0,0-4.793,9.308,12.167,12.167,0,0,0,7.8,11.037,3.512,3.512,0,0,0,1.349.268,3.579,3.579,0,0,0,1.828-.5,4.833,4.833,0,0,1,4.842-.009,3.57,3.57,0,0,0,3.179.224,12.167,12.167,0,0,0,7.759-11.018A11.529,11.529,0,0,0,487.335,358.818Zm-8.841-5.79h.6a16.047,16.047,0,0,0-1.014,5.641h-.107a16.928,16.928,0,0,1,.522-5.641Zm-4.672,2.639a6.914,6.914,0,0,1-.319-4.468,5.81,5.81,0,0,1,3.722,7.38A6.915,6.915,0,0,1,473.822,355.667Zm9.763,22.561a3.1,3.1,0,0,1-2.762-.2,5.3,5.3,0,0,0-5.316.011,3.1,3.1,0,0,1-2.76.2,11.7,11.7,0,0,1-7.518-10.607,11.236,11.236,0,0,1,4.609-8.938,3.225,3.225,0,0,1,1.951-.652,3.261,3.261,0,0,1,1.5.362,9.607,9.607,0,0,0,8.172.049,5.08,5.08,0,0,1,5.575.71,11.07,11.07,0,0,1,4.028,8.469A11.7,11.7,0,0,1,483.585,378.229Z" transform="translate(-376.334 -292.753)" fill="#fff"/>
    <path id="Path_6223" data-name="Path 6223" d="M290.93,356.372v-.546h.217v-1.7a.688.688,0,0,0-.368-.614,3.311,3.311,0,0,0-3.068,0,.694.694,0,0,0-.4.628v1.686h.217v.495a3.793,3.793,0,0,0-2.769,3.667v3.683l.414.138-.414.276v1.107l.414.138-.414.276v1.107l.414.138-.414.276v8.429a2.483,2.483,0,0,0,2.48,2.48H290.9a2.477,2.477,0,0,0,2.474-2.474v-8.435l-.414-.276.414-.138V365.6l-.414-.276.414-.138v-1.107l-.414-.276.414-.138V359.8a3.641,3.641,0,0,0-2.443-3.425Zm-3.022-2.438a2.833,2.833,0,0,1,2.655-.011.227.227,0,0,1,.118.2v.911h-2.9v-.894A.227.227,0,0,1,287.909,353.934Zm5,9.4-1,.333,1,.665v.522l-1,.333,1,.665v.522l-1,.333,1,.666v8.186a2.011,2.011,0,0,1-2.009,2.009h-3.656a2.017,2.017,0,0,1-2.015-2.015v-8.18l1-.666-1-.333v-.522l1-.665-1-.333v-.522l1-.665-1-.333v-3.348a3.331,3.331,0,0,1,2.589-3.26l.18-.042v-.86h2.467v.891l.168.049a3.172,3.172,0,0,1,2.276,3.031Z" transform="translate(-238.222 -294.705)" fill="#fff"/>
    <path id="Path_6224" data-name="Path 6224" d="M701.993,379.2l-1.172-.234.276-.552-.537-.108.093-.559-.587-.1v-.53l-.476-.136.452-.565h-.784l.164-.409-.58-.1.2-.69h-.627v-.644h-.233c-.733,0-1.142.871-1.276,1.22-4.047.706-15.8,8.846-17.14,9.782a2.429,2.429,0,0,0-1.556.337l-.273.149.394.394-.117.352.723.271-.158.4.455.38-.409.307.616.37-.108.54.688.1v.54l.4.08-.2.7h.443v.552h.433l.2.588.2-.04c.468-.094.869-.741,1.026-1.029,3.9-.7,15.932-9.162,17.1-9.992a2.669,2.669,0,0,0,1.924-.245l.222-.178-.531-.443Zm-2.4.9-.091-.012-.075.053c-.133.094-13.331,9.445-17.093,9.982l-.121.017-.055.109a2.791,2.791,0,0,1-.576.787l-.152-.456h-.3v-.552h-.292l.169-.59-.52-.1v-.563l-.6-.086.076-.379-.3-.182.326-.245-.648-.54.209-.524-.748-.281.067-.2-.145-.145c.349-.145.772-.253.954-.145l.13.078.124-.087c.132-.093,13.24-9.261,17.185-9.8l.147-.02.044-.142a1.9,1.9,0,0,1,.648-.966v.579h.476l-.171.6.523.087-.2.51h.5l-.284.355.811.232v.573l.517.086-.091.545.382.076-.276.552.667.133-.344.229.494.412a3.719,3.719,0,0,1-1.362.022Z" transform="translate(-539.896 -311.16)" fill="#fff"/>
    <ellipse id="Ellipse_617" data-name="Ellipse 617" cx="6.749" cy="6.749" rx="6.749" ry="6.749" transform="translate(94.604 99.386)" fill="#20cad1"/>
    <path id="Path_6225" data-name="Path 6225" d="M425.775,526.07h-3.583v-3.583h-1.333v3.583h-3.583V527.4h3.583v3.583h1.333V527.4h3.583Z" transform="translate(-320.173 -420.601)" fill="#fff"/>
    <path id="Path_6226" data-name="Path 6226" d="M488.637,536.375l-3.491-1.629v.931H477v1.4h8.145V538Z" transform="translate(-365.999 -430.008)" fill="#fff"/>
    <path id="Path_6227" data-name="Path 6227" d="M344.072,536.375l3.491-1.629v.931h8.145v1.4h-8.145V538Z" transform="translate(-264.004 -430.008)" fill="#fff"/>
    <rect id="Rectangle_2553" data-name="Rectangle 2553" width="170.576" height="0.465" transform="translate(16.065 159.891)" fill="#3f3d56"/>
    <rect id="Rectangle_2554" data-name="Rectangle 2554" width="44.68" height="0.465" transform="translate(79.013 17.472)" fill="#fff"/>
    <rect id="Rectangle_2555" data-name="Rectangle 2555" width="44.68" height="0.465" transform="translate(79.121 144.532)" fill="#fff"/>
    <path id="Path_6228" data-name="Path 6228" d="M915.289,525.632l-1.164,4.421s-4.189,9.308,0,9.774,4.422-12.1,4.422-12.1Z" transform="translate(-719.696 -451.407)" fill="#fbbebe"/>
    <path id="Path_6229" data-name="Path 6229" d="M928.641,388.632l-8.378,33.045a20.442,20.442,0,0,1,4.887,2.094Z" transform="translate(-725.835 -346.288)" fill="#d0cde1"/>
    <path id="Path_6230" data-name="Path 6230" d="M949.1,496.611l2.327,36.07s5.585,14.2,5.352,27.693c0,0-2.094,5.352-.465,6.283s2.56,1.629,1.629,2.327-1.629,2.327-.931,2.793.931,1.164.7,1.164h-6.981s1.4-3.491-.7-4.422-.931-3.258-.931-3.258l-15.592-45.611-12.334,41.888s2.094,1.4.465,2.094-2.327-.7-1.629.7a2.166,2.166,0,0,1-.233,2.327c0,.233-6.981-.7-6.981-.7s3.491-3.025,1.862-3.723-2.327-1.4-1.862-1.862a44.086,44.086,0,0,0,2.327-4.887s.931-16.755,1.163-17.453,0-3.956,0-5.585-.233-8.145.465-9.774,1.4-21.642,5.12-23.969S949.1,496.611,949.1,496.611Z" transform="translate(-719.997 -429.134)" fill="#2f2e41"/>
    <path id="Path_6231" data-name="Path 6231" d="M881.636,790.884s4.654,9.541,1.4,10.7-7.447.233-8.378,1.629-11.17,3.025-11.4-.465,11.17-10.007,11.17-10.007l1.485-2.392Z" transform="translate(-682.088 -654.526)" fill="#2f2e41"/>
    <path id="Path_6232" data-name="Path 6232" d="M1043.636,820.884s4.654,9.541,1.4,10.7-7.447.233-8.378,1.629-11.17,3.025-11.4-.465,11.17-10.007,11.17-10.007l1.485-2.392Z" transform="translate(-806.389 -677.544)" fill="#2f2e41"/>
    <ellipse id="Ellipse_618" data-name="Ellipse 618" cx="7.679" cy="7.679" rx="7.679" ry="7.679" transform="translate(208.042 8.252)" fill="#fbbebe"/>
    <path id="Path_6233" data-name="Path 6233" d="M917.275,275.246l-.931,6.749-6.981,5.352-1.862-2.56v-8.843Z" transform="translate(-696.317 -255.243)" fill="#fbbebe"/>
    <path id="Path_6234" data-name="Path 6234" d="M957.339,323.494s7.214.7,10.937-1.862l7.447,43.982s-26.3,2.094-27.46.7v-13.73l4.654-22.34Z" transform="translate(-747.319 -294.88)" fill="#3f3d56"/>
    <path id="Path_6235" data-name="Path 6235" d="M1008.974,312.6l2.5,2.1s10.239,1.629,9.541,4.421l-2.793,33.045.931,11.17s-7.912-2.094-13.963,0-1.244-45.007-1.244-45.007S1009.5,313.285,1008.974,312.6Z" transform="translate(-788.657 -287.947)" fill="#d0cde1"/>
    <path id="Path_6236" data-name="Path 6236" d="M951.6,323.541s-7.447,5.373-8.378,8.864-3.956,40.259-3.956,40.259,1.4-.7,2.094.465S952.76,325.382,951.6,323.541Z" transform="translate(-740.413 -296.345)" fill="#d0cde1"/>
    <path id="Path_6237" data-name="Path 6237" d="M1047.951,527.261l-1.668,5.443s-.426,10.148-6.011,8.752,1.629-13.264,1.629-13.264l1.629-2.56Z" transform="translate(-816.289 -451.407)" fill="#fbbebe"/>
    <path id="Path_6238" data-name="Path 6238" d="M976.851,234.293a3.671,3.671,0,0,1-.512-2.59,7.853,7.853,0,0,0,.224-2.334,23.1,23.1,0,0,1,1.343-3.389c.671-1.215.352-1.727,2.462-2.11s1.247-3.134,6.811-.16a1.632,1.632,0,0,0,1.695.639c1.151-.224,1.567,1.375,1.567,1.375s.767-.448,1.055.192,2.34-.384,2.34,3.933a17.873,17.873,0,0,1-2.335,8.172s.171-7.261-3.634-8-7.9-2.878-8.889-.128A20.96,20.96,0,0,1,976.851,234.293Z" transform="translate(-768.805 -218.697)" fill="#2f2e41"/>
    <ellipse id="Ellipse_619" data-name="Ellipse 619" cx="0.751" cy="1.001" rx="0.751" ry="1.001" transform="translate(222.028 15.321)" fill="#a0616a"/>
    <path id="Path_6239" data-name="Path 6239" d="M1059.15,333.472s3.723-.931,4.887,5.352,2.56,24.2,2.56,24.2l-5.585,18.85s-5.585-3.025-6.749-2.56l4.395-16.364-3.7-16.68S1058.219,333.472,1059.15,333.472Z" transform="translate(-828.652 -303.927)" fill="#d0cde1"/>
    <path id="Path_6240" data-name="Path 6240" d="M967.237,372.614l4.887,16.29-4.887,16.522L970.03,388.9Z" transform="translate(-742.152 -329.952)" opacity="0.15"/>
  </g>
</svg>
