<svg xmlns="http://www.w3.org/2000/svg" width="25.38" height="14.652" viewBox="0 0 25.38 14.652">
  <g id="Group_2599" data-name="Group 2599" transform="translate(-35.999 -223)">
    <path id="Path_3967" data-name="Path 3967" d="M1034.974,303.479a6.216,6.216,0,0,0-4.006-4.943,4.154,4.154,0,0,0,1.966-3.576c0-.031,0-.061,0-.091a4.207,4.207,0,0,0-4.3-4.115,4.165,4.165,0,0,0-1.562.341,1.626,1.626,0,0,0-.164.079.773.773,0,0,0,.52,1.418,8.44,8.44,0,0,1,1.391-.305h0a2.644,2.644,0,0,1,2.615,2.672v.059a2.664,2.664,0,0,1-1.929,2.5,1.1,1.1,0,0,0,.027,2.186s3.727.328,3.966,4.018a.721.721,0,0,0,.734.64.848.848,0,0,0,.1-.009A.766.766,0,0,0,1034.974,303.479Z" transform="translate(-973.604 -67.504)" fill="#20cad1"/>
    <path id="Path_3968" data-name="Path 3968" d="M1005.559,303.479a6.216,6.216,0,0,1,4.006-4.943,4.153,4.153,0,0,1-1.966-3.576c0-.031,0-.061,0-.091a4.2,4.2,0,0,1,5.862-3.773,1.607,1.607,0,0,1,.164.079.773.773,0,0,1-.52,1.418,8.455,8.455,0,0,0-1.391-.305h0a2.643,2.643,0,0,0-2.615,2.672v.059a2.664,2.664,0,0,0,1.929,2.5A1.1,1.1,0,0,1,1011,299.7s-3.727.328-3.966,4.018a.722.722,0,0,1-.734.64.83.83,0,0,1-.1-.009A.766.766,0,0,1,1005.559,303.479Z" transform="translate(-969.551 -67.504)" fill="#20cad1"/>
    <g id="user-profile" transform="translate(42.043 223)">
      <path id="Path_17" data-name="Path 17" d="M1025.523,307h0a.8.8,0,0,1-.791-.689,5.1,5.1,0,0,0-10.087,0,.8.8,0,0,1-.791.689h0a.828.828,0,0,1-.807-.949,6.705,6.705,0,0,1,13.276,0,.824.824,0,0,1-.691.94A.8.8,0,0,1,1025.523,307Z" transform="translate(-1013.038 -292.344)" fill="#20cad1"/>
      <path id="Path_18" data-name="Path 18" d="M1020.178,299.5a4.531,4.531,0,1,1,4.431-4.629c0,.033,0,.065,0,.1a4.48,4.48,0,0,1-4.431,4.53Zm0-7.409a2.88,2.88,0,1,0,2.816,2.941v-.063a2.847,2.847,0,0,0-2.816-2.878h0Z" transform="translate(-1013.523 -290.444)" fill="#20cad1"/>
    </g>
  </g>
</svg>
