<svg xmlns="http://www.w3.org/2000/svg" xmlns:xlink="http://www.w3.org/1999/xlink" width="43" height="43" viewBox="0 0 43 43">
  <defs>
    <clipPath id="clip-path">
      <rect id="Rectangle_3456" data-name="Rectangle 3456" width="22.704" height="18.13" transform="translate(0 0)" fill="#20cad1"/>
    </clipPath>
  </defs>
  <g id="Group_8488" data-name="Group 8488" transform="translate(-404 -432)">
    <rect id="Rectangle_2613" data-name="Rectangle 2613" width="43" height="43" rx="12" transform="translate(404 432)" fill="#effbfc"/>
    <g id="Group_8516" data-name="Group 8516" transform="translate(414.148 444.435)">
      <g id="Group_8515" data-name="Group 8515" clip-path="url(#clip-path)">
        <path id="Path_6791" data-name="Path 6791" d="M1,14.756a1,1,0,0,0,.67-.258L8.558,8.269l2.449,3.47,6.1-5.618,1.926,1.993a1,1,0,0,0,1.7-.5L22.009,1.2A1,1,0,0,0,20.867.014l-6.458,1.06a1,1,0,0,0-.557,1.682l1.863,1.927L11.328,8.724,8.891,5.271.33,13.014A1,1,0,0,0,1,14.756" fill="#20cad1"/>
        <path id="Path_6792" data-name="Path 6792" d="M21.7,16.13H1a1,1,0,0,0,0,2H21.7a1,1,0,0,0,0-2" fill="#20cad1"/>
      </g>
    </g>
  </g>
</svg>
