<svg xmlns="http://www.w3.org/2000/svg" width="24.873" height="33.19" viewBox="0 0 24.873 33.19">
  <g id="Group_8340" data-name="Group 8340" transform="translate(-643.663 -17.596)">
    <path id="Path_6650" data-name="Path 6650" d="M666.205,50.785h-20.2a.269.269,0,0,0-.079-.049,2.863,2.863,0,0,1-2.261-2.933q.032-13.59,0-27.18A2.919,2.919,0,0,1,646.7,17.6c4.66.044,9.322.019,13.982.008a1.233,1.233,0,0,1,.945.392q3.151,3.169,6.312,6.327c.211.212.4.448.6.673V48.453a1.465,1.465,0,0,0-.066.174,2.52,2.52,0,0,1-1.031,1.578A9.226,9.226,0,0,1,666.205,50.785ZM660.25,19.014c-.14-.006-.236-.014-.332-.014q-6.634,0-13.269,0a1.4,1.4,0,0,0-1.585,1.6q0,13.6,0,27.209a1.4,1.4,0,0,0,1.592,1.59q9.45,0,18.9,0a2.263,2.263,0,0,0,.637-.077c.647-.193.953-.7.953-1.545q0-10.754,0-21.508V25.9h-.4q-1.845,0-3.689,0a2.776,2.776,0,0,1-2.8-2.843Zm5.744,5.471-4.325-4.326c0,1.035-.028,2.142.012,3.248a1.193,1.193,0,0,0,1.094,1.068C663.869,24.509,664.965,24.485,665.995,24.485Z" transform="translate(0 0)" fill="#e2645f"/>
    <path id="Path_6651" data-name="Path 6651" d="M716.894,192.308c-.169.645-.39,1.276-.565,1.92a.5.5,0,0,0,.081.394,16.926,16.926,0,0,0,2.693,2.606.687.687,0,0,0,.457.117,10.074,10.074,0,0,1,2.766-.138,3.63,3.63,0,0,1,.719.171,1.457,1.457,0,0,1,1.006,1.734,1.688,1.688,0,0,1-1.495,1.467,2.709,2.709,0,0,1-1.993-.572c-.476-.294-.932-.624-1.383-.955a.554.554,0,0,0-.529-.117c-1.388.382-2.782.742-4.168,1.132a.768.768,0,0,0-.412.354,11.013,11.013,0,0,1-2.655,3.471,5.442,5.442,0,0,1-1.121.689,2.068,2.068,0,0,1-2.217-.315,1.522,1.522,0,0,1,.073-2.479,9.4,9.4,0,0,1,1.648-1.068c1.029-.539,2.092-1.015,3.132-1.533a.712.712,0,0,0,.332-.35q.7-1.959,1.365-3.934a.543.543,0,0,0-.089-.371c-.412-.73-.9-1.425-1.24-2.185a3.738,3.738,0,0,1,0-2.991,1.778,1.778,0,0,1,1.849-1.183c1.411.02,1.842.8,1.977,2.1a4.746,4.746,0,0,1,0,.485A9.476,9.476,0,0,1,716.894,192.308Zm-1.668.753a6.6,6.6,0,0,0,.5-2.949c-.074-.42-.216-.57-.637-.556-.346.012-.515.194-.613.63A3.6,3.6,0,0,0,715.226,193.062Zm2.089,4.716-1.578-1.765-.792,2.388Zm-5.421,3.546-.078-.1c-.826.454-1.654.9-2.476,1.365a1.624,1.624,0,0,0-.334.3c-.17.175-.116.3.1.387a.925.925,0,0,0,.838-.035A6.431,6.431,0,0,0,711.894,201.324Zm9.117-2.792-.029.1a6.079,6.079,0,0,0,.62.385,2.195,2.195,0,0,0,.632.193c.194.027.4-.015.422-.28s-.189-.29-.366-.307C721.865,198.578,721.438,198.56,721.011,198.533Z" transform="translate(-59.669 -159.504)" fill="#e2645f"/>
  </g>
</svg>
