<svg xmlns="http://www.w3.org/2000/svg" width="146" height="146" viewBox="0 0 146 146">
  <g id="Group_8226" data-name="Group 8226" transform="translate(-477 -342)">
    <rect id="julian-wan-WNoLnJo7tS8-unsplash" width="146" height="146" rx="73" transform="translate(477 342)" fill="#f0f5f5"/>
    <path id="Path_5854" data-name="Path 5854" d="M127.355,121.46a15.978,15.978,0,0,0-6.63-3.062l-11.8-2.368a2.661,2.661,0,0,1-2.131-2.637v-2.707a32.333,32.333,0,0,0,2.222-3.961,21.745,21.745,0,0,1,1.894-3.32c2.389-2.4,4.7-5.1,5.413-8.572.667-3.261.011-4.972-.759-6.35a47.666,47.666,0,0,0-.92-10.875c-.1-4.24-.866-6.624-2.8-8.712-1.367-1.48-3.379-1.824-5-2.1a8.735,8.735,0,0,1-1.835-.431A18.99,18.99,0,0,0,95.918,64c-7.087.291-15.8,4.8-18.716,12.839-.9,2.448-.813,6.468-.737,9.7l-.07,1.943a8.619,8.619,0,0,0-.7,6.35c.71,3.482,3.019,6.183,5.451,8.615a23.62,23.62,0,0,1,1.889,3.3,33.45,33.45,0,0,0,2.239,3.944V113.4a2.674,2.674,0,0,1-2.142,2.637L71.316,118.4a16.013,16.013,0,0,0-6.608,3.056,2.7,2.7,0,0,0-.317,3.917,42.841,42.841,0,0,0,63.282,0,2.7,2.7,0,0,0-.317-3.917Z" transform="translate(454.221 312.799)" fill="#c4d3d3"/>
  </g>
</svg>
