<svg xmlns="http://www.w3.org/2000/svg" width="29.083" height="28.158" viewBox="0 0 29.083 28.158">
  <g id="Group_1796" data-name="Group 1796" transform="translate(-138.828 -32.578)">
    <line id="Line_5" data-name="Line 5" x2="8.773" y2="7.849" transform="translate(157.019 50.769)" fill="none" stroke="#20cad1" stroke-linecap="round" stroke-width="3"/>
    <g id="Path_5590" data-name="Path 5590" transform="translate(143.07 46.41) rotate(-45)" fill="#fff">
      <path d="M 6.780952453613281 15.06190204620361 C 2.21482253074646 15.06190204620361 -1.499997496604919 11.34708213806152 -1.499997496604919 6.780952453613281 C -1.499997496604919 2.21482253074646 2.21482253074646 -1.499997496604919 6.780952453613281 -1.499997496604919 C 11.34708213806152 -1.499997496604919 15.06190204620361 2.21482253074646 15.06190204620361 6.780952453613281 C 15.06190204620361 11.34708213806152 11.34708213806152 15.06190204620361 6.780952453613281 15.06190204620361 Z" stroke="none"/>
      <path d="M 6.780952453613281 2.86102294921875e-06 C 3.035932540893555 2.86102294921875e-06 2.86102294921875e-06 3.035932540893555 2.86102294921875e-06 6.780952453613281 C 2.86102294921875e-06 10.52597236633301 3.035932540893555 13.56190204620361 6.780952453613281 13.56190204620361 C 10.52597236633301 13.56190204620361 13.56190204620361 10.52597236633301 13.56190204620361 6.780952453613281 C 13.56190204620361 3.035932540893555 10.52597236633301 2.86102294921875e-06 6.780952453613281 2.86102294921875e-06 M 6.780952453613281 -2.999998092651367 C 12.1741828918457 -2.999998092651367 16.56190299987793 1.387722015380859 16.56190299987793 6.780952453613281 C 16.56190299987793 12.1741828918457 12.1741828918457 16.56190299987793 6.780952453613281 16.56190299987793 C 1.387722015380859 16.56190299987793 -2.999998092651367 12.1741828918457 -2.999998092651367 6.780952453613281 C -2.999998092651367 1.387722015380859 1.387722015380859 -2.999998092651367 6.780952453613281 -2.999998092651367 Z" stroke="none" fill="#20cad1"/>
    </g>
  </g>
</svg>
