<svg xmlns="http://www.w3.org/2000/svg" width="18.366" height="17.65" viewBox="0 0 18.366 17.65">
  <path id="fav" d="M16.346,6.341a.99.99,0,0,0-.836-1.114l-4.464-.645-2-4.046A.886.886,0,0,0,8.613.1a1.044,1.044,0,0,0-.44-.1.973.973,0,0,0-.865.542L5.3,4.6.836,5.248a.851.851,0,0,0-.557.279A.965.965,0,0,0,.293,6.9l3.233,3.145-.762,4.449a.954.954,0,0,0,.1.623.992.992,0,0,0,.872.528.96.96,0,0,0,.447-.11l3.995-2.1,3.995,2.118a1.059,1.059,0,0,0,.454.1c.066,0,.125-.015.176-.015a.975.975,0,0,0,.8-1.129l-.762-4.449L16.075,6.9A1.108,1.108,0,0,0,16.346,6.341Z" transform="translate(1 1)" fill="none" stroke="#20cad1" stroke-linecap="round" stroke-linejoin="round" stroke-width="2"/>
</svg>
