<svg xmlns="http://www.w3.org/2000/svg" width="22.108" height="22.108" viewBox="0 0 22.108 22.108">
  <g id="help-lifeguard-symbol" transform="translate(0.15 0.15)">
    <path id="Path_5853" data-name="Path 5853" d="M18.64,3.22a10.9,10.9,0,1,0-.052,15.421A10.9,10.9,0,0,0,18.64,3.22Zm-3.013-.506-2.313,2.3a6.387,6.387,0,0,0-4.781-.017l-2.3-2.313A9.487,9.487,0,0,1,15.627,2.714ZM5,13.274l-2.313,2.3a9.482,9.482,0,0,1,.033-9.39l2.3,2.313A6.382,6.382,0,0,0,5,13.274Zm1.185,5.82,2.313-2.3a6.385,6.385,0,0,0,4.78.016l2.3,2.313A9.487,9.487,0,0,1,6.181,19.094Zm8.193-4.7A4.925,4.925,0,1,1,14.4,7.433,4.931,4.931,0,0,1,14.373,14.4Zm2.421-1.084a6.384,6.384,0,0,0,.017-4.781l2.313-2.3a9.484,9.484,0,0,1-.033,9.39Z" transform="translate(0)" fill="#20cad1" stroke="#20cad1" stroke-width="0.3"/>
  </g>
</svg>
