<svg xmlns="http://www.w3.org/2000/svg" width="17.4" height="17.332" viewBox="0 0 17.4 17.332">
  <g id="invoice-4" transform="translate(0.2 -1.332)">
    <g id="Group_2639" data-name="Group 2639" transform="translate(2.875 17.213)">
      <g id="Group_2638" data-name="Group 2638">
        <rect id="Rectangle_2562" data-name="Rectangle 2562" width="11" height="1.25" fill="#20cad1" stroke="#20cad1" stroke-width="0.4"/>
      </g>
    </g>
    <g id="Group_2641" data-name="Group 2641" transform="translate(5.875 7.151)">
      <g id="Group_2640" data-name="Group 2640">
        <path id="Path_6195" data-name="Path 6195" d="M181.42,169.726h-3.854a.625.625,0,1,0,0,1.25h3.854a.625.625,0,1,0,0-1.25Z" transform="translate(-176.941 -169.726)" fill="#20cad1" stroke="#20cad1" stroke-width="0.4"/>
      </g>
    </g>
    <g id="Group_2643" data-name="Group 2643" transform="translate(5.875 10.068)">
      <g id="Group_2642" data-name="Group 2642">
        <path id="Path_6196" data-name="Path 6196" d="M184.337,257.569h-6.771a.625.625,0,1,0,0,1.25h6.771a.625.625,0,0,0,0-1.25Z" transform="translate(-176.941 -257.569)" fill="#20cad1" stroke="#20cad1" stroke-width="0.4"/>
      </g>
    </g>
    <g id="Group_2645" data-name="Group 2645" transform="translate(0 1.568)">
      <g id="Group_2644" data-name="Group 2644">
        <path id="Path_6197" data-name="Path 6197" d="M16.632,1.644a.626.626,0,0,0-.671.1l-1.75,1.548L12.458,1.727a.625.625,0,0,0-.833,0L9.875,3.292,8.125,1.727a.625.625,0,0,0-.833,0L5.539,3.294,3.789,1.745a.625.625,0,0,0-1.039.468V13.338H.625A.625.625,0,0,0,0,13.963v1.521a2.983,2.983,0,0,0,2.979,2.979v-1.25A1.731,1.731,0,0,1,1.25,15.484v-.9h9.792v.9a2.979,2.979,0,1,0,5.958,0V2.213A.625.625,0,0,0,16.632,1.644ZM15.75,15.484a1.729,1.729,0,1,1-3.458,0V13.963a.625.625,0,0,0-.625-.625H4V3.6l1.128,1a.625.625,0,0,0,.831,0l1.75-1.565L9.458,4.6a.625.625,0,0,0,.833,0l1.75-1.565L13.792,4.6a.625.625,0,0,0,.831,0l1.128-1Z" transform="translate(0 -1.568)" fill="#20cad1" stroke="#20cad1" stroke-width="0.4"/>
      </g>
    </g>
  </g>
</svg>
