<svg xmlns="http://www.w3.org/2000/svg" width="20.757" height="21.566" viewBox="0 0 20.757 21.566">
  <path id="Path_6561" data-name="Path 6561" d="M415.83,74.567a.886.886,0,0,1,.625.971c-.016,1.432,0,2.865-.006,4.3a.842.842,0,0,1-.706.968c-1.446.482-2.892.967-4.34,1.445a1.282,1.282,0,0,1-.455.081.759.759,0,0,1-.7-.635.75.75,0,0,1,.48-.849c.476-.177.962-.329,1.444-.49q.982-.33,1.968-.657a.432.432,0,0,0,.063-.04c-.261-.247-.5-.5-.772-.725a8.408,8.408,0,0,0-5.8-2.026,8.546,8.546,0,1,0,8.347,11.359,8.386,8.386,0,0,0,.366-4.194.783.783,0,0,1,.616-.947.773.773,0,0,1,.915.705,9.991,9.991,0,0,1-5.84,10.754,9.64,9.64,0,0,1-3.22.812c-.066.006-.132.024-.2.036h-1.222a1.962,1.962,0,0,0-.2-.036,9.715,9.715,0,0,1-3.643-1.009,10,10,0,0,1,4.221-18.957A9.848,9.848,0,0,1,413.96,77.4c.313.232.608.489.936.754v-.221c0-.787.014-1.575-.006-2.362a.915.915,0,0,1,.614-1Z" transform="translate(-397.599 -74.217)" fill="#20cad1" stroke="#20cad1" stroke-width="0.7"/>
</svg>
